# vtk DataFile Version 3.0
OpenCFD-EC output
ASCII
DATASET STRUCTURED_GRID
DIMENSIONS     21    11     2
POINTS          462 double
    0.000000000000000E+00    0.000000000000000E+00    0.000000000000000E+00
    4.000000000000000E-01    0.000000000000000E+00    0.000000000000000E+00
    8.000000000000000E-01    0.000000000000000E+00    0.000000000000000E+00
    1.200000000000000E+00    0.000000000000000E+00    0.000000000000000E+00
    1.600000000000000E+00    0.000000000000000E+00    0.000000000000000E+00
    2.000000000000000E+00    0.000000000000000E+00    0.000000000000000E+00
    2.400000000000000E+00    0.000000000000000E+00    0.000000000000000E+00
    2.800000000000000E+00    0.000000000000000E+00    0.000000000000000E+00
    3.200000000000000E+00    0.000000000000000E+00    0.000000000000000E+00
    3.600000000000000E+00    0.000000000000000E+00    0.000000000000000E+00
    4.000000000000000E+00    0.000000000000000E+00    0.000000000000000E+00
    4.400000000000000E+00    0.000000000000000E+00    0.000000000000000E+00
    4.800000000000000E+00    0.000000000000000E+00    0.000000000000000E+00
    5.200000000000000E+00    0.000000000000000E+00    0.000000000000000E+00
    5.600000000000000E+00    0.000000000000000E+00    0.000000000000000E+00
    6.000000000000000E+00    0.000000000000000E+00    0.000000000000000E+00
    6.400000000000000E+00    0.000000000000000E+00    0.000000000000000E+00
    6.800000000000000E+00    0.000000000000000E+00    0.000000000000000E+00
    7.200000000000000E+00    0.000000000000000E+00    0.000000000000000E+00
    7.600000000000000E+00    0.000000000000000E+00    0.000000000000000E+00
    8.000000000000000E+00    0.000000000000000E+00    0.000000000000000E+00
    0.000000000000000E+00    1.000000000000000E-01    0.000000000000000E+00
    4.000000000000000E-01    1.000000000000000E-01    0.000000000000000E+00
    8.000000000000000E-01    1.000000000000000E-01    0.000000000000000E+00
    1.200000000000000E+00    1.000000000000000E-01    0.000000000000000E+00
    1.600000000000000E+00    1.000000000000000E-01    0.000000000000000E+00
    2.000000000000000E+00    1.000000000000000E-01    0.000000000000000E+00
    2.400000000000000E+00    1.000000000000000E-01    0.000000000000000E+00
    2.800000000000000E+00    1.000000000000000E-01    0.000000000000000E+00
    3.200000000000000E+00    1.000000000000000E-01    0.000000000000000E+00
    3.600000000000000E+00    1.000000000000000E-01    0.000000000000000E+00
    4.000000000000000E+00    1.000000000000000E-01    0.000000000000000E+00
    4.400000000000000E+00    1.000000000000000E-01    0.000000000000000E+00
    4.800000000000000E+00    1.000000000000000E-01    0.000000000000000E+00
    5.200000000000000E+00    1.000000000000000E-01    0.000000000000000E+00
    5.600000000000000E+00    1.000000000000000E-01    0.000000000000000E+00
    6.000000000000000E+00    1.000000000000000E-01    0.000000000000000E+00
    6.400000000000000E+00    1.000000000000000E-01    0.000000000000000E+00
    6.800000000000000E+00    1.000000000000000E-01    0.000000000000000E+00
    7.200000000000000E+00    1.000000000000000E-01    0.000000000000000E+00
    7.600000000000000E+00    1.000000000000000E-01    0.000000000000000E+00
    8.000000000000000E+00    1.000000000000000E-01    0.000000000000000E+00
    0.000000000000000E+00    2.000000000000000E-01    0.000000000000000E+00
    4.000000000000000E-01    2.000000000000000E-01    0.000000000000000E+00
    8.000000000000000E-01    2.000000000000000E-01    0.000000000000000E+00
    1.200000000000000E+00    2.000000000000000E-01    0.000000000000000E+00
    1.600000000000000E+00    2.000000000000000E-01    0.000000000000000E+00
    2.000000000000000E+00    2.000000000000000E-01    0.000000000000000E+00
    2.400000000000000E+00    2.000000000000000E-01    0.000000000000000E+00
    2.800000000000000E+00    2.000000000000000E-01    0.000000000000000E+00
    3.200000000000000E+00    2.000000000000000E-01    0.000000000000000E+00
    3.600000000000000E+00    2.000000000000000E-01    0.000000000000000E+00
    4.000000000000000E+00    2.000000000000000E-01    0.000000000000000E+00
    4.400000000000000E+00    2.000000000000000E-01    0.000000000000000E+00
    4.800000000000000E+00    2.000000000000000E-01    0.000000000000000E+00
    5.200000000000000E+00    2.000000000000000E-01    0.000000000000000E+00
    5.600000000000000E+00    2.000000000000000E-01    0.000000000000000E+00
    6.000000000000000E+00    2.000000000000000E-01    0.000000000000000E+00
    6.400000000000000E+00    2.000000000000000E-01    0.000000000000000E+00
    6.800000000000000E+00    2.000000000000000E-01    0.000000000000000E+00
    7.200000000000000E+00    2.000000000000000E-01    0.000000000000000E+00
    7.600000000000000E+00    2.000000000000000E-01    0.000000000000000E+00
    8.000000000000000E+00    2.000000000000000E-01    0.000000000000000E+00
    0.000000000000000E+00    3.000000000000000E-01    0.000000000000000E+00
    4.000000000000000E-01    3.000000000000000E-01    0.000000000000000E+00
    8.000000000000000E-01    3.000000000000000E-01    0.000000000000000E+00
    1.200000000000000E+00    3.000000000000000E-01    0.000000000000000E+00
    1.600000000000000E+00    3.000000000000000E-01    0.000000000000000E+00
    2.000000000000000E+00    3.000000000000000E-01    0.000000000000000E+00
    2.400000000000000E+00    3.000000000000000E-01    0.000000000000000E+00
    2.800000000000000E+00    3.000000000000000E-01    0.000000000000000E+00
    3.200000000000000E+00    3.000000000000000E-01    0.000000000000000E+00
    3.600000000000000E+00    3.000000000000000E-01    0.000000000000000E+00
    4.000000000000000E+00    3.000000000000000E-01    0.000000000000000E+00
    4.400000000000000E+00    3.000000000000000E-01    0.000000000000000E+00
    4.800000000000000E+00    3.000000000000000E-01    0.000000000000000E+00
    5.200000000000000E+00    3.000000000000000E-01    0.000000000000000E+00
    5.600000000000000E+00    3.000000000000000E-01    0.000000000000000E+00
    6.000000000000000E+00    3.000000000000000E-01    0.000000000000000E+00
    6.400000000000000E+00    3.000000000000000E-01    0.000000000000000E+00
    6.800000000000000E+00    3.000000000000000E-01    0.000000000000000E+00
    7.200000000000000E+00    3.000000000000000E-01    0.000000000000000E+00
    7.600000000000000E+00    3.000000000000000E-01    0.000000000000000E+00
    8.000000000000000E+00    3.000000000000000E-01    0.000000000000000E+00
    0.000000000000000E+00    4.000000000000000E-01    0.000000000000000E+00
    4.000000000000000E-01    4.000000000000000E-01    0.000000000000000E+00
    8.000000000000000E-01    4.000000000000000E-01    0.000000000000000E+00
    1.200000000000000E+00    4.000000000000000E-01    0.000000000000000E+00
    1.600000000000000E+00    4.000000000000000E-01    0.000000000000000E+00
    2.000000000000000E+00    4.000000000000000E-01    0.000000000000000E+00
    2.400000000000000E+00    4.000000000000000E-01    0.000000000000000E+00
    2.800000000000000E+00    4.000000000000000E-01    0.000000000000000E+00
    3.200000000000000E+00    4.000000000000000E-01    0.000000000000000E+00
    3.600000000000000E+00    4.000000000000000E-01    0.000000000000000E+00
    4.000000000000000E+00    4.000000000000000E-01    0.000000000000000E+00
    4.400000000000000E+00    4.000000000000000E-01    0.000000000000000E+00
    4.800000000000000E+00    4.000000000000000E-01    0.000000000000000E+00
    5.200000000000000E+00    4.000000000000000E-01    0.000000000000000E+00
    5.600000000000000E+00    4.000000000000000E-01    0.000000000000000E+00
    6.000000000000000E+00    4.000000000000000E-01    0.000000000000000E+00
    6.400000000000000E+00    4.000000000000000E-01    0.000000000000000E+00
    6.800000000000000E+00    4.000000000000000E-01    0.000000000000000E+00
    7.200000000000000E+00    4.000000000000000E-01    0.000000000000000E+00
    7.600000000000000E+00    4.000000000000000E-01    0.000000000000000E+00
    8.000000000000000E+00    4.000000000000000E-01    0.000000000000000E+00
    0.000000000000000E+00    5.000000000000000E-01    0.000000000000000E+00
    4.000000000000000E-01    5.000000000000000E-01    0.000000000000000E+00
    8.000000000000000E-01    5.000000000000000E-01    0.000000000000000E+00
    1.200000000000000E+00    5.000000000000000E-01    0.000000000000000E+00
    1.600000000000000E+00    5.000000000000000E-01    0.000000000000000E+00
    2.000000000000000E+00    5.000000000000000E-01    0.000000000000000E+00
    2.400000000000000E+00    5.000000000000000E-01    0.000000000000000E+00
    2.800000000000000E+00    5.000000000000000E-01    0.000000000000000E+00
    3.200000000000000E+00    5.000000000000000E-01    0.000000000000000E+00
    3.600000000000000E+00    5.000000000000000E-01    0.000000000000000E+00
    4.000000000000000E+00    5.000000000000000E-01    0.000000000000000E+00
    4.400000000000000E+00    5.000000000000000E-01    0.000000000000000E+00
    4.800000000000000E+00    5.000000000000000E-01    0.000000000000000E+00
    5.200000000000000E+00    5.000000000000000E-01    0.000000000000000E+00
    5.600000000000000E+00    5.000000000000000E-01    0.000000000000000E+00
    6.000000000000000E+00    5.000000000000000E-01    0.000000000000000E+00
    6.400000000000000E+00    5.000000000000000E-01    0.000000000000000E+00
    6.800000000000000E+00    5.000000000000000E-01    0.000000000000000E+00
    7.200000000000000E+00    5.000000000000000E-01    0.000000000000000E+00
    7.600000000000000E+00    5.000000000000000E-01    0.000000000000000E+00
    8.000000000000000E+00    5.000000000000000E-01    0.000000000000000E+00
    0.000000000000000E+00    6.000000000000000E-01    0.000000000000000E+00
    4.000000000000000E-01    6.000000000000000E-01    0.000000000000000E+00
    8.000000000000000E-01    6.000000000000000E-01    0.000000000000000E+00
    1.200000000000000E+00    6.000000000000000E-01    0.000000000000000E+00
    1.600000000000000E+00    6.000000000000000E-01    0.000000000000000E+00
    2.000000000000000E+00    6.000000000000000E-01    0.000000000000000E+00
    2.400000000000000E+00    6.000000000000000E-01    0.000000000000000E+00
    2.800000000000000E+00    6.000000000000000E-01    0.000000000000000E+00
    3.200000000000000E+00    6.000000000000000E-01    0.000000000000000E+00
    3.600000000000000E+00    6.000000000000000E-01    0.000000000000000E+00
    4.000000000000000E+00    6.000000000000000E-01    0.000000000000000E+00
    4.400000000000000E+00    6.000000000000000E-01    0.000000000000000E+00
    4.800000000000000E+00    6.000000000000000E-01    0.000000000000000E+00
    5.200000000000000E+00    6.000000000000000E-01    0.000000000000000E+00
    5.600000000000000E+00    6.000000000000000E-01    0.000000000000000E+00
    6.000000000000000E+00    6.000000000000000E-01    0.000000000000000E+00
    6.400000000000000E+00    6.000000000000000E-01    0.000000000000000E+00
    6.800000000000000E+00    6.000000000000000E-01    0.000000000000000E+00
    7.200000000000000E+00    6.000000000000000E-01    0.000000000000000E+00
    7.600000000000000E+00    6.000000000000000E-01    0.000000000000000E+00
    8.000000000000000E+00    6.000000000000000E-01    0.000000000000000E+00
    0.000000000000000E+00    7.000000000000000E-01    0.000000000000000E+00
    4.000000000000000E-01    7.000000000000000E-01    0.000000000000000E+00
    8.000000000000000E-01    7.000000000000000E-01    0.000000000000000E+00
    1.200000000000000E+00    7.000000000000000E-01    0.000000000000000E+00
    1.600000000000000E+00    7.000000000000000E-01    0.000000000000000E+00
    2.000000000000000E+00    7.000000000000000E-01    0.000000000000000E+00
    2.400000000000000E+00    7.000000000000000E-01    0.000000000000000E+00
    2.800000000000000E+00    7.000000000000000E-01    0.000000000000000E+00
    3.200000000000000E+00    7.000000000000000E-01    0.000000000000000E+00
    3.600000000000000E+00    7.000000000000000E-01    0.000000000000000E+00
    4.000000000000000E+00    7.000000000000000E-01    0.000000000000000E+00
    4.400000000000000E+00    7.000000000000000E-01    0.000000000000000E+00
    4.800000000000000E+00    7.000000000000000E-01    0.000000000000000E+00
    5.200000000000000E+00    7.000000000000000E-01    0.000000000000000E+00
    5.600000000000000E+00    7.000000000000000E-01    0.000000000000000E+00
    6.000000000000000E+00    7.000000000000000E-01    0.000000000000000E+00
    6.400000000000000E+00    7.000000000000000E-01    0.000000000000000E+00
    6.800000000000000E+00    7.000000000000000E-01    0.000000000000000E+00
    7.200000000000000E+00    7.000000000000000E-01    0.000000000000000E+00
    7.600000000000000E+00    7.000000000000000E-01    0.000000000000000E+00
    8.000000000000000E+00    7.000000000000000E-01    0.000000000000000E+00
    0.000000000000000E+00    8.000000000000000E-01    0.000000000000000E+00
    4.000000000000000E-01    8.000000000000000E-01    0.000000000000000E+00
    8.000000000000000E-01    8.000000000000000E-01    0.000000000000000E+00
    1.200000000000000E+00    8.000000000000000E-01    0.000000000000000E+00
    1.600000000000000E+00    8.000000000000000E-01    0.000000000000000E+00
    2.000000000000000E+00    8.000000000000000E-01    0.000000000000000E+00
    2.400000000000000E+00    8.000000000000000E-01    0.000000000000000E+00
    2.800000000000000E+00    8.000000000000000E-01    0.000000000000000E+00
    3.200000000000000E+00    8.000000000000000E-01    0.000000000000000E+00
    3.600000000000000E+00    8.000000000000000E-01    0.000000000000000E+00
    4.000000000000000E+00    8.000000000000000E-01    0.000000000000000E+00
    4.400000000000000E+00    8.000000000000000E-01    0.000000000000000E+00
    4.800000000000000E+00    8.000000000000000E-01    0.000000000000000E+00
    5.200000000000000E+00    8.000000000000000E-01    0.000000000000000E+00
    5.600000000000000E+00    8.000000000000000E-01    0.000000000000000E+00
    6.000000000000000E+00    8.000000000000000E-01    0.000000000000000E+00
    6.400000000000000E+00    8.000000000000000E-01    0.000000000000000E+00
    6.800000000000000E+00    8.000000000000000E-01    0.000000000000000E+00
    7.200000000000000E+00    8.000000000000000E-01    0.000000000000000E+00
    7.600000000000000E+00    8.000000000000000E-01    0.000000000000000E+00
    8.000000000000000E+00    8.000000000000000E-01    0.000000000000000E+00
    0.000000000000000E+00    9.000000000000000E-01    0.000000000000000E+00
    4.000000000000000E-01    9.000000000000000E-01    0.000000000000000E+00
    8.000000000000000E-01    9.000000000000000E-01    0.000000000000000E+00
    1.200000000000000E+00    9.000000000000000E-01    0.000000000000000E+00
    1.600000000000000E+00    9.000000000000000E-01    0.000000000000000E+00
    2.000000000000000E+00    9.000000000000000E-01    0.000000000000000E+00
    2.400000000000000E+00    9.000000000000000E-01    0.000000000000000E+00
    2.800000000000000E+00    9.000000000000000E-01    0.000000000000000E+00
    3.200000000000000E+00    9.000000000000000E-01    0.000000000000000E+00
    3.600000000000000E+00    9.000000000000000E-01    0.000000000000000E+00
    4.000000000000000E+00    9.000000000000000E-01    0.000000000000000E+00
    4.400000000000000E+00    9.000000000000000E-01    0.000000000000000E+00
    4.800000000000000E+00    9.000000000000000E-01    0.000000000000000E+00
    5.200000000000000E+00    9.000000000000000E-01    0.000000000000000E+00
    5.600000000000000E+00    9.000000000000000E-01    0.000000000000000E+00
    6.000000000000000E+00    9.000000000000000E-01    0.000000000000000E+00
    6.400000000000000E+00    9.000000000000000E-01    0.000000000000000E+00
    6.800000000000000E+00    9.000000000000000E-01    0.000000000000000E+00
    7.200000000000000E+00    9.000000000000000E-01    0.000000000000000E+00
    7.600000000000000E+00    9.000000000000000E-01    0.000000000000000E+00
    8.000000000000000E+00    9.000000000000000E-01    0.000000000000000E+00
    0.000000000000000E+00    1.000000000000000E+00    0.000000000000000E+00
    4.000000000000000E-01    1.000000000000000E+00    0.000000000000000E+00
    8.000000000000000E-01    1.000000000000000E+00    0.000000000000000E+00
    1.200000000000000E+00    1.000000000000000E+00    0.000000000000000E+00
    1.600000000000000E+00    1.000000000000000E+00    0.000000000000000E+00
    2.000000000000000E+00    1.000000000000000E+00    0.000000000000000E+00
    2.400000000000000E+00    1.000000000000000E+00    0.000000000000000E+00
    2.800000000000000E+00    1.000000000000000E+00    0.000000000000000E+00
    3.200000000000000E+00    1.000000000000000E+00    0.000000000000000E+00
    3.600000000000000E+00    1.000000000000000E+00    0.000000000000000E+00
    4.000000000000000E+00    1.000000000000000E+00    0.000000000000000E+00
    4.400000000000000E+00    1.000000000000000E+00    0.000000000000000E+00
    4.800000000000000E+00    1.000000000000000E+00    0.000000000000000E+00
    5.200000000000000E+00    1.000000000000000E+00    0.000000000000000E+00
    5.600000000000000E+00    1.000000000000000E+00    0.000000000000000E+00
    6.000000000000000E+00    1.000000000000000E+00    0.000000000000000E+00
    6.400000000000000E+00    1.000000000000000E+00    0.000000000000000E+00
    6.800000000000000E+00    1.000000000000000E+00    0.000000000000000E+00
    7.200000000000000E+00    1.000000000000000E+00    0.000000000000000E+00
    7.600000000000000E+00    1.000000000000000E+00    0.000000000000000E+00
    8.000000000000000E+00    1.000000000000000E+00    0.000000000000000E+00
    0.000000000000000E+00    0.000000000000000E+00    1.000000000000000E+00
    4.000000000000000E-01    0.000000000000000E+00    1.000000000000000E+00
    8.000000000000000E-01    0.000000000000000E+00    1.000000000000000E+00
    1.200000000000000E+00    0.000000000000000E+00    1.000000000000000E+00
    1.600000000000000E+00    0.000000000000000E+00    1.000000000000000E+00
    2.000000000000000E+00    0.000000000000000E+00    1.000000000000000E+00
    2.400000000000000E+00    0.000000000000000E+00    1.000000000000000E+00
    2.800000000000000E+00    0.000000000000000E+00    1.000000000000000E+00
    3.200000000000000E+00    0.000000000000000E+00    1.000000000000000E+00
    3.600000000000000E+00    0.000000000000000E+00    1.000000000000000E+00
    4.000000000000000E+00    0.000000000000000E+00    1.000000000000000E+00
    4.400000000000000E+00    0.000000000000000E+00    1.000000000000000E+00
    4.800000000000000E+00    0.000000000000000E+00    1.000000000000000E+00
    5.200000000000000E+00    0.000000000000000E+00    1.000000000000000E+00
    5.600000000000000E+00    0.000000000000000E+00    1.000000000000000E+00
    6.000000000000000E+00    0.000000000000000E+00    1.000000000000000E+00
    6.400000000000000E+00    0.000000000000000E+00    1.000000000000000E+00
    6.800000000000000E+00    0.000000000000000E+00    1.000000000000000E+00
    7.200000000000000E+00    0.000000000000000E+00    1.000000000000000E+00
    7.600000000000000E+00    0.000000000000000E+00    1.000000000000000E+00
    8.000000000000000E+00    0.000000000000000E+00    1.000000000000000E+00
    0.000000000000000E+00    1.000000000000000E-01    1.000000000000000E+00
    4.000000000000000E-01    1.000000000000000E-01    1.000000000000000E+00
    8.000000000000000E-01    1.000000000000000E-01    1.000000000000000E+00
    1.200000000000000E+00    1.000000000000000E-01    1.000000000000000E+00
    1.600000000000000E+00    1.000000000000000E-01    1.000000000000000E+00
    2.000000000000000E+00    1.000000000000000E-01    1.000000000000000E+00
    2.400000000000000E+00    1.000000000000000E-01    1.000000000000000E+00
    2.800000000000000E+00    1.000000000000000E-01    1.000000000000000E+00
    3.200000000000000E+00    1.000000000000000E-01    1.000000000000000E+00
    3.600000000000000E+00    1.000000000000000E-01    1.000000000000000E+00
    4.000000000000000E+00    1.000000000000000E-01    1.000000000000000E+00
    4.400000000000000E+00    1.000000000000000E-01    1.000000000000000E+00
    4.800000000000000E+00    1.000000000000000E-01    1.000000000000000E+00
    5.200000000000000E+00    1.000000000000000E-01    1.000000000000000E+00
    5.600000000000000E+00    1.000000000000000E-01    1.000000000000000E+00
    6.000000000000000E+00    1.000000000000000E-01    1.000000000000000E+00
    6.400000000000000E+00    1.000000000000000E-01    1.000000000000000E+00
    6.800000000000000E+00    1.000000000000000E-01    1.000000000000000E+00
    7.200000000000000E+00    1.000000000000000E-01    1.000000000000000E+00
    7.600000000000000E+00    1.000000000000000E-01    1.000000000000000E+00
    8.000000000000000E+00    1.000000000000000E-01    1.000000000000000E+00
    0.000000000000000E+00    2.000000000000000E-01    1.000000000000000E+00
    4.000000000000000E-01    2.000000000000000E-01    1.000000000000000E+00
    8.000000000000000E-01    2.000000000000000E-01    1.000000000000000E+00
    1.200000000000000E+00    2.000000000000000E-01    1.000000000000000E+00
    1.600000000000000E+00    2.000000000000000E-01    1.000000000000000E+00
    2.000000000000000E+00    2.000000000000000E-01    1.000000000000000E+00
    2.400000000000000E+00    2.000000000000000E-01    1.000000000000000E+00
    2.800000000000000E+00    2.000000000000000E-01    1.000000000000000E+00
    3.200000000000000E+00    2.000000000000000E-01    1.000000000000000E+00
    3.600000000000000E+00    2.000000000000000E-01    1.000000000000000E+00
    4.000000000000000E+00    2.000000000000000E-01    1.000000000000000E+00
    4.400000000000000E+00    2.000000000000000E-01    1.000000000000000E+00
    4.800000000000000E+00    2.000000000000000E-01    1.000000000000000E+00
    5.200000000000000E+00    2.000000000000000E-01    1.000000000000000E+00
    5.600000000000000E+00    2.000000000000000E-01    1.000000000000000E+00
    6.000000000000000E+00    2.000000000000000E-01    1.000000000000000E+00
    6.400000000000000E+00    2.000000000000000E-01    1.000000000000000E+00
    6.800000000000000E+00    2.000000000000000E-01    1.000000000000000E+00
    7.200000000000000E+00    2.000000000000000E-01    1.000000000000000E+00
    7.600000000000000E+00    2.000000000000000E-01    1.000000000000000E+00
    8.000000000000000E+00    2.000000000000000E-01    1.000000000000000E+00
    0.000000000000000E+00    3.000000000000000E-01    1.000000000000000E+00
    4.000000000000000E-01    3.000000000000000E-01    1.000000000000000E+00
    8.000000000000000E-01    3.000000000000000E-01    1.000000000000000E+00
    1.200000000000000E+00    3.000000000000000E-01    1.000000000000000E+00
    1.600000000000000E+00    3.000000000000000E-01    1.000000000000000E+00
    2.000000000000000E+00    3.000000000000000E-01    1.000000000000000E+00
    2.400000000000000E+00    3.000000000000000E-01    1.000000000000000E+00
    2.800000000000000E+00    3.000000000000000E-01    1.000000000000000E+00
    3.200000000000000E+00    3.000000000000000E-01    1.000000000000000E+00
    3.600000000000000E+00    3.000000000000000E-01    1.000000000000000E+00
    4.000000000000000E+00    3.000000000000000E-01    1.000000000000000E+00
    4.400000000000000E+00    3.000000000000000E-01    1.000000000000000E+00
    4.800000000000000E+00    3.000000000000000E-01    1.000000000000000E+00
    5.200000000000000E+00    3.000000000000000E-01    1.000000000000000E+00
    5.600000000000000E+00    3.000000000000000E-01    1.000000000000000E+00
    6.000000000000000E+00    3.000000000000000E-01    1.000000000000000E+00
    6.400000000000000E+00    3.000000000000000E-01    1.000000000000000E+00
    6.800000000000000E+00    3.000000000000000E-01    1.000000000000000E+00
    7.200000000000000E+00    3.000000000000000E-01    1.000000000000000E+00
    7.600000000000000E+00    3.000000000000000E-01    1.000000000000000E+00
    8.000000000000000E+00    3.000000000000000E-01    1.000000000000000E+00
    0.000000000000000E+00    4.000000000000000E-01    1.000000000000000E+00
    4.000000000000000E-01    4.000000000000000E-01    1.000000000000000E+00
    8.000000000000000E-01    4.000000000000000E-01    1.000000000000000E+00
    1.200000000000000E+00    4.000000000000000E-01    1.000000000000000E+00
    1.600000000000000E+00    4.000000000000000E-01    1.000000000000000E+00
    2.000000000000000E+00    4.000000000000000E-01    1.000000000000000E+00
    2.400000000000000E+00    4.000000000000000E-01    1.000000000000000E+00
    2.800000000000000E+00    4.000000000000000E-01    1.000000000000000E+00
    3.200000000000000E+00    4.000000000000000E-01    1.000000000000000E+00
    3.600000000000000E+00    4.000000000000000E-01    1.000000000000000E+00
    4.000000000000000E+00    4.000000000000000E-01    1.000000000000000E+00
    4.400000000000000E+00    4.000000000000000E-01    1.000000000000000E+00
    4.800000000000000E+00    4.000000000000000E-01    1.000000000000000E+00
    5.200000000000000E+00    4.000000000000000E-01    1.000000000000000E+00
    5.600000000000000E+00    4.000000000000000E-01    1.000000000000000E+00
    6.000000000000000E+00    4.000000000000000E-01    1.000000000000000E+00
    6.400000000000000E+00    4.000000000000000E-01    1.000000000000000E+00
    6.800000000000000E+00    4.000000000000000E-01    1.000000000000000E+00
    7.200000000000000E+00    4.000000000000000E-01    1.000000000000000E+00
    7.600000000000000E+00    4.000000000000000E-01    1.000000000000000E+00
    8.000000000000000E+00    4.000000000000000E-01    1.000000000000000E+00
    0.000000000000000E+00    5.000000000000000E-01    1.000000000000000E+00
    4.000000000000000E-01    5.000000000000000E-01    1.000000000000000E+00
    8.000000000000000E-01    5.000000000000000E-01    1.000000000000000E+00
    1.200000000000000E+00    5.000000000000000E-01    1.000000000000000E+00
    1.600000000000000E+00    5.000000000000000E-01    1.000000000000000E+00
    2.000000000000000E+00    5.000000000000000E-01    1.000000000000000E+00
    2.400000000000000E+00    5.000000000000000E-01    1.000000000000000E+00
    2.800000000000000E+00    5.000000000000000E-01    1.000000000000000E+00
    3.200000000000000E+00    5.000000000000000E-01    1.000000000000000E+00
    3.600000000000000E+00    5.000000000000000E-01    1.000000000000000E+00
    4.000000000000000E+00    5.000000000000000E-01    1.000000000000000E+00
    4.400000000000000E+00    5.000000000000000E-01    1.000000000000000E+00
    4.800000000000000E+00    5.000000000000000E-01    1.000000000000000E+00
    5.200000000000000E+00    5.000000000000000E-01    1.000000000000000E+00
    5.600000000000000E+00    5.000000000000000E-01    1.000000000000000E+00
    6.000000000000000E+00    5.000000000000000E-01    1.000000000000000E+00
    6.400000000000000E+00    5.000000000000000E-01    1.000000000000000E+00
    6.800000000000000E+00    5.000000000000000E-01    1.000000000000000E+00
    7.200000000000000E+00    5.000000000000000E-01    1.000000000000000E+00
    7.600000000000000E+00    5.000000000000000E-01    1.000000000000000E+00
    8.000000000000000E+00    5.000000000000000E-01    1.000000000000000E+00
    0.000000000000000E+00    6.000000000000000E-01    1.000000000000000E+00
    4.000000000000000E-01    6.000000000000000E-01    1.000000000000000E+00
    8.000000000000000E-01    6.000000000000000E-01    1.000000000000000E+00
    1.200000000000000E+00    6.000000000000000E-01    1.000000000000000E+00
    1.600000000000000E+00    6.000000000000000E-01    1.000000000000000E+00
    2.000000000000000E+00    6.000000000000000E-01    1.000000000000000E+00
    2.400000000000000E+00    6.000000000000000E-01    1.000000000000000E+00
    2.800000000000000E+00    6.000000000000000E-01    1.000000000000000E+00
    3.200000000000000E+00    6.000000000000000E-01    1.000000000000000E+00
    3.600000000000000E+00    6.000000000000000E-01    1.000000000000000E+00
    4.000000000000000E+00    6.000000000000000E-01    1.000000000000000E+00
    4.400000000000000E+00    6.000000000000000E-01    1.000000000000000E+00
    4.800000000000000E+00    6.000000000000000E-01    1.000000000000000E+00
    5.200000000000000E+00    6.000000000000000E-01    1.000000000000000E+00
    5.600000000000000E+00    6.000000000000000E-01    1.000000000000000E+00
    6.000000000000000E+00    6.000000000000000E-01    1.000000000000000E+00
    6.400000000000000E+00    6.000000000000000E-01    1.000000000000000E+00
    6.800000000000000E+00    6.000000000000000E-01    1.000000000000000E+00
    7.200000000000000E+00    6.000000000000000E-01    1.000000000000000E+00
    7.600000000000000E+00    6.000000000000000E-01    1.000000000000000E+00
    8.000000000000000E+00    6.000000000000000E-01    1.000000000000000E+00
    0.000000000000000E+00    7.000000000000000E-01    1.000000000000000E+00
    4.000000000000000E-01    7.000000000000000E-01    1.000000000000000E+00
    8.000000000000000E-01    7.000000000000000E-01    1.000000000000000E+00
    1.200000000000000E+00    7.000000000000000E-01    1.000000000000000E+00
    1.600000000000000E+00    7.000000000000000E-01    1.000000000000000E+00
    2.000000000000000E+00    7.000000000000000E-01    1.000000000000000E+00
    2.400000000000000E+00    7.000000000000000E-01    1.000000000000000E+00
    2.800000000000000E+00    7.000000000000000E-01    1.000000000000000E+00
    3.200000000000000E+00    7.000000000000000E-01    1.000000000000000E+00
    3.600000000000000E+00    7.000000000000000E-01    1.000000000000000E+00
    4.000000000000000E+00    7.000000000000000E-01    1.000000000000000E+00
    4.400000000000000E+00    7.000000000000000E-01    1.000000000000000E+00
    4.800000000000000E+00    7.000000000000000E-01    1.000000000000000E+00
    5.200000000000000E+00    7.000000000000000E-01    1.000000000000000E+00
    5.600000000000000E+00    7.000000000000000E-01    1.000000000000000E+00
    6.000000000000000E+00    7.000000000000000E-01    1.000000000000000E+00
    6.400000000000000E+00    7.000000000000000E-01    1.000000000000000E+00
    6.800000000000000E+00    7.000000000000000E-01    1.000000000000000E+00
    7.200000000000000E+00    7.000000000000000E-01    1.000000000000000E+00
    7.600000000000000E+00    7.000000000000000E-01    1.000000000000000E+00
    8.000000000000000E+00    7.000000000000000E-01    1.000000000000000E+00
    0.000000000000000E+00    8.000000000000000E-01    1.000000000000000E+00
    4.000000000000000E-01    8.000000000000000E-01    1.000000000000000E+00
    8.000000000000000E-01    8.000000000000000E-01    1.000000000000000E+00
    1.200000000000000E+00    8.000000000000000E-01    1.000000000000000E+00
    1.600000000000000E+00    8.000000000000000E-01    1.000000000000000E+00
    2.000000000000000E+00    8.000000000000000E-01    1.000000000000000E+00
    2.400000000000000E+00    8.000000000000000E-01    1.000000000000000E+00
    2.800000000000000E+00    8.000000000000000E-01    1.000000000000000E+00
    3.200000000000000E+00    8.000000000000000E-01    1.000000000000000E+00
    3.600000000000000E+00    8.000000000000000E-01    1.000000000000000E+00
    4.000000000000000E+00    8.000000000000000E-01    1.000000000000000E+00
    4.400000000000000E+00    8.000000000000000E-01    1.000000000000000E+00
    4.800000000000000E+00    8.000000000000000E-01    1.000000000000000E+00
    5.200000000000000E+00    8.000000000000000E-01    1.000000000000000E+00
    5.600000000000000E+00    8.000000000000000E-01    1.000000000000000E+00
    6.000000000000000E+00    8.000000000000000E-01    1.000000000000000E+00
    6.400000000000000E+00    8.000000000000000E-01    1.000000000000000E+00
    6.800000000000000E+00    8.000000000000000E-01    1.000000000000000E+00
    7.200000000000000E+00    8.000000000000000E-01    1.000000000000000E+00
    7.600000000000000E+00    8.000000000000000E-01    1.000000000000000E+00
    8.000000000000000E+00    8.000000000000000E-01    1.000000000000000E+00
    0.000000000000000E+00    9.000000000000000E-01    1.000000000000000E+00
    4.000000000000000E-01    9.000000000000000E-01    1.000000000000000E+00
    8.000000000000000E-01    9.000000000000000E-01    1.000000000000000E+00
    1.200000000000000E+00    9.000000000000000E-01    1.000000000000000E+00
    1.600000000000000E+00    9.000000000000000E-01    1.000000000000000E+00
    2.000000000000000E+00    9.000000000000000E-01    1.000000000000000E+00
    2.400000000000000E+00    9.000000000000000E-01    1.000000000000000E+00
    2.800000000000000E+00    9.000000000000000E-01    1.000000000000000E+00
    3.200000000000000E+00    9.000000000000000E-01    1.000000000000000E+00
    3.600000000000000E+00    9.000000000000000E-01    1.000000000000000E+00
    4.000000000000000E+00    9.000000000000000E-01    1.000000000000000E+00
    4.400000000000000E+00    9.000000000000000E-01    1.000000000000000E+00
    4.800000000000000E+00    9.000000000000000E-01    1.000000000000000E+00
    5.200000000000000E+00    9.000000000000000E-01    1.000000000000000E+00
    5.600000000000000E+00    9.000000000000000E-01    1.000000000000000E+00
    6.000000000000000E+00    9.000000000000000E-01    1.000000000000000E+00
    6.400000000000000E+00    9.000000000000000E-01    1.000000000000000E+00
    6.800000000000000E+00    9.000000000000000E-01    1.000000000000000E+00
    7.200000000000000E+00    9.000000000000000E-01    1.000000000000000E+00
    7.600000000000000E+00    9.000000000000000E-01    1.000000000000000E+00
    8.000000000000000E+00    9.000000000000000E-01    1.000000000000000E+00
    0.000000000000000E+00    1.000000000000000E+00    1.000000000000000E+00
    4.000000000000000E-01    1.000000000000000E+00    1.000000000000000E+00
    8.000000000000000E-01    1.000000000000000E+00    1.000000000000000E+00
    1.200000000000000E+00    1.000000000000000E+00    1.000000000000000E+00
    1.600000000000000E+00    1.000000000000000E+00    1.000000000000000E+00
    2.000000000000000E+00    1.000000000000000E+00    1.000000000000000E+00
    2.400000000000000E+00    1.000000000000000E+00    1.000000000000000E+00
    2.800000000000000E+00    1.000000000000000E+00    1.000000000000000E+00
    3.200000000000000E+00    1.000000000000000E+00    1.000000000000000E+00
    3.600000000000000E+00    1.000000000000000E+00    1.000000000000000E+00
    4.000000000000000E+00    1.000000000000000E+00    1.000000000000000E+00
    4.400000000000000E+00    1.000000000000000E+00    1.000000000000000E+00
    4.800000000000000E+00    1.000000000000000E+00    1.000000000000000E+00
    5.200000000000000E+00    1.000000000000000E+00    1.000000000000000E+00
    5.600000000000000E+00    1.000000000000000E+00    1.000000000000000E+00
    6.000000000000000E+00    1.000000000000000E+00    1.000000000000000E+00
    6.400000000000000E+00    1.000000000000000E+00    1.000000000000000E+00
    6.800000000000000E+00    1.000000000000000E+00    1.000000000000000E+00
    7.200000000000000E+00    1.000000000000000E+00    1.000000000000000E+00
    7.600000000000000E+00    1.000000000000000E+00    1.000000000000000E+00
    8.000000000000000E+00    1.000000000000000E+00    1.000000000000000E+00
CELL_DATA          200
SCALARS density double 1
LOOKUP_TABLE default
    1.000000000000000E+00
    1.000000000000000E+00
    1.000000000000000E+00
    1.000000000000000E+00
    1.000000000000000E+00
    1.000000000000000E+00
    1.000000000000000E+00
    1.000000000000000E+00
    1.000000000000000E+00
    1.000000000000000E+00
    1.000000000000000E+00
    1.000000000000000E+00
    1.000000000000000E+00
    1.000000000000000E+00
    1.000000000000000E+00
    1.000000000000000E+00
    1.000000000000000E+00
    1.000000000000000E+00
    1.000000000000000E+00
    1.000000000000000E+00
    1.000000000000000E+00
    1.000000000000000E+00
    1.000000000000000E+00
    1.000000000000000E+00
    1.000000000000000E+00
    1.000000000000000E+00
    1.000000000000000E+00
    1.000000000000000E+00
    1.000000000000000E+00
    1.000000000000000E+00
    1.000000000000000E+00
    1.000000000000000E+00
    1.000000000000000E+00
    1.000000000000000E+00
    1.000000000000000E+00
    1.000000000000000E+00
    1.000000000000000E+00
    1.000000000000000E+00
    1.000000000000000E+00
    1.000000000000000E+00
    1.000000000000000E+00
    1.000000000000000E+00
    1.000000000000000E+00
    1.000000000000000E+00
    1.000000000000000E+00
    1.000000000000000E+00
    1.000000000000000E+00
    1.000000000000000E+00
    1.000000000000000E+00
    1.000000000000000E+00
    1.000000000000000E+00
    1.000000000000000E+00
    1.000000000000000E+00
    1.000000000000000E+00
    1.000000000000000E+00
    1.000000000000000E+00
    1.000000000000000E+00
    1.000000000000000E+00
    1.000000000000000E+00
    1.000000000000000E+00
    1.000000000000000E+00
    1.000000000000000E+00
    1.000000000000000E+00
    1.000000000000000E+00
    1.000000000000000E+00
    1.000000000000000E+00
    1.000000000000000E+00
    1.000000000000000E+00
    1.000000000000000E+00
    1.000000000000000E+00
    1.000000000000000E+00
    1.000000000000000E+00
    1.000000000000000E+00
    1.000000000000000E+00
    1.000000000000000E+00
    1.000000000000000E+00
    1.000000000000000E+00
    1.000000000000000E+00
    1.000000000000000E+00
    1.000000000000000E+00
    1.000000000000000E+00
    1.000000000000000E+00
    1.000000000000000E+00
    1.000000000000000E+00
    1.000000000000000E+00
    1.000000000000000E+00
    1.000000000000000E+00
    1.000000000000000E+00
    1.000000000000000E+00
    1.000000000000000E+00
    1.000000000000000E+00
    1.000000000000000E+00
    1.000000000000000E+00
    1.000000000000000E+00
    1.000000000000000E+00
    1.000000000000000E+00
    1.000000000000000E+00
    1.000000000000000E+00
    1.000000000000000E+00
    1.000000000000000E+00
    1.000000000000000E+00
    1.000000000000000E+00
    1.000000000000000E+00
    1.000000000000000E+00
    1.000000000000000E+00
    1.000000000000000E+00
    1.000000000000000E+00
    1.000000000000000E+00
    1.000000000000000E+00
    1.000000000000000E+00
    1.000000000000000E+00
    1.000000000000000E+00
    1.000000000000000E+00
    1.000000000000000E+00
    1.000000000000000E+00
    1.000000000000000E+00
    1.000000000000000E+00
    1.000000000000000E+00
    1.000000000000000E+00
    1.000000000000000E+00
    1.000000000000000E+00
    1.000000000000000E+00
    1.000000000000000E+00
    1.000000000000000E+00
    1.000000000000000E+00
    1.000000000000000E+00
    1.000000000000000E+00
    1.000000000000000E+00
    1.000000000000000E+00
    1.000000000000000E+00
    1.000000000000000E+00
    1.000000000000000E+00
    1.000000000000000E+00
    1.000000000000000E+00
    1.000000000000000E+00
    1.000000000000000E+00
    1.000000000000000E+00
    1.000000000000000E+00
    1.000000000000000E+00
    1.000000000000000E+00
    1.000000000000000E+00
    1.000000000000000E+00
    1.000000000000000E+00
    1.000000000000000E+00
    1.000000000000000E+00
    1.000000000000000E+00
    1.000000000000000E+00
    1.000000000000000E+00
    1.000000000000000E+00
    1.000000000000000E+00
    1.000000000000000E+00
    1.000000000000000E+00
    1.000000000000000E+00
    1.000000000000000E+00
    1.000000000000000E+00
    1.000000000000000E+00
    1.000000000000000E+00
    1.000000000000000E+00
    1.000000000000000E+00
    1.000000000000000E+00
    1.000000000000000E+00
    1.000000000000000E+00
    1.000000000000000E+00
    1.000000000000000E+00
    1.000000000000000E+00
    1.000000000000000E+00
    1.000000000000000E+00
    1.000000000000000E+00
    1.000000000000000E+00
    1.000000000000000E+00
    1.000000000000000E+00
    1.000000000000000E+00
    1.000000000000000E+00
    1.000000000000000E+00
    1.000000000000000E+00
    1.000000000000000E+00
    1.000000000000000E+00
    1.000000000000000E+00
    1.000000000000000E+00
    1.000000000000000E+00
    1.000000000000000E+00
    1.000000000000000E+00
    1.000000000000000E+00
    1.000000000000000E+00
    1.000000000000000E+00
    1.000000000000000E+00
    1.000000000000000E+00
    1.000000000000000E+00
    1.000000000000000E+00
    1.000000000000000E+00
    1.000000000000000E+00
    1.000000000000000E+00
    1.000000000000000E+00
    1.000000000000000E+00
    1.000000000000000E+00
    1.000000000000000E+00
    1.000000000000000E+00
    1.000000000000000E+00
    1.000000000000000E+00
    1.000000000000000E+00
VECTORS velocity double
    5.223011608943242E-03   -7.526250921325122E-07    0.000000000000000E+00
    5.138029167080407E-03    1.516926178282433E-07    0.000000000000000E+00
    5.220231362587229E-03    1.264396635124139E-06    0.000000000000000E+00
    5.217004303688297E-03    7.350034225006074E-07    0.000000000000000E+00
    5.215253350302923E-03    1.845117972876158E-07    0.000000000000000E+00
    5.214762196861152E-03    2.273249250393010E-08    0.000000000000000E+00
    5.214690896046302E-03    2.828352691644608E-09    0.000000000000000E+00
    5.214684337739061E-03    5.558813337117211E-10    0.000000000000000E+00
    5.214684225475791E-03    2.751055434392274E-10    0.000000000000000E+00
    5.214684643475733E-03    1.345679558447539E-10    0.000000000000000E+00
    5.214685207153915E-03    8.269403403513924E-11    0.000000000000000E+00
    5.214685988764222E-03   -1.767917012995101E-11    0.000000000000000E+00
    5.214687231884809E-03   -3.188997687835574E-10    0.000000000000000E+00
    5.214694786252634E-03   -2.589349993300631E-09    0.000000000000000E+00
    5.214766756337196E-03   -2.242351231831872E-08    0.000000000000000E+00
    5.215256679298876E-03   -1.840759438536018E-07    0.000000000000000E+00
    5.216998074083112E-03   -7.338700870417090E-07    0.000000000000000E+00
    5.220226226901099E-03   -1.263834531228482E-06    0.000000000000000E+00
    5.138020701332932E-03   -1.581448382108826E-07    0.000000000000000E+00
    5.223040763225648E-03    7.482227500808416E-07    0.000000000000000E+00
    8.119936952953391E-03   -5.881705388174268E-07    0.000000000000000E+00
    8.024725363741794E-03    1.276397228323662E-07    0.000000000000000E+00
    8.118579622045772E-03    1.476534443416549E-06    0.000000000000000E+00
    8.119069171439171E-03    8.946875407343822E-07    0.000000000000000E+00
    8.119014798263770E-03    2.716701570189818E-07    0.000000000000000E+00
    8.118912059881153E-03    4.602835624844953E-08    0.000000000000000E+00
    8.118892827880959E-03    5.060894158575377E-09    0.000000000000000E+00
    8.118892855274364E-03    5.916600761024067E-10    0.000000000000000E+00
    8.118893740885317E-03    1.948486056928580E-10    0.000000000000000E+00
    8.118894574015760E-03    7.726499487631212E-11    0.000000000000000E+00
    8.118895299125899E-03    2.867978725531646E-11    0.000000000000000E+00
    8.118896035273123E-03   -1.107291441535515E-10    0.000000000000000E+00
    8.118896518461644E-03   -4.618307856457292E-10    0.000000000000000E+00
    8.118897678482796E-03   -4.997532335721464E-09    0.000000000000000E+00
    8.118918144196125E-03   -4.584569376323661E-08    0.000000000000000E+00
    8.119021221301483E-03   -2.703557832656798E-07    0.000000000000000E+00
    8.119070408499804E-03   -8.921397918601366E-07    0.000000000000000E+00
    8.118600813279846E-03   -1.473552404288702E-06    0.000000000000000E+00
    8.024726101210663E-03   -1.356013203083516E-07    0.000000000000000E+00
    8.119949270079982E-03    5.834466199713521E-07    0.000000000000000E+00
    8.907772956308900E-03   -2.817141969592921E-07    0.000000000000000E+00
    8.814642595279332E-03    1.161007993882487E-07    0.000000000000000E+00
    8.907393902204155E-03    1.115604807138375E-06    0.000000000000000E+00
    8.909242468036730E-03    7.567665905433616E-07    0.000000000000000E+00
    8.910029505621975E-03    2.637444705700651E-07    0.000000000000000E+00
    8.910197647769971E-03    4.857443671584513E-08    0.000000000000000E+00
    8.910230249701856E-03    4.856193169466653E-09    0.000000000000000E+00
    8.910235500185859E-03    5.803746830064728E-10    0.000000000000000E+00
    8.910236871114955E-03    1.594062139010512E-10    0.000000000000000E+00
    8.910237766958075E-03    5.913579760281758E-11    0.000000000000000E+00
    8.910238476081966E-03    3.614751099606109E-12    0.000000000000000E+00
    8.910239083166944E-03   -1.265773321148576E-10    0.000000000000000E+00
    8.910239144561231E-03   -4.305471739225758E-10    0.000000000000000E+00
    8.910235094177377E-03   -4.860706220603125E-09    0.000000000000000E+00
    8.910203608488185E-03   -4.850604469121703E-08    0.000000000000000E+00
    8.910037428307456E-03   -2.622102508252845E-07    0.000000000000000E+00
    8.909249360479111E-03   -7.541294875067386E-07    0.000000000000000E+00
    8.907427233880405E-03   -1.113700350699902E-06    0.000000000000000E+00
    8.814648205039436E-03   -1.230093470648104E-07    0.000000000000000E+00
    8.907776182724770E-03    2.773154997447562E-07    0.000000000000000E+00
    9.103820737657260E-03   -1.404143998112745E-07    0.000000000000000E+00
    9.011461532968713E-03    8.669198689444851E-08    0.000000000000000E+00
    9.103761833275815E-03    6.600306464834715E-07    0.000000000000000E+00
    9.105812066212615E-03    4.794655919689656E-07    0.000000000000000E+00
    9.106875414590165E-03    1.736875282418777E-07    0.000000000000000E+00
    9.107155819781413E-03    3.057004824502497E-08    0.000000000000000E+00
    9.107202940976522E-03    2.821281727344279E-09    0.000000000000000E+00
    9.107208483288998E-03    4.035920245808683E-10    0.000000000000000E+00
    9.107210036499070E-03    1.167822273266477E-10    0.000000000000000E+00
    9.107211002465211E-03    3.709705508503659E-11    0.000000000000000E+00
    9.107211689052600E-03   -8.341149406763757E-12    0.000000000000000E+00
    9.107212189373949E-03   -9.236120682489381E-11    0.000000000000000E+00
    9.107212082716802E-03   -3.194703394628443E-10    0.000000000000000E+00
    9.107207704321506E-03   -2.837272336259540E-09    0.000000000000000E+00
    9.107161570431278E-03   -3.055949590670295E-08    0.000000000000000E+00
    9.106883735900576E-03   -1.727052357697070E-07    0.000000000000000E+00
    9.105821377650524E-03   -4.776090030212176E-07    0.000000000000000E+00
    9.103798913694483E-03   -6.590672577606227E-07    0.000000000000000E+00
    9.011468515735976E-03   -9.095055270077717E-08    0.000000000000000E+00
    9.103821450765007E-03    1.375712245781157E-07    0.000000000000000E+00
    9.138809804502554E-03   -4.289799606763956E-08    0.000000000000000E+00
    9.046577006704314E-03    3.656055970776951E-08    0.000000000000000E+00
    9.138817719592249E-03    2.094335418143553E-07    0.000000000000000E+00
    9.140864170135266E-03    1.619701122311577E-07    0.000000000000000E+00
    9.141990020427074E-03    6.183472471090789E-08    0.000000000000000E+00
    9.142298317844752E-03    1.094629934603475E-08    0.000000000000000E+00
    9.142347471797051E-03    9.850950943032827E-10    0.000000000000000E+00
    9.142352769787058E-03    1.381898853343965E-10    0.000000000000000E+00
    9.142354366968943E-03    4.007697905089108E-11    0.000000000000000E+00
    9.142355358382669E-03    1.100875487784928E-11    0.000000000000000E+00
    9.142356036603605E-03   -5.500805148184408E-12    0.000000000000000E+00
    9.142356510513617E-03   -3.364990785880128E-11    0.000000000000000E+00
    9.142356357123894E-03   -1.153205177058135E-10    0.000000000000000E+00
    9.142352201360598E-03   -9.956536698962746E-10    0.000000000000000E+00
    9.142304011610685E-03   -1.094137067488911E-08    0.000000000000000E+00
    9.141998430283956E-03   -6.147888139497898E-08    0.000000000000000E+00
    9.140874117798653E-03   -1.613254444078688E-07    0.000000000000000E+00
    9.138855477607968E-03   -2.092313422687537E-07    0.000000000000000E+00
    9.046584215966710E-03   -3.790370007133521E-08    0.000000000000000E+00
    9.138810113505225E-03    4.192373399040677E-08    0.000000000000000E+00
    9.138809807890702E-03    4.289163517287749E-08    0.000000000000000E+00
    9.046577008817596E-03   -3.657223001111418E-08    0.000000000000000E+00
    9.138817720882779E-03   -2.094523812973244E-07    0.000000000000000E+00
    9.140864170723198E-03   -1.619812051864111E-07    0.000000000000000E+00
    9.141990020699714E-03   -6.184407106256023E-08    0.000000000000000E+00
    9.142298318208248E-03   -1.096044826958904E-08    0.000000000000000E+00
    9.142347471805919E-03   -9.977415473708775E-10    0.000000000000000E+00
    9.142352769472003E-03   -1.459137010080496E-10    0.000000000000000E+00
    9.142354366449848E-03   -4.422057329706398E-11    0.000000000000000E+00
    9.142355357671808E-03   -1.575504574511663E-11    0.000000000000000E+00
    9.142356035898327E-03    6.283603733156751E-13    0.000000000000000E+00
    9.142356509819401E-03    2.862659567933045E-11    0.000000000000000E+00
    9.142356356410693E-03    1.107225570781947E-10    0.000000000000000E+00
    9.142352200480130E-03    9.912513422219873E-10    0.000000000000000E+00
    9.142304010676663E-03    1.093852990705853E-08    0.000000000000000E+00
    9.141998429335572E-03    6.148001123279228E-08    0.000000000000000E+00
    9.140874117125806E-03    1.613313395645180E-07    0.000000000000000E+00
    9.138855477484191E-03    2.092417331378348E-07    0.000000000000000E+00
    9.046584216722671E-03    3.790815636359689E-08    0.000000000000000E+00
    9.138810114231269E-03   -4.192421511452413E-08    0.000000000000000E+00
    9.103820755100502E-03    1.404080143173974E-07    0.000000000000000E+00
    9.011461545126607E-03   -8.670331435592146E-08    0.000000000000000E+00
    9.103761840921378E-03   -6.600490752798925E-07    0.000000000000000E+00
    9.105812069972160E-03   -4.794763343646659E-07    0.000000000000000E+00
    9.106875416648732E-03   -1.736970641342289E-07    0.000000000000000E+00
    9.107155821556932E-03   -3.058396983634356E-08    0.000000000000000E+00
    9.107202940913616E-03   -2.833196206017736E-09    0.000000000000000E+00
    9.107208481568733E-03   -4.110826073329367E-10    0.000000000000000E+00
    9.107210033664652E-03   -1.208480813975523E-10    0.000000000000000E+00
    9.107210998710988E-03   -4.148918468326039E-11    0.000000000000000E+00
    9.107211685249717E-03    3.591139428652282E-12    0.000000000000000E+00
    9.107212185521288E-03    8.775527844935326E-11    0.000000000000000E+00
    9.107212078786888E-03    3.150397312895731E-10    0.000000000000000E+00
    9.107207699714515E-03    2.833236246316466E-09    0.000000000000000E+00
    9.107161565519396E-03    3.055681344288089E-08    0.000000000000000E+00
    9.106883730989109E-03    1.727064341916259E-07    0.000000000000000E+00
    9.105821374054865E-03    4.776150232856812E-07    0.000000000000000E+00
    9.103798912912665E-03    6.590772531503036E-07    0.000000000000000E+00
    9.011468518707466E-03    9.095474378967154E-08    0.000000000000000E+00
    9.103821453748476E-03   -1.375715789893537E-07    0.000000000000000E+00
    8.907773009134614E-03    2.817077883738388E-07    0.000000000000000E+00
    8.814642635319855E-03   -1.161112789925407E-07    0.000000000000000E+00
    8.907393928612188E-03   -1.115621669524733E-06    0.000000000000000E+00
    8.909242482884142E-03   -7.567765756034250E-07    0.000000000000000E+00
    8.910029514651438E-03   -2.637535476914015E-07    0.000000000000000E+00
    8.910197653232291E-03   -4.858744424895663E-08    0.000000000000000E+00
    8.910230249202029E-03   -4.866920201536240E-09    0.000000000000000E+00
    8.910235494283221E-03   -5.878656656128592E-10    0.000000000000000E+00
    8.910236861676118E-03   -1.627388966669081E-10    0.000000000000000E+00
    8.910237755044560E-03   -6.327605372842518E-11    0.000000000000000E+00
    8.910238463252835E-03   -8.230619245473263E-12    0.000000000000000E+00
    8.910239069743036E-03    1.222667048498800E-10    0.000000000000000E+00
    8.910239130819257E-03    4.267532986834646E-10    0.000000000000000E+00
    8.910235078967738E-03    4.857497679260930E-09    0.000000000000000E+00
    8.910203592499069E-03    4.850394062763017E-08    0.000000000000000E+00
    8.910037413075023E-03    2.622117967384636E-07    0.000000000000000E+00
    8.909249348890159E-03    7.541348520813922E-07    0.000000000000000E+00
    8.907427229890155E-03    1.113709178670874E-06    0.000000000000000E+00
    8.814648210199345E-03    1.230131374257391E-07    0.000000000000000E+00
    8.907776188575852E-03   -2.773156237690404E-07    0.000000000000000E+00
    8.119937075128416E-03    5.881655503859277E-07    0.000000000000000E+00
    8.024725459379559E-03   -1.276487822614282E-07    0.000000000000000E+00
    8.118579689108273E-03   -1.476546962054969E-06    0.000000000000000E+00
    8.119069213933175E-03   -8.946972682836026E-07    0.000000000000000E+00
    8.119014825314241E-03   -2.716775832466426E-07    0.000000000000000E+00
    8.118912071734652E-03   -4.603824702856258E-08    0.000000000000000E+00
    8.118892824216885E-03   -5.069527961500032E-09    0.000000000000000E+00
    8.118892839707802E-03   -5.969603180159812E-10    0.000000000000000E+00
    8.118893716008857E-03   -1.963597934787627E-10    0.000000000000000E+00
    8.118894543589014E-03   -8.065778100458898E-11    0.000000000000000E+00
    8.118895265221540E-03   -3.224570744262139E-11    0.000000000000000E+00
    8.118895998348122E-03    1.077267495011830E-10    0.000000000000000E+00
    8.118896480025681E-03    4.591080944995862E-10    0.000000000000000E+00
    8.118897638899039E-03    4.995596747989533E-09    0.000000000000000E+00
    8.118918104152661E-03    4.584437356901069E-08    0.000000000000000E+00
    8.119021184133005E-03    2.703568951885408E-07    0.000000000000000E+00
    8.119070379590310E-03    8.921445050341306E-07    0.000000000000000E+00
    8.118600798771034E-03    1.473558396528761E-06    0.000000000000000E+00
    8.024726103556482E-03    1.356046511001208E-07    0.000000000000000E+00
    8.119949276010761E-03   -5.834464394793023E-07    0.000000000000000E+00
    5.223011796607450E-03    7.526207230192502E-07    0.000000000000000E+00
    5.138029312138502E-03   -1.516970526099313E-07    0.000000000000000E+00
    5.220231473003408E-03   -1.264383668464982E-06    0.000000000000000E+00
    5.217004378591785E-03   -7.350037678795333E-07    0.000000000000000E+00
    5.215253393655483E-03   -1.845152533961040E-07    0.000000000000000E+00
    5.214762212427585E-03   -2.273673687666740E-08    0.000000000000000E+00
    5.214690883884418E-03   -2.832772183375428E-09    0.000000000000000E+00
    5.214684304087770E-03   -5.561695673175765E-10    0.000000000000000E+00
    5.214684179499779E-03   -2.762769159775384E-10    0.000000000000000E+00
    5.214684590034322E-03   -1.373890692546994E-10    0.000000000000000E+00
    5.214685146180411E-03   -8.559933777693401E-11    0.000000000000000E+00
    5.214685921422477E-03    1.630426117798589E-11    0.000000000000000E+00
    5.214687161794151E-03    3.183121985530236E-10    0.000000000000000E+00
    5.214694716761260E-03    2.589034861924383E-09    0.000000000000000E+00
    5.214766688920831E-03    2.242332587147072E-08    0.000000000000000E+00
    5.215256616945918E-03    1.840763694688455E-07    0.000000000000000E+00
    5.216998025888699E-03    7.338712216065081E-07    0.000000000000000E+00
    5.220226197962681E-03    1.263829662791281E-06    0.000000000000000E+00
    5.138020692062333E-03    1.581469335744269E-07    0.000000000000000E+00
    5.223040762575513E-03   -7.482221974803608E-07    0.000000000000000E+00
SCALARS temperature double 1
LOOKUP_TABLE default
    3.000000000000000E+02
    3.000000000000000E+02
    3.000000000000000E+02
    3.000000000000000E+02
    3.000000000000000E+02
    3.000000000000000E+02
    3.000000000000000E+02
    3.000000000000000E+02
    3.000000000000000E+02
    3.000000000000000E+02
    3.000000000000000E+02
    3.000000000000000E+02
    3.000000000000000E+02
    3.000000000000000E+02
    3.000000000000000E+02
    3.000000000000000E+02
    3.000000000000000E+02
    3.000000000000000E+02
    3.000000000000000E+02
    3.000000000000000E+02
    3.000000000000000E+02
    3.000000000000000E+02
    3.000000000000000E+02
    3.000000000000000E+02
    3.000000000000000E+02
    3.000000000000000E+02
    3.000000000000000E+02
    3.000000000000000E+02
    3.000000000000000E+02
    3.000000000000000E+02
    3.000000000000000E+02
    3.000000000000000E+02
    3.000000000000000E+02
    3.000000000000000E+02
    3.000000000000000E+02
    3.000000000000000E+02
    3.000000000000000E+02
    3.000000000000000E+02
    3.000000000000000E+02
    3.000000000000000E+02
    3.000000000000000E+02
    3.000000000000000E+02
    3.000000000000000E+02
    3.000000000000000E+02
    3.000000000000000E+02
    3.000000000000000E+02
    3.000000000000000E+02
    3.000000000000000E+02
    3.000000000000000E+02
    3.000000000000000E+02
    3.000000000000000E+02
    3.000000000000000E+02
    3.000000000000000E+02
    3.000000000000000E+02
    3.000000000000000E+02
    3.000000000000000E+02
    3.000000000000000E+02
    3.000000000000000E+02
    3.000000000000000E+02
    3.000000000000000E+02
    3.000000000000000E+02
    3.000000000000000E+02
    3.000000000000000E+02
    3.000000000000000E+02
    3.000000000000000E+02
    3.000000000000000E+02
    3.000000000000000E+02
    3.000000000000000E+02
    3.000000000000000E+02
    3.000000000000000E+02
    3.000000000000000E+02
    3.000000000000000E+02
    3.000000000000000E+02
    3.000000000000000E+02
    3.000000000000000E+02
    3.000000000000000E+02
    3.000000000000000E+02
    3.000000000000000E+02
    3.000000000000000E+02
    3.000000000000000E+02
    3.000000000000000E+02
    3.000000000000000E+02
    3.000000000000000E+02
    3.000000000000000E+02
    3.000000000000000E+02
    3.000000000000000E+02
    3.000000000000000E+02
    3.000000000000000E+02
    3.000000000000000E+02
    3.000000000000000E+02
    3.000000000000000E+02
    3.000000000000000E+02
    3.000000000000000E+02
    3.000000000000000E+02
    3.000000000000000E+02
    3.000000000000000E+02
    3.000000000000000E+02
    3.000000000000000E+02
    3.000000000000000E+02
    3.000000000000000E+02
    3.000000000000000E+02
    3.000000000000000E+02
    3.000000000000000E+02
    3.000000000000000E+02
    3.000000000000000E+02
    3.000000000000000E+02
    3.000000000000000E+02
    3.000000000000000E+02
    3.000000000000000E+02
    3.000000000000000E+02
    3.000000000000000E+02
    3.000000000000000E+02
    3.000000000000000E+02
    3.000000000000000E+02
    3.000000000000000E+02
    3.000000000000000E+02
    3.000000000000000E+02
    3.000000000000000E+02
    3.000000000000000E+02
    3.000000000000000E+02
    3.000000000000000E+02
    3.000000000000000E+02
    3.000000000000000E+02
    3.000000000000000E+02
    3.000000000000000E+02
    3.000000000000000E+02
    3.000000000000000E+02
    3.000000000000000E+02
    3.000000000000000E+02
    3.000000000000000E+02
    3.000000000000000E+02
    3.000000000000000E+02
    3.000000000000000E+02
    3.000000000000000E+02
    3.000000000000000E+02
    3.000000000000000E+02
    3.000000000000000E+02
    3.000000000000000E+02
    3.000000000000000E+02
    3.000000000000000E+02
    3.000000000000000E+02
    3.000000000000000E+02
    3.000000000000000E+02
    3.000000000000000E+02
    3.000000000000000E+02
    3.000000000000000E+02
    3.000000000000000E+02
    3.000000000000000E+02
    3.000000000000000E+02
    3.000000000000000E+02
    3.000000000000000E+02
    3.000000000000000E+02
    3.000000000000000E+02
    3.000000000000000E+02
    3.000000000000000E+02
    3.000000000000000E+02
    3.000000000000000E+02
    3.000000000000000E+02
    3.000000000000000E+02
    3.000000000000000E+02
    3.000000000000000E+02
    3.000000000000000E+02
    3.000000000000000E+02
    3.000000000000000E+02
    3.000000000000000E+02
    3.000000000000000E+02
    3.000000000000000E+02
    3.000000000000000E+02
    3.000000000000000E+02
    3.000000000000000E+02
    3.000000000000000E+02
    3.000000000000000E+02
    3.000000000000000E+02
    3.000000000000000E+02
    3.000000000000000E+02
    3.000000000000000E+02
    3.000000000000000E+02
    3.000000000000000E+02
    3.000000000000000E+02
    3.000000000000000E+02
    3.000000000000000E+02
    3.000000000000000E+02
    3.000000000000000E+02
    3.000000000000000E+02
    3.000000000000000E+02
    3.000000000000000E+02
    3.000000000000000E+02
    3.000000000000000E+02
    3.000000000000000E+02
    3.000000000000000E+02
    3.000000000000000E+02
    3.000000000000000E+02
    3.000000000000000E+02
    3.000000000000000E+02
    3.000000000000000E+02
    3.000000000000000E+02
    3.000000000000000E+02
    3.000000000000000E+02
    3.000000000000000E+02
    3.000000000000000E+02
SCALARS pressure double 1
LOOKUP_TABLE default
    2.374756030030071E-01
    2.312976237421671E-01
    2.188416754080116E-01
    2.063407906918052E-01
    1.938279881615792E-01
    1.813146126173384E-01
    1.688004167073553E-01
    1.562860530222402E-01
    1.437716635966911E-01
    1.312572666540990E-01
    1.187428678697375E-01
    1.062284684665955E-01
    9.371406389869603E-02
    8.119968617004647E-02
    6.868547861604843E-02
    5.617209720441670E-02
    4.365926931318205E-02
    3.115876489564375E-02
    1.870385086032099E-02
    1.252593394149078E-02
    2.374803479882594E-01
    2.312989561579704E-01
    2.188338922925402E-01
    2.063405067575903E-01
    1.938289008043810E-01
    1.813148254398594E-01
    1.688004314381578E-01
    1.562860549259700E-01
    1.437716639392758E-01
    1.312572677580651E-01
    1.187428687353567E-01
    1.062284693488106E-01
    9.371406494142240E-02
    8.119967145515343E-02
    6.868526715584879E-02
    5.617119806007802E-02
    4.365955900433741E-02
    3.116650761360364E-02
    1.870255213670076E-02
    1.252117396642670E-02
    2.374784715403402E-01
    2.313007301234503E-01
    2.188321033357820E-01
    2.063398016495604E-01
    1.938281268375313E-01
    1.813145878227552E-01
    1.688004108718876E-01
    1.562860533133884E-01
    1.437716642134286E-01
    1.312572676904935E-01
    1.187428684994273E-01
    1.062284697662815E-01
    9.371406378489930E-02
    8.119969516387328E-02
    6.868550585925641E-02
    5.617195447521348E-02
    4.366025551993209E-02
    3.116827270158744E-02
    1.870083133645462E-02
    1.252304729907915E-02
    2.374786186141810E-01
    2.313018684366164E-01
    2.188307211656727E-01
    2.063400212146956E-01
    1.938286920265177E-01
    1.813147679226078E-01
    1.688004322609920E-01
    1.562860534068072E-01
    1.437716636358513E-01
    1.312572676054660E-01
    1.187428685148013E-01
    1.062284701644780E-01
    9.371406421894732E-02
    8.119967310497637E-02
    6.868532781688924E-02
    5.617139811366331E-02
    4.366003517588259E-02
    3.116963609474392E-02
    1.869970879714327E-02
    1.252289990001023E-02
    2.374788869028891E-01
    2.313025019263378E-01
    2.188297766526894E-01
    2.063399345875417E-01
    1.938288401585596E-01
    1.813148096990118E-01
    1.688004368106030E-01
    1.562860535807621E-01
    1.437716636456199E-01
    1.312572675914453E-01
    1.187428685324367E-01
    1.062284701688769E-01
    9.371406391081118E-02
    8.119966868477130E-02
    6.868528662714767E-02
    5.617125127368337E-02
    4.366012037309115E-02
    3.117057114206363E-02
    1.869908591758614E-02
    1.252263053222948E-02
    2.374788868907227E-01
    2.313025019198992E-01
    2.188297766689909E-01
    2.063399345914935E-01
    1.938288401668292E-01
    1.813148097008787E-01
    1.688004368028133E-01
    1.562860535801155E-01
    1.437716636376297E-01
    1.312572675839460E-01
    1.187428685244599E-01
    1.062284701613777E-01
    9.371406390439040E-02
    8.119966868366790E-02
    6.868528662979836E-02
    5.617125127785706E-02
    4.366012038235372E-02
    3.117057114812350E-02
    1.869908593422259E-02
    1.252263053282883E-02
    2.374786185815672E-01
    2.313018684195687E-01
    2.188307212197527E-01
    2.063400212259602E-01
    1.938286920474568E-01
    1.813147679274500E-01
    1.688004322392986E-01
    1.562860534078823E-01
    1.437716636082400E-01
    1.312572675839033E-01
    1.187428684944003E-01
    1.062284701431000E-01
    9.371406419923640E-02
    8.119967310036562E-02
    6.868532782263657E-02
    5.617139812455338E-02
    4.366003520721361E-02
    3.116963611050380E-02
    1.869970884545983E-02
    1.252289990152942E-02
    2.374784714924165E-01
    2.313007300989284E-01
    2.188321034352776E-01
    2.063398016768889E-01
    1.938281268574731E-01
    1.813145878488663E-01
    1.688004108168372E-01
    1.562860532862399E-01
    1.437716641643411E-01
    1.312572676537068E-01
    1.187428684650965E-01
    1.062284697367488E-01
    9.371406374985163E-02
    8.119969514391827E-02
    6.868550587597613E-02
    5.617195450166759E-02
    4.366025557111892E-02
    3.116827272512587E-02
    1.870083141509717E-02
    1.252304730070782E-02
    2.374803479374794E-01
    2.312989561512277E-01
    2.188338925321604E-01
    2.063405068059060E-01
    1.938289008946568E-01
    1.813148254662880E-01
    1.688004314029659E-01
    1.562860549776307E-01
    1.437716638715188E-01
    1.312572677080233E-01
    1.187428686874186E-01
    1.062284692917466E-01
    9.371406491691507E-02
    8.119967145543758E-02
    6.868526716393286E-02
    5.617119806731569E-02
    4.365955906610797E-02
    3.116650759314839E-02
    1.870255223603584E-02
    1.252117396660918E-02
    2.374756029448598E-01
    2.312976238019115E-01
    2.188416754936644E-01
    2.063407907818523E-01
    1.938279882364983E-01
    1.813146126446126E-01
    1.688004166537355E-01
    1.562860530051011E-01
    1.437716635003584E-01
    1.312572665810399E-01
    1.187428677963417E-01
    1.062284683853343E-01
    9.371406384061551E-02
    8.119968613748409E-02
    6.868547861259919E-02
    5.617209722031170E-02
    4.365926936492485E-02
    3.115876498288928E-02
    1.870385095697284E-02
    1.252593394743719E-02
