# vtk DataFile Version 3.0
OpenCFD-EC solid temperature
ASCII
DATASET STRUCTURED_GRID
DIMENSIONS     21    11     2
POINTS          462 double
    0.000000000000000E+00    0.000000000000000E+00    0.000000000000000E+00
    4.000000000000000E-01    0.000000000000000E+00    0.000000000000000E+00
    8.000000000000000E-01    0.000000000000000E+00    0.000000000000000E+00
    1.200000000000000E+00    0.000000000000000E+00    0.000000000000000E+00
    1.600000000000000E+00    0.000000000000000E+00    0.000000000000000E+00
    2.000000000000000E+00    0.000000000000000E+00    0.000000000000000E+00
    2.400000000000000E+00    0.000000000000000E+00    0.000000000000000E+00
    2.800000000000000E+00    0.000000000000000E+00    0.000000000000000E+00
    3.200000000000000E+00    0.000000000000000E+00    0.000000000000000E+00
    3.600000000000000E+00    0.000000000000000E+00    0.000000000000000E+00
    4.000000000000000E+00    0.000000000000000E+00    0.000000000000000E+00
    4.400000000000000E+00    0.000000000000000E+00    0.000000000000000E+00
    4.800000000000000E+00    0.000000000000000E+00    0.000000000000000E+00
    5.200000000000000E+00    0.000000000000000E+00    0.000000000000000E+00
    5.600000000000000E+00    0.000000000000000E+00    0.000000000000000E+00
    6.000000000000000E+00    0.000000000000000E+00    0.000000000000000E+00
    6.400000000000000E+00    0.000000000000000E+00    0.000000000000000E+00
    6.800000000000000E+00    0.000000000000000E+00    0.000000000000000E+00
    7.200000000000000E+00    0.000000000000000E+00    0.000000000000000E+00
    7.600000000000000E+00    0.000000000000000E+00    0.000000000000000E+00
    8.000000000000000E+00    0.000000000000000E+00    0.000000000000000E+00
    0.000000000000000E+00    1.000000000000000E-01    0.000000000000000E+00
    4.000000000000000E-01    1.000000000000000E-01    0.000000000000000E+00
    8.000000000000000E-01    1.000000000000000E-01    0.000000000000000E+00
    1.200000000000000E+00    1.000000000000000E-01    0.000000000000000E+00
    1.600000000000000E+00    1.000000000000000E-01    0.000000000000000E+00
    2.000000000000000E+00    1.000000000000000E-01    0.000000000000000E+00
    2.400000000000000E+00    1.000000000000000E-01    0.000000000000000E+00
    2.800000000000000E+00    1.000000000000000E-01    0.000000000000000E+00
    3.200000000000000E+00    1.000000000000000E-01    0.000000000000000E+00
    3.600000000000000E+00    1.000000000000000E-01    0.000000000000000E+00
    4.000000000000000E+00    1.000000000000000E-01    0.000000000000000E+00
    4.400000000000000E+00    1.000000000000000E-01    0.000000000000000E+00
    4.800000000000000E+00    1.000000000000000E-01    0.000000000000000E+00
    5.200000000000000E+00    1.000000000000000E-01    0.000000000000000E+00
    5.600000000000000E+00    1.000000000000000E-01    0.000000000000000E+00
    6.000000000000000E+00    1.000000000000000E-01    0.000000000000000E+00
    6.400000000000000E+00    1.000000000000000E-01    0.000000000000000E+00
    6.800000000000000E+00    1.000000000000000E-01    0.000000000000000E+00
    7.200000000000000E+00    1.000000000000000E-01    0.000000000000000E+00
    7.600000000000000E+00    1.000000000000000E-01    0.000000000000000E+00
    8.000000000000000E+00    1.000000000000000E-01    0.000000000000000E+00
    0.000000000000000E+00    2.000000000000000E-01    0.000000000000000E+00
    4.000000000000000E-01    2.000000000000000E-01    0.000000000000000E+00
    8.000000000000000E-01    2.000000000000000E-01    0.000000000000000E+00
    1.200000000000000E+00    2.000000000000000E-01    0.000000000000000E+00
    1.600000000000000E+00    2.000000000000000E-01    0.000000000000000E+00
    2.000000000000000E+00    2.000000000000000E-01    0.000000000000000E+00
    2.400000000000000E+00    2.000000000000000E-01    0.000000000000000E+00
    2.800000000000000E+00    2.000000000000000E-01    0.000000000000000E+00
    3.200000000000000E+00    2.000000000000000E-01    0.000000000000000E+00
    3.600000000000000E+00    2.000000000000000E-01    0.000000000000000E+00
    4.000000000000000E+00    2.000000000000000E-01    0.000000000000000E+00
    4.400000000000000E+00    2.000000000000000E-01    0.000000000000000E+00
    4.800000000000000E+00    2.000000000000000E-01    0.000000000000000E+00
    5.200000000000000E+00    2.000000000000000E-01    0.000000000000000E+00
    5.600000000000000E+00    2.000000000000000E-01    0.000000000000000E+00
    6.000000000000000E+00    2.000000000000000E-01    0.000000000000000E+00
    6.400000000000000E+00    2.000000000000000E-01    0.000000000000000E+00
    6.800000000000000E+00    2.000000000000000E-01    0.000000000000000E+00
    7.200000000000000E+00    2.000000000000000E-01    0.000000000000000E+00
    7.600000000000000E+00    2.000000000000000E-01    0.000000000000000E+00
    8.000000000000000E+00    2.000000000000000E-01    0.000000000000000E+00
    0.000000000000000E+00    3.000000000000000E-01    0.000000000000000E+00
    4.000000000000000E-01    3.000000000000000E-01    0.000000000000000E+00
    8.000000000000000E-01    3.000000000000000E-01    0.000000000000000E+00
    1.200000000000000E+00    3.000000000000000E-01    0.000000000000000E+00
    1.600000000000000E+00    3.000000000000000E-01    0.000000000000000E+00
    2.000000000000000E+00    3.000000000000000E-01    0.000000000000000E+00
    2.400000000000000E+00    3.000000000000000E-01    0.000000000000000E+00
    2.800000000000000E+00    3.000000000000000E-01    0.000000000000000E+00
    3.200000000000000E+00    3.000000000000000E-01    0.000000000000000E+00
    3.600000000000000E+00    3.000000000000000E-01    0.000000000000000E+00
    4.000000000000000E+00    3.000000000000000E-01    0.000000000000000E+00
    4.400000000000000E+00    3.000000000000000E-01    0.000000000000000E+00
    4.800000000000000E+00    3.000000000000000E-01    0.000000000000000E+00
    5.200000000000000E+00    3.000000000000000E-01    0.000000000000000E+00
    5.600000000000000E+00    3.000000000000000E-01    0.000000000000000E+00
    6.000000000000000E+00    3.000000000000000E-01    0.000000000000000E+00
    6.400000000000000E+00    3.000000000000000E-01    0.000000000000000E+00
    6.800000000000000E+00    3.000000000000000E-01    0.000000000000000E+00
    7.200000000000000E+00    3.000000000000000E-01    0.000000000000000E+00
    7.600000000000000E+00    3.000000000000000E-01    0.000000000000000E+00
    8.000000000000000E+00    3.000000000000000E-01    0.000000000000000E+00
    0.000000000000000E+00    4.000000000000000E-01    0.000000000000000E+00
    4.000000000000000E-01    4.000000000000000E-01    0.000000000000000E+00
    8.000000000000000E-01    4.000000000000000E-01    0.000000000000000E+00
    1.200000000000000E+00    4.000000000000000E-01    0.000000000000000E+00
    1.600000000000000E+00    4.000000000000000E-01    0.000000000000000E+00
    2.000000000000000E+00    4.000000000000000E-01    0.000000000000000E+00
    2.400000000000000E+00    4.000000000000000E-01    0.000000000000000E+00
    2.800000000000000E+00    4.000000000000000E-01    0.000000000000000E+00
    3.200000000000000E+00    4.000000000000000E-01    0.000000000000000E+00
    3.600000000000000E+00    4.000000000000000E-01    0.000000000000000E+00
    4.000000000000000E+00    4.000000000000000E-01    0.000000000000000E+00
    4.400000000000000E+00    4.000000000000000E-01    0.000000000000000E+00
    4.800000000000000E+00    4.000000000000000E-01    0.000000000000000E+00
    5.200000000000000E+00    4.000000000000000E-01    0.000000000000000E+00
    5.600000000000000E+00    4.000000000000000E-01    0.000000000000000E+00
    6.000000000000000E+00    4.000000000000000E-01    0.000000000000000E+00
    6.400000000000000E+00    4.000000000000000E-01    0.000000000000000E+00
    6.800000000000000E+00    4.000000000000000E-01    0.000000000000000E+00
    7.200000000000000E+00    4.000000000000000E-01    0.000000000000000E+00
    7.600000000000000E+00    4.000000000000000E-01    0.000000000000000E+00
    8.000000000000000E+00    4.000000000000000E-01    0.000000000000000E+00
    0.000000000000000E+00    5.000000000000000E-01    0.000000000000000E+00
    4.000000000000000E-01    5.000000000000000E-01    0.000000000000000E+00
    8.000000000000000E-01    5.000000000000000E-01    0.000000000000000E+00
    1.200000000000000E+00    5.000000000000000E-01    0.000000000000000E+00
    1.600000000000000E+00    5.000000000000000E-01    0.000000000000000E+00
    2.000000000000000E+00    5.000000000000000E-01    0.000000000000000E+00
    2.400000000000000E+00    5.000000000000000E-01    0.000000000000000E+00
    2.800000000000000E+00    5.000000000000000E-01    0.000000000000000E+00
    3.200000000000000E+00    5.000000000000000E-01    0.000000000000000E+00
    3.600000000000000E+00    5.000000000000000E-01    0.000000000000000E+00
    4.000000000000000E+00    5.000000000000000E-01    0.000000000000000E+00
    4.400000000000000E+00    5.000000000000000E-01    0.000000000000000E+00
    4.800000000000000E+00    5.000000000000000E-01    0.000000000000000E+00
    5.200000000000000E+00    5.000000000000000E-01    0.000000000000000E+00
    5.600000000000000E+00    5.000000000000000E-01    0.000000000000000E+00
    6.000000000000000E+00    5.000000000000000E-01    0.000000000000000E+00
    6.400000000000000E+00    5.000000000000000E-01    0.000000000000000E+00
    6.800000000000000E+00    5.000000000000000E-01    0.000000000000000E+00
    7.200000000000000E+00    5.000000000000000E-01    0.000000000000000E+00
    7.600000000000000E+00    5.000000000000000E-01    0.000000000000000E+00
    8.000000000000000E+00    5.000000000000000E-01    0.000000000000000E+00
    0.000000000000000E+00    6.000000000000000E-01    0.000000000000000E+00
    4.000000000000000E-01    6.000000000000000E-01    0.000000000000000E+00
    8.000000000000000E-01    6.000000000000000E-01    0.000000000000000E+00
    1.200000000000000E+00    6.000000000000000E-01    0.000000000000000E+00
    1.600000000000000E+00    6.000000000000000E-01    0.000000000000000E+00
    2.000000000000000E+00    6.000000000000000E-01    0.000000000000000E+00
    2.400000000000000E+00    6.000000000000000E-01    0.000000000000000E+00
    2.800000000000000E+00    6.000000000000000E-01    0.000000000000000E+00
    3.200000000000000E+00    6.000000000000000E-01    0.000000000000000E+00
    3.600000000000000E+00    6.000000000000000E-01    0.000000000000000E+00
    4.000000000000000E+00    6.000000000000000E-01    0.000000000000000E+00
    4.400000000000000E+00    6.000000000000000E-01    0.000000000000000E+00
    4.800000000000000E+00    6.000000000000000E-01    0.000000000000000E+00
    5.200000000000000E+00    6.000000000000000E-01    0.000000000000000E+00
    5.600000000000000E+00    6.000000000000000E-01    0.000000000000000E+00
    6.000000000000000E+00    6.000000000000000E-01    0.000000000000000E+00
    6.400000000000000E+00    6.000000000000000E-01    0.000000000000000E+00
    6.800000000000000E+00    6.000000000000000E-01    0.000000000000000E+00
    7.200000000000000E+00    6.000000000000000E-01    0.000000000000000E+00
    7.600000000000000E+00    6.000000000000000E-01    0.000000000000000E+00
    8.000000000000000E+00    6.000000000000000E-01    0.000000000000000E+00
    0.000000000000000E+00    7.000000000000000E-01    0.000000000000000E+00
    4.000000000000000E-01    7.000000000000000E-01    0.000000000000000E+00
    8.000000000000000E-01    7.000000000000000E-01    0.000000000000000E+00
    1.200000000000000E+00    7.000000000000000E-01    0.000000000000000E+00
    1.600000000000000E+00    7.000000000000000E-01    0.000000000000000E+00
    2.000000000000000E+00    7.000000000000000E-01    0.000000000000000E+00
    2.400000000000000E+00    7.000000000000000E-01    0.000000000000000E+00
    2.800000000000000E+00    7.000000000000000E-01    0.000000000000000E+00
    3.200000000000000E+00    7.000000000000000E-01    0.000000000000000E+00
    3.600000000000000E+00    7.000000000000000E-01    0.000000000000000E+00
    4.000000000000000E+00    7.000000000000000E-01    0.000000000000000E+00
    4.400000000000000E+00    7.000000000000000E-01    0.000000000000000E+00
    4.800000000000000E+00    7.000000000000000E-01    0.000000000000000E+00
    5.200000000000000E+00    7.000000000000000E-01    0.000000000000000E+00
    5.600000000000000E+00    7.000000000000000E-01    0.000000000000000E+00
    6.000000000000000E+00    7.000000000000000E-01    0.000000000000000E+00
    6.400000000000000E+00    7.000000000000000E-01    0.000000000000000E+00
    6.800000000000000E+00    7.000000000000000E-01    0.000000000000000E+00
    7.200000000000000E+00    7.000000000000000E-01    0.000000000000000E+00
    7.600000000000000E+00    7.000000000000000E-01    0.000000000000000E+00
    8.000000000000000E+00    7.000000000000000E-01    0.000000000000000E+00
    0.000000000000000E+00    8.000000000000000E-01    0.000000000000000E+00
    4.000000000000000E-01    8.000000000000000E-01    0.000000000000000E+00
    8.000000000000000E-01    8.000000000000000E-01    0.000000000000000E+00
    1.200000000000000E+00    8.000000000000000E-01    0.000000000000000E+00
    1.600000000000000E+00    8.000000000000000E-01    0.000000000000000E+00
    2.000000000000000E+00    8.000000000000000E-01    0.000000000000000E+00
    2.400000000000000E+00    8.000000000000000E-01    0.000000000000000E+00
    2.800000000000000E+00    8.000000000000000E-01    0.000000000000000E+00
    3.200000000000000E+00    8.000000000000000E-01    0.000000000000000E+00
    3.600000000000000E+00    8.000000000000000E-01    0.000000000000000E+00
    4.000000000000000E+00    8.000000000000000E-01    0.000000000000000E+00
    4.400000000000000E+00    8.000000000000000E-01    0.000000000000000E+00
    4.800000000000000E+00    8.000000000000000E-01    0.000000000000000E+00
    5.200000000000000E+00    8.000000000000000E-01    0.000000000000000E+00
    5.600000000000000E+00    8.000000000000000E-01    0.000000000000000E+00
    6.000000000000000E+00    8.000000000000000E-01    0.000000000000000E+00
    6.400000000000000E+00    8.000000000000000E-01    0.000000000000000E+00
    6.800000000000000E+00    8.000000000000000E-01    0.000000000000000E+00
    7.200000000000000E+00    8.000000000000000E-01    0.000000000000000E+00
    7.600000000000000E+00    8.000000000000000E-01    0.000000000000000E+00
    8.000000000000000E+00    8.000000000000000E-01    0.000000000000000E+00
    0.000000000000000E+00    9.000000000000000E-01    0.000000000000000E+00
    4.000000000000000E-01    9.000000000000000E-01    0.000000000000000E+00
    8.000000000000000E-01    9.000000000000000E-01    0.000000000000000E+00
    1.200000000000000E+00    9.000000000000000E-01    0.000000000000000E+00
    1.600000000000000E+00    9.000000000000000E-01    0.000000000000000E+00
    2.000000000000000E+00    9.000000000000000E-01    0.000000000000000E+00
    2.400000000000000E+00    9.000000000000000E-01    0.000000000000000E+00
    2.800000000000000E+00    9.000000000000000E-01    0.000000000000000E+00
    3.200000000000000E+00    9.000000000000000E-01    0.000000000000000E+00
    3.600000000000000E+00    9.000000000000000E-01    0.000000000000000E+00
    4.000000000000000E+00    9.000000000000000E-01    0.000000000000000E+00
    4.400000000000000E+00    9.000000000000000E-01    0.000000000000000E+00
    4.800000000000000E+00    9.000000000000000E-01    0.000000000000000E+00
    5.200000000000000E+00    9.000000000000000E-01    0.000000000000000E+00
    5.600000000000000E+00    9.000000000000000E-01    0.000000000000000E+00
    6.000000000000000E+00    9.000000000000000E-01    0.000000000000000E+00
    6.400000000000000E+00    9.000000000000000E-01    0.000000000000000E+00
    6.800000000000000E+00    9.000000000000000E-01    0.000000000000000E+00
    7.200000000000000E+00    9.000000000000000E-01    0.000000000000000E+00
    7.600000000000000E+00    9.000000000000000E-01    0.000000000000000E+00
    8.000000000000000E+00    9.000000000000000E-01    0.000000000000000E+00
    0.000000000000000E+00    1.000000000000000E+00    0.000000000000000E+00
    4.000000000000000E-01    1.000000000000000E+00    0.000000000000000E+00
    8.000000000000000E-01    1.000000000000000E+00    0.000000000000000E+00
    1.200000000000000E+00    1.000000000000000E+00    0.000000000000000E+00
    1.600000000000000E+00    1.000000000000000E+00    0.000000000000000E+00
    2.000000000000000E+00    1.000000000000000E+00    0.000000000000000E+00
    2.400000000000000E+00    1.000000000000000E+00    0.000000000000000E+00
    2.800000000000000E+00    1.000000000000000E+00    0.000000000000000E+00
    3.200000000000000E+00    1.000000000000000E+00    0.000000000000000E+00
    3.600000000000000E+00    1.000000000000000E+00    0.000000000000000E+00
    4.000000000000000E+00    1.000000000000000E+00    0.000000000000000E+00
    4.400000000000000E+00    1.000000000000000E+00    0.000000000000000E+00
    4.800000000000000E+00    1.000000000000000E+00    0.000000000000000E+00
    5.200000000000000E+00    1.000000000000000E+00    0.000000000000000E+00
    5.600000000000000E+00    1.000000000000000E+00    0.000000000000000E+00
    6.000000000000000E+00    1.000000000000000E+00    0.000000000000000E+00
    6.400000000000000E+00    1.000000000000000E+00    0.000000000000000E+00
    6.800000000000000E+00    1.000000000000000E+00    0.000000000000000E+00
    7.200000000000000E+00    1.000000000000000E+00    0.000000000000000E+00
    7.600000000000000E+00    1.000000000000000E+00    0.000000000000000E+00
    8.000000000000000E+00    1.000000000000000E+00    0.000000000000000E+00
    0.000000000000000E+00    0.000000000000000E+00    1.000000000000000E+00
    4.000000000000000E-01    0.000000000000000E+00    1.000000000000000E+00
    8.000000000000000E-01    0.000000000000000E+00    1.000000000000000E+00
    1.200000000000000E+00    0.000000000000000E+00    1.000000000000000E+00
    1.600000000000000E+00    0.000000000000000E+00    1.000000000000000E+00
    2.000000000000000E+00    0.000000000000000E+00    1.000000000000000E+00
    2.400000000000000E+00    0.000000000000000E+00    1.000000000000000E+00
    2.800000000000000E+00    0.000000000000000E+00    1.000000000000000E+00
    3.200000000000000E+00    0.000000000000000E+00    1.000000000000000E+00
    3.600000000000000E+00    0.000000000000000E+00    1.000000000000000E+00
    4.000000000000000E+00    0.000000000000000E+00    1.000000000000000E+00
    4.400000000000000E+00    0.000000000000000E+00    1.000000000000000E+00
    4.800000000000000E+00    0.000000000000000E+00    1.000000000000000E+00
    5.200000000000000E+00    0.000000000000000E+00    1.000000000000000E+00
    5.600000000000000E+00    0.000000000000000E+00    1.000000000000000E+00
    6.000000000000000E+00    0.000000000000000E+00    1.000000000000000E+00
    6.400000000000000E+00    0.000000000000000E+00    1.000000000000000E+00
    6.800000000000000E+00    0.000000000000000E+00    1.000000000000000E+00
    7.200000000000000E+00    0.000000000000000E+00    1.000000000000000E+00
    7.600000000000000E+00    0.000000000000000E+00    1.000000000000000E+00
    8.000000000000000E+00    0.000000000000000E+00    1.000000000000000E+00
    0.000000000000000E+00    1.000000000000000E-01    1.000000000000000E+00
    4.000000000000000E-01    1.000000000000000E-01    1.000000000000000E+00
    8.000000000000000E-01    1.000000000000000E-01    1.000000000000000E+00
    1.200000000000000E+00    1.000000000000000E-01    1.000000000000000E+00
    1.600000000000000E+00    1.000000000000000E-01    1.000000000000000E+00
    2.000000000000000E+00    1.000000000000000E-01    1.000000000000000E+00
    2.400000000000000E+00    1.000000000000000E-01    1.000000000000000E+00
    2.800000000000000E+00    1.000000000000000E-01    1.000000000000000E+00
    3.200000000000000E+00    1.000000000000000E-01    1.000000000000000E+00
    3.600000000000000E+00    1.000000000000000E-01    1.000000000000000E+00
    4.000000000000000E+00    1.000000000000000E-01    1.000000000000000E+00
    4.400000000000000E+00    1.000000000000000E-01    1.000000000000000E+00
    4.800000000000000E+00    1.000000000000000E-01    1.000000000000000E+00
    5.200000000000000E+00    1.000000000000000E-01    1.000000000000000E+00
    5.600000000000000E+00    1.000000000000000E-01    1.000000000000000E+00
    6.000000000000000E+00    1.000000000000000E-01    1.000000000000000E+00
    6.400000000000000E+00    1.000000000000000E-01    1.000000000000000E+00
    6.800000000000000E+00    1.000000000000000E-01    1.000000000000000E+00
    7.200000000000000E+00    1.000000000000000E-01    1.000000000000000E+00
    7.600000000000000E+00    1.000000000000000E-01    1.000000000000000E+00
    8.000000000000000E+00    1.000000000000000E-01    1.000000000000000E+00
    0.000000000000000E+00    2.000000000000000E-01    1.000000000000000E+00
    4.000000000000000E-01    2.000000000000000E-01    1.000000000000000E+00
    8.000000000000000E-01    2.000000000000000E-01    1.000000000000000E+00
    1.200000000000000E+00    2.000000000000000E-01    1.000000000000000E+00
    1.600000000000000E+00    2.000000000000000E-01    1.000000000000000E+00
    2.000000000000000E+00    2.000000000000000E-01    1.000000000000000E+00
    2.400000000000000E+00    2.000000000000000E-01    1.000000000000000E+00
    2.800000000000000E+00    2.000000000000000E-01    1.000000000000000E+00
    3.200000000000000E+00    2.000000000000000E-01    1.000000000000000E+00
    3.600000000000000E+00    2.000000000000000E-01    1.000000000000000E+00
    4.000000000000000E+00    2.000000000000000E-01    1.000000000000000E+00
    4.400000000000000E+00    2.000000000000000E-01    1.000000000000000E+00
    4.800000000000000E+00    2.000000000000000E-01    1.000000000000000E+00
    5.200000000000000E+00    2.000000000000000E-01    1.000000000000000E+00
    5.600000000000000E+00    2.000000000000000E-01    1.000000000000000E+00
    6.000000000000000E+00    2.000000000000000E-01    1.000000000000000E+00
    6.400000000000000E+00    2.000000000000000E-01    1.000000000000000E+00
    6.800000000000000E+00    2.000000000000000E-01    1.000000000000000E+00
    7.200000000000000E+00    2.000000000000000E-01    1.000000000000000E+00
    7.600000000000000E+00    2.000000000000000E-01    1.000000000000000E+00
    8.000000000000000E+00    2.000000000000000E-01    1.000000000000000E+00
    0.000000000000000E+00    3.000000000000000E-01    1.000000000000000E+00
    4.000000000000000E-01    3.000000000000000E-01    1.000000000000000E+00
    8.000000000000000E-01    3.000000000000000E-01    1.000000000000000E+00
    1.200000000000000E+00    3.000000000000000E-01    1.000000000000000E+00
    1.600000000000000E+00    3.000000000000000E-01    1.000000000000000E+00
    2.000000000000000E+00    3.000000000000000E-01    1.000000000000000E+00
    2.400000000000000E+00    3.000000000000000E-01    1.000000000000000E+00
    2.800000000000000E+00    3.000000000000000E-01    1.000000000000000E+00
    3.200000000000000E+00    3.000000000000000E-01    1.000000000000000E+00
    3.600000000000000E+00    3.000000000000000E-01    1.000000000000000E+00
    4.000000000000000E+00    3.000000000000000E-01    1.000000000000000E+00
    4.400000000000000E+00    3.000000000000000E-01    1.000000000000000E+00
    4.800000000000000E+00    3.000000000000000E-01    1.000000000000000E+00
    5.200000000000000E+00    3.000000000000000E-01    1.000000000000000E+00
    5.600000000000000E+00    3.000000000000000E-01    1.000000000000000E+00
    6.000000000000000E+00    3.000000000000000E-01    1.000000000000000E+00
    6.400000000000000E+00    3.000000000000000E-01    1.000000000000000E+00
    6.800000000000000E+00    3.000000000000000E-01    1.000000000000000E+00
    7.200000000000000E+00    3.000000000000000E-01    1.000000000000000E+00
    7.600000000000000E+00    3.000000000000000E-01    1.000000000000000E+00
    8.000000000000000E+00    3.000000000000000E-01    1.000000000000000E+00
    0.000000000000000E+00    4.000000000000000E-01    1.000000000000000E+00
    4.000000000000000E-01    4.000000000000000E-01    1.000000000000000E+00
    8.000000000000000E-01    4.000000000000000E-01    1.000000000000000E+00
    1.200000000000000E+00    4.000000000000000E-01    1.000000000000000E+00
    1.600000000000000E+00    4.000000000000000E-01    1.000000000000000E+00
    2.000000000000000E+00    4.000000000000000E-01    1.000000000000000E+00
    2.400000000000000E+00    4.000000000000000E-01    1.000000000000000E+00
    2.800000000000000E+00    4.000000000000000E-01    1.000000000000000E+00
    3.200000000000000E+00    4.000000000000000E-01    1.000000000000000E+00
    3.600000000000000E+00    4.000000000000000E-01    1.000000000000000E+00
    4.000000000000000E+00    4.000000000000000E-01    1.000000000000000E+00
    4.400000000000000E+00    4.000000000000000E-01    1.000000000000000E+00
    4.800000000000000E+00    4.000000000000000E-01    1.000000000000000E+00
    5.200000000000000E+00    4.000000000000000E-01    1.000000000000000E+00
    5.600000000000000E+00    4.000000000000000E-01    1.000000000000000E+00
    6.000000000000000E+00    4.000000000000000E-01    1.000000000000000E+00
    6.400000000000000E+00    4.000000000000000E-01    1.000000000000000E+00
    6.800000000000000E+00    4.000000000000000E-01    1.000000000000000E+00
    7.200000000000000E+00    4.000000000000000E-01    1.000000000000000E+00
    7.600000000000000E+00    4.000000000000000E-01    1.000000000000000E+00
    8.000000000000000E+00    4.000000000000000E-01    1.000000000000000E+00
    0.000000000000000E+00    5.000000000000000E-01    1.000000000000000E+00
    4.000000000000000E-01    5.000000000000000E-01    1.000000000000000E+00
    8.000000000000000E-01    5.000000000000000E-01    1.000000000000000E+00
    1.200000000000000E+00    5.000000000000000E-01    1.000000000000000E+00
    1.600000000000000E+00    5.000000000000000E-01    1.000000000000000E+00
    2.000000000000000E+00    5.000000000000000E-01    1.000000000000000E+00
    2.400000000000000E+00    5.000000000000000E-01    1.000000000000000E+00
    2.800000000000000E+00    5.000000000000000E-01    1.000000000000000E+00
    3.200000000000000E+00    5.000000000000000E-01    1.000000000000000E+00
    3.600000000000000E+00    5.000000000000000E-01    1.000000000000000E+00
    4.000000000000000E+00    5.000000000000000E-01    1.000000000000000E+00
    4.400000000000000E+00    5.000000000000000E-01    1.000000000000000E+00
    4.800000000000000E+00    5.000000000000000E-01    1.000000000000000E+00
    5.200000000000000E+00    5.000000000000000E-01    1.000000000000000E+00
    5.600000000000000E+00    5.000000000000000E-01    1.000000000000000E+00
    6.000000000000000E+00    5.000000000000000E-01    1.000000000000000E+00
    6.400000000000000E+00    5.000000000000000E-01    1.000000000000000E+00
    6.800000000000000E+00    5.000000000000000E-01    1.000000000000000E+00
    7.200000000000000E+00    5.000000000000000E-01    1.000000000000000E+00
    7.600000000000000E+00    5.000000000000000E-01    1.000000000000000E+00
    8.000000000000000E+00    5.000000000000000E-01    1.000000000000000E+00
    0.000000000000000E+00    6.000000000000000E-01    1.000000000000000E+00
    4.000000000000000E-01    6.000000000000000E-01    1.000000000000000E+00
    8.000000000000000E-01    6.000000000000000E-01    1.000000000000000E+00
    1.200000000000000E+00    6.000000000000000E-01    1.000000000000000E+00
    1.600000000000000E+00    6.000000000000000E-01    1.000000000000000E+00
    2.000000000000000E+00    6.000000000000000E-01    1.000000000000000E+00
    2.400000000000000E+00    6.000000000000000E-01    1.000000000000000E+00
    2.800000000000000E+00    6.000000000000000E-01    1.000000000000000E+00
    3.200000000000000E+00    6.000000000000000E-01    1.000000000000000E+00
    3.600000000000000E+00    6.000000000000000E-01    1.000000000000000E+00
    4.000000000000000E+00    6.000000000000000E-01    1.000000000000000E+00
    4.400000000000000E+00    6.000000000000000E-01    1.000000000000000E+00
    4.800000000000000E+00    6.000000000000000E-01    1.000000000000000E+00
    5.200000000000000E+00    6.000000000000000E-01    1.000000000000000E+00
    5.600000000000000E+00    6.000000000000000E-01    1.000000000000000E+00
    6.000000000000000E+00    6.000000000000000E-01    1.000000000000000E+00
    6.400000000000000E+00    6.000000000000000E-01    1.000000000000000E+00
    6.800000000000000E+00    6.000000000000000E-01    1.000000000000000E+00
    7.200000000000000E+00    6.000000000000000E-01    1.000000000000000E+00
    7.600000000000000E+00    6.000000000000000E-01    1.000000000000000E+00
    8.000000000000000E+00    6.000000000000000E-01    1.000000000000000E+00
    0.000000000000000E+00    7.000000000000000E-01    1.000000000000000E+00
    4.000000000000000E-01    7.000000000000000E-01    1.000000000000000E+00
    8.000000000000000E-01    7.000000000000000E-01    1.000000000000000E+00
    1.200000000000000E+00    7.000000000000000E-01    1.000000000000000E+00
    1.600000000000000E+00    7.000000000000000E-01    1.000000000000000E+00
    2.000000000000000E+00    7.000000000000000E-01    1.000000000000000E+00
    2.400000000000000E+00    7.000000000000000E-01    1.000000000000000E+00
    2.800000000000000E+00    7.000000000000000E-01    1.000000000000000E+00
    3.200000000000000E+00    7.000000000000000E-01    1.000000000000000E+00
    3.600000000000000E+00    7.000000000000000E-01    1.000000000000000E+00
    4.000000000000000E+00    7.000000000000000E-01    1.000000000000000E+00
    4.400000000000000E+00    7.000000000000000E-01    1.000000000000000E+00
    4.800000000000000E+00    7.000000000000000E-01    1.000000000000000E+00
    5.200000000000000E+00    7.000000000000000E-01    1.000000000000000E+00
    5.600000000000000E+00    7.000000000000000E-01    1.000000000000000E+00
    6.000000000000000E+00    7.000000000000000E-01    1.000000000000000E+00
    6.400000000000000E+00    7.000000000000000E-01    1.000000000000000E+00
    6.800000000000000E+00    7.000000000000000E-01    1.000000000000000E+00
    7.200000000000000E+00    7.000000000000000E-01    1.000000000000000E+00
    7.600000000000000E+00    7.000000000000000E-01    1.000000000000000E+00
    8.000000000000000E+00    7.000000000000000E-01    1.000000000000000E+00
    0.000000000000000E+00    8.000000000000000E-01    1.000000000000000E+00
    4.000000000000000E-01    8.000000000000000E-01    1.000000000000000E+00
    8.000000000000000E-01    8.000000000000000E-01    1.000000000000000E+00
    1.200000000000000E+00    8.000000000000000E-01    1.000000000000000E+00
    1.600000000000000E+00    8.000000000000000E-01    1.000000000000000E+00
    2.000000000000000E+00    8.000000000000000E-01    1.000000000000000E+00
    2.400000000000000E+00    8.000000000000000E-01    1.000000000000000E+00
    2.800000000000000E+00    8.000000000000000E-01    1.000000000000000E+00
    3.200000000000000E+00    8.000000000000000E-01    1.000000000000000E+00
    3.600000000000000E+00    8.000000000000000E-01    1.000000000000000E+00
    4.000000000000000E+00    8.000000000000000E-01    1.000000000000000E+00
    4.400000000000000E+00    8.000000000000000E-01    1.000000000000000E+00
    4.800000000000000E+00    8.000000000000000E-01    1.000000000000000E+00
    5.200000000000000E+00    8.000000000000000E-01    1.000000000000000E+00
    5.600000000000000E+00    8.000000000000000E-01    1.000000000000000E+00
    6.000000000000000E+00    8.000000000000000E-01    1.000000000000000E+00
    6.400000000000000E+00    8.000000000000000E-01    1.000000000000000E+00
    6.800000000000000E+00    8.000000000000000E-01    1.000000000000000E+00
    7.200000000000000E+00    8.000000000000000E-01    1.000000000000000E+00
    7.600000000000000E+00    8.000000000000000E-01    1.000000000000000E+00
    8.000000000000000E+00    8.000000000000000E-01    1.000000000000000E+00
    0.000000000000000E+00    9.000000000000000E-01    1.000000000000000E+00
    4.000000000000000E-01    9.000000000000000E-01    1.000000000000000E+00
    8.000000000000000E-01    9.000000000000000E-01    1.000000000000000E+00
    1.200000000000000E+00    9.000000000000000E-01    1.000000000000000E+00
    1.600000000000000E+00    9.000000000000000E-01    1.000000000000000E+00
    2.000000000000000E+00    9.000000000000000E-01    1.000000000000000E+00
    2.400000000000000E+00    9.000000000000000E-01    1.000000000000000E+00
    2.800000000000000E+00    9.000000000000000E-01    1.000000000000000E+00
    3.200000000000000E+00    9.000000000000000E-01    1.000000000000000E+00
    3.600000000000000E+00    9.000000000000000E-01    1.000000000000000E+00
    4.000000000000000E+00    9.000000000000000E-01    1.000000000000000E+00
    4.400000000000000E+00    9.000000000000000E-01    1.000000000000000E+00
    4.800000000000000E+00    9.000000000000000E-01    1.000000000000000E+00
    5.200000000000000E+00    9.000000000000000E-01    1.000000000000000E+00
    5.600000000000000E+00    9.000000000000000E-01    1.000000000000000E+00
    6.000000000000000E+00    9.000000000000000E-01    1.000000000000000E+00
    6.400000000000000E+00    9.000000000000000E-01    1.000000000000000E+00
    6.800000000000000E+00    9.000000000000000E-01    1.000000000000000E+00
    7.200000000000000E+00    9.000000000000000E-01    1.000000000000000E+00
    7.600000000000000E+00    9.000000000000000E-01    1.000000000000000E+00
    8.000000000000000E+00    9.000000000000000E-01    1.000000000000000E+00
    0.000000000000000E+00    1.000000000000000E+00    1.000000000000000E+00
    4.000000000000000E-01    1.000000000000000E+00    1.000000000000000E+00
    8.000000000000000E-01    1.000000000000000E+00    1.000000000000000E+00
    1.200000000000000E+00    1.000000000000000E+00    1.000000000000000E+00
    1.600000000000000E+00    1.000000000000000E+00    1.000000000000000E+00
    2.000000000000000E+00    1.000000000000000E+00    1.000000000000000E+00
    2.400000000000000E+00    1.000000000000000E+00    1.000000000000000E+00
    2.800000000000000E+00    1.000000000000000E+00    1.000000000000000E+00
    3.200000000000000E+00    1.000000000000000E+00    1.000000000000000E+00
    3.600000000000000E+00    1.000000000000000E+00    1.000000000000000E+00
    4.000000000000000E+00    1.000000000000000E+00    1.000000000000000E+00
    4.400000000000000E+00    1.000000000000000E+00    1.000000000000000E+00
    4.800000000000000E+00    1.000000000000000E+00    1.000000000000000E+00
    5.200000000000000E+00    1.000000000000000E+00    1.000000000000000E+00
    5.600000000000000E+00    1.000000000000000E+00    1.000000000000000E+00
    6.000000000000000E+00    1.000000000000000E+00    1.000000000000000E+00
    6.400000000000000E+00    1.000000000000000E+00    1.000000000000000E+00
    6.800000000000000E+00    1.000000000000000E+00    1.000000000000000E+00
    7.200000000000000E+00    1.000000000000000E+00    1.000000000000000E+00
    7.600000000000000E+00    1.000000000000000E+00    1.000000000000000E+00
    8.000000000000000E+00    1.000000000000000E+00    1.000000000000000E+00
CELL_DATA          200
SCALARS temperature double 1
LOOKUP_TABLE default
    3.000000000000000E+02
    3.000000000000000E+02
    3.000000000000000E+02
    3.000000000000000E+02
    3.000000000000000E+02
    3.000000000000000E+02
    3.000000000000000E+02
    3.000000000000000E+02
    3.000000000000000E+02
    3.000000000000000E+02
    3.000000000000000E+02
    3.000000000000000E+02
    3.000000000000000E+02
    3.000000000000000E+02
    3.000000000000000E+02
    3.000000000000000E+02
    3.000000000000000E+02
    3.000000000000000E+02
    3.000000000000000E+02
    3.000000000000000E+02
    3.000000000000000E+02
    3.000000000000000E+02
    3.000000000000000E+02
    3.000000000000000E+02
    3.000000000000000E+02
    3.000000000000000E+02
    3.000000000000000E+02
    3.000000000000000E+02
    3.000000000000000E+02
    3.000000000000000E+02
    3.000000000000000E+02
    3.000000000000000E+02
    3.000000000000000E+02
    3.000000000000000E+02
    3.000000000000000E+02
    3.000000000000000E+02
    3.000000000000000E+02
    3.000000000000000E+02
    3.000000000000000E+02
    3.000000000000000E+02
    3.000000000000000E+02
    3.000000000000000E+02
    3.000000000000000E+02
    3.000000000000000E+02
    3.000000000000000E+02
    3.000000000000000E+02
    3.000000000000000E+02
    3.000000000000000E+02
    3.000000000000000E+02
    3.000000000000000E+02
    3.000000000000000E+02
    3.000000000000000E+02
    3.000000000000000E+02
    3.000000000000000E+02
    3.000000000000000E+02
    3.000000000000000E+02
    3.000000000000000E+02
    3.000000000000000E+02
    3.000000000000000E+02
    3.000000000000000E+02
    3.000000000000000E+02
    3.000000000000000E+02
    3.000000000000000E+02
    3.000000000000000E+02
    3.000000000000000E+02
    3.000000000000000E+02
    3.000000000000000E+02
    3.000000000000000E+02
    3.000000000000000E+02
    3.000000000000000E+02
    3.000000000000000E+02
    3.000000000000000E+02
    3.000000000000000E+02
    3.000000000000000E+02
    3.000000000000000E+02
    3.000000000000000E+02
    3.000000000000000E+02
    3.000000000000000E+02
    3.000000000000000E+02
    3.000000000000000E+02
    3.000000000000000E+02
    3.000000000000000E+02
    3.000000000000000E+02
    3.000000000000000E+02
    3.000000000000000E+02
    3.000000000000000E+02
    3.000000000000000E+02
    3.000000000000000E+02
    3.000000000000000E+02
    3.000000000000000E+02
    3.000000000000000E+02
    3.000000000000000E+02
    3.000000000000000E+02
    3.000000000000000E+02
    3.000000000000000E+02
    3.000000000000000E+02
    3.000000000000000E+02
    3.000000000000000E+02
    3.000000000000000E+02
    3.000000000000000E+02
    3.000000000000000E+02
    3.000000000000000E+02
    3.000000000000000E+02
    3.000000000000000E+02
    3.000000000000000E+02
    3.000000000000000E+02
    3.000000000000000E+02
    3.000000000000000E+02
    3.000000000000000E+02
    3.000000000000000E+02
    3.000000000000000E+02
    3.000000000000000E+02
    3.000000000000000E+02
    3.000000000000000E+02
    3.000000000000000E+02
    3.000000000000000E+02
    3.000000000000000E+02
    3.000000000000000E+02
    3.000000000000000E+02
    3.000000000000000E+02
    3.000000000000000E+02
    3.000000000000000E+02
    3.000000000000000E+02
    3.000000000000000E+02
    3.000000000000000E+02
    3.000000000000000E+02
    3.000000000000000E+02
    3.000000000000000E+02
    3.000000000000000E+02
    3.000000000000000E+02
    3.000000000000000E+02
    3.000000000000000E+02
    3.000000000000000E+02
    3.000000000000000E+02
    3.000000000000000E+02
    3.000000000000000E+02
    3.000000000000000E+02
    3.000000000000000E+02
    3.000000000000000E+02
    3.000000000000000E+02
    3.000000000000000E+02
    3.000000000000000E+02
    3.000000000000000E+02
    3.000000000000000E+02
    3.000000000000000E+02
    3.000000000000000E+02
    3.000000000000000E+02
    3.000000000000000E+02
    3.000000000000000E+02
    3.000000000000000E+02
    3.000000000000000E+02
    3.000000000000000E+02
    3.000000000000000E+02
    3.000000000000000E+02
    3.000000000000000E+02
    3.000000000000000E+02
    3.000000000000000E+02
    3.000000000000000E+02
    3.000000000000000E+02
    3.000000000000000E+02
    3.000000000000000E+02
    3.000000000000000E+02
    3.000000000000000E+02
    3.000000000000000E+02
    3.000000000000000E+02
    3.000000000000000E+02
    3.000000000000000E+02
    3.000000000000000E+02
    3.000000000000000E+02
    3.000000000000000E+02
    3.000000000000000E+02
    3.000000000000000E+02
    3.000000000000000E+02
    3.000000000000000E+02
    3.000000000000000E+02
    3.000000000000000E+02
    3.000000000000000E+02
    3.000000000000000E+02
    3.000000000000000E+02
    3.000000000000000E+02
    3.000000000000000E+02
    3.000000000000000E+02
    3.000000000000000E+02
    3.000000000000000E+02
    3.000000000000000E+02
    3.000000000000000E+02
    3.000000000000000E+02
    3.000000000000000E+02
    3.000000000000000E+02
    3.000000000000000E+02
    3.000000000000000E+02
    3.000000000000000E+02
    3.000000000000000E+02
    3.000000000000000E+02
    3.000000000000000E+02
    3.000000000000000E+02
    3.000000000000000E+02
    3.000000000000000E+02
    3.000000000000000E+02
    3.000000000000000E+02
