# vtk DataFile Version 3.0
OpenCFD-EC output
ASCII
DATASET STRUCTURED_GRID
DIMENSIONS    201     2     2
POINTS          804 double
    0.000000000000000E+00    0.000000000000000E+00    0.000000000000000E+00
    5.000000000000000E-05    0.000000000000000E+00    0.000000000000000E+00
    1.000000000000000E-04    0.000000000000000E+00    0.000000000000000E+00
    1.500000000000000E-04    0.000000000000000E+00    0.000000000000000E+00
    2.000000000000000E-04    0.000000000000000E+00    0.000000000000000E+00
    2.500000000000000E-04    0.000000000000000E+00    0.000000000000000E+00
    3.000000000000000E-04    0.000000000000000E+00    0.000000000000000E+00
    3.500000000000000E-04    0.000000000000000E+00    0.000000000000000E+00
    4.000000000000000E-04    0.000000000000000E+00    0.000000000000000E+00
    4.500000000000000E-04    0.000000000000000E+00    0.000000000000000E+00
    5.000000000000000E-04    0.000000000000000E+00    0.000000000000000E+00
    5.500000000000000E-04    0.000000000000000E+00    0.000000000000000E+00
    6.000000000000001E-04    0.000000000000000E+00    0.000000000000000E+00
    6.500000000000001E-04    0.000000000000000E+00    0.000000000000000E+00
    7.000000000000000E-04    0.000000000000000E+00    0.000000000000000E+00
    7.500000000000000E-04    0.000000000000000E+00    0.000000000000000E+00
    8.000000000000000E-04    0.000000000000000E+00    0.000000000000000E+00
    8.500000000000001E-04    0.000000000000000E+00    0.000000000000000E+00
    9.000000000000001E-04    0.000000000000000E+00    0.000000000000000E+00
    9.500000000000000E-04    0.000000000000000E+00    0.000000000000000E+00
    1.000000000000000E-03    0.000000000000000E+00    0.000000000000000E+00
    1.050000000000000E-03    0.000000000000000E+00    0.000000000000000E+00
    1.100000000000000E-03    0.000000000000000E+00    0.000000000000000E+00
    1.150000000000000E-03    0.000000000000000E+00    0.000000000000000E+00
    1.200000000000000E-03    0.000000000000000E+00    0.000000000000000E+00
    1.250000000000000E-03    0.000000000000000E+00    0.000000000000000E+00
    1.300000000000000E-03    0.000000000000000E+00    0.000000000000000E+00
    1.350000000000000E-03    0.000000000000000E+00    0.000000000000000E+00
    1.400000000000000E-03    0.000000000000000E+00    0.000000000000000E+00
    1.450000000000000E-03    0.000000000000000E+00    0.000000000000000E+00
    1.500000000000000E-03    0.000000000000000E+00    0.000000000000000E+00
    1.550000000000000E-03    0.000000000000000E+00    0.000000000000000E+00
    1.600000000000000E-03    0.000000000000000E+00    0.000000000000000E+00
    1.650000000000000E-03    0.000000000000000E+00    0.000000000000000E+00
    1.700000000000000E-03    0.000000000000000E+00    0.000000000000000E+00
    1.750000000000000E-03    0.000000000000000E+00    0.000000000000000E+00
    1.800000000000000E-03    0.000000000000000E+00    0.000000000000000E+00
    1.850000000000000E-03    0.000000000000000E+00    0.000000000000000E+00
    1.900000000000000E-03    0.000000000000000E+00    0.000000000000000E+00
    1.950000000000000E-03    0.000000000000000E+00    0.000000000000000E+00
    2.000000000000000E-03    0.000000000000000E+00    0.000000000000000E+00
    2.050000000000000E-03    0.000000000000000E+00    0.000000000000000E+00
    2.100000000000000E-03    0.000000000000000E+00    0.000000000000000E+00
    2.150000000000000E-03    0.000000000000000E+00    0.000000000000000E+00
    2.200000000000000E-03    0.000000000000000E+00    0.000000000000000E+00
    2.250000000000000E-03    0.000000000000000E+00    0.000000000000000E+00
    2.300000000000000E-03    0.000000000000000E+00    0.000000000000000E+00
    2.350000000000000E-03    0.000000000000000E+00    0.000000000000000E+00
    2.400000000000000E-03    0.000000000000000E+00    0.000000000000000E+00
    2.450000000000000E-03    0.000000000000000E+00    0.000000000000000E+00
    2.500000000000000E-03    0.000000000000000E+00    0.000000000000000E+00
    2.550000000000000E-03    0.000000000000000E+00    0.000000000000000E+00
    2.600000000000000E-03    0.000000000000000E+00    0.000000000000000E+00
    2.650000000000000E-03    0.000000000000000E+00    0.000000000000000E+00
    2.700000000000000E-03    0.000000000000000E+00    0.000000000000000E+00
    2.750000000000000E-03    0.000000000000000E+00    0.000000000000000E+00
    2.800000000000000E-03    0.000000000000000E+00    0.000000000000000E+00
    2.850000000000000E-03    0.000000000000000E+00    0.000000000000000E+00
    2.900000000000000E-03    0.000000000000000E+00    0.000000000000000E+00
    2.950000000000000E-03    0.000000000000000E+00    0.000000000000000E+00
    3.000000000000000E-03    0.000000000000000E+00    0.000000000000000E+00
    3.050000000000000E-03    0.000000000000000E+00    0.000000000000000E+00
    3.100000000000000E-03    0.000000000000000E+00    0.000000000000000E+00
    3.150000000000000E-03    0.000000000000000E+00    0.000000000000000E+00
    3.200000000000000E-03    0.000000000000000E+00    0.000000000000000E+00
    3.250000000000000E-03    0.000000000000000E+00    0.000000000000000E+00
    3.300000000000000E-03    0.000000000000000E+00    0.000000000000000E+00
    3.350000000000000E-03    0.000000000000000E+00    0.000000000000000E+00
    3.400000000000000E-03    0.000000000000000E+00    0.000000000000000E+00
    3.450000000000000E-03    0.000000000000000E+00    0.000000000000000E+00
    3.500000000000000E-03    0.000000000000000E+00    0.000000000000000E+00
    3.550000000000000E-03    0.000000000000000E+00    0.000000000000000E+00
    3.600000000000000E-03    0.000000000000000E+00    0.000000000000000E+00
    3.650000000000000E-03    0.000000000000000E+00    0.000000000000000E+00
    3.700000000000000E-03    0.000000000000000E+00    0.000000000000000E+00
    3.750000000000000E-03    0.000000000000000E+00    0.000000000000000E+00
    3.800000000000000E-03    0.000000000000000E+00    0.000000000000000E+00
    3.850000000000000E-03    0.000000000000000E+00    0.000000000000000E+00
    3.900000000000000E-03    0.000000000000000E+00    0.000000000000000E+00
    3.950000000000000E-03    0.000000000000000E+00    0.000000000000000E+00
    4.000000000000000E-03    0.000000000000000E+00    0.000000000000000E+00
    4.050000000000000E-03    0.000000000000000E+00    0.000000000000000E+00
    4.100000000000000E-03    0.000000000000000E+00    0.000000000000000E+00
    4.150000000000000E-03    0.000000000000000E+00    0.000000000000000E+00
    4.200000000000001E-03    0.000000000000000E+00    0.000000000000000E+00
    4.250000000000000E-03    0.000000000000000E+00    0.000000000000000E+00
    4.300000000000000E-03    0.000000000000000E+00    0.000000000000000E+00
    4.350000000000001E-03    0.000000000000000E+00    0.000000000000000E+00
    4.400000000000000E-03    0.000000000000000E+00    0.000000000000000E+00
    4.450000000000000E-03    0.000000000000000E+00    0.000000000000000E+00
    4.500000000000001E-03    0.000000000000000E+00    0.000000000000000E+00
    4.550000000000000E-03    0.000000000000000E+00    0.000000000000000E+00
    4.600000000000000E-03    0.000000000000000E+00    0.000000000000000E+00
    4.650000000000000E-03    0.000000000000000E+00    0.000000000000000E+00
    4.700000000000000E-03    0.000000000000000E+00    0.000000000000000E+00
    4.750000000000000E-03    0.000000000000000E+00    0.000000000000000E+00
    4.800000000000000E-03    0.000000000000000E+00    0.000000000000000E+00
    4.850000000000000E-03    0.000000000000000E+00    0.000000000000000E+00
    4.900000000000000E-03    0.000000000000000E+00    0.000000000000000E+00
    4.950000000000000E-03    0.000000000000000E+00    0.000000000000000E+00
    5.000000000000000E-03    0.000000000000000E+00    0.000000000000000E+00
    5.050000000000001E-03    0.000000000000000E+00    0.000000000000000E+00
    5.100000000000000E-03    0.000000000000000E+00    0.000000000000000E+00
    5.150000000000000E-03    0.000000000000000E+00    0.000000000000000E+00
    5.200000000000001E-03    0.000000000000000E+00    0.000000000000000E+00
    5.250000000000000E-03    0.000000000000000E+00    0.000000000000000E+00
    5.300000000000000E-03    0.000000000000000E+00    0.000000000000000E+00
    5.350000000000001E-03    0.000000000000000E+00    0.000000000000000E+00
    5.400000000000000E-03    0.000000000000000E+00    0.000000000000000E+00
    5.450000000000000E-03    0.000000000000000E+00    0.000000000000000E+00
    5.500000000000001E-03    0.000000000000000E+00    0.000000000000000E+00
    5.550000000000000E-03    0.000000000000000E+00    0.000000000000000E+00
    5.600000000000000E-03    0.000000000000000E+00    0.000000000000000E+00
    5.650000000000001E-03    0.000000000000000E+00    0.000000000000000E+00
    5.700000000000000E-03    0.000000000000000E+00    0.000000000000000E+00
    5.750000000000000E-03    0.000000000000000E+00    0.000000000000000E+00
    5.800000000000000E-03    0.000000000000000E+00    0.000000000000000E+00
    5.850000000000000E-03    0.000000000000000E+00    0.000000000000000E+00
    5.900000000000000E-03    0.000000000000000E+00    0.000000000000000E+00
    5.950000000000000E-03    0.000000000000000E+00    0.000000000000000E+00
    6.000000000000000E-03    0.000000000000000E+00    0.000000000000000E+00
    6.050000000000001E-03    0.000000000000000E+00    0.000000000000000E+00
    6.100000000000000E-03    0.000000000000000E+00    0.000000000000000E+00
    6.150000000000000E-03    0.000000000000000E+00    0.000000000000000E+00
    6.200000000000001E-03    0.000000000000000E+00    0.000000000000000E+00
    6.250000000000000E-03    0.000000000000000E+00    0.000000000000000E+00
    6.300000000000000E-03    0.000000000000000E+00    0.000000000000000E+00
    6.350000000000001E-03    0.000000000000000E+00    0.000000000000000E+00
    6.400000000000000E-03    0.000000000000000E+00    0.000000000000000E+00
    6.450000000000000E-03    0.000000000000000E+00    0.000000000000000E+00
    6.500000000000001E-03    0.000000000000000E+00    0.000000000000000E+00
    6.550000000000000E-03    0.000000000000000E+00    0.000000000000000E+00
    6.600000000000000E-03    0.000000000000000E+00    0.000000000000000E+00
    6.650000000000001E-03    0.000000000000000E+00    0.000000000000000E+00
    6.700000000000000E-03    0.000000000000000E+00    0.000000000000000E+00
    6.750000000000000E-03    0.000000000000000E+00    0.000000000000000E+00
    6.800000000000000E-03    0.000000000000000E+00    0.000000000000000E+00
    6.850000000000000E-03    0.000000000000000E+00    0.000000000000000E+00
    6.900000000000001E-03    0.000000000000000E+00    0.000000000000000E+00
    6.950000000000000E-03    0.000000000000000E+00    0.000000000000000E+00
    7.000000000000000E-03    0.000000000000000E+00    0.000000000000000E+00
    7.050000000000001E-03    0.000000000000000E+00    0.000000000000000E+00
    7.100000000000000E-03    0.000000000000000E+00    0.000000000000000E+00
    7.150000000000000E-03    0.000000000000000E+00    0.000000000000000E+00
    7.200000000000001E-03    0.000000000000000E+00    0.000000000000000E+00
    7.250000000000000E-03    0.000000000000000E+00    0.000000000000000E+00
    7.300000000000000E-03    0.000000000000000E+00    0.000000000000000E+00
    7.350000000000001E-03    0.000000000000000E+00    0.000000000000000E+00
    7.400000000000000E-03    0.000000000000000E+00    0.000000000000000E+00
    7.450000000000000E-03    0.000000000000000E+00    0.000000000000000E+00
    7.500000000000001E-03    0.000000000000000E+00    0.000000000000000E+00
    7.550000000000000E-03    0.000000000000000E+00    0.000000000000000E+00
    7.600000000000000E-03    0.000000000000000E+00    0.000000000000000E+00
    7.650000000000001E-03    0.000000000000000E+00    0.000000000000000E+00
    7.700000000000000E-03    0.000000000000000E+00    0.000000000000000E+00
    7.750000000000000E-03    0.000000000000000E+00    0.000000000000000E+00
    7.800000000000001E-03    0.000000000000000E+00    0.000000000000000E+00
    7.850000000000001E-03    0.000000000000000E+00    0.000000000000000E+00
    7.900000000000001E-03    0.000000000000000E+00    0.000000000000000E+00
    7.950000000000000E-03    0.000000000000000E+00    0.000000000000000E+00
    8.000000000000000E-03    0.000000000000000E+00    0.000000000000000E+00
    8.050000000000000E-03    0.000000000000000E+00    0.000000000000000E+00
    8.100000000000000E-03    0.000000000000000E+00    0.000000000000000E+00
    8.150000000000001E-03    0.000000000000000E+00    0.000000000000000E+00
    8.200000000000001E-03    0.000000000000000E+00    0.000000000000000E+00
    8.250000000000000E-03    0.000000000000000E+00    0.000000000000000E+00
    8.300000000000000E-03    0.000000000000000E+00    0.000000000000000E+00
    8.350000000000000E-03    0.000000000000000E+00    0.000000000000000E+00
    8.400000000000001E-03    0.000000000000000E+00    0.000000000000000E+00
    8.450000000000001E-03    0.000000000000000E+00    0.000000000000000E+00
    8.500000000000001E-03    0.000000000000000E+00    0.000000000000000E+00
    8.550000000000000E-03    0.000000000000000E+00    0.000000000000000E+00
    8.600000000000000E-03    0.000000000000000E+00    0.000000000000000E+00
    8.650000000000000E-03    0.000000000000000E+00    0.000000000000000E+00
    8.700000000000001E-03    0.000000000000000E+00    0.000000000000000E+00
    8.750000000000001E-03    0.000000000000000E+00    0.000000000000000E+00
    8.800000000000001E-03    0.000000000000000E+00    0.000000000000000E+00
    8.850000000000000E-03    0.000000000000000E+00    0.000000000000000E+00
    8.900000000000000E-03    0.000000000000000E+00    0.000000000000000E+00
    8.950000000000000E-03    0.000000000000000E+00    0.000000000000000E+00
    9.000000000000001E-03    0.000000000000000E+00    0.000000000000000E+00
    9.050000000000001E-03    0.000000000000000E+00    0.000000000000000E+00
    9.100000000000000E-03    0.000000000000000E+00    0.000000000000000E+00
    9.150000000000000E-03    0.000000000000000E+00    0.000000000000000E+00
    9.200000000000000E-03    0.000000000000000E+00    0.000000000000000E+00
    9.250000000000001E-03    0.000000000000000E+00    0.000000000000000E+00
    9.300000000000001E-03    0.000000000000000E+00    0.000000000000000E+00
    9.350000000000001E-03    0.000000000000000E+00    0.000000000000000E+00
    9.400000000000000E-03    0.000000000000000E+00    0.000000000000000E+00
    9.450000000000000E-03    0.000000000000000E+00    0.000000000000000E+00
    9.500000000000000E-03    0.000000000000000E+00    0.000000000000000E+00
    9.550000000000001E-03    0.000000000000000E+00    0.000000000000000E+00
    9.600000000000001E-03    0.000000000000000E+00    0.000000000000000E+00
    9.650000000000001E-03    0.000000000000000E+00    0.000000000000000E+00
    9.700000000000000E-03    0.000000000000000E+00    0.000000000000000E+00
    9.750000000000000E-03    0.000000000000000E+00    0.000000000000000E+00
    9.800000000000000E-03    0.000000000000000E+00    0.000000000000000E+00
    9.850000000000001E-03    0.000000000000000E+00    0.000000000000000E+00
    9.900000000000001E-03    0.000000000000000E+00    0.000000000000000E+00
    9.950000000000001E-03    0.000000000000000E+00    0.000000000000000E+00
    1.000000000000000E-02    0.000000000000000E+00    0.000000000000000E+00
    0.000000000000000E+00    1.000000000000000E-01    0.000000000000000E+00
    5.000000000000000E-05    1.000000000000000E-01    0.000000000000000E+00
    1.000000000000000E-04    1.000000000000000E-01    0.000000000000000E+00
    1.500000000000000E-04    1.000000000000000E-01    0.000000000000000E+00
    2.000000000000000E-04    1.000000000000000E-01    0.000000000000000E+00
    2.500000000000000E-04    1.000000000000000E-01    0.000000000000000E+00
    3.000000000000000E-04    1.000000000000000E-01    0.000000000000000E+00
    3.500000000000000E-04    1.000000000000000E-01    0.000000000000000E+00
    4.000000000000000E-04    1.000000000000000E-01    0.000000000000000E+00
    4.500000000000000E-04    1.000000000000000E-01    0.000000000000000E+00
    5.000000000000000E-04    1.000000000000000E-01    0.000000000000000E+00
    5.500000000000000E-04    1.000000000000000E-01    0.000000000000000E+00
    6.000000000000001E-04    1.000000000000000E-01    0.000000000000000E+00
    6.500000000000001E-04    1.000000000000000E-01    0.000000000000000E+00
    7.000000000000000E-04    1.000000000000000E-01    0.000000000000000E+00
    7.500000000000000E-04    1.000000000000000E-01    0.000000000000000E+00
    8.000000000000000E-04    1.000000000000000E-01    0.000000000000000E+00
    8.500000000000001E-04    1.000000000000000E-01    0.000000000000000E+00
    9.000000000000001E-04    1.000000000000000E-01    0.000000000000000E+00
    9.500000000000000E-04    1.000000000000000E-01    0.000000000000000E+00
    1.000000000000000E-03    1.000000000000000E-01    0.000000000000000E+00
    1.050000000000000E-03    1.000000000000000E-01    0.000000000000000E+00
    1.100000000000000E-03    1.000000000000000E-01    0.000000000000000E+00
    1.150000000000000E-03    1.000000000000000E-01    0.000000000000000E+00
    1.200000000000000E-03    1.000000000000000E-01    0.000000000000000E+00
    1.250000000000000E-03    1.000000000000000E-01    0.000000000000000E+00
    1.300000000000000E-03    1.000000000000000E-01    0.000000000000000E+00
    1.350000000000000E-03    1.000000000000000E-01    0.000000000000000E+00
    1.400000000000000E-03    1.000000000000000E-01    0.000000000000000E+00
    1.450000000000000E-03    1.000000000000000E-01    0.000000000000000E+00
    1.500000000000000E-03    1.000000000000000E-01    0.000000000000000E+00
    1.550000000000000E-03    1.000000000000000E-01    0.000000000000000E+00
    1.600000000000000E-03    1.000000000000000E-01    0.000000000000000E+00
    1.650000000000000E-03    1.000000000000000E-01    0.000000000000000E+00
    1.700000000000000E-03    1.000000000000000E-01    0.000000000000000E+00
    1.750000000000000E-03    1.000000000000000E-01    0.000000000000000E+00
    1.800000000000000E-03    1.000000000000000E-01    0.000000000000000E+00
    1.850000000000000E-03    1.000000000000000E-01    0.000000000000000E+00
    1.900000000000000E-03    1.000000000000000E-01    0.000000000000000E+00
    1.950000000000000E-03    1.000000000000000E-01    0.000000000000000E+00
    2.000000000000000E-03    1.000000000000000E-01    0.000000000000000E+00
    2.050000000000000E-03    1.000000000000000E-01    0.000000000000000E+00
    2.100000000000000E-03    1.000000000000000E-01    0.000000000000000E+00
    2.150000000000000E-03    1.000000000000000E-01    0.000000000000000E+00
    2.200000000000000E-03    1.000000000000000E-01    0.000000000000000E+00
    2.250000000000000E-03    1.000000000000000E-01    0.000000000000000E+00
    2.300000000000000E-03    1.000000000000000E-01    0.000000000000000E+00
    2.350000000000000E-03    1.000000000000000E-01    0.000000000000000E+00
    2.400000000000000E-03    1.000000000000000E-01    0.000000000000000E+00
    2.450000000000000E-03    1.000000000000000E-01    0.000000000000000E+00
    2.500000000000000E-03    1.000000000000000E-01    0.000000000000000E+00
    2.550000000000000E-03    1.000000000000000E-01    0.000000000000000E+00
    2.600000000000000E-03    1.000000000000000E-01    0.000000000000000E+00
    2.650000000000000E-03    1.000000000000000E-01    0.000000000000000E+00
    2.700000000000000E-03    1.000000000000000E-01    0.000000000000000E+00
    2.750000000000000E-03    1.000000000000000E-01    0.000000000000000E+00
    2.800000000000000E-03    1.000000000000000E-01    0.000000000000000E+00
    2.850000000000000E-03    1.000000000000000E-01    0.000000000000000E+00
    2.900000000000000E-03    1.000000000000000E-01    0.000000000000000E+00
    2.950000000000000E-03    1.000000000000000E-01    0.000000000000000E+00
    3.000000000000000E-03    1.000000000000000E-01    0.000000000000000E+00
    3.050000000000000E-03    1.000000000000000E-01    0.000000000000000E+00
    3.100000000000000E-03    1.000000000000000E-01    0.000000000000000E+00
    3.150000000000000E-03    1.000000000000000E-01    0.000000000000000E+00
    3.200000000000000E-03    1.000000000000000E-01    0.000000000000000E+00
    3.250000000000000E-03    1.000000000000000E-01    0.000000000000000E+00
    3.300000000000000E-03    1.000000000000000E-01    0.000000000000000E+00
    3.350000000000000E-03    1.000000000000000E-01    0.000000000000000E+00
    3.400000000000000E-03    1.000000000000000E-01    0.000000000000000E+00
    3.450000000000000E-03    1.000000000000000E-01    0.000000000000000E+00
    3.500000000000000E-03    1.000000000000000E-01    0.000000000000000E+00
    3.550000000000000E-03    1.000000000000000E-01    0.000000000000000E+00
    3.600000000000000E-03    1.000000000000000E-01    0.000000000000000E+00
    3.650000000000000E-03    1.000000000000000E-01    0.000000000000000E+00
    3.700000000000000E-03    1.000000000000000E-01    0.000000000000000E+00
    3.750000000000000E-03    1.000000000000000E-01    0.000000000000000E+00
    3.800000000000000E-03    1.000000000000000E-01    0.000000000000000E+00
    3.850000000000000E-03    1.000000000000000E-01    0.000000000000000E+00
    3.900000000000000E-03    1.000000000000000E-01    0.000000000000000E+00
    3.950000000000000E-03    1.000000000000000E-01    0.000000000000000E+00
    4.000000000000000E-03    1.000000000000000E-01    0.000000000000000E+00
    4.050000000000000E-03    1.000000000000000E-01    0.000000000000000E+00
    4.100000000000000E-03    1.000000000000000E-01    0.000000000000000E+00
    4.150000000000000E-03    1.000000000000000E-01    0.000000000000000E+00
    4.200000000000001E-03    1.000000000000000E-01    0.000000000000000E+00
    4.250000000000000E-03    1.000000000000000E-01    0.000000000000000E+00
    4.300000000000000E-03    1.000000000000000E-01    0.000000000000000E+00
    4.350000000000001E-03    1.000000000000000E-01    0.000000000000000E+00
    4.400000000000000E-03    1.000000000000000E-01    0.000000000000000E+00
    4.450000000000000E-03    1.000000000000000E-01    0.000000000000000E+00
    4.500000000000001E-03    1.000000000000000E-01    0.000000000000000E+00
    4.550000000000000E-03    1.000000000000000E-01    0.000000000000000E+00
    4.600000000000000E-03    1.000000000000000E-01    0.000000000000000E+00
    4.650000000000000E-03    1.000000000000000E-01    0.000000000000000E+00
    4.700000000000000E-03    1.000000000000000E-01    0.000000000000000E+00
    4.750000000000000E-03    1.000000000000000E-01    0.000000000000000E+00
    4.800000000000000E-03    1.000000000000000E-01    0.000000000000000E+00
    4.850000000000000E-03    1.000000000000000E-01    0.000000000000000E+00
    4.900000000000000E-03    1.000000000000000E-01    0.000000000000000E+00
    4.950000000000000E-03    1.000000000000000E-01    0.000000000000000E+00
    5.000000000000000E-03    1.000000000000000E-01    0.000000000000000E+00
    5.050000000000001E-03    1.000000000000000E-01    0.000000000000000E+00
    5.100000000000000E-03    1.000000000000000E-01    0.000000000000000E+00
    5.150000000000000E-03    1.000000000000000E-01    0.000000000000000E+00
    5.200000000000001E-03    1.000000000000000E-01    0.000000000000000E+00
    5.250000000000000E-03    1.000000000000000E-01    0.000000000000000E+00
    5.300000000000000E-03    1.000000000000000E-01    0.000000000000000E+00
    5.350000000000001E-03    1.000000000000000E-01    0.000000000000000E+00
    5.400000000000000E-03    1.000000000000000E-01    0.000000000000000E+00
    5.450000000000000E-03    1.000000000000000E-01    0.000000000000000E+00
    5.500000000000001E-03    1.000000000000000E-01    0.000000000000000E+00
    5.550000000000000E-03    1.000000000000000E-01    0.000000000000000E+00
    5.600000000000000E-03    1.000000000000000E-01    0.000000000000000E+00
    5.650000000000001E-03    1.000000000000000E-01    0.000000000000000E+00
    5.700000000000000E-03    1.000000000000000E-01    0.000000000000000E+00
    5.750000000000000E-03    1.000000000000000E-01    0.000000000000000E+00
    5.800000000000000E-03    1.000000000000000E-01    0.000000000000000E+00
    5.850000000000000E-03    1.000000000000000E-01    0.000000000000000E+00
    5.900000000000000E-03    1.000000000000000E-01    0.000000000000000E+00
    5.950000000000000E-03    1.000000000000000E-01    0.000000000000000E+00
    6.000000000000000E-03    1.000000000000000E-01    0.000000000000000E+00
    6.050000000000001E-03    1.000000000000000E-01    0.000000000000000E+00
    6.100000000000000E-03    1.000000000000000E-01    0.000000000000000E+00
    6.150000000000000E-03    1.000000000000000E-01    0.000000000000000E+00
    6.200000000000001E-03    1.000000000000000E-01    0.000000000000000E+00
    6.250000000000000E-03    1.000000000000000E-01    0.000000000000000E+00
    6.300000000000000E-03    1.000000000000000E-01    0.000000000000000E+00
    6.350000000000001E-03    1.000000000000000E-01    0.000000000000000E+00
    6.400000000000000E-03    1.000000000000000E-01    0.000000000000000E+00
    6.450000000000000E-03    1.000000000000000E-01    0.000000000000000E+00
    6.500000000000001E-03    1.000000000000000E-01    0.000000000000000E+00
    6.550000000000000E-03    1.000000000000000E-01    0.000000000000000E+00
    6.600000000000000E-03    1.000000000000000E-01    0.000000000000000E+00
    6.650000000000001E-03    1.000000000000000E-01    0.000000000000000E+00
    6.700000000000000E-03    1.000000000000000E-01    0.000000000000000E+00
    6.750000000000000E-03    1.000000000000000E-01    0.000000000000000E+00
    6.800000000000000E-03    1.000000000000000E-01    0.000000000000000E+00
    6.850000000000000E-03    1.000000000000000E-01    0.000000000000000E+00
    6.900000000000001E-03    1.000000000000000E-01    0.000000000000000E+00
    6.950000000000000E-03    1.000000000000000E-01    0.000000000000000E+00
    7.000000000000000E-03    1.000000000000000E-01    0.000000000000000E+00
    7.050000000000001E-03    1.000000000000000E-01    0.000000000000000E+00
    7.100000000000000E-03    1.000000000000000E-01    0.000000000000000E+00
    7.150000000000000E-03    1.000000000000000E-01    0.000000000000000E+00
    7.200000000000001E-03    1.000000000000000E-01    0.000000000000000E+00
    7.250000000000000E-03    1.000000000000000E-01    0.000000000000000E+00
    7.300000000000000E-03    1.000000000000000E-01    0.000000000000000E+00
    7.350000000000001E-03    1.000000000000000E-01    0.000000000000000E+00
    7.400000000000000E-03    1.000000000000000E-01    0.000000000000000E+00
    7.450000000000000E-03    1.000000000000000E-01    0.000000000000000E+00
    7.500000000000001E-03    1.000000000000000E-01    0.000000000000000E+00
    7.550000000000000E-03    1.000000000000000E-01    0.000000000000000E+00
    7.600000000000000E-03    1.000000000000000E-01    0.000000000000000E+00
    7.650000000000001E-03    1.000000000000000E-01    0.000000000000000E+00
    7.700000000000000E-03    1.000000000000000E-01    0.000000000000000E+00
    7.750000000000000E-03    1.000000000000000E-01    0.000000000000000E+00
    7.800000000000001E-03    1.000000000000000E-01    0.000000000000000E+00
    7.850000000000001E-03    1.000000000000000E-01    0.000000000000000E+00
    7.900000000000001E-03    1.000000000000000E-01    0.000000000000000E+00
    7.950000000000000E-03    1.000000000000000E-01    0.000000000000000E+00
    8.000000000000000E-03    1.000000000000000E-01    0.000000000000000E+00
    8.050000000000000E-03    1.000000000000000E-01    0.000000000000000E+00
    8.100000000000000E-03    1.000000000000000E-01    0.000000000000000E+00
    8.150000000000001E-03    1.000000000000000E-01    0.000000000000000E+00
    8.200000000000001E-03    1.000000000000000E-01    0.000000000000000E+00
    8.250000000000000E-03    1.000000000000000E-01    0.000000000000000E+00
    8.300000000000000E-03    1.000000000000000E-01    0.000000000000000E+00
    8.350000000000000E-03    1.000000000000000E-01    0.000000000000000E+00
    8.400000000000001E-03    1.000000000000000E-01    0.000000000000000E+00
    8.450000000000001E-03    1.000000000000000E-01    0.000000000000000E+00
    8.500000000000001E-03    1.000000000000000E-01    0.000000000000000E+00
    8.550000000000000E-03    1.000000000000000E-01    0.000000000000000E+00
    8.600000000000000E-03    1.000000000000000E-01    0.000000000000000E+00
    8.650000000000000E-03    1.000000000000000E-01    0.000000000000000E+00
    8.700000000000001E-03    1.000000000000000E-01    0.000000000000000E+00
    8.750000000000001E-03    1.000000000000000E-01    0.000000000000000E+00
    8.800000000000001E-03    1.000000000000000E-01    0.000000000000000E+00
    8.850000000000000E-03    1.000000000000000E-01    0.000000000000000E+00
    8.900000000000000E-03    1.000000000000000E-01    0.000000000000000E+00
    8.950000000000000E-03    1.000000000000000E-01    0.000000000000000E+00
    9.000000000000001E-03    1.000000000000000E-01    0.000000000000000E+00
    9.050000000000001E-03    1.000000000000000E-01    0.000000000000000E+00
    9.100000000000000E-03    1.000000000000000E-01    0.000000000000000E+00
    9.150000000000000E-03    1.000000000000000E-01    0.000000000000000E+00
    9.200000000000000E-03    1.000000000000000E-01    0.000000000000000E+00
    9.250000000000001E-03    1.000000000000000E-01    0.000000000000000E+00
    9.300000000000001E-03    1.000000000000000E-01    0.000000000000000E+00
    9.350000000000001E-03    1.000000000000000E-01    0.000000000000000E+00
    9.400000000000000E-03    1.000000000000000E-01    0.000000000000000E+00
    9.450000000000000E-03    1.000000000000000E-01    0.000000000000000E+00
    9.500000000000000E-03    1.000000000000000E-01    0.000000000000000E+00
    9.550000000000001E-03    1.000000000000000E-01    0.000000000000000E+00
    9.600000000000001E-03    1.000000000000000E-01    0.000000000000000E+00
    9.650000000000001E-03    1.000000000000000E-01    0.000000000000000E+00
    9.700000000000000E-03    1.000000000000000E-01    0.000000000000000E+00
    9.750000000000000E-03    1.000000000000000E-01    0.000000000000000E+00
    9.800000000000000E-03    1.000000000000000E-01    0.000000000000000E+00
    9.850000000000001E-03    1.000000000000000E-01    0.000000000000000E+00
    9.900000000000001E-03    1.000000000000000E-01    0.000000000000000E+00
    9.950000000000001E-03    1.000000000000000E-01    0.000000000000000E+00
    1.000000000000000E-02    1.000000000000000E-01    0.000000000000000E+00
    0.000000000000000E+00    0.000000000000000E+00    1.000000000000000E-01
    5.000000000000000E-05    0.000000000000000E+00    1.000000000000000E-01
    1.000000000000000E-04    0.000000000000000E+00    1.000000000000000E-01
    1.500000000000000E-04    0.000000000000000E+00    1.000000000000000E-01
    2.000000000000000E-04    0.000000000000000E+00    1.000000000000000E-01
    2.500000000000000E-04    0.000000000000000E+00    1.000000000000000E-01
    3.000000000000000E-04    0.000000000000000E+00    1.000000000000000E-01
    3.500000000000000E-04    0.000000000000000E+00    1.000000000000000E-01
    4.000000000000000E-04    0.000000000000000E+00    1.000000000000000E-01
    4.500000000000000E-04    0.000000000000000E+00    1.000000000000000E-01
    5.000000000000000E-04    0.000000000000000E+00    1.000000000000000E-01
    5.500000000000000E-04    0.000000000000000E+00    1.000000000000000E-01
    6.000000000000001E-04    0.000000000000000E+00    1.000000000000000E-01
    6.500000000000001E-04    0.000000000000000E+00    1.000000000000000E-01
    7.000000000000000E-04    0.000000000000000E+00    1.000000000000000E-01
    7.500000000000000E-04    0.000000000000000E+00    1.000000000000000E-01
    8.000000000000000E-04    0.000000000000000E+00    1.000000000000000E-01
    8.500000000000001E-04    0.000000000000000E+00    1.000000000000000E-01
    9.000000000000001E-04    0.000000000000000E+00    1.000000000000000E-01
    9.500000000000000E-04    0.000000000000000E+00    1.000000000000000E-01
    1.000000000000000E-03    0.000000000000000E+00    1.000000000000000E-01
    1.050000000000000E-03    0.000000000000000E+00    1.000000000000000E-01
    1.100000000000000E-03    0.000000000000000E+00    1.000000000000000E-01
    1.150000000000000E-03    0.000000000000000E+00    1.000000000000000E-01
    1.200000000000000E-03    0.000000000000000E+00    1.000000000000000E-01
    1.250000000000000E-03    0.000000000000000E+00    1.000000000000000E-01
    1.300000000000000E-03    0.000000000000000E+00    1.000000000000000E-01
    1.350000000000000E-03    0.000000000000000E+00    1.000000000000000E-01
    1.400000000000000E-03    0.000000000000000E+00    1.000000000000000E-01
    1.450000000000000E-03    0.000000000000000E+00    1.000000000000000E-01
    1.500000000000000E-03    0.000000000000000E+00    1.000000000000000E-01
    1.550000000000000E-03    0.000000000000000E+00    1.000000000000000E-01
    1.600000000000000E-03    0.000000000000000E+00    1.000000000000000E-01
    1.650000000000000E-03    0.000000000000000E+00    1.000000000000000E-01
    1.700000000000000E-03    0.000000000000000E+00    1.000000000000000E-01
    1.750000000000000E-03    0.000000000000000E+00    1.000000000000000E-01
    1.800000000000000E-03    0.000000000000000E+00    1.000000000000000E-01
    1.850000000000000E-03    0.000000000000000E+00    1.000000000000000E-01
    1.900000000000000E-03    0.000000000000000E+00    1.000000000000000E-01
    1.950000000000000E-03    0.000000000000000E+00    1.000000000000000E-01
    2.000000000000000E-03    0.000000000000000E+00    1.000000000000000E-01
    2.050000000000000E-03    0.000000000000000E+00    1.000000000000000E-01
    2.100000000000000E-03    0.000000000000000E+00    1.000000000000000E-01
    2.150000000000000E-03    0.000000000000000E+00    1.000000000000000E-01
    2.200000000000000E-03    0.000000000000000E+00    1.000000000000000E-01
    2.250000000000000E-03    0.000000000000000E+00    1.000000000000000E-01
    2.300000000000000E-03    0.000000000000000E+00    1.000000000000000E-01
    2.350000000000000E-03    0.000000000000000E+00    1.000000000000000E-01
    2.400000000000000E-03    0.000000000000000E+00    1.000000000000000E-01
    2.450000000000000E-03    0.000000000000000E+00    1.000000000000000E-01
    2.500000000000000E-03    0.000000000000000E+00    1.000000000000000E-01
    2.550000000000000E-03    0.000000000000000E+00    1.000000000000000E-01
    2.600000000000000E-03    0.000000000000000E+00    1.000000000000000E-01
    2.650000000000000E-03    0.000000000000000E+00    1.000000000000000E-01
    2.700000000000000E-03    0.000000000000000E+00    1.000000000000000E-01
    2.750000000000000E-03    0.000000000000000E+00    1.000000000000000E-01
    2.800000000000000E-03    0.000000000000000E+00    1.000000000000000E-01
    2.850000000000000E-03    0.000000000000000E+00    1.000000000000000E-01
    2.900000000000000E-03    0.000000000000000E+00    1.000000000000000E-01
    2.950000000000000E-03    0.000000000000000E+00    1.000000000000000E-01
    3.000000000000000E-03    0.000000000000000E+00    1.000000000000000E-01
    3.050000000000000E-03    0.000000000000000E+00    1.000000000000000E-01
    3.100000000000000E-03    0.000000000000000E+00    1.000000000000000E-01
    3.150000000000000E-03    0.000000000000000E+00    1.000000000000000E-01
    3.200000000000000E-03    0.000000000000000E+00    1.000000000000000E-01
    3.250000000000000E-03    0.000000000000000E+00    1.000000000000000E-01
    3.300000000000000E-03    0.000000000000000E+00    1.000000000000000E-01
    3.350000000000000E-03    0.000000000000000E+00    1.000000000000000E-01
    3.400000000000000E-03    0.000000000000000E+00    1.000000000000000E-01
    3.450000000000000E-03    0.000000000000000E+00    1.000000000000000E-01
    3.500000000000000E-03    0.000000000000000E+00    1.000000000000000E-01
    3.550000000000000E-03    0.000000000000000E+00    1.000000000000000E-01
    3.600000000000000E-03    0.000000000000000E+00    1.000000000000000E-01
    3.650000000000000E-03    0.000000000000000E+00    1.000000000000000E-01
    3.700000000000000E-03    0.000000000000000E+00    1.000000000000000E-01
    3.750000000000000E-03    0.000000000000000E+00    1.000000000000000E-01
    3.800000000000000E-03    0.000000000000000E+00    1.000000000000000E-01
    3.850000000000000E-03    0.000000000000000E+00    1.000000000000000E-01
    3.900000000000000E-03    0.000000000000000E+00    1.000000000000000E-01
    3.950000000000000E-03    0.000000000000000E+00    1.000000000000000E-01
    4.000000000000000E-03    0.000000000000000E+00    1.000000000000000E-01
    4.050000000000000E-03    0.000000000000000E+00    1.000000000000000E-01
    4.100000000000000E-03    0.000000000000000E+00    1.000000000000000E-01
    4.150000000000000E-03    0.000000000000000E+00    1.000000000000000E-01
    4.200000000000001E-03    0.000000000000000E+00    1.000000000000000E-01
    4.250000000000000E-03    0.000000000000000E+00    1.000000000000000E-01
    4.300000000000000E-03    0.000000000000000E+00    1.000000000000000E-01
    4.350000000000001E-03    0.000000000000000E+00    1.000000000000000E-01
    4.400000000000000E-03    0.000000000000000E+00    1.000000000000000E-01
    4.450000000000000E-03    0.000000000000000E+00    1.000000000000000E-01
    4.500000000000001E-03    0.000000000000000E+00    1.000000000000000E-01
    4.550000000000000E-03    0.000000000000000E+00    1.000000000000000E-01
    4.600000000000000E-03    0.000000000000000E+00    1.000000000000000E-01
    4.650000000000000E-03    0.000000000000000E+00    1.000000000000000E-01
    4.700000000000000E-03    0.000000000000000E+00    1.000000000000000E-01
    4.750000000000000E-03    0.000000000000000E+00    1.000000000000000E-01
    4.800000000000000E-03    0.000000000000000E+00    1.000000000000000E-01
    4.850000000000000E-03    0.000000000000000E+00    1.000000000000000E-01
    4.900000000000000E-03    0.000000000000000E+00    1.000000000000000E-01
    4.950000000000000E-03    0.000000000000000E+00    1.000000000000000E-01
    5.000000000000000E-03    0.000000000000000E+00    1.000000000000000E-01
    5.050000000000001E-03    0.000000000000000E+00    1.000000000000000E-01
    5.100000000000000E-03    0.000000000000000E+00    1.000000000000000E-01
    5.150000000000000E-03    0.000000000000000E+00    1.000000000000000E-01
    5.200000000000001E-03    0.000000000000000E+00    1.000000000000000E-01
    5.250000000000000E-03    0.000000000000000E+00    1.000000000000000E-01
    5.300000000000000E-03    0.000000000000000E+00    1.000000000000000E-01
    5.350000000000001E-03    0.000000000000000E+00    1.000000000000000E-01
    5.400000000000000E-03    0.000000000000000E+00    1.000000000000000E-01
    5.450000000000000E-03    0.000000000000000E+00    1.000000000000000E-01
    5.500000000000001E-03    0.000000000000000E+00    1.000000000000000E-01
    5.550000000000000E-03    0.000000000000000E+00    1.000000000000000E-01
    5.600000000000000E-03    0.000000000000000E+00    1.000000000000000E-01
    5.650000000000001E-03    0.000000000000000E+00    1.000000000000000E-01
    5.700000000000000E-03    0.000000000000000E+00    1.000000000000000E-01
    5.750000000000000E-03    0.000000000000000E+00    1.000000000000000E-01
    5.800000000000000E-03    0.000000000000000E+00    1.000000000000000E-01
    5.850000000000000E-03    0.000000000000000E+00    1.000000000000000E-01
    5.900000000000000E-03    0.000000000000000E+00    1.000000000000000E-01
    5.950000000000000E-03    0.000000000000000E+00    1.000000000000000E-01
    6.000000000000000E-03    0.000000000000000E+00    1.000000000000000E-01
    6.050000000000001E-03    0.000000000000000E+00    1.000000000000000E-01
    6.100000000000000E-03    0.000000000000000E+00    1.000000000000000E-01
    6.150000000000000E-03    0.000000000000000E+00    1.000000000000000E-01
    6.200000000000001E-03    0.000000000000000E+00    1.000000000000000E-01
    6.250000000000000E-03    0.000000000000000E+00    1.000000000000000E-01
    6.300000000000000E-03    0.000000000000000E+00    1.000000000000000E-01
    6.350000000000001E-03    0.000000000000000E+00    1.000000000000000E-01
    6.400000000000000E-03    0.000000000000000E+00    1.000000000000000E-01
    6.450000000000000E-03    0.000000000000000E+00    1.000000000000000E-01
    6.500000000000001E-03    0.000000000000000E+00    1.000000000000000E-01
    6.550000000000000E-03    0.000000000000000E+00    1.000000000000000E-01
    6.600000000000000E-03    0.000000000000000E+00    1.000000000000000E-01
    6.650000000000001E-03    0.000000000000000E+00    1.000000000000000E-01
    6.700000000000000E-03    0.000000000000000E+00    1.000000000000000E-01
    6.750000000000000E-03    0.000000000000000E+00    1.000000000000000E-01
    6.800000000000000E-03    0.000000000000000E+00    1.000000000000000E-01
    6.850000000000000E-03    0.000000000000000E+00    1.000000000000000E-01
    6.900000000000001E-03    0.000000000000000E+00    1.000000000000000E-01
    6.950000000000000E-03    0.000000000000000E+00    1.000000000000000E-01
    7.000000000000000E-03    0.000000000000000E+00    1.000000000000000E-01
    7.050000000000001E-03    0.000000000000000E+00    1.000000000000000E-01
    7.100000000000000E-03    0.000000000000000E+00    1.000000000000000E-01
    7.150000000000000E-03    0.000000000000000E+00    1.000000000000000E-01
    7.200000000000001E-03    0.000000000000000E+00    1.000000000000000E-01
    7.250000000000000E-03    0.000000000000000E+00    1.000000000000000E-01
    7.300000000000000E-03    0.000000000000000E+00    1.000000000000000E-01
    7.350000000000001E-03    0.000000000000000E+00    1.000000000000000E-01
    7.400000000000000E-03    0.000000000000000E+00    1.000000000000000E-01
    7.450000000000000E-03    0.000000000000000E+00    1.000000000000000E-01
    7.500000000000001E-03    0.000000000000000E+00    1.000000000000000E-01
    7.550000000000000E-03    0.000000000000000E+00    1.000000000000000E-01
    7.600000000000000E-03    0.000000000000000E+00    1.000000000000000E-01
    7.650000000000001E-03    0.000000000000000E+00    1.000000000000000E-01
    7.700000000000000E-03    0.000000000000000E+00    1.000000000000000E-01
    7.750000000000000E-03    0.000000000000000E+00    1.000000000000000E-01
    7.800000000000001E-03    0.000000000000000E+00    1.000000000000000E-01
    7.850000000000001E-03    0.000000000000000E+00    1.000000000000000E-01
    7.900000000000001E-03    0.000000000000000E+00    1.000000000000000E-01
    7.950000000000000E-03    0.000000000000000E+00    1.000000000000000E-01
    8.000000000000000E-03    0.000000000000000E+00    1.000000000000000E-01
    8.050000000000000E-03    0.000000000000000E+00    1.000000000000000E-01
    8.100000000000000E-03    0.000000000000000E+00    1.000000000000000E-01
    8.150000000000001E-03    0.000000000000000E+00    1.000000000000000E-01
    8.200000000000001E-03    0.000000000000000E+00    1.000000000000000E-01
    8.250000000000000E-03    0.000000000000000E+00    1.000000000000000E-01
    8.300000000000000E-03    0.000000000000000E+00    1.000000000000000E-01
    8.350000000000000E-03    0.000000000000000E+00    1.000000000000000E-01
    8.400000000000001E-03    0.000000000000000E+00    1.000000000000000E-01
    8.450000000000001E-03    0.000000000000000E+00    1.000000000000000E-01
    8.500000000000001E-03    0.000000000000000E+00    1.000000000000000E-01
    8.550000000000000E-03    0.000000000000000E+00    1.000000000000000E-01
    8.600000000000000E-03    0.000000000000000E+00    1.000000000000000E-01
    8.650000000000000E-03    0.000000000000000E+00    1.000000000000000E-01
    8.700000000000001E-03    0.000000000000000E+00    1.000000000000000E-01
    8.750000000000001E-03    0.000000000000000E+00    1.000000000000000E-01
    8.800000000000001E-03    0.000000000000000E+00    1.000000000000000E-01
    8.850000000000000E-03    0.000000000000000E+00    1.000000000000000E-01
    8.900000000000000E-03    0.000000000000000E+00    1.000000000000000E-01
    8.950000000000000E-03    0.000000000000000E+00    1.000000000000000E-01
    9.000000000000001E-03    0.000000000000000E+00    1.000000000000000E-01
    9.050000000000001E-03    0.000000000000000E+00    1.000000000000000E-01
    9.100000000000000E-03    0.000000000000000E+00    1.000000000000000E-01
    9.150000000000000E-03    0.000000000000000E+00    1.000000000000000E-01
    9.200000000000000E-03    0.000000000000000E+00    1.000000000000000E-01
    9.250000000000001E-03    0.000000000000000E+00    1.000000000000000E-01
    9.300000000000001E-03    0.000000000000000E+00    1.000000000000000E-01
    9.350000000000001E-03    0.000000000000000E+00    1.000000000000000E-01
    9.400000000000000E-03    0.000000000000000E+00    1.000000000000000E-01
    9.450000000000000E-03    0.000000000000000E+00    1.000000000000000E-01
    9.500000000000000E-03    0.000000000000000E+00    1.000000000000000E-01
    9.550000000000001E-03    0.000000000000000E+00    1.000000000000000E-01
    9.600000000000001E-03    0.000000000000000E+00    1.000000000000000E-01
    9.650000000000001E-03    0.000000000000000E+00    1.000000000000000E-01
    9.700000000000000E-03    0.000000000000000E+00    1.000000000000000E-01
    9.750000000000000E-03    0.000000000000000E+00    1.000000000000000E-01
    9.800000000000000E-03    0.000000000000000E+00    1.000000000000000E-01
    9.850000000000001E-03    0.000000000000000E+00    1.000000000000000E-01
    9.900000000000001E-03    0.000000000000000E+00    1.000000000000000E-01
    9.950000000000001E-03    0.000000000000000E+00    1.000000000000000E-01
    1.000000000000000E-02    0.000000000000000E+00    1.000000000000000E-01
    0.000000000000000E+00    1.000000000000000E-01    1.000000000000000E-01
    5.000000000000000E-05    1.000000000000000E-01    1.000000000000000E-01
    1.000000000000000E-04    1.000000000000000E-01    1.000000000000000E-01
    1.500000000000000E-04    1.000000000000000E-01    1.000000000000000E-01
    2.000000000000000E-04    1.000000000000000E-01    1.000000000000000E-01
    2.500000000000000E-04    1.000000000000000E-01    1.000000000000000E-01
    3.000000000000000E-04    1.000000000000000E-01    1.000000000000000E-01
    3.500000000000000E-04    1.000000000000000E-01    1.000000000000000E-01
    4.000000000000000E-04    1.000000000000000E-01    1.000000000000000E-01
    4.500000000000000E-04    1.000000000000000E-01    1.000000000000000E-01
    5.000000000000000E-04    1.000000000000000E-01    1.000000000000000E-01
    5.500000000000000E-04    1.000000000000000E-01    1.000000000000000E-01
    6.000000000000001E-04    1.000000000000000E-01    1.000000000000000E-01
    6.500000000000001E-04    1.000000000000000E-01    1.000000000000000E-01
    7.000000000000000E-04    1.000000000000000E-01    1.000000000000000E-01
    7.500000000000000E-04    1.000000000000000E-01    1.000000000000000E-01
    8.000000000000000E-04    1.000000000000000E-01    1.000000000000000E-01
    8.500000000000001E-04    1.000000000000000E-01    1.000000000000000E-01
    9.000000000000001E-04    1.000000000000000E-01    1.000000000000000E-01
    9.500000000000000E-04    1.000000000000000E-01    1.000000000000000E-01
    1.000000000000000E-03    1.000000000000000E-01    1.000000000000000E-01
    1.050000000000000E-03    1.000000000000000E-01    1.000000000000000E-01
    1.100000000000000E-03    1.000000000000000E-01    1.000000000000000E-01
    1.150000000000000E-03    1.000000000000000E-01    1.000000000000000E-01
    1.200000000000000E-03    1.000000000000000E-01    1.000000000000000E-01
    1.250000000000000E-03    1.000000000000000E-01    1.000000000000000E-01
    1.300000000000000E-03    1.000000000000000E-01    1.000000000000000E-01
    1.350000000000000E-03    1.000000000000000E-01    1.000000000000000E-01
    1.400000000000000E-03    1.000000000000000E-01    1.000000000000000E-01
    1.450000000000000E-03    1.000000000000000E-01    1.000000000000000E-01
    1.500000000000000E-03    1.000000000000000E-01    1.000000000000000E-01
    1.550000000000000E-03    1.000000000000000E-01    1.000000000000000E-01
    1.600000000000000E-03    1.000000000000000E-01    1.000000000000000E-01
    1.650000000000000E-03    1.000000000000000E-01    1.000000000000000E-01
    1.700000000000000E-03    1.000000000000000E-01    1.000000000000000E-01
    1.750000000000000E-03    1.000000000000000E-01    1.000000000000000E-01
    1.800000000000000E-03    1.000000000000000E-01    1.000000000000000E-01
    1.850000000000000E-03    1.000000000000000E-01    1.000000000000000E-01
    1.900000000000000E-03    1.000000000000000E-01    1.000000000000000E-01
    1.950000000000000E-03    1.000000000000000E-01    1.000000000000000E-01
    2.000000000000000E-03    1.000000000000000E-01    1.000000000000000E-01
    2.050000000000000E-03    1.000000000000000E-01    1.000000000000000E-01
    2.100000000000000E-03    1.000000000000000E-01    1.000000000000000E-01
    2.150000000000000E-03    1.000000000000000E-01    1.000000000000000E-01
    2.200000000000000E-03    1.000000000000000E-01    1.000000000000000E-01
    2.250000000000000E-03    1.000000000000000E-01    1.000000000000000E-01
    2.300000000000000E-03    1.000000000000000E-01    1.000000000000000E-01
    2.350000000000000E-03    1.000000000000000E-01    1.000000000000000E-01
    2.400000000000000E-03    1.000000000000000E-01    1.000000000000000E-01
    2.450000000000000E-03    1.000000000000000E-01    1.000000000000000E-01
    2.500000000000000E-03    1.000000000000000E-01    1.000000000000000E-01
    2.550000000000000E-03    1.000000000000000E-01    1.000000000000000E-01
    2.600000000000000E-03    1.000000000000000E-01    1.000000000000000E-01
    2.650000000000000E-03    1.000000000000000E-01    1.000000000000000E-01
    2.700000000000000E-03    1.000000000000000E-01    1.000000000000000E-01
    2.750000000000000E-03    1.000000000000000E-01    1.000000000000000E-01
    2.800000000000000E-03    1.000000000000000E-01    1.000000000000000E-01
    2.850000000000000E-03    1.000000000000000E-01    1.000000000000000E-01
    2.900000000000000E-03    1.000000000000000E-01    1.000000000000000E-01
    2.950000000000000E-03    1.000000000000000E-01    1.000000000000000E-01
    3.000000000000000E-03    1.000000000000000E-01    1.000000000000000E-01
    3.050000000000000E-03    1.000000000000000E-01    1.000000000000000E-01
    3.100000000000000E-03    1.000000000000000E-01    1.000000000000000E-01
    3.150000000000000E-03    1.000000000000000E-01    1.000000000000000E-01
    3.200000000000000E-03    1.000000000000000E-01    1.000000000000000E-01
    3.250000000000000E-03    1.000000000000000E-01    1.000000000000000E-01
    3.300000000000000E-03    1.000000000000000E-01    1.000000000000000E-01
    3.350000000000000E-03    1.000000000000000E-01    1.000000000000000E-01
    3.400000000000000E-03    1.000000000000000E-01    1.000000000000000E-01
    3.450000000000000E-03    1.000000000000000E-01    1.000000000000000E-01
    3.500000000000000E-03    1.000000000000000E-01    1.000000000000000E-01
    3.550000000000000E-03    1.000000000000000E-01    1.000000000000000E-01
    3.600000000000000E-03    1.000000000000000E-01    1.000000000000000E-01
    3.650000000000000E-03    1.000000000000000E-01    1.000000000000000E-01
    3.700000000000000E-03    1.000000000000000E-01    1.000000000000000E-01
    3.750000000000000E-03    1.000000000000000E-01    1.000000000000000E-01
    3.800000000000000E-03    1.000000000000000E-01    1.000000000000000E-01
    3.850000000000000E-03    1.000000000000000E-01    1.000000000000000E-01
    3.900000000000000E-03    1.000000000000000E-01    1.000000000000000E-01
    3.950000000000000E-03    1.000000000000000E-01    1.000000000000000E-01
    4.000000000000000E-03    1.000000000000000E-01    1.000000000000000E-01
    4.050000000000000E-03    1.000000000000000E-01    1.000000000000000E-01
    4.100000000000000E-03    1.000000000000000E-01    1.000000000000000E-01
    4.150000000000000E-03    1.000000000000000E-01    1.000000000000000E-01
    4.200000000000001E-03    1.000000000000000E-01    1.000000000000000E-01
    4.250000000000000E-03    1.000000000000000E-01    1.000000000000000E-01
    4.300000000000000E-03    1.000000000000000E-01    1.000000000000000E-01
    4.350000000000001E-03    1.000000000000000E-01    1.000000000000000E-01
    4.400000000000000E-03    1.000000000000000E-01    1.000000000000000E-01
    4.450000000000000E-03    1.000000000000000E-01    1.000000000000000E-01
    4.500000000000001E-03    1.000000000000000E-01    1.000000000000000E-01
    4.550000000000000E-03    1.000000000000000E-01    1.000000000000000E-01
    4.600000000000000E-03    1.000000000000000E-01    1.000000000000000E-01
    4.650000000000000E-03    1.000000000000000E-01    1.000000000000000E-01
    4.700000000000000E-03    1.000000000000000E-01    1.000000000000000E-01
    4.750000000000000E-03    1.000000000000000E-01    1.000000000000000E-01
    4.800000000000000E-03    1.000000000000000E-01    1.000000000000000E-01
    4.850000000000000E-03    1.000000000000000E-01    1.000000000000000E-01
    4.900000000000000E-03    1.000000000000000E-01    1.000000000000000E-01
    4.950000000000000E-03    1.000000000000000E-01    1.000000000000000E-01
    5.000000000000000E-03    1.000000000000000E-01    1.000000000000000E-01
    5.050000000000001E-03    1.000000000000000E-01    1.000000000000000E-01
    5.100000000000000E-03    1.000000000000000E-01    1.000000000000000E-01
    5.150000000000000E-03    1.000000000000000E-01    1.000000000000000E-01
    5.200000000000001E-03    1.000000000000000E-01    1.000000000000000E-01
    5.250000000000000E-03    1.000000000000000E-01    1.000000000000000E-01
    5.300000000000000E-03    1.000000000000000E-01    1.000000000000000E-01
    5.350000000000001E-03    1.000000000000000E-01    1.000000000000000E-01
    5.400000000000000E-03    1.000000000000000E-01    1.000000000000000E-01
    5.450000000000000E-03    1.000000000000000E-01    1.000000000000000E-01
    5.500000000000001E-03    1.000000000000000E-01    1.000000000000000E-01
    5.550000000000000E-03    1.000000000000000E-01    1.000000000000000E-01
    5.600000000000000E-03    1.000000000000000E-01    1.000000000000000E-01
    5.650000000000001E-03    1.000000000000000E-01    1.000000000000000E-01
    5.700000000000000E-03    1.000000000000000E-01    1.000000000000000E-01
    5.750000000000000E-03    1.000000000000000E-01    1.000000000000000E-01
    5.800000000000000E-03    1.000000000000000E-01    1.000000000000000E-01
    5.850000000000000E-03    1.000000000000000E-01    1.000000000000000E-01
    5.900000000000000E-03    1.000000000000000E-01    1.000000000000000E-01
    5.950000000000000E-03    1.000000000000000E-01    1.000000000000000E-01
    6.000000000000000E-03    1.000000000000000E-01    1.000000000000000E-01
    6.050000000000001E-03    1.000000000000000E-01    1.000000000000000E-01
    6.100000000000000E-03    1.000000000000000E-01    1.000000000000000E-01
    6.150000000000000E-03    1.000000000000000E-01    1.000000000000000E-01
    6.200000000000001E-03    1.000000000000000E-01    1.000000000000000E-01
    6.250000000000000E-03    1.000000000000000E-01    1.000000000000000E-01
    6.300000000000000E-03    1.000000000000000E-01    1.000000000000000E-01
    6.350000000000001E-03    1.000000000000000E-01    1.000000000000000E-01
    6.400000000000000E-03    1.000000000000000E-01    1.000000000000000E-01
    6.450000000000000E-03    1.000000000000000E-01    1.000000000000000E-01
    6.500000000000001E-03    1.000000000000000E-01    1.000000000000000E-01
    6.550000000000000E-03    1.000000000000000E-01    1.000000000000000E-01
    6.600000000000000E-03    1.000000000000000E-01    1.000000000000000E-01
    6.650000000000001E-03    1.000000000000000E-01    1.000000000000000E-01
    6.700000000000000E-03    1.000000000000000E-01    1.000000000000000E-01
    6.750000000000000E-03    1.000000000000000E-01    1.000000000000000E-01
    6.800000000000000E-03    1.000000000000000E-01    1.000000000000000E-01
    6.850000000000000E-03    1.000000000000000E-01    1.000000000000000E-01
    6.900000000000001E-03    1.000000000000000E-01    1.000000000000000E-01
    6.950000000000000E-03    1.000000000000000E-01    1.000000000000000E-01
    7.000000000000000E-03    1.000000000000000E-01    1.000000000000000E-01
    7.050000000000001E-03    1.000000000000000E-01    1.000000000000000E-01
    7.100000000000000E-03    1.000000000000000E-01    1.000000000000000E-01
    7.150000000000000E-03    1.000000000000000E-01    1.000000000000000E-01
    7.200000000000001E-03    1.000000000000000E-01    1.000000000000000E-01
    7.250000000000000E-03    1.000000000000000E-01    1.000000000000000E-01
    7.300000000000000E-03    1.000000000000000E-01    1.000000000000000E-01
    7.350000000000001E-03    1.000000000000000E-01    1.000000000000000E-01
    7.400000000000000E-03    1.000000000000000E-01    1.000000000000000E-01
    7.450000000000000E-03    1.000000000000000E-01    1.000000000000000E-01
    7.500000000000001E-03    1.000000000000000E-01    1.000000000000000E-01
    7.550000000000000E-03    1.000000000000000E-01    1.000000000000000E-01
    7.600000000000000E-03    1.000000000000000E-01    1.000000000000000E-01
    7.650000000000001E-03    1.000000000000000E-01    1.000000000000000E-01
    7.700000000000000E-03    1.000000000000000E-01    1.000000000000000E-01
    7.750000000000000E-03    1.000000000000000E-01    1.000000000000000E-01
    7.800000000000001E-03    1.000000000000000E-01    1.000000000000000E-01
    7.850000000000001E-03    1.000000000000000E-01    1.000000000000000E-01
    7.900000000000001E-03    1.000000000000000E-01    1.000000000000000E-01
    7.950000000000000E-03    1.000000000000000E-01    1.000000000000000E-01
    8.000000000000000E-03    1.000000000000000E-01    1.000000000000000E-01
    8.050000000000000E-03    1.000000000000000E-01    1.000000000000000E-01
    8.100000000000000E-03    1.000000000000000E-01    1.000000000000000E-01
    8.150000000000001E-03    1.000000000000000E-01    1.000000000000000E-01
    8.200000000000001E-03    1.000000000000000E-01    1.000000000000000E-01
    8.250000000000000E-03    1.000000000000000E-01    1.000000000000000E-01
    8.300000000000000E-03    1.000000000000000E-01    1.000000000000000E-01
    8.350000000000000E-03    1.000000000000000E-01    1.000000000000000E-01
    8.400000000000001E-03    1.000000000000000E-01    1.000000000000000E-01
    8.450000000000001E-03    1.000000000000000E-01    1.000000000000000E-01
    8.500000000000001E-03    1.000000000000000E-01    1.000000000000000E-01
    8.550000000000000E-03    1.000000000000000E-01    1.000000000000000E-01
    8.600000000000000E-03    1.000000000000000E-01    1.000000000000000E-01
    8.650000000000000E-03    1.000000000000000E-01    1.000000000000000E-01
    8.700000000000001E-03    1.000000000000000E-01    1.000000000000000E-01
    8.750000000000001E-03    1.000000000000000E-01    1.000000000000000E-01
    8.800000000000001E-03    1.000000000000000E-01    1.000000000000000E-01
    8.850000000000000E-03    1.000000000000000E-01    1.000000000000000E-01
    8.900000000000000E-03    1.000000000000000E-01    1.000000000000000E-01
    8.950000000000000E-03    1.000000000000000E-01    1.000000000000000E-01
    9.000000000000001E-03    1.000000000000000E-01    1.000000000000000E-01
    9.050000000000001E-03    1.000000000000000E-01    1.000000000000000E-01
    9.100000000000000E-03    1.000000000000000E-01    1.000000000000000E-01
    9.150000000000000E-03    1.000000000000000E-01    1.000000000000000E-01
    9.200000000000000E-03    1.000000000000000E-01    1.000000000000000E-01
    9.250000000000001E-03    1.000000000000000E-01    1.000000000000000E-01
    9.300000000000001E-03    1.000000000000000E-01    1.000000000000000E-01
    9.350000000000001E-03    1.000000000000000E-01    1.000000000000000E-01
    9.400000000000000E-03    1.000000000000000E-01    1.000000000000000E-01
    9.450000000000000E-03    1.000000000000000E-01    1.000000000000000E-01
    9.500000000000000E-03    1.000000000000000E-01    1.000000000000000E-01
    9.550000000000001E-03    1.000000000000000E-01    1.000000000000000E-01
    9.600000000000001E-03    1.000000000000000E-01    1.000000000000000E-01
    9.650000000000001E-03    1.000000000000000E-01    1.000000000000000E-01
    9.700000000000000E-03    1.000000000000000E-01    1.000000000000000E-01
    9.750000000000000E-03    1.000000000000000E-01    1.000000000000000E-01
    9.800000000000000E-03    1.000000000000000E-01    1.000000000000000E-01
    9.850000000000001E-03    1.000000000000000E-01    1.000000000000000E-01
    9.900000000000001E-03    1.000000000000000E-01    1.000000000000000E-01
    9.950000000000001E-03    1.000000000000000E-01    1.000000000000000E-01
    1.000000000000000E-02    1.000000000000000E-01    1.000000000000000E-01
CELL_DATA          200
SCALARS density double 1
LOOKUP_TABLE default
    1.000000000000000E+00
    1.000000000000000E+00
    1.000000000000000E+00
    1.000000000000000E+00
    1.000000000000000E+00
    1.000000000000000E+00
    1.000000000000000E+00
    1.000000000000000E+00
    1.000000000000000E+00
    1.000000000000000E+00
    1.000000000000000E+00
    1.000000000000000E+00
    1.000000000000000E+00
    1.000000000000000E+00
    1.000000000000000E+00
    1.000000000000000E+00
    1.000000000000000E+00
    1.000000000000000E+00
    1.000000000000000E+00
    1.000000000000000E+00
    1.000000000000000E+00
    1.000000000000000E+00
    1.000000000000000E+00
    1.000000000000000E+00
    1.000000000000000E+00
    1.000000000000000E+00
    1.000000000000000E+00
    1.000000000000000E+00
    1.000000000000000E+00
    1.000000000000000E+00
    1.000000000000000E+00
    1.000000000000000E+00
    1.000000000000000E+00
    1.000000000000000E+00
    1.000000000000000E+00
    1.000000000000000E+00
    1.000000000000000E+00
    1.000000000000000E+00
    1.000000000000000E+00
    1.000000000000000E+00
    1.000000000000000E+00
    1.000000000000000E+00
    1.000000000000000E+00
    1.000000000000000E+00
    1.000000000000000E+00
    1.000000000000000E+00
    1.000000000000000E+00
    1.000000000000000E+00
    1.000000000000000E+00
    1.000000000000000E+00
    1.000000000000000E+00
    1.000000000000000E+00
    1.000000000000000E+00
    1.000000000000000E+00
    1.000000000000000E+00
    1.000000000000000E+00
    1.000000000000000E+00
    1.000000000000000E+00
    1.000000000000000E+00
    1.000000000000000E+00
    1.000000000000000E+00
    1.000000000000000E+00
    1.000000000000000E+00
    1.000000000000000E+00
    1.000000000000000E+00
    1.000000000000000E+00
    1.000000000000000E+00
    1.000000000000000E+00
    1.000000000000000E+00
    1.000000000000000E+00
    1.000000000000000E+00
    1.000000000000000E+00
    1.000000000000000E+00
    1.000000000000000E+00
    1.000000000000000E+00
    1.000000000000000E+00
    1.000000000000000E+00
    1.000000000000000E+00
    1.000000000000000E+00
    1.000000000000000E+00
    1.000000000000000E+00
    1.000000000000000E+00
    1.000000000000000E+00
    1.000000000000000E+00
    1.000000000000000E+00
    1.000000000000000E+00
    1.000000000000000E+00
    1.000000000000000E+00
    1.000000000000000E+00
    1.000000000000000E+00
    1.000000000000000E+00
    1.000000000000000E+00
    1.000000000000000E+00
    1.000000000000000E+00
    1.000000000000000E+00
    1.000000000000000E+00
    1.000000000000000E+00
    1.000000000000000E+00
    1.000000000000000E+00
    1.000000000000000E+00
    1.000000000000000E+00
    1.000000000000000E+00
    1.000000000000000E+00
    1.000000000000000E+00
    1.000000000000000E+00
    1.000000000000000E+00
    1.000000000000000E+00
    1.000000000000000E+00
    1.000000000000000E+00
    1.000000000000000E+00
    1.000000000000000E+00
    1.000000000000000E+00
    1.000000000000000E+00
    1.000000000000000E+00
    1.000000000000000E+00
    1.000000000000000E+00
    1.000000000000000E+00
    1.000000000000000E+00
    1.000000000000000E+00
    1.000000000000000E+00
    1.000000000000000E+00
    1.000000000000000E+00
    1.000000000000000E+00
    1.000000000000000E+00
    1.000000000000000E+00
    1.000000000000000E+00
    1.000000000000000E+00
    1.000000000000000E+00
    1.000000000000000E+00
    1.000000000000000E+00
    1.000000000000000E+00
    1.000000000000000E+00
    1.000000000000000E+00
    1.000000000000000E+00
    1.000000000000000E+00
    1.000000000000000E+00
    1.000000000000000E+00
    1.000000000000000E+00
    1.000000000000000E+00
    1.000000000000000E+00
    1.000000000000000E+00
    1.000000000000000E+00
    1.000000000000000E+00
    1.000000000000000E+00
    1.000000000000000E+00
    1.000000000000000E+00
    1.000000000000000E+00
    1.000000000000000E+00
    1.000000000000000E+00
    1.000000000000000E+00
    1.000000000000000E+00
    1.000000000000000E+00
    1.000000000000000E+00
    1.000000000000000E+00
    1.000000000000000E+00
    1.000000000000000E+00
    1.000000000000000E+00
    1.000000000000000E+00
    1.000000000000000E+00
    1.000000000000000E+00
    1.000000000000000E+00
    1.000000000000000E+00
    1.000000000000000E+00
    1.000000000000000E+00
    1.000000000000000E+00
    1.000000000000000E+00
    1.000000000000000E+00
    1.000000000000000E+00
    1.000000000000000E+00
    1.000000000000000E+00
    1.000000000000000E+00
    1.000000000000000E+00
    1.000000000000000E+00
    1.000000000000000E+00
    1.000000000000000E+00
    1.000000000000000E+00
    1.000000000000000E+00
    1.000000000000000E+00
    1.000000000000000E+00
    1.000000000000000E+00
    1.000000000000000E+00
    1.000000000000000E+00
    1.000000000000000E+00
    1.000000000000000E+00
    1.000000000000000E+00
    1.000000000000000E+00
    1.000000000000000E+00
    1.000000000000000E+00
    1.000000000000000E+00
    1.000000000000000E+00
    1.000000000000000E+00
    1.000000000000000E+00
    1.000000000000000E+00
    1.000000000000000E+00
    1.000000000000000E+00
    1.000000000000000E+00
    1.000000000000000E+00
    1.000000000000000E+00
    1.000000000000000E+00
    1.000000000000000E+00
VECTORS velocity double
    1.969083906032925E+00    0.000000000000000E+00    0.000000000000000E+00
    2.000806368425271E+00    0.000000000000000E+00    0.000000000000000E+00
    2.000796316494484E+00    0.000000000000000E+00    0.000000000000000E+00
    2.000047746529924E+00    0.000000000000000E+00    0.000000000000000E+00
    1.999991927085369E+00    0.000000000000000E+00    0.000000000000000E+00
    1.999999425025689E+00    0.000000000000000E+00    0.000000000000000E+00
    2.000000067174846E+00    0.000000000000000E+00    0.000000000000000E+00
    2.000000005121945E+00    0.000000000000000E+00    0.000000000000000E+00
    1.999999999337990E+00    0.000000000000000E+00    0.000000000000000E+00
    1.999999999751462E+00    0.000000000000000E+00    0.000000000000000E+00
    1.999999999772265E+00    0.000000000000000E+00    0.000000000000000E+00
    1.999999999747187E+00    0.000000000000000E+00    0.000000000000000E+00
    1.999999999726960E+00    0.000000000000000E+00    0.000000000000000E+00
    1.999999999706320E+00    0.000000000000000E+00    0.000000000000000E+00
    1.999999999685432E+00    0.000000000000000E+00    0.000000000000000E+00
    1.999999999664568E+00    0.000000000000000E+00    0.000000000000000E+00
    1.999999999643735E+00    0.000000000000000E+00    0.000000000000000E+00
    1.999999999622933E+00    0.000000000000000E+00    0.000000000000000E+00
    1.999999999602168E+00    0.000000000000000E+00    0.000000000000000E+00
    1.999999999581439E+00    0.000000000000000E+00    0.000000000000000E+00
    1.999999999560748E+00    0.000000000000000E+00    0.000000000000000E+00
    1.999999999540098E+00    0.000000000000000E+00    0.000000000000000E+00
    1.999999999519487E+00    0.000000000000000E+00    0.000000000000000E+00
    1.999999999498919E+00    0.000000000000000E+00    0.000000000000000E+00
    1.999999999478394E+00    0.000000000000000E+00    0.000000000000000E+00
    1.999999999457913E+00    0.000000000000000E+00    0.000000000000000E+00
    1.999999999437478E+00    0.000000000000000E+00    0.000000000000000E+00
    1.999999999417089E+00    0.000000000000000E+00    0.000000000000000E+00
    1.999999999396747E+00    0.000000000000000E+00    0.000000000000000E+00
    1.999999999376455E+00    0.000000000000000E+00    0.000000000000000E+00
    1.999999999356213E+00    0.000000000000000E+00    0.000000000000000E+00
    1.999999999336022E+00    0.000000000000000E+00    0.000000000000000E+00
    1.999999999315883E+00    0.000000000000000E+00    0.000000000000000E+00
    1.999999999295798E+00    0.000000000000000E+00    0.000000000000000E+00
    1.999999999275768E+00    0.000000000000000E+00    0.000000000000000E+00
    1.999999999255794E+00    0.000000000000000E+00    0.000000000000000E+00
    1.999999999235875E+00    0.000000000000000E+00    0.000000000000000E+00
    1.999999999216015E+00    0.000000000000000E+00    0.000000000000000E+00
    1.999999999196215E+00    0.000000000000000E+00    0.000000000000000E+00
    1.999999999176474E+00    0.000000000000000E+00    0.000000000000000E+00
    1.999999999156795E+00    0.000000000000000E+00    0.000000000000000E+00
    1.999999999137179E+00    0.000000000000000E+00    0.000000000000000E+00
    1.999999999117627E+00    0.000000000000000E+00    0.000000000000000E+00
    1.999999999098139E+00    0.000000000000000E+00    0.000000000000000E+00
    1.999999999078717E+00    0.000000000000000E+00    0.000000000000000E+00
    1.999999999059362E+00    0.000000000000000E+00    0.000000000000000E+00
    1.999999999040076E+00    0.000000000000000E+00    0.000000000000000E+00
    1.999999999020858E+00    0.000000000000000E+00    0.000000000000000E+00
    1.999999999001711E+00    0.000000000000000E+00    0.000000000000000E+00
    1.999999998982634E+00    0.000000000000000E+00    0.000000000000000E+00
    1.999999998963631E+00    0.000000000000000E+00    0.000000000000000E+00
    1.999999998944700E+00    0.000000000000000E+00    0.000000000000000E+00
    1.999999998925846E+00    0.000000000000000E+00    0.000000000000000E+00
    1.999999998907066E+00    0.000000000000000E+00    0.000000000000000E+00
    1.999999998888362E+00    0.000000000000000E+00    0.000000000000000E+00
    1.999999998869736E+00    0.000000000000000E+00    0.000000000000000E+00
    1.999999998851190E+00    0.000000000000000E+00    0.000000000000000E+00
    1.999999998832722E+00    0.000000000000000E+00    0.000000000000000E+00
    1.999999998814337E+00    0.000000000000000E+00    0.000000000000000E+00
    1.999999998796031E+00    0.000000000000000E+00    0.000000000000000E+00
    1.999999998777810E+00    0.000000000000000E+00    0.000000000000000E+00
    1.999999998759672E+00    0.000000000000000E+00    0.000000000000000E+00
    1.999999998741619E+00    0.000000000000000E+00    0.000000000000000E+00
    1.999999998723651E+00    0.000000000000000E+00    0.000000000000000E+00
    1.999999998705770E+00    0.000000000000000E+00    0.000000000000000E+00
    1.999999998687977E+00    0.000000000000000E+00    0.000000000000000E+00
    1.999999998670273E+00    0.000000000000000E+00    0.000000000000000E+00
    1.999999998652660E+00    0.000000000000000E+00    0.000000000000000E+00
    1.999999998635136E+00    0.000000000000000E+00    0.000000000000000E+00
    1.999999998617705E+00    0.000000000000000E+00    0.000000000000000E+00
    1.999999998600367E+00    0.000000000000000E+00    0.000000000000000E+00
    1.999999998583122E+00    0.000000000000000E+00    0.000000000000000E+00
    1.999999998565971E+00    0.000000000000000E+00    0.000000000000000E+00
    1.999999998548917E+00    0.000000000000000E+00    0.000000000000000E+00
    1.999999998531959E+00    0.000000000000000E+00    0.000000000000000E+00
    1.999999998515098E+00    0.000000000000000E+00    0.000000000000000E+00
    1.999999998498336E+00    0.000000000000000E+00    0.000000000000000E+00
    1.999999998481673E+00    0.000000000000000E+00    0.000000000000000E+00
    1.999999998465110E+00    0.000000000000000E+00    0.000000000000000E+00
    1.999999998448648E+00    0.000000000000000E+00    0.000000000000000E+00
    1.999999998432289E+00    0.000000000000000E+00    0.000000000000000E+00
    1.999999998416033E+00    0.000000000000000E+00    0.000000000000000E+00
    1.999999998399880E+00    0.000000000000000E+00    0.000000000000000E+00
    1.999999998383831E+00    0.000000000000000E+00    0.000000000000000E+00
    1.999999998367888E+00    0.000000000000000E+00    0.000000000000000E+00
    1.999999998352052E+00    0.000000000000000E+00    0.000000000000000E+00
    1.999999998336323E+00    0.000000000000000E+00    0.000000000000000E+00
    1.999999998320702E+00    0.000000000000000E+00    0.000000000000000E+00
    1.999999998305190E+00    0.000000000000000E+00    0.000000000000000E+00
    1.999999998289788E+00    0.000000000000000E+00    0.000000000000000E+00
    1.999999998274496E+00    0.000000000000000E+00    0.000000000000000E+00
    1.999999998259316E+00    0.000000000000000E+00    0.000000000000000E+00
    1.999999998244246E+00    0.000000000000000E+00    0.000000000000000E+00
    1.999999998229293E+00    0.000000000000000E+00    0.000000000000000E+00
    1.999999998214452E+00    0.000000000000000E+00    0.000000000000000E+00
    1.999999998199725E+00    0.000000000000000E+00    0.000000000000000E+00
    1.999999998185115E+00    0.000000000000000E+00    0.000000000000000E+00
    1.999999998170622E+00    0.000000000000000E+00    0.000000000000000E+00
    1.999999998156244E+00    0.000000000000000E+00    0.000000000000000E+00
    1.999999998141985E+00    0.000000000000000E+00    0.000000000000000E+00
    1.999999998127844E+00    0.000000000000000E+00    0.000000000000000E+00
    1.999999998113822E+00    0.000000000000000E+00    0.000000000000000E+00
    1.999999998099921E+00    0.000000000000000E+00    0.000000000000000E+00
    1.999999998086140E+00    0.000000000000000E+00    0.000000000000000E+00
    1.999999998072480E+00    0.000000000000000E+00    0.000000000000000E+00
    1.999999998058944E+00    0.000000000000000E+00    0.000000000000000E+00
    1.999999998045529E+00    0.000000000000000E+00    0.000000000000000E+00
    1.999999998032239E+00    0.000000000000000E+00    0.000000000000000E+00
    1.999999998019071E+00    0.000000000000000E+00    0.000000000000000E+00
    1.999999998006031E+00    0.000000000000000E+00    0.000000000000000E+00
    1.999999997993116E+00    0.000000000000000E+00    0.000000000000000E+00
    1.999999997980327E+00    0.000000000000000E+00    0.000000000000000E+00
    1.999999997967665E+00    0.000000000000000E+00    0.000000000000000E+00
    1.999999997955131E+00    0.000000000000000E+00    0.000000000000000E+00
    1.999999997942725E+00    0.000000000000000E+00    0.000000000000000E+00
    1.999999997930449E+00    0.000000000000000E+00    0.000000000000000E+00
    1.999999997918302E+00    0.000000000000000E+00    0.000000000000000E+00
    1.999999997906285E+00    0.000000000000000E+00    0.000000000000000E+00
    1.999999997894399E+00    0.000000000000000E+00    0.000000000000000E+00
    1.999999997882646E+00    0.000000000000000E+00    0.000000000000000E+00
    1.999999997871024E+00    0.000000000000000E+00    0.000000000000000E+00
    1.999999997859535E+00    0.000000000000000E+00    0.000000000000000E+00
    1.999999997848179E+00    0.000000000000000E+00    0.000000000000000E+00
    1.999999997836956E+00    0.000000000000000E+00    0.000000000000000E+00
    1.999999997825869E+00    0.000000000000000E+00    0.000000000000000E+00
    1.999999997814916E+00    0.000000000000000E+00    0.000000000000000E+00
    1.999999997804099E+00    0.000000000000000E+00    0.000000000000000E+00
    1.999999997793418E+00    0.000000000000000E+00    0.000000000000000E+00
    1.999999997782874E+00    0.000000000000000E+00    0.000000000000000E+00
    1.999999997772466E+00    0.000000000000000E+00    0.000000000000000E+00
    1.999999997762197E+00    0.000000000000000E+00    0.000000000000000E+00
    1.999999997752066E+00    0.000000000000000E+00    0.000000000000000E+00
    1.999999997742073E+00    0.000000000000000E+00    0.000000000000000E+00
    1.999999997732220E+00    0.000000000000000E+00    0.000000000000000E+00
    1.999999997722507E+00    0.000000000000000E+00    0.000000000000000E+00
    1.999999997712933E+00    0.000000000000000E+00    0.000000000000000E+00
    1.999999997703501E+00    0.000000000000000E+00    0.000000000000000E+00
    1.999999997694209E+00    0.000000000000000E+00    0.000000000000000E+00
    1.999999997685059E+00    0.000000000000000E+00    0.000000000000000E+00
    1.999999997676051E+00    0.000000000000000E+00    0.000000000000000E+00
    1.999999997667185E+00    0.000000000000000E+00    0.000000000000000E+00
    1.999999997658462E+00    0.000000000000000E+00    0.000000000000000E+00
    1.999999997649883E+00    0.000000000000000E+00    0.000000000000000E+00
    1.999999997641447E+00    0.000000000000000E+00    0.000000000000000E+00
    1.999999997633155E+00    0.000000000000000E+00    0.000000000000000E+00
    1.999999997625008E+00    0.000000000000000E+00    0.000000000000000E+00
    1.999999997617006E+00    0.000000000000000E+00    0.000000000000000E+00
    1.999999997609149E+00    0.000000000000000E+00    0.000000000000000E+00
    1.999999997601438E+00    0.000000000000000E+00    0.000000000000000E+00
    1.999999997593872E+00    0.000000000000000E+00    0.000000000000000E+00
    1.999999997586453E+00    0.000000000000000E+00    0.000000000000000E+00
    1.999999997579180E+00    0.000000000000000E+00    0.000000000000000E+00
    1.999999997572054E+00    0.000000000000000E+00    0.000000000000000E+00
    1.999999997565076E+00    0.000000000000000E+00    0.000000000000000E+00
    1.999999997558246E+00    0.000000000000000E+00    0.000000000000000E+00
    1.999999997551563E+00    0.000000000000000E+00    0.000000000000000E+00
    1.999999997545028E+00    0.000000000000000E+00    0.000000000000000E+00
    1.999999997538642E+00    0.000000000000000E+00    0.000000000000000E+00
    1.999999997532405E+00    0.000000000000000E+00    0.000000000000000E+00
    1.999999997526317E+00    0.000000000000000E+00    0.000000000000000E+00
    1.999999997520378E+00    0.000000000000000E+00    0.000000000000000E+00
    1.999999997514589E+00    0.000000000000000E+00    0.000000000000000E+00
    1.999999997508949E+00    0.000000000000000E+00    0.000000000000000E+00
    1.999999997503460E+00    0.000000000000000E+00    0.000000000000000E+00
    1.999999997498120E+00    0.000000000000000E+00    0.000000000000000E+00
    1.999999997492931E+00    0.000000000000000E+00    0.000000000000000E+00
    1.999999997487893E+00    0.000000000000000E+00    0.000000000000000E+00
    1.999999997483006E+00    0.000000000000000E+00    0.000000000000000E+00
    1.999999997478270E+00    0.000000000000000E+00    0.000000000000000E+00
    1.999999997473684E+00    0.000000000000000E+00    0.000000000000000E+00
    1.999999997469250E+00    0.000000000000000E+00    0.000000000000000E+00
    1.999999997464968E+00    0.000000000000000E+00    0.000000000000000E+00
    1.999999997460838E+00    0.000000000000000E+00    0.000000000000000E+00
    1.999999997456859E+00    0.000000000000000E+00    0.000000000000000E+00
    1.999999997453033E+00    0.000000000000000E+00    0.000000000000000E+00
    1.999999997449358E+00    0.000000000000000E+00    0.000000000000000E+00
    1.999999997445836E+00    0.000000000000000E+00    0.000000000000000E+00
    1.999999997442466E+00    0.000000000000000E+00    0.000000000000000E+00
    1.999999997439248E+00    0.000000000000000E+00    0.000000000000000E+00
    1.999999997436183E+00    0.000000000000000E+00    0.000000000000000E+00
    1.999999997433270E+00    0.000000000000000E+00    0.000000000000000E+00
    1.999999997430509E+00    0.000000000000000E+00    0.000000000000000E+00
    1.999999997427896E+00    0.000000000000000E+00    0.000000000000000E+00
    1.999999997425419E+00    0.000000000000000E+00    0.000000000000000E+00
    1.999999997423026E+00    0.000000000000000E+00    0.000000000000000E+00
    1.999999997420517E+00    0.000000000000000E+00    0.000000000000000E+00
    1.999999997416800E+00    0.000000000000000E+00    0.000000000000000E+00
    1.999999997405860E+00    0.000000000000000E+00    0.000000000000000E+00
    1.999999997356253E+00    0.000000000000000E+00    0.000000000000000E+00
    1.999999997103137E+00    0.000000000000000E+00    0.000000000000000E+00
    1.999999995781414E+00    0.000000000000000E+00    0.000000000000000E+00
    1.999999988850992E+00    0.000000000000000E+00    0.000000000000000E+00
    1.999999952484942E+00    0.000000000000000E+00    0.000000000000000E+00
    1.999999761652366E+00    0.000000000000000E+00    0.000000000000000E+00
    1.999998759707308E+00    0.000000000000000E+00    0.000000000000000E+00
    1.999993517942340E+00    0.000000000000000E+00    0.000000000000000E+00
    1.999965414432173E+00    0.000000000000000E+00    0.000000000000000E+00
    1.999837097294901E+00    0.000000000000000E+00    0.000000000000000E+00
    1.993909161783621E+00    0.000000000000000E+00    0.000000000000000E+00
    1.999999997409872E+00    0.000000000000000E+00    0.000000000000000E+00
SCALARS temperature double 1
LOOKUP_TABLE default
    3.051912104544508E+02
    3.151609703628419E+02
    3.245960197213561E+02
    3.336033346849765E+02
    3.422076626164799E+02
    3.504308047175566E+02
    3.582948542847695E+02
    3.658208063027699E+02
    3.730284772165272E+02
    3.799365831306861E+02
    3.865628027827246E+02
    3.929238354998556E+02
    3.990354559979538E+02
    4.049125661306231E+02
    4.105692437465636E+02
    4.160187888172606E+02
    4.212737669876388E+02
    4.263460506936941E+02
    4.312468579830732E+02
    4.359867891669750E+02
    4.405758614245746E+02
    4.450235414743935E+02
    4.493387764206531E+02
    4.535300228766000E+02
    4.576052744611055E+02
    4.615720877594463E+02
    4.654376068341066E+02
    4.692085863666341E+02
    4.728914135070581E+02
    4.764921285031059E+02
    4.800164441774120E+02
    4.834697643171039E+02
    4.868572010365555E+02
    4.901835911706946E+02
    4.934535117530520E+02
    4.966712946297032E+02
    4.998410402574043E+02
    5.029666307315150E+02
    5.060517420867641E+02
    5.090998559114959E+02
    5.121142703137747E+02
    5.150981102755734E+02
    5.180543374292529E+02
    5.209857592886211E+02
    5.238950379650635E+02
    5.267846983975273E+02
    5.296571361235370E+02
    5.325146246168968E+02
    5.353593222163033E+02
    5.381932786677431E+02
    5.410184413022589E+02
    5.438366608694787E+02
    5.466496970461476E+02
    5.494592236378367E+02
    5.522668334909837E+02
    5.550740431314607E+02
    5.578822971449646E+02
    5.606929723136622E+02
    5.635073815227264E+02
    5.663267774496277E+02
    5.691523560483347E+02
    5.719852598398907E+02
    5.748265810202015E+02
    5.776773643952537E+02
    5.805386101534219E+02
    5.834112764839764E+02
    5.862962820503977E+02
    5.891945083266205E+02
    5.921068018038795E+02
    5.950339760753976E+02
    5.979768138057539E+02
    6.009360685913854E+02
    6.039124667183206E+02
    6.069067088228950E+02
    6.099194714608827E+02
    6.129514085901740E+02
    6.160031529718408E+02
    6.190753174941614E+02
    6.221684964239221E+02
    6.252832665890717E+02
    6.284201884965746E+02
    6.315798073890985E+02
    6.347626542439631E+02
    6.379692467175928E+02
    6.412000900385266E+02
    6.444556778518747E+02
    6.477364930179461E+02
    6.510430083676227E+02
    6.543756874169064E+02
    6.577349850429358E+02
    6.611213481236379E+02
    6.645352161430587E+02
    6.679770217643062E+02
    6.714471913719253E+02
    6.749461455854282E+02
    6.784742997456071E+02
    6.820320643751588E+02
    6.856198456150755E+02
    6.892380456381663E+02
    6.928870630410041E+02
    6.965672932155119E+02
    7.002791287013497E+02
    7.040229595201786E+02
    7.077991734928380E+02
    7.116081565403988E+02
    7.154502929700124E+02
    7.193259657464182E+02
    7.232355567499251E+02
    7.271794470216398E+02
    7.311580169966684E+02
    7.351716467259783E+02
    7.392207160875710E+02
    7.433056049875780E+02
    7.474266935518564E+02
    7.515843623086350E+02
    7.557789923627247E+02
    7.600109655617789E+02
    7.642806646550687E+02
    7.685884734452039E+02
    7.729347769332132E+02
    7.773199614573680E+02
    7.817444148261206E+02
    7.862085264454989E+02
    7.907126874412878E+02
    7.952572907763022E+02
    7.998427313630469E+02
    8.044694061720376E+02
    8.091377143360410E+02
    8.138480572504843E+02
    8.186008386702634E+02
    8.233964648031686E+02
    8.282353444001378E+02
    8.331178888425318E+02
    8.380445122266163E+02
    8.430156314454264E+02
    8.480316662681799E+02
    8.530930394173937E+02
    8.582001766438509E+02
    8.633535067995628E+02
    8.685534619088500E+02
    8.738004772376768E+02
    8.790949913613490E+02
    8.844374462306895E+02
    8.898282872367995E+02
    8.952679632745024E+02
    9.007569268045667E+02
    9.062956339147954E+02
    9.118845443800664E+02
    9.175241217214090E+02
    9.232148332641846E+02
    9.289571501954476E+02
    9.347515476205573E+02
    9.405985046190958E+02
    9.464985043001651E+02
    9.524520338571107E+02
    9.584595846217318E+02
    9.645216521180291E+02
    9.706387361155396E+02
    9.768113406823023E+02
    9.830399742375033E+02
    9.893251496038398E+02
    9.956673840596425E+02
    1.002067199390797E+03
    1.008525121942494E+03
    1.015041682670852E+03
    1.021617417194438E+03
    1.028252865845717E+03
    1.034948573722460E+03
    1.041705090739148E+03
    1.048522971678382E+03
    1.055402776242335E+03
    1.062345069104275E+03
    1.069350419960165E+03
    1.076419403580383E+03
    1.083552599861560E+03
    1.090750593878586E+03
    1.098013975936766E+03
    1.105343341624183E+03
    1.112739291864255E+03
    1.120202432968519E+03
    1.127733376689656E+03
    1.135332740274766E+03
    1.143001146518920E+03
    1.150739223818992E+03
    1.158547606227788E+03
    1.166426933508486E+03
    1.174377851189408E+03
    1.182401010619153E+03
    1.190497069022109E+03
    1.198666689554462E+03
    1.206910541362076E+03
    1.215229299646020E+03
    1.223623645765339E+03
    1.232094267535866E+03
    1.240641860570709E+03
    1.249267135118986E+03
    1.257970853272959E+03
    1.266753983178874E+03
    1.275629707665191E+03
    1.284585111185352E+03
SCALARS pressure double 1
LOOKUP_TABLE default
    1.394373022078133E+02
    1.384657071464164E+02
    1.377050599922993E+02
    1.370099732605062E+02
    1.363133431098240E+02
    1.356160560093101E+02
    1.349187805546259E+02
    1.342215106667296E+02
    1.335242407055864E+02
    1.328269707055595E+02
    1.321297007051552E+02
    1.314324307055359E+02
    1.307351607057456E+02
    1.300378907059535E+02
    1.293406207061714E+02
    1.286433507063969E+02
    1.279460807066307E+02
    1.272488107068730E+02
    1.265515407071237E+02
    1.258542707073829E+02
    1.251570007076505E+02
    1.244597307079266E+02
    1.237624607082110E+02
    1.230651907085038E+02
    1.223679207088049E+02
    1.216706507091144E+02
    1.209733807094321E+02
    1.202761107097581E+02
    1.195788407100924E+02
    1.188815707104348E+02
    1.181843007107855E+02
    1.174870307111444E+02
    1.167897607115114E+02
    1.160924907118865E+02
    1.153952207122697E+02
    1.146979507126610E+02
    1.140006807130602E+02
    1.133034107134676E+02
    1.126061407138828E+02
    1.119088707143060E+02
    1.112116007147372E+02
    1.105143307151762E+02
    1.098170607156231E+02
    1.091197907160778E+02
    1.084225207165403E+02
    1.077252507170105E+02
    1.070279807174885E+02
    1.063307107179742E+02
    1.056334407184675E+02
    1.049361707189684E+02
    1.042389007194769E+02
    1.035416307199930E+02
    1.028443607205166E+02
    1.021470907210478E+02
    1.014498207215863E+02
    1.007525507221322E+02
    1.000552807226856E+02
    9.935801072324624E+01
    9.866074072381420E+01
    9.796347072438942E+01
    9.726620072497188E+01
    9.656893072556151E+01
    9.587166072615830E+01
    9.517439072676217E+01
    9.447712072737312E+01
    9.377985072799109E+01
    9.308258072861604E+01
    9.238531072924793E+01
    9.168804072988672E+01
    9.099077073053236E+01
    9.029350073118484E+01
    8.959623073184407E+01
    8.889896073251005E+01
    8.820169073318270E+01
    8.750442073386199E+01
    8.680715073454788E+01
    8.610988073524032E+01
    8.541261073593925E+01
    8.471534073664466E+01
    8.401807073735650E+01
    8.332080073807469E+01
    8.262353073879922E+01
    8.192626073953004E+01
    8.122899074026707E+01
    8.053172074101028E+01
    7.983445074175962E+01
    7.913718074251506E+01
    7.843991074327653E+01
    7.774264074404400E+01
    7.704537074481740E+01
    7.634810074559670E+01
    7.565083074638186E+01
    7.495356074717276E+01
    7.425629074796943E+01
    7.355902074877180E+01
    7.286175074957980E+01
    7.216448075039339E+01
    7.146721075121252E+01
    7.076994075203713E+01
    7.007267075286717E+01
    6.937540075370261E+01
    6.867813075454336E+01
    6.798086075538940E+01
    6.728359075624064E+01
    6.658632075709707E+01
    6.588905075795861E+01
    6.519178075882522E+01
    6.449451075969682E+01
    6.379724076057339E+01
    6.309997076145484E+01
    6.240270076234115E+01
    6.170543076323223E+01
    6.100816076412806E+01
    6.031089076502856E+01
    5.961362076593368E+01
    5.891635076684337E+01
    5.821908076775755E+01
    5.752181076867620E+01
    5.682454076959925E+01
    5.612727077052661E+01
    5.543000077145826E+01
    5.473273077239413E+01
    5.403546077333418E+01
    5.333819077427832E+01
    5.264092077522650E+01
    5.194365077617869E+01
    5.124638077713481E+01
    5.054911077809480E+01
    4.985184077905861E+01
    4.915457078002615E+01
    4.845730078099739E+01
    4.776003078197228E+01
    4.706276078295075E+01
    4.636549078393273E+01
    4.566822078491816E+01
    4.497095078590699E+01
    4.427368078689914E+01
    4.357641078789458E+01
    4.287914078889324E+01
    4.218187078989505E+01
    4.148460079089995E+01
    4.078733079190789E+01
    4.009006079291880E+01
    3.939279079393261E+01
    3.869552079494927E+01
    3.799825079596872E+01
    3.730098079699090E+01
    3.660371079801573E+01
    3.590644079904317E+01
    3.520917080007315E+01
    3.451190080110559E+01
    3.381463080214046E+01
    3.311736080317768E+01
    3.242009080421718E+01
    3.172282080525892E+01
    3.102555080630281E+01
    3.032828080734881E+01
    2.963101080839684E+01
    2.893374080944685E+01
    2.823647081049879E+01
    2.753920081155256E+01
    2.684193081260814E+01
    2.614466081366541E+01
    2.544739081472434E+01
    2.475012081578490E+01
    2.405285081684698E+01
    2.335558081791054E+01
    2.265831081897549E+01
    2.196104082004178E+01
    2.126377082110936E+01
    2.056650082217816E+01
    1.986923082324811E+01
    1.917196082431915E+01
    1.847469082539121E+01
    1.777742082646422E+01
    1.708015082753815E+01
    1.638288082861291E+01
    1.568561082968844E+01
    1.498834083076469E+01
    1.429107083184156E+01
    1.359380083291902E+01
    1.289653083399703E+01
    1.219926083507559E+01
    1.150199083615494E+01
    1.080472083723607E+01
    1.010745083832371E+01
    9.410180839436025E+00
    8.712910840669217E+00
    8.015640842547281E+00
    7.318370847816154E+00
    6.621100870882186E+00
    5.923830987349445E+00
    5.226561593989200E+00
    4.529294773095748E+00
    3.832041451434548E+00
    3.134859008663463E+00
    2.438047114398160E+00
    1.743226439065515E+00
    1.057211475799568E+00
    7.216147923655024E-01
