# vtk DataFile Version 3.0
OpenCFD-EC solid temperature
ASCII
DATASET STRUCTURED_GRID
DIMENSIONS    201     2     2
POINTS          804 double
    0.000000000000000E+00    0.000000000000000E+00    0.000000000000000E+00
    5.000000000000000E-05    0.000000000000000E+00    0.000000000000000E+00
    1.000000000000000E-04    0.000000000000000E+00    0.000000000000000E+00
    1.500000000000000E-04    0.000000000000000E+00    0.000000000000000E+00
    2.000000000000000E-04    0.000000000000000E+00    0.000000000000000E+00
    2.500000000000000E-04    0.000000000000000E+00    0.000000000000000E+00
    3.000000000000000E-04    0.000000000000000E+00    0.000000000000000E+00
    3.500000000000000E-04    0.000000000000000E+00    0.000000000000000E+00
    4.000000000000000E-04    0.000000000000000E+00    0.000000000000000E+00
    4.500000000000000E-04    0.000000000000000E+00    0.000000000000000E+00
    5.000000000000000E-04    0.000000000000000E+00    0.000000000000000E+00
    5.500000000000000E-04    0.000000000000000E+00    0.000000000000000E+00
    6.000000000000001E-04    0.000000000000000E+00    0.000000000000000E+00
    6.500000000000001E-04    0.000000000000000E+00    0.000000000000000E+00
    7.000000000000000E-04    0.000000000000000E+00    0.000000000000000E+00
    7.500000000000000E-04    0.000000000000000E+00    0.000000000000000E+00
    8.000000000000000E-04    0.000000000000000E+00    0.000000000000000E+00
    8.500000000000001E-04    0.000000000000000E+00    0.000000000000000E+00
    9.000000000000001E-04    0.000000000000000E+00    0.000000000000000E+00
    9.500000000000000E-04    0.000000000000000E+00    0.000000000000000E+00
    1.000000000000000E-03    0.000000000000000E+00    0.000000000000000E+00
    1.050000000000000E-03    0.000000000000000E+00    0.000000000000000E+00
    1.100000000000000E-03    0.000000000000000E+00    0.000000000000000E+00
    1.150000000000000E-03    0.000000000000000E+00    0.000000000000000E+00
    1.200000000000000E-03    0.000000000000000E+00    0.000000000000000E+00
    1.250000000000000E-03    0.000000000000000E+00    0.000000000000000E+00
    1.300000000000000E-03    0.000000000000000E+00    0.000000000000000E+00
    1.350000000000000E-03    0.000000000000000E+00    0.000000000000000E+00
    1.400000000000000E-03    0.000000000000000E+00    0.000000000000000E+00
    1.450000000000000E-03    0.000000000000000E+00    0.000000000000000E+00
    1.500000000000000E-03    0.000000000000000E+00    0.000000000000000E+00
    1.550000000000000E-03    0.000000000000000E+00    0.000000000000000E+00
    1.600000000000000E-03    0.000000000000000E+00    0.000000000000000E+00
    1.650000000000000E-03    0.000000000000000E+00    0.000000000000000E+00
    1.700000000000000E-03    0.000000000000000E+00    0.000000000000000E+00
    1.750000000000000E-03    0.000000000000000E+00    0.000000000000000E+00
    1.800000000000000E-03    0.000000000000000E+00    0.000000000000000E+00
    1.850000000000000E-03    0.000000000000000E+00    0.000000000000000E+00
    1.900000000000000E-03    0.000000000000000E+00    0.000000000000000E+00
    1.950000000000000E-03    0.000000000000000E+00    0.000000000000000E+00
    2.000000000000000E-03    0.000000000000000E+00    0.000000000000000E+00
    2.050000000000000E-03    0.000000000000000E+00    0.000000000000000E+00
    2.100000000000000E-03    0.000000000000000E+00    0.000000000000000E+00
    2.150000000000000E-03    0.000000000000000E+00    0.000000000000000E+00
    2.200000000000000E-03    0.000000000000000E+00    0.000000000000000E+00
    2.250000000000000E-03    0.000000000000000E+00    0.000000000000000E+00
    2.300000000000000E-03    0.000000000000000E+00    0.000000000000000E+00
    2.350000000000000E-03    0.000000000000000E+00    0.000000000000000E+00
    2.400000000000000E-03    0.000000000000000E+00    0.000000000000000E+00
    2.450000000000000E-03    0.000000000000000E+00    0.000000000000000E+00
    2.500000000000000E-03    0.000000000000000E+00    0.000000000000000E+00
    2.550000000000000E-03    0.000000000000000E+00    0.000000000000000E+00
    2.600000000000000E-03    0.000000000000000E+00    0.000000000000000E+00
    2.650000000000000E-03    0.000000000000000E+00    0.000000000000000E+00
    2.700000000000000E-03    0.000000000000000E+00    0.000000000000000E+00
    2.750000000000000E-03    0.000000000000000E+00    0.000000000000000E+00
    2.800000000000000E-03    0.000000000000000E+00    0.000000000000000E+00
    2.850000000000000E-03    0.000000000000000E+00    0.000000000000000E+00
    2.900000000000000E-03    0.000000000000000E+00    0.000000000000000E+00
    2.950000000000000E-03    0.000000000000000E+00    0.000000000000000E+00
    3.000000000000000E-03    0.000000000000000E+00    0.000000000000000E+00
    3.050000000000000E-03    0.000000000000000E+00    0.000000000000000E+00
    3.100000000000000E-03    0.000000000000000E+00    0.000000000000000E+00
    3.150000000000000E-03    0.000000000000000E+00    0.000000000000000E+00
    3.200000000000000E-03    0.000000000000000E+00    0.000000000000000E+00
    3.250000000000000E-03    0.000000000000000E+00    0.000000000000000E+00
    3.300000000000000E-03    0.000000000000000E+00    0.000000000000000E+00
    3.350000000000000E-03    0.000000000000000E+00    0.000000000000000E+00
    3.400000000000000E-03    0.000000000000000E+00    0.000000000000000E+00
    3.450000000000000E-03    0.000000000000000E+00    0.000000000000000E+00
    3.500000000000000E-03    0.000000000000000E+00    0.000000000000000E+00
    3.550000000000000E-03    0.000000000000000E+00    0.000000000000000E+00
    3.600000000000000E-03    0.000000000000000E+00    0.000000000000000E+00
    3.650000000000000E-03    0.000000000000000E+00    0.000000000000000E+00
    3.700000000000000E-03    0.000000000000000E+00    0.000000000000000E+00
    3.750000000000000E-03    0.000000000000000E+00    0.000000000000000E+00
    3.800000000000000E-03    0.000000000000000E+00    0.000000000000000E+00
    3.850000000000000E-03    0.000000000000000E+00    0.000000000000000E+00
    3.900000000000000E-03    0.000000000000000E+00    0.000000000000000E+00
    3.950000000000000E-03    0.000000000000000E+00    0.000000000000000E+00
    4.000000000000000E-03    0.000000000000000E+00    0.000000000000000E+00
    4.050000000000000E-03    0.000000000000000E+00    0.000000000000000E+00
    4.100000000000000E-03    0.000000000000000E+00    0.000000000000000E+00
    4.150000000000000E-03    0.000000000000000E+00    0.000000000000000E+00
    4.200000000000001E-03    0.000000000000000E+00    0.000000000000000E+00
    4.250000000000000E-03    0.000000000000000E+00    0.000000000000000E+00
    4.300000000000000E-03    0.000000000000000E+00    0.000000000000000E+00
    4.350000000000001E-03    0.000000000000000E+00    0.000000000000000E+00
    4.400000000000000E-03    0.000000000000000E+00    0.000000000000000E+00
    4.450000000000000E-03    0.000000000000000E+00    0.000000000000000E+00
    4.500000000000001E-03    0.000000000000000E+00    0.000000000000000E+00
    4.550000000000000E-03    0.000000000000000E+00    0.000000000000000E+00
    4.600000000000000E-03    0.000000000000000E+00    0.000000000000000E+00
    4.650000000000000E-03    0.000000000000000E+00    0.000000000000000E+00
    4.700000000000000E-03    0.000000000000000E+00    0.000000000000000E+00
    4.750000000000000E-03    0.000000000000000E+00    0.000000000000000E+00
    4.800000000000000E-03    0.000000000000000E+00    0.000000000000000E+00
    4.850000000000000E-03    0.000000000000000E+00    0.000000000000000E+00
    4.900000000000000E-03    0.000000000000000E+00    0.000000000000000E+00
    4.950000000000000E-03    0.000000000000000E+00    0.000000000000000E+00
    5.000000000000000E-03    0.000000000000000E+00    0.000000000000000E+00
    5.050000000000001E-03    0.000000000000000E+00    0.000000000000000E+00
    5.100000000000000E-03    0.000000000000000E+00    0.000000000000000E+00
    5.150000000000000E-03    0.000000000000000E+00    0.000000000000000E+00
    5.200000000000001E-03    0.000000000000000E+00    0.000000000000000E+00
    5.250000000000000E-03    0.000000000000000E+00    0.000000000000000E+00
    5.300000000000000E-03    0.000000000000000E+00    0.000000000000000E+00
    5.350000000000001E-03    0.000000000000000E+00    0.000000000000000E+00
    5.400000000000000E-03    0.000000000000000E+00    0.000000000000000E+00
    5.450000000000000E-03    0.000000000000000E+00    0.000000000000000E+00
    5.500000000000001E-03    0.000000000000000E+00    0.000000000000000E+00
    5.550000000000000E-03    0.000000000000000E+00    0.000000000000000E+00
    5.600000000000000E-03    0.000000000000000E+00    0.000000000000000E+00
    5.650000000000001E-03    0.000000000000000E+00    0.000000000000000E+00
    5.700000000000000E-03    0.000000000000000E+00    0.000000000000000E+00
    5.750000000000000E-03    0.000000000000000E+00    0.000000000000000E+00
    5.800000000000000E-03    0.000000000000000E+00    0.000000000000000E+00
    5.850000000000000E-03    0.000000000000000E+00    0.000000000000000E+00
    5.900000000000000E-03    0.000000000000000E+00    0.000000000000000E+00
    5.950000000000000E-03    0.000000000000000E+00    0.000000000000000E+00
    6.000000000000000E-03    0.000000000000000E+00    0.000000000000000E+00
    6.050000000000001E-03    0.000000000000000E+00    0.000000000000000E+00
    6.100000000000000E-03    0.000000000000000E+00    0.000000000000000E+00
    6.150000000000000E-03    0.000000000000000E+00    0.000000000000000E+00
    6.200000000000001E-03    0.000000000000000E+00    0.000000000000000E+00
    6.250000000000000E-03    0.000000000000000E+00    0.000000000000000E+00
    6.300000000000000E-03    0.000000000000000E+00    0.000000000000000E+00
    6.350000000000001E-03    0.000000000000000E+00    0.000000000000000E+00
    6.400000000000000E-03    0.000000000000000E+00    0.000000000000000E+00
    6.450000000000000E-03    0.000000000000000E+00    0.000000000000000E+00
    6.500000000000001E-03    0.000000000000000E+00    0.000000000000000E+00
    6.550000000000000E-03    0.000000000000000E+00    0.000000000000000E+00
    6.600000000000000E-03    0.000000000000000E+00    0.000000000000000E+00
    6.650000000000001E-03    0.000000000000000E+00    0.000000000000000E+00
    6.700000000000000E-03    0.000000000000000E+00    0.000000000000000E+00
    6.750000000000000E-03    0.000000000000000E+00    0.000000000000000E+00
    6.800000000000000E-03    0.000000000000000E+00    0.000000000000000E+00
    6.850000000000000E-03    0.000000000000000E+00    0.000000000000000E+00
    6.900000000000001E-03    0.000000000000000E+00    0.000000000000000E+00
    6.950000000000000E-03    0.000000000000000E+00    0.000000000000000E+00
    7.000000000000000E-03    0.000000000000000E+00    0.000000000000000E+00
    7.050000000000001E-03    0.000000000000000E+00    0.000000000000000E+00
    7.100000000000000E-03    0.000000000000000E+00    0.000000000000000E+00
    7.150000000000000E-03    0.000000000000000E+00    0.000000000000000E+00
    7.200000000000001E-03    0.000000000000000E+00    0.000000000000000E+00
    7.250000000000000E-03    0.000000000000000E+00    0.000000000000000E+00
    7.300000000000000E-03    0.000000000000000E+00    0.000000000000000E+00
    7.350000000000001E-03    0.000000000000000E+00    0.000000000000000E+00
    7.400000000000000E-03    0.000000000000000E+00    0.000000000000000E+00
    7.450000000000000E-03    0.000000000000000E+00    0.000000000000000E+00
    7.500000000000001E-03    0.000000000000000E+00    0.000000000000000E+00
    7.550000000000000E-03    0.000000000000000E+00    0.000000000000000E+00
    7.600000000000000E-03    0.000000000000000E+00    0.000000000000000E+00
    7.650000000000001E-03    0.000000000000000E+00    0.000000000000000E+00
    7.700000000000000E-03    0.000000000000000E+00    0.000000000000000E+00
    7.750000000000000E-03    0.000000000000000E+00    0.000000000000000E+00
    7.800000000000001E-03    0.000000000000000E+00    0.000000000000000E+00
    7.850000000000001E-03    0.000000000000000E+00    0.000000000000000E+00
    7.900000000000001E-03    0.000000000000000E+00    0.000000000000000E+00
    7.950000000000000E-03    0.000000000000000E+00    0.000000000000000E+00
    8.000000000000000E-03    0.000000000000000E+00    0.000000000000000E+00
    8.050000000000000E-03    0.000000000000000E+00    0.000000000000000E+00
    8.100000000000000E-03    0.000000000000000E+00    0.000000000000000E+00
    8.150000000000001E-03    0.000000000000000E+00    0.000000000000000E+00
    8.200000000000001E-03    0.000000000000000E+00    0.000000000000000E+00
    8.250000000000000E-03    0.000000000000000E+00    0.000000000000000E+00
    8.300000000000000E-03    0.000000000000000E+00    0.000000000000000E+00
    8.350000000000000E-03    0.000000000000000E+00    0.000000000000000E+00
    8.400000000000001E-03    0.000000000000000E+00    0.000000000000000E+00
    8.450000000000001E-03    0.000000000000000E+00    0.000000000000000E+00
    8.500000000000001E-03    0.000000000000000E+00    0.000000000000000E+00
    8.550000000000000E-03    0.000000000000000E+00    0.000000000000000E+00
    8.600000000000000E-03    0.000000000000000E+00    0.000000000000000E+00
    8.650000000000000E-03    0.000000000000000E+00    0.000000000000000E+00
    8.700000000000001E-03    0.000000000000000E+00    0.000000000000000E+00
    8.750000000000001E-03    0.000000000000000E+00    0.000000000000000E+00
    8.800000000000001E-03    0.000000000000000E+00    0.000000000000000E+00
    8.850000000000000E-03    0.000000000000000E+00    0.000000000000000E+00
    8.900000000000000E-03    0.000000000000000E+00    0.000000000000000E+00
    8.950000000000000E-03    0.000000000000000E+00    0.000000000000000E+00
    9.000000000000001E-03    0.000000000000000E+00    0.000000000000000E+00
    9.050000000000001E-03    0.000000000000000E+00    0.000000000000000E+00
    9.100000000000000E-03    0.000000000000000E+00    0.000000000000000E+00
    9.150000000000000E-03    0.000000000000000E+00    0.000000000000000E+00
    9.200000000000000E-03    0.000000000000000E+00    0.000000000000000E+00
    9.250000000000001E-03    0.000000000000000E+00    0.000000000000000E+00
    9.300000000000001E-03    0.000000000000000E+00    0.000000000000000E+00
    9.350000000000001E-03    0.000000000000000E+00    0.000000000000000E+00
    9.400000000000000E-03    0.000000000000000E+00    0.000000000000000E+00
    9.450000000000000E-03    0.000000000000000E+00    0.000000000000000E+00
    9.500000000000000E-03    0.000000000000000E+00    0.000000000000000E+00
    9.550000000000001E-03    0.000000000000000E+00    0.000000000000000E+00
    9.600000000000001E-03    0.000000000000000E+00    0.000000000000000E+00
    9.650000000000001E-03    0.000000000000000E+00    0.000000000000000E+00
    9.700000000000000E-03    0.000000000000000E+00    0.000000000000000E+00
    9.750000000000000E-03    0.000000000000000E+00    0.000000000000000E+00
    9.800000000000000E-03    0.000000000000000E+00    0.000000000000000E+00
    9.850000000000001E-03    0.000000000000000E+00    0.000000000000000E+00
    9.900000000000001E-03    0.000000000000000E+00    0.000000000000000E+00
    9.950000000000001E-03    0.000000000000000E+00    0.000000000000000E+00
    1.000000000000000E-02    0.000000000000000E+00    0.000000000000000E+00
    0.000000000000000E+00    1.000000000000000E-01    0.000000000000000E+00
    5.000000000000000E-05    1.000000000000000E-01    0.000000000000000E+00
    1.000000000000000E-04    1.000000000000000E-01    0.000000000000000E+00
    1.500000000000000E-04    1.000000000000000E-01    0.000000000000000E+00
    2.000000000000000E-04    1.000000000000000E-01    0.000000000000000E+00
    2.500000000000000E-04    1.000000000000000E-01    0.000000000000000E+00
    3.000000000000000E-04    1.000000000000000E-01    0.000000000000000E+00
    3.500000000000000E-04    1.000000000000000E-01    0.000000000000000E+00
    4.000000000000000E-04    1.000000000000000E-01    0.000000000000000E+00
    4.500000000000000E-04    1.000000000000000E-01    0.000000000000000E+00
    5.000000000000000E-04    1.000000000000000E-01    0.000000000000000E+00
    5.500000000000000E-04    1.000000000000000E-01    0.000000000000000E+00
    6.000000000000001E-04    1.000000000000000E-01    0.000000000000000E+00
    6.500000000000001E-04    1.000000000000000E-01    0.000000000000000E+00
    7.000000000000000E-04    1.000000000000000E-01    0.000000000000000E+00
    7.500000000000000E-04    1.000000000000000E-01    0.000000000000000E+00
    8.000000000000000E-04    1.000000000000000E-01    0.000000000000000E+00
    8.500000000000001E-04    1.000000000000000E-01    0.000000000000000E+00
    9.000000000000001E-04    1.000000000000000E-01    0.000000000000000E+00
    9.500000000000000E-04    1.000000000000000E-01    0.000000000000000E+00
    1.000000000000000E-03    1.000000000000000E-01    0.000000000000000E+00
    1.050000000000000E-03    1.000000000000000E-01    0.000000000000000E+00
    1.100000000000000E-03    1.000000000000000E-01    0.000000000000000E+00
    1.150000000000000E-03    1.000000000000000E-01    0.000000000000000E+00
    1.200000000000000E-03    1.000000000000000E-01    0.000000000000000E+00
    1.250000000000000E-03    1.000000000000000E-01    0.000000000000000E+00
    1.300000000000000E-03    1.000000000000000E-01    0.000000000000000E+00
    1.350000000000000E-03    1.000000000000000E-01    0.000000000000000E+00
    1.400000000000000E-03    1.000000000000000E-01    0.000000000000000E+00
    1.450000000000000E-03    1.000000000000000E-01    0.000000000000000E+00
    1.500000000000000E-03    1.000000000000000E-01    0.000000000000000E+00
    1.550000000000000E-03    1.000000000000000E-01    0.000000000000000E+00
    1.600000000000000E-03    1.000000000000000E-01    0.000000000000000E+00
    1.650000000000000E-03    1.000000000000000E-01    0.000000000000000E+00
    1.700000000000000E-03    1.000000000000000E-01    0.000000000000000E+00
    1.750000000000000E-03    1.000000000000000E-01    0.000000000000000E+00
    1.800000000000000E-03    1.000000000000000E-01    0.000000000000000E+00
    1.850000000000000E-03    1.000000000000000E-01    0.000000000000000E+00
    1.900000000000000E-03    1.000000000000000E-01    0.000000000000000E+00
    1.950000000000000E-03    1.000000000000000E-01    0.000000000000000E+00
    2.000000000000000E-03    1.000000000000000E-01    0.000000000000000E+00
    2.050000000000000E-03    1.000000000000000E-01    0.000000000000000E+00
    2.100000000000000E-03    1.000000000000000E-01    0.000000000000000E+00
    2.150000000000000E-03    1.000000000000000E-01    0.000000000000000E+00
    2.200000000000000E-03    1.000000000000000E-01    0.000000000000000E+00
    2.250000000000000E-03    1.000000000000000E-01    0.000000000000000E+00
    2.300000000000000E-03    1.000000000000000E-01    0.000000000000000E+00
    2.350000000000000E-03    1.000000000000000E-01    0.000000000000000E+00
    2.400000000000000E-03    1.000000000000000E-01    0.000000000000000E+00
    2.450000000000000E-03    1.000000000000000E-01    0.000000000000000E+00
    2.500000000000000E-03    1.000000000000000E-01    0.000000000000000E+00
    2.550000000000000E-03    1.000000000000000E-01    0.000000000000000E+00
    2.600000000000000E-03    1.000000000000000E-01    0.000000000000000E+00
    2.650000000000000E-03    1.000000000000000E-01    0.000000000000000E+00
    2.700000000000000E-03    1.000000000000000E-01    0.000000000000000E+00
    2.750000000000000E-03    1.000000000000000E-01    0.000000000000000E+00
    2.800000000000000E-03    1.000000000000000E-01    0.000000000000000E+00
    2.850000000000000E-03    1.000000000000000E-01    0.000000000000000E+00
    2.900000000000000E-03    1.000000000000000E-01    0.000000000000000E+00
    2.950000000000000E-03    1.000000000000000E-01    0.000000000000000E+00
    3.000000000000000E-03    1.000000000000000E-01    0.000000000000000E+00
    3.050000000000000E-03    1.000000000000000E-01    0.000000000000000E+00
    3.100000000000000E-03    1.000000000000000E-01    0.000000000000000E+00
    3.150000000000000E-03    1.000000000000000E-01    0.000000000000000E+00
    3.200000000000000E-03    1.000000000000000E-01    0.000000000000000E+00
    3.250000000000000E-03    1.000000000000000E-01    0.000000000000000E+00
    3.300000000000000E-03    1.000000000000000E-01    0.000000000000000E+00
    3.350000000000000E-03    1.000000000000000E-01    0.000000000000000E+00
    3.400000000000000E-03    1.000000000000000E-01    0.000000000000000E+00
    3.450000000000000E-03    1.000000000000000E-01    0.000000000000000E+00
    3.500000000000000E-03    1.000000000000000E-01    0.000000000000000E+00
    3.550000000000000E-03    1.000000000000000E-01    0.000000000000000E+00
    3.600000000000000E-03    1.000000000000000E-01    0.000000000000000E+00
    3.650000000000000E-03    1.000000000000000E-01    0.000000000000000E+00
    3.700000000000000E-03    1.000000000000000E-01    0.000000000000000E+00
    3.750000000000000E-03    1.000000000000000E-01    0.000000000000000E+00
    3.800000000000000E-03    1.000000000000000E-01    0.000000000000000E+00
    3.850000000000000E-03    1.000000000000000E-01    0.000000000000000E+00
    3.900000000000000E-03    1.000000000000000E-01    0.000000000000000E+00
    3.950000000000000E-03    1.000000000000000E-01    0.000000000000000E+00
    4.000000000000000E-03    1.000000000000000E-01    0.000000000000000E+00
    4.050000000000000E-03    1.000000000000000E-01    0.000000000000000E+00
    4.100000000000000E-03    1.000000000000000E-01    0.000000000000000E+00
    4.150000000000000E-03    1.000000000000000E-01    0.000000000000000E+00
    4.200000000000001E-03    1.000000000000000E-01    0.000000000000000E+00
    4.250000000000000E-03    1.000000000000000E-01    0.000000000000000E+00
    4.300000000000000E-03    1.000000000000000E-01    0.000000000000000E+00
    4.350000000000001E-03    1.000000000000000E-01    0.000000000000000E+00
    4.400000000000000E-03    1.000000000000000E-01    0.000000000000000E+00
    4.450000000000000E-03    1.000000000000000E-01    0.000000000000000E+00
    4.500000000000001E-03    1.000000000000000E-01    0.000000000000000E+00
    4.550000000000000E-03    1.000000000000000E-01    0.000000000000000E+00
    4.600000000000000E-03    1.000000000000000E-01    0.000000000000000E+00
    4.650000000000000E-03    1.000000000000000E-01    0.000000000000000E+00
    4.700000000000000E-03    1.000000000000000E-01    0.000000000000000E+00
    4.750000000000000E-03    1.000000000000000E-01    0.000000000000000E+00
    4.800000000000000E-03    1.000000000000000E-01    0.000000000000000E+00
    4.850000000000000E-03    1.000000000000000E-01    0.000000000000000E+00
    4.900000000000000E-03    1.000000000000000E-01    0.000000000000000E+00
    4.950000000000000E-03    1.000000000000000E-01    0.000000000000000E+00
    5.000000000000000E-03    1.000000000000000E-01    0.000000000000000E+00
    5.050000000000001E-03    1.000000000000000E-01    0.000000000000000E+00
    5.100000000000000E-03    1.000000000000000E-01    0.000000000000000E+00
    5.150000000000000E-03    1.000000000000000E-01    0.000000000000000E+00
    5.200000000000001E-03    1.000000000000000E-01    0.000000000000000E+00
    5.250000000000000E-03    1.000000000000000E-01    0.000000000000000E+00
    5.300000000000000E-03    1.000000000000000E-01    0.000000000000000E+00
    5.350000000000001E-03    1.000000000000000E-01    0.000000000000000E+00
    5.400000000000000E-03    1.000000000000000E-01    0.000000000000000E+00
    5.450000000000000E-03    1.000000000000000E-01    0.000000000000000E+00
    5.500000000000001E-03    1.000000000000000E-01    0.000000000000000E+00
    5.550000000000000E-03    1.000000000000000E-01    0.000000000000000E+00
    5.600000000000000E-03    1.000000000000000E-01    0.000000000000000E+00
    5.650000000000001E-03    1.000000000000000E-01    0.000000000000000E+00
    5.700000000000000E-03    1.000000000000000E-01    0.000000000000000E+00
    5.750000000000000E-03    1.000000000000000E-01    0.000000000000000E+00
    5.800000000000000E-03    1.000000000000000E-01    0.000000000000000E+00
    5.850000000000000E-03    1.000000000000000E-01    0.000000000000000E+00
    5.900000000000000E-03    1.000000000000000E-01    0.000000000000000E+00
    5.950000000000000E-03    1.000000000000000E-01    0.000000000000000E+00
    6.000000000000000E-03    1.000000000000000E-01    0.000000000000000E+00
    6.050000000000001E-03    1.000000000000000E-01    0.000000000000000E+00
    6.100000000000000E-03    1.000000000000000E-01    0.000000000000000E+00
    6.150000000000000E-03    1.000000000000000E-01    0.000000000000000E+00
    6.200000000000001E-03    1.000000000000000E-01    0.000000000000000E+00
    6.250000000000000E-03    1.000000000000000E-01    0.000000000000000E+00
    6.300000000000000E-03    1.000000000000000E-01    0.000000000000000E+00
    6.350000000000001E-03    1.000000000000000E-01    0.000000000000000E+00
    6.400000000000000E-03    1.000000000000000E-01    0.000000000000000E+00
    6.450000000000000E-03    1.000000000000000E-01    0.000000000000000E+00
    6.500000000000001E-03    1.000000000000000E-01    0.000000000000000E+00
    6.550000000000000E-03    1.000000000000000E-01    0.000000000000000E+00
    6.600000000000000E-03    1.000000000000000E-01    0.000000000000000E+00
    6.650000000000001E-03    1.000000000000000E-01    0.000000000000000E+00
    6.700000000000000E-03    1.000000000000000E-01    0.000000000000000E+00
    6.750000000000000E-03    1.000000000000000E-01    0.000000000000000E+00
    6.800000000000000E-03    1.000000000000000E-01    0.000000000000000E+00
    6.850000000000000E-03    1.000000000000000E-01    0.000000000000000E+00
    6.900000000000001E-03    1.000000000000000E-01    0.000000000000000E+00
    6.950000000000000E-03    1.000000000000000E-01    0.000000000000000E+00
    7.000000000000000E-03    1.000000000000000E-01    0.000000000000000E+00
    7.050000000000001E-03    1.000000000000000E-01    0.000000000000000E+00
    7.100000000000000E-03    1.000000000000000E-01    0.000000000000000E+00
    7.150000000000000E-03    1.000000000000000E-01    0.000000000000000E+00
    7.200000000000001E-03    1.000000000000000E-01    0.000000000000000E+00
    7.250000000000000E-03    1.000000000000000E-01    0.000000000000000E+00
    7.300000000000000E-03    1.000000000000000E-01    0.000000000000000E+00
    7.350000000000001E-03    1.000000000000000E-01    0.000000000000000E+00
    7.400000000000000E-03    1.000000000000000E-01    0.000000000000000E+00
    7.450000000000000E-03    1.000000000000000E-01    0.000000000000000E+00
    7.500000000000001E-03    1.000000000000000E-01    0.000000000000000E+00
    7.550000000000000E-03    1.000000000000000E-01    0.000000000000000E+00
    7.600000000000000E-03    1.000000000000000E-01    0.000000000000000E+00
    7.650000000000001E-03    1.000000000000000E-01    0.000000000000000E+00
    7.700000000000000E-03    1.000000000000000E-01    0.000000000000000E+00
    7.750000000000000E-03    1.000000000000000E-01    0.000000000000000E+00
    7.800000000000001E-03    1.000000000000000E-01    0.000000000000000E+00
    7.850000000000001E-03    1.000000000000000E-01    0.000000000000000E+00
    7.900000000000001E-03    1.000000000000000E-01    0.000000000000000E+00
    7.950000000000000E-03    1.000000000000000E-01    0.000000000000000E+00
    8.000000000000000E-03    1.000000000000000E-01    0.000000000000000E+00
    8.050000000000000E-03    1.000000000000000E-01    0.000000000000000E+00
    8.100000000000000E-03    1.000000000000000E-01    0.000000000000000E+00
    8.150000000000001E-03    1.000000000000000E-01    0.000000000000000E+00
    8.200000000000001E-03    1.000000000000000E-01    0.000000000000000E+00
    8.250000000000000E-03    1.000000000000000E-01    0.000000000000000E+00
    8.300000000000000E-03    1.000000000000000E-01    0.000000000000000E+00
    8.350000000000000E-03    1.000000000000000E-01    0.000000000000000E+00
    8.400000000000001E-03    1.000000000000000E-01    0.000000000000000E+00
    8.450000000000001E-03    1.000000000000000E-01    0.000000000000000E+00
    8.500000000000001E-03    1.000000000000000E-01    0.000000000000000E+00
    8.550000000000000E-03    1.000000000000000E-01    0.000000000000000E+00
    8.600000000000000E-03    1.000000000000000E-01    0.000000000000000E+00
    8.650000000000000E-03    1.000000000000000E-01    0.000000000000000E+00
    8.700000000000001E-03    1.000000000000000E-01    0.000000000000000E+00
    8.750000000000001E-03    1.000000000000000E-01    0.000000000000000E+00
    8.800000000000001E-03    1.000000000000000E-01    0.000000000000000E+00
    8.850000000000000E-03    1.000000000000000E-01    0.000000000000000E+00
    8.900000000000000E-03    1.000000000000000E-01    0.000000000000000E+00
    8.950000000000000E-03    1.000000000000000E-01    0.000000000000000E+00
    9.000000000000001E-03    1.000000000000000E-01    0.000000000000000E+00
    9.050000000000001E-03    1.000000000000000E-01    0.000000000000000E+00
    9.100000000000000E-03    1.000000000000000E-01    0.000000000000000E+00
    9.150000000000000E-03    1.000000000000000E-01    0.000000000000000E+00
    9.200000000000000E-03    1.000000000000000E-01    0.000000000000000E+00
    9.250000000000001E-03    1.000000000000000E-01    0.000000000000000E+00
    9.300000000000001E-03    1.000000000000000E-01    0.000000000000000E+00
    9.350000000000001E-03    1.000000000000000E-01    0.000000000000000E+00
    9.400000000000000E-03    1.000000000000000E-01    0.000000000000000E+00
    9.450000000000000E-03    1.000000000000000E-01    0.000000000000000E+00
    9.500000000000000E-03    1.000000000000000E-01    0.000000000000000E+00
    9.550000000000001E-03    1.000000000000000E-01    0.000000000000000E+00
    9.600000000000001E-03    1.000000000000000E-01    0.000000000000000E+00
    9.650000000000001E-03    1.000000000000000E-01    0.000000000000000E+00
    9.700000000000000E-03    1.000000000000000E-01    0.000000000000000E+00
    9.750000000000000E-03    1.000000000000000E-01    0.000000000000000E+00
    9.800000000000000E-03    1.000000000000000E-01    0.000000000000000E+00
    9.850000000000001E-03    1.000000000000000E-01    0.000000000000000E+00
    9.900000000000001E-03    1.000000000000000E-01    0.000000000000000E+00
    9.950000000000001E-03    1.000000000000000E-01    0.000000000000000E+00
    1.000000000000000E-02    1.000000000000000E-01    0.000000000000000E+00
    0.000000000000000E+00    0.000000000000000E+00    1.000000000000000E-01
    5.000000000000000E-05    0.000000000000000E+00    1.000000000000000E-01
    1.000000000000000E-04    0.000000000000000E+00    1.000000000000000E-01
    1.500000000000000E-04    0.000000000000000E+00    1.000000000000000E-01
    2.000000000000000E-04    0.000000000000000E+00    1.000000000000000E-01
    2.500000000000000E-04    0.000000000000000E+00    1.000000000000000E-01
    3.000000000000000E-04    0.000000000000000E+00    1.000000000000000E-01
    3.500000000000000E-04    0.000000000000000E+00    1.000000000000000E-01
    4.000000000000000E-04    0.000000000000000E+00    1.000000000000000E-01
    4.500000000000000E-04    0.000000000000000E+00    1.000000000000000E-01
    5.000000000000000E-04    0.000000000000000E+00    1.000000000000000E-01
    5.500000000000000E-04    0.000000000000000E+00    1.000000000000000E-01
    6.000000000000001E-04    0.000000000000000E+00    1.000000000000000E-01
    6.500000000000001E-04    0.000000000000000E+00    1.000000000000000E-01
    7.000000000000000E-04    0.000000000000000E+00    1.000000000000000E-01
    7.500000000000000E-04    0.000000000000000E+00    1.000000000000000E-01
    8.000000000000000E-04    0.000000000000000E+00    1.000000000000000E-01
    8.500000000000001E-04    0.000000000000000E+00    1.000000000000000E-01
    9.000000000000001E-04    0.000000000000000E+00    1.000000000000000E-01
    9.500000000000000E-04    0.000000000000000E+00    1.000000000000000E-01
    1.000000000000000E-03    0.000000000000000E+00    1.000000000000000E-01
    1.050000000000000E-03    0.000000000000000E+00    1.000000000000000E-01
    1.100000000000000E-03    0.000000000000000E+00    1.000000000000000E-01
    1.150000000000000E-03    0.000000000000000E+00    1.000000000000000E-01
    1.200000000000000E-03    0.000000000000000E+00    1.000000000000000E-01
    1.250000000000000E-03    0.000000000000000E+00    1.000000000000000E-01
    1.300000000000000E-03    0.000000000000000E+00    1.000000000000000E-01
    1.350000000000000E-03    0.000000000000000E+00    1.000000000000000E-01
    1.400000000000000E-03    0.000000000000000E+00    1.000000000000000E-01
    1.450000000000000E-03    0.000000000000000E+00    1.000000000000000E-01
    1.500000000000000E-03    0.000000000000000E+00    1.000000000000000E-01
    1.550000000000000E-03    0.000000000000000E+00    1.000000000000000E-01
    1.600000000000000E-03    0.000000000000000E+00    1.000000000000000E-01
    1.650000000000000E-03    0.000000000000000E+00    1.000000000000000E-01
    1.700000000000000E-03    0.000000000000000E+00    1.000000000000000E-01
    1.750000000000000E-03    0.000000000000000E+00    1.000000000000000E-01
    1.800000000000000E-03    0.000000000000000E+00    1.000000000000000E-01
    1.850000000000000E-03    0.000000000000000E+00    1.000000000000000E-01
    1.900000000000000E-03    0.000000000000000E+00    1.000000000000000E-01
    1.950000000000000E-03    0.000000000000000E+00    1.000000000000000E-01
    2.000000000000000E-03    0.000000000000000E+00    1.000000000000000E-01
    2.050000000000000E-03    0.000000000000000E+00    1.000000000000000E-01
    2.100000000000000E-03    0.000000000000000E+00    1.000000000000000E-01
    2.150000000000000E-03    0.000000000000000E+00    1.000000000000000E-01
    2.200000000000000E-03    0.000000000000000E+00    1.000000000000000E-01
    2.250000000000000E-03    0.000000000000000E+00    1.000000000000000E-01
    2.300000000000000E-03    0.000000000000000E+00    1.000000000000000E-01
    2.350000000000000E-03    0.000000000000000E+00    1.000000000000000E-01
    2.400000000000000E-03    0.000000000000000E+00    1.000000000000000E-01
    2.450000000000000E-03    0.000000000000000E+00    1.000000000000000E-01
    2.500000000000000E-03    0.000000000000000E+00    1.000000000000000E-01
    2.550000000000000E-03    0.000000000000000E+00    1.000000000000000E-01
    2.600000000000000E-03    0.000000000000000E+00    1.000000000000000E-01
    2.650000000000000E-03    0.000000000000000E+00    1.000000000000000E-01
    2.700000000000000E-03    0.000000000000000E+00    1.000000000000000E-01
    2.750000000000000E-03    0.000000000000000E+00    1.000000000000000E-01
    2.800000000000000E-03    0.000000000000000E+00    1.000000000000000E-01
    2.850000000000000E-03    0.000000000000000E+00    1.000000000000000E-01
    2.900000000000000E-03    0.000000000000000E+00    1.000000000000000E-01
    2.950000000000000E-03    0.000000000000000E+00    1.000000000000000E-01
    3.000000000000000E-03    0.000000000000000E+00    1.000000000000000E-01
    3.050000000000000E-03    0.000000000000000E+00    1.000000000000000E-01
    3.100000000000000E-03    0.000000000000000E+00    1.000000000000000E-01
    3.150000000000000E-03    0.000000000000000E+00    1.000000000000000E-01
    3.200000000000000E-03    0.000000000000000E+00    1.000000000000000E-01
    3.250000000000000E-03    0.000000000000000E+00    1.000000000000000E-01
    3.300000000000000E-03    0.000000000000000E+00    1.000000000000000E-01
    3.350000000000000E-03    0.000000000000000E+00    1.000000000000000E-01
    3.400000000000000E-03    0.000000000000000E+00    1.000000000000000E-01
    3.450000000000000E-03    0.000000000000000E+00    1.000000000000000E-01
    3.500000000000000E-03    0.000000000000000E+00    1.000000000000000E-01
    3.550000000000000E-03    0.000000000000000E+00    1.000000000000000E-01
    3.600000000000000E-03    0.000000000000000E+00    1.000000000000000E-01
    3.650000000000000E-03    0.000000000000000E+00    1.000000000000000E-01
    3.700000000000000E-03    0.000000000000000E+00    1.000000000000000E-01
    3.750000000000000E-03    0.000000000000000E+00    1.000000000000000E-01
    3.800000000000000E-03    0.000000000000000E+00    1.000000000000000E-01
    3.850000000000000E-03    0.000000000000000E+00    1.000000000000000E-01
    3.900000000000000E-03    0.000000000000000E+00    1.000000000000000E-01
    3.950000000000000E-03    0.000000000000000E+00    1.000000000000000E-01
    4.000000000000000E-03    0.000000000000000E+00    1.000000000000000E-01
    4.050000000000000E-03    0.000000000000000E+00    1.000000000000000E-01
    4.100000000000000E-03    0.000000000000000E+00    1.000000000000000E-01
    4.150000000000000E-03    0.000000000000000E+00    1.000000000000000E-01
    4.200000000000001E-03    0.000000000000000E+00    1.000000000000000E-01
    4.250000000000000E-03    0.000000000000000E+00    1.000000000000000E-01
    4.300000000000000E-03    0.000000000000000E+00    1.000000000000000E-01
    4.350000000000001E-03    0.000000000000000E+00    1.000000000000000E-01
    4.400000000000000E-03    0.000000000000000E+00    1.000000000000000E-01
    4.450000000000000E-03    0.000000000000000E+00    1.000000000000000E-01
    4.500000000000001E-03    0.000000000000000E+00    1.000000000000000E-01
    4.550000000000000E-03    0.000000000000000E+00    1.000000000000000E-01
    4.600000000000000E-03    0.000000000000000E+00    1.000000000000000E-01
    4.650000000000000E-03    0.000000000000000E+00    1.000000000000000E-01
    4.700000000000000E-03    0.000000000000000E+00    1.000000000000000E-01
    4.750000000000000E-03    0.000000000000000E+00    1.000000000000000E-01
    4.800000000000000E-03    0.000000000000000E+00    1.000000000000000E-01
    4.850000000000000E-03    0.000000000000000E+00    1.000000000000000E-01
    4.900000000000000E-03    0.000000000000000E+00    1.000000000000000E-01
    4.950000000000000E-03    0.000000000000000E+00    1.000000000000000E-01
    5.000000000000000E-03    0.000000000000000E+00    1.000000000000000E-01
    5.050000000000001E-03    0.000000000000000E+00    1.000000000000000E-01
    5.100000000000000E-03    0.000000000000000E+00    1.000000000000000E-01
    5.150000000000000E-03    0.000000000000000E+00    1.000000000000000E-01
    5.200000000000001E-03    0.000000000000000E+00    1.000000000000000E-01
    5.250000000000000E-03    0.000000000000000E+00    1.000000000000000E-01
    5.300000000000000E-03    0.000000000000000E+00    1.000000000000000E-01
    5.350000000000001E-03    0.000000000000000E+00    1.000000000000000E-01
    5.400000000000000E-03    0.000000000000000E+00    1.000000000000000E-01
    5.450000000000000E-03    0.000000000000000E+00    1.000000000000000E-01
    5.500000000000001E-03    0.000000000000000E+00    1.000000000000000E-01
    5.550000000000000E-03    0.000000000000000E+00    1.000000000000000E-01
    5.600000000000000E-03    0.000000000000000E+00    1.000000000000000E-01
    5.650000000000001E-03    0.000000000000000E+00    1.000000000000000E-01
    5.700000000000000E-03    0.000000000000000E+00    1.000000000000000E-01
    5.750000000000000E-03    0.000000000000000E+00    1.000000000000000E-01
    5.800000000000000E-03    0.000000000000000E+00    1.000000000000000E-01
    5.850000000000000E-03    0.000000000000000E+00    1.000000000000000E-01
    5.900000000000000E-03    0.000000000000000E+00    1.000000000000000E-01
    5.950000000000000E-03    0.000000000000000E+00    1.000000000000000E-01
    6.000000000000000E-03    0.000000000000000E+00    1.000000000000000E-01
    6.050000000000001E-03    0.000000000000000E+00    1.000000000000000E-01
    6.100000000000000E-03    0.000000000000000E+00    1.000000000000000E-01
    6.150000000000000E-03    0.000000000000000E+00    1.000000000000000E-01
    6.200000000000001E-03    0.000000000000000E+00    1.000000000000000E-01
    6.250000000000000E-03    0.000000000000000E+00    1.000000000000000E-01
    6.300000000000000E-03    0.000000000000000E+00    1.000000000000000E-01
    6.350000000000001E-03    0.000000000000000E+00    1.000000000000000E-01
    6.400000000000000E-03    0.000000000000000E+00    1.000000000000000E-01
    6.450000000000000E-03    0.000000000000000E+00    1.000000000000000E-01
    6.500000000000001E-03    0.000000000000000E+00    1.000000000000000E-01
    6.550000000000000E-03    0.000000000000000E+00    1.000000000000000E-01
    6.600000000000000E-03    0.000000000000000E+00    1.000000000000000E-01
    6.650000000000001E-03    0.000000000000000E+00    1.000000000000000E-01
    6.700000000000000E-03    0.000000000000000E+00    1.000000000000000E-01
    6.750000000000000E-03    0.000000000000000E+00    1.000000000000000E-01
    6.800000000000000E-03    0.000000000000000E+00    1.000000000000000E-01
    6.850000000000000E-03    0.000000000000000E+00    1.000000000000000E-01
    6.900000000000001E-03    0.000000000000000E+00    1.000000000000000E-01
    6.950000000000000E-03    0.000000000000000E+00    1.000000000000000E-01
    7.000000000000000E-03    0.000000000000000E+00    1.000000000000000E-01
    7.050000000000001E-03    0.000000000000000E+00    1.000000000000000E-01
    7.100000000000000E-03    0.000000000000000E+00    1.000000000000000E-01
    7.150000000000000E-03    0.000000000000000E+00    1.000000000000000E-01
    7.200000000000001E-03    0.000000000000000E+00    1.000000000000000E-01
    7.250000000000000E-03    0.000000000000000E+00    1.000000000000000E-01
    7.300000000000000E-03    0.000000000000000E+00    1.000000000000000E-01
    7.350000000000001E-03    0.000000000000000E+00    1.000000000000000E-01
    7.400000000000000E-03    0.000000000000000E+00    1.000000000000000E-01
    7.450000000000000E-03    0.000000000000000E+00    1.000000000000000E-01
    7.500000000000001E-03    0.000000000000000E+00    1.000000000000000E-01
    7.550000000000000E-03    0.000000000000000E+00    1.000000000000000E-01
    7.600000000000000E-03    0.000000000000000E+00    1.000000000000000E-01
    7.650000000000001E-03    0.000000000000000E+00    1.000000000000000E-01
    7.700000000000000E-03    0.000000000000000E+00    1.000000000000000E-01
    7.750000000000000E-03    0.000000000000000E+00    1.000000000000000E-01
    7.800000000000001E-03    0.000000000000000E+00    1.000000000000000E-01
    7.850000000000001E-03    0.000000000000000E+00    1.000000000000000E-01
    7.900000000000001E-03    0.000000000000000E+00    1.000000000000000E-01
    7.950000000000000E-03    0.000000000000000E+00    1.000000000000000E-01
    8.000000000000000E-03    0.000000000000000E+00    1.000000000000000E-01
    8.050000000000000E-03    0.000000000000000E+00    1.000000000000000E-01
    8.100000000000000E-03    0.000000000000000E+00    1.000000000000000E-01
    8.150000000000001E-03    0.000000000000000E+00    1.000000000000000E-01
    8.200000000000001E-03    0.000000000000000E+00    1.000000000000000E-01
    8.250000000000000E-03    0.000000000000000E+00    1.000000000000000E-01
    8.300000000000000E-03    0.000000000000000E+00    1.000000000000000E-01
    8.350000000000000E-03    0.000000000000000E+00    1.000000000000000E-01
    8.400000000000001E-03    0.000000000000000E+00    1.000000000000000E-01
    8.450000000000001E-03    0.000000000000000E+00    1.000000000000000E-01
    8.500000000000001E-03    0.000000000000000E+00    1.000000000000000E-01
    8.550000000000000E-03    0.000000000000000E+00    1.000000000000000E-01
    8.600000000000000E-03    0.000000000000000E+00    1.000000000000000E-01
    8.650000000000000E-03    0.000000000000000E+00    1.000000000000000E-01
    8.700000000000001E-03    0.000000000000000E+00    1.000000000000000E-01
    8.750000000000001E-03    0.000000000000000E+00    1.000000000000000E-01
    8.800000000000001E-03    0.000000000000000E+00    1.000000000000000E-01
    8.850000000000000E-03    0.000000000000000E+00    1.000000000000000E-01
    8.900000000000000E-03    0.000000000000000E+00    1.000000000000000E-01
    8.950000000000000E-03    0.000000000000000E+00    1.000000000000000E-01
    9.000000000000001E-03    0.000000000000000E+00    1.000000000000000E-01
    9.050000000000001E-03    0.000000000000000E+00    1.000000000000000E-01
    9.100000000000000E-03    0.000000000000000E+00    1.000000000000000E-01
    9.150000000000000E-03    0.000000000000000E+00    1.000000000000000E-01
    9.200000000000000E-03    0.000000000000000E+00    1.000000000000000E-01
    9.250000000000001E-03    0.000000000000000E+00    1.000000000000000E-01
    9.300000000000001E-03    0.000000000000000E+00    1.000000000000000E-01
    9.350000000000001E-03    0.000000000000000E+00    1.000000000000000E-01
    9.400000000000000E-03    0.000000000000000E+00    1.000000000000000E-01
    9.450000000000000E-03    0.000000000000000E+00    1.000000000000000E-01
    9.500000000000000E-03    0.000000000000000E+00    1.000000000000000E-01
    9.550000000000001E-03    0.000000000000000E+00    1.000000000000000E-01
    9.600000000000001E-03    0.000000000000000E+00    1.000000000000000E-01
    9.650000000000001E-03    0.000000000000000E+00    1.000000000000000E-01
    9.700000000000000E-03    0.000000000000000E+00    1.000000000000000E-01
    9.750000000000000E-03    0.000000000000000E+00    1.000000000000000E-01
    9.800000000000000E-03    0.000000000000000E+00    1.000000000000000E-01
    9.850000000000001E-03    0.000000000000000E+00    1.000000000000000E-01
    9.900000000000001E-03    0.000000000000000E+00    1.000000000000000E-01
    9.950000000000001E-03    0.000000000000000E+00    1.000000000000000E-01
    1.000000000000000E-02    0.000000000000000E+00    1.000000000000000E-01
    0.000000000000000E+00    1.000000000000000E-01    1.000000000000000E-01
    5.000000000000000E-05    1.000000000000000E-01    1.000000000000000E-01
    1.000000000000000E-04    1.000000000000000E-01    1.000000000000000E-01
    1.500000000000000E-04    1.000000000000000E-01    1.000000000000000E-01
    2.000000000000000E-04    1.000000000000000E-01    1.000000000000000E-01
    2.500000000000000E-04    1.000000000000000E-01    1.000000000000000E-01
    3.000000000000000E-04    1.000000000000000E-01    1.000000000000000E-01
    3.500000000000000E-04    1.000000000000000E-01    1.000000000000000E-01
    4.000000000000000E-04    1.000000000000000E-01    1.000000000000000E-01
    4.500000000000000E-04    1.000000000000000E-01    1.000000000000000E-01
    5.000000000000000E-04    1.000000000000000E-01    1.000000000000000E-01
    5.500000000000000E-04    1.000000000000000E-01    1.000000000000000E-01
    6.000000000000001E-04    1.000000000000000E-01    1.000000000000000E-01
    6.500000000000001E-04    1.000000000000000E-01    1.000000000000000E-01
    7.000000000000000E-04    1.000000000000000E-01    1.000000000000000E-01
    7.500000000000000E-04    1.000000000000000E-01    1.000000000000000E-01
    8.000000000000000E-04    1.000000000000000E-01    1.000000000000000E-01
    8.500000000000001E-04    1.000000000000000E-01    1.000000000000000E-01
    9.000000000000001E-04    1.000000000000000E-01    1.000000000000000E-01
    9.500000000000000E-04    1.000000000000000E-01    1.000000000000000E-01
    1.000000000000000E-03    1.000000000000000E-01    1.000000000000000E-01
    1.050000000000000E-03    1.000000000000000E-01    1.000000000000000E-01
    1.100000000000000E-03    1.000000000000000E-01    1.000000000000000E-01
    1.150000000000000E-03    1.000000000000000E-01    1.000000000000000E-01
    1.200000000000000E-03    1.000000000000000E-01    1.000000000000000E-01
    1.250000000000000E-03    1.000000000000000E-01    1.000000000000000E-01
    1.300000000000000E-03    1.000000000000000E-01    1.000000000000000E-01
    1.350000000000000E-03    1.000000000000000E-01    1.000000000000000E-01
    1.400000000000000E-03    1.000000000000000E-01    1.000000000000000E-01
    1.450000000000000E-03    1.000000000000000E-01    1.000000000000000E-01
    1.500000000000000E-03    1.000000000000000E-01    1.000000000000000E-01
    1.550000000000000E-03    1.000000000000000E-01    1.000000000000000E-01
    1.600000000000000E-03    1.000000000000000E-01    1.000000000000000E-01
    1.650000000000000E-03    1.000000000000000E-01    1.000000000000000E-01
    1.700000000000000E-03    1.000000000000000E-01    1.000000000000000E-01
    1.750000000000000E-03    1.000000000000000E-01    1.000000000000000E-01
    1.800000000000000E-03    1.000000000000000E-01    1.000000000000000E-01
    1.850000000000000E-03    1.000000000000000E-01    1.000000000000000E-01
    1.900000000000000E-03    1.000000000000000E-01    1.000000000000000E-01
    1.950000000000000E-03    1.000000000000000E-01    1.000000000000000E-01
    2.000000000000000E-03    1.000000000000000E-01    1.000000000000000E-01
    2.050000000000000E-03    1.000000000000000E-01    1.000000000000000E-01
    2.100000000000000E-03    1.000000000000000E-01    1.000000000000000E-01
    2.150000000000000E-03    1.000000000000000E-01    1.000000000000000E-01
    2.200000000000000E-03    1.000000000000000E-01    1.000000000000000E-01
    2.250000000000000E-03    1.000000000000000E-01    1.000000000000000E-01
    2.300000000000000E-03    1.000000000000000E-01    1.000000000000000E-01
    2.350000000000000E-03    1.000000000000000E-01    1.000000000000000E-01
    2.400000000000000E-03    1.000000000000000E-01    1.000000000000000E-01
    2.450000000000000E-03    1.000000000000000E-01    1.000000000000000E-01
    2.500000000000000E-03    1.000000000000000E-01    1.000000000000000E-01
    2.550000000000000E-03    1.000000000000000E-01    1.000000000000000E-01
    2.600000000000000E-03    1.000000000000000E-01    1.000000000000000E-01
    2.650000000000000E-03    1.000000000000000E-01    1.000000000000000E-01
    2.700000000000000E-03    1.000000000000000E-01    1.000000000000000E-01
    2.750000000000000E-03    1.000000000000000E-01    1.000000000000000E-01
    2.800000000000000E-03    1.000000000000000E-01    1.000000000000000E-01
    2.850000000000000E-03    1.000000000000000E-01    1.000000000000000E-01
    2.900000000000000E-03    1.000000000000000E-01    1.000000000000000E-01
    2.950000000000000E-03    1.000000000000000E-01    1.000000000000000E-01
    3.000000000000000E-03    1.000000000000000E-01    1.000000000000000E-01
    3.050000000000000E-03    1.000000000000000E-01    1.000000000000000E-01
    3.100000000000000E-03    1.000000000000000E-01    1.000000000000000E-01
    3.150000000000000E-03    1.000000000000000E-01    1.000000000000000E-01
    3.200000000000000E-03    1.000000000000000E-01    1.000000000000000E-01
    3.250000000000000E-03    1.000000000000000E-01    1.000000000000000E-01
    3.300000000000000E-03    1.000000000000000E-01    1.000000000000000E-01
    3.350000000000000E-03    1.000000000000000E-01    1.000000000000000E-01
    3.400000000000000E-03    1.000000000000000E-01    1.000000000000000E-01
    3.450000000000000E-03    1.000000000000000E-01    1.000000000000000E-01
    3.500000000000000E-03    1.000000000000000E-01    1.000000000000000E-01
    3.550000000000000E-03    1.000000000000000E-01    1.000000000000000E-01
    3.600000000000000E-03    1.000000000000000E-01    1.000000000000000E-01
    3.650000000000000E-03    1.000000000000000E-01    1.000000000000000E-01
    3.700000000000000E-03    1.000000000000000E-01    1.000000000000000E-01
    3.750000000000000E-03    1.000000000000000E-01    1.000000000000000E-01
    3.800000000000000E-03    1.000000000000000E-01    1.000000000000000E-01
    3.850000000000000E-03    1.000000000000000E-01    1.000000000000000E-01
    3.900000000000000E-03    1.000000000000000E-01    1.000000000000000E-01
    3.950000000000000E-03    1.000000000000000E-01    1.000000000000000E-01
    4.000000000000000E-03    1.000000000000000E-01    1.000000000000000E-01
    4.050000000000000E-03    1.000000000000000E-01    1.000000000000000E-01
    4.100000000000000E-03    1.000000000000000E-01    1.000000000000000E-01
    4.150000000000000E-03    1.000000000000000E-01    1.000000000000000E-01
    4.200000000000001E-03    1.000000000000000E-01    1.000000000000000E-01
    4.250000000000000E-03    1.000000000000000E-01    1.000000000000000E-01
    4.300000000000000E-03    1.000000000000000E-01    1.000000000000000E-01
    4.350000000000001E-03    1.000000000000000E-01    1.000000000000000E-01
    4.400000000000000E-03    1.000000000000000E-01    1.000000000000000E-01
    4.450000000000000E-03    1.000000000000000E-01    1.000000000000000E-01
    4.500000000000001E-03    1.000000000000000E-01    1.000000000000000E-01
    4.550000000000000E-03    1.000000000000000E-01    1.000000000000000E-01
    4.600000000000000E-03    1.000000000000000E-01    1.000000000000000E-01
    4.650000000000000E-03    1.000000000000000E-01    1.000000000000000E-01
    4.700000000000000E-03    1.000000000000000E-01    1.000000000000000E-01
    4.750000000000000E-03    1.000000000000000E-01    1.000000000000000E-01
    4.800000000000000E-03    1.000000000000000E-01    1.000000000000000E-01
    4.850000000000000E-03    1.000000000000000E-01    1.000000000000000E-01
    4.900000000000000E-03    1.000000000000000E-01    1.000000000000000E-01
    4.950000000000000E-03    1.000000000000000E-01    1.000000000000000E-01
    5.000000000000000E-03    1.000000000000000E-01    1.000000000000000E-01
    5.050000000000001E-03    1.000000000000000E-01    1.000000000000000E-01
    5.100000000000000E-03    1.000000000000000E-01    1.000000000000000E-01
    5.150000000000000E-03    1.000000000000000E-01    1.000000000000000E-01
    5.200000000000001E-03    1.000000000000000E-01    1.000000000000000E-01
    5.250000000000000E-03    1.000000000000000E-01    1.000000000000000E-01
    5.300000000000000E-03    1.000000000000000E-01    1.000000000000000E-01
    5.350000000000001E-03    1.000000000000000E-01    1.000000000000000E-01
    5.400000000000000E-03    1.000000000000000E-01    1.000000000000000E-01
    5.450000000000000E-03    1.000000000000000E-01    1.000000000000000E-01
    5.500000000000001E-03    1.000000000000000E-01    1.000000000000000E-01
    5.550000000000000E-03    1.000000000000000E-01    1.000000000000000E-01
    5.600000000000000E-03    1.000000000000000E-01    1.000000000000000E-01
    5.650000000000001E-03    1.000000000000000E-01    1.000000000000000E-01
    5.700000000000000E-03    1.000000000000000E-01    1.000000000000000E-01
    5.750000000000000E-03    1.000000000000000E-01    1.000000000000000E-01
    5.800000000000000E-03    1.000000000000000E-01    1.000000000000000E-01
    5.850000000000000E-03    1.000000000000000E-01    1.000000000000000E-01
    5.900000000000000E-03    1.000000000000000E-01    1.000000000000000E-01
    5.950000000000000E-03    1.000000000000000E-01    1.000000000000000E-01
    6.000000000000000E-03    1.000000000000000E-01    1.000000000000000E-01
    6.050000000000001E-03    1.000000000000000E-01    1.000000000000000E-01
    6.100000000000000E-03    1.000000000000000E-01    1.000000000000000E-01
    6.150000000000000E-03    1.000000000000000E-01    1.000000000000000E-01
    6.200000000000001E-03    1.000000000000000E-01    1.000000000000000E-01
    6.250000000000000E-03    1.000000000000000E-01    1.000000000000000E-01
    6.300000000000000E-03    1.000000000000000E-01    1.000000000000000E-01
    6.350000000000001E-03    1.000000000000000E-01    1.000000000000000E-01
    6.400000000000000E-03    1.000000000000000E-01    1.000000000000000E-01
    6.450000000000000E-03    1.000000000000000E-01    1.000000000000000E-01
    6.500000000000001E-03    1.000000000000000E-01    1.000000000000000E-01
    6.550000000000000E-03    1.000000000000000E-01    1.000000000000000E-01
    6.600000000000000E-03    1.000000000000000E-01    1.000000000000000E-01
    6.650000000000001E-03    1.000000000000000E-01    1.000000000000000E-01
    6.700000000000000E-03    1.000000000000000E-01    1.000000000000000E-01
    6.750000000000000E-03    1.000000000000000E-01    1.000000000000000E-01
    6.800000000000000E-03    1.000000000000000E-01    1.000000000000000E-01
    6.850000000000000E-03    1.000000000000000E-01    1.000000000000000E-01
    6.900000000000001E-03    1.000000000000000E-01    1.000000000000000E-01
    6.950000000000000E-03    1.000000000000000E-01    1.000000000000000E-01
    7.000000000000000E-03    1.000000000000000E-01    1.000000000000000E-01
    7.050000000000001E-03    1.000000000000000E-01    1.000000000000000E-01
    7.100000000000000E-03    1.000000000000000E-01    1.000000000000000E-01
    7.150000000000000E-03    1.000000000000000E-01    1.000000000000000E-01
    7.200000000000001E-03    1.000000000000000E-01    1.000000000000000E-01
    7.250000000000000E-03    1.000000000000000E-01    1.000000000000000E-01
    7.300000000000000E-03    1.000000000000000E-01    1.000000000000000E-01
    7.350000000000001E-03    1.000000000000000E-01    1.000000000000000E-01
    7.400000000000000E-03    1.000000000000000E-01    1.000000000000000E-01
    7.450000000000000E-03    1.000000000000000E-01    1.000000000000000E-01
    7.500000000000001E-03    1.000000000000000E-01    1.000000000000000E-01
    7.550000000000000E-03    1.000000000000000E-01    1.000000000000000E-01
    7.600000000000000E-03    1.000000000000000E-01    1.000000000000000E-01
    7.650000000000001E-03    1.000000000000000E-01    1.000000000000000E-01
    7.700000000000000E-03    1.000000000000000E-01    1.000000000000000E-01
    7.750000000000000E-03    1.000000000000000E-01    1.000000000000000E-01
    7.800000000000001E-03    1.000000000000000E-01    1.000000000000000E-01
    7.850000000000001E-03    1.000000000000000E-01    1.000000000000000E-01
    7.900000000000001E-03    1.000000000000000E-01    1.000000000000000E-01
    7.950000000000000E-03    1.000000000000000E-01    1.000000000000000E-01
    8.000000000000000E-03    1.000000000000000E-01    1.000000000000000E-01
    8.050000000000000E-03    1.000000000000000E-01    1.000000000000000E-01
    8.100000000000000E-03    1.000000000000000E-01    1.000000000000000E-01
    8.150000000000001E-03    1.000000000000000E-01    1.000000000000000E-01
    8.200000000000001E-03    1.000000000000000E-01    1.000000000000000E-01
    8.250000000000000E-03    1.000000000000000E-01    1.000000000000000E-01
    8.300000000000000E-03    1.000000000000000E-01    1.000000000000000E-01
    8.350000000000000E-03    1.000000000000000E-01    1.000000000000000E-01
    8.400000000000001E-03    1.000000000000000E-01    1.000000000000000E-01
    8.450000000000001E-03    1.000000000000000E-01    1.000000000000000E-01
    8.500000000000001E-03    1.000000000000000E-01    1.000000000000000E-01
    8.550000000000000E-03    1.000000000000000E-01    1.000000000000000E-01
    8.600000000000000E-03    1.000000000000000E-01    1.000000000000000E-01
    8.650000000000000E-03    1.000000000000000E-01    1.000000000000000E-01
    8.700000000000001E-03    1.000000000000000E-01    1.000000000000000E-01
    8.750000000000001E-03    1.000000000000000E-01    1.000000000000000E-01
    8.800000000000001E-03    1.000000000000000E-01    1.000000000000000E-01
    8.850000000000000E-03    1.000000000000000E-01    1.000000000000000E-01
    8.900000000000000E-03    1.000000000000000E-01    1.000000000000000E-01
    8.950000000000000E-03    1.000000000000000E-01    1.000000000000000E-01
    9.000000000000001E-03    1.000000000000000E-01    1.000000000000000E-01
    9.050000000000001E-03    1.000000000000000E-01    1.000000000000000E-01
    9.100000000000000E-03    1.000000000000000E-01    1.000000000000000E-01
    9.150000000000000E-03    1.000000000000000E-01    1.000000000000000E-01
    9.200000000000000E-03    1.000000000000000E-01    1.000000000000000E-01
    9.250000000000001E-03    1.000000000000000E-01    1.000000000000000E-01
    9.300000000000001E-03    1.000000000000000E-01    1.000000000000000E-01
    9.350000000000001E-03    1.000000000000000E-01    1.000000000000000E-01
    9.400000000000000E-03    1.000000000000000E-01    1.000000000000000E-01
    9.450000000000000E-03    1.000000000000000E-01    1.000000000000000E-01
    9.500000000000000E-03    1.000000000000000E-01    1.000000000000000E-01
    9.550000000000001E-03    1.000000000000000E-01    1.000000000000000E-01
    9.600000000000001E-03    1.000000000000000E-01    1.000000000000000E-01
    9.650000000000001E-03    1.000000000000000E-01    1.000000000000000E-01
    9.700000000000000E-03    1.000000000000000E-01    1.000000000000000E-01
    9.750000000000000E-03    1.000000000000000E-01    1.000000000000000E-01
    9.800000000000000E-03    1.000000000000000E-01    1.000000000000000E-01
    9.850000000000001E-03    1.000000000000000E-01    1.000000000000000E-01
    9.900000000000001E-03    1.000000000000000E-01    1.000000000000000E-01
    9.950000000000001E-03    1.000000000000000E-01    1.000000000000000E-01
    1.000000000000000E-02    1.000000000000000E-01    1.000000000000000E-01
CELL_DATA          200
SCALARS temperature double 1
LOOKUP_TABLE default
    5.142931707449884E+02
    5.144405021798802E+02
    5.146940600598526E+02
    5.150489502941498E+02
    5.155005607726930E+02
    5.160445457301204E+02
    5.166768118179239E+02
    5.173935041518902E+02
    5.181909930696048E+02
    5.190658616346208E+02
    5.200148938395903E+02
    5.210350634689190E+02
    5.221235235843666E+02
    5.232775965989197E+02
    5.244947649061410E+02
    5.257726620339935E+02
    5.271090642938585E+02
    5.285018828970905E+02
    5.299491565129907E+02
    5.314490442435446E+02
    5.329998189916383E+02
    5.345998612007752E+02
    5.362476529455412E+02
    5.379417723532237E+02
    5.396808883380868E+02
    5.414637556308410E+02
    5.432892100868164E+02
    5.451561642572763E+02
    5.470636032091713E+02
    5.490105805794617E+02
    5.509962148509052E+02
    5.530196858369471E+02
    5.550802313640326E+02
    5.571771441403189E+02
    5.593097688003800E+02
    5.614774991160779E+02
    5.636797753643232E+02
    5.659160818429677E+02
    5.681859445265596E+02
    5.704889288541547E+02
    5.728246376418127E+02
    5.751927091128251E+02
    5.775928150390977E+02
    5.800246589874911E+02
    5.824879746652628E+02
    5.849825243590817E+02
    5.875080974623961E+02
    5.900645090862305E+02
    5.926515987487555E+02
    5.952692291392397E+02
    5.979172849522405E+02
    6.005956717881154E+02
    6.033043151161604E+02
    6.060431592968858E+02
    6.088121666601360E+02
    6.116113166359420E+02
    6.144406049351738E+02
    6.173000427772165E+02
    6.201896561620568E+02
    6.231094851843102E+02
    6.260595833868522E+02
    6.290400171518567E+02
    6.320508651271601E+02
    6.350922176859893E+02
    6.381641764182009E+02
    6.412668536512837E+02
    6.444003719994701E+02
    6.475648639394039E+02
    6.507604714108855E+02
    6.539873454413104E+02
    6.572456457924898E+02
    6.605355406286118E+02
    6.638572062041748E+02
    6.672108265707925E+02
    6.705965933018306E+02
    6.740147052338850E+02
    6.774653682241790E+02
    6.809487949230013E+02
    6.844652045603599E+02
    6.880148227460670E+02
    6.915978812825233E+02
    6.952146179895012E+02
    6.988652765402710E+02
    7.025501063084531E+02
    7.062693622250123E+02
    7.100233046448330E+02
    7.138121992223653E+02
    7.176363167958413E+02
    7.214959332796036E+02
    7.253913295641034E+02
    7.293227914231559E+02
    7.332906094280643E+02
    7.372950788682393E+02
    7.413364996779728E+02
    7.454151763690334E+02
    7.495314179687740E+02
    7.536855379634610E+02
    7.578778542465486E+02
    7.621086890716364E+02
    7.663783690098696E+02
    7.706872249115444E+02
    7.750355918717046E+02
    7.794238091995185E+02
    7.838522203912454E+02
    7.883211731066101E+02
    7.928310191484064E+02
    7.973821144451684E+02
    8.019748190367599E+02
    8.066094970627302E+02
    8.112865167533058E+02
    8.160062504228831E+02
    8.207690744659029E+02
    8.255753693549935E+02
    8.304255196412714E+02
    8.353199139567009E+02
    8.402589450184114E+02
    8.452430096348874E+02
    8.502725087139435E+02
    8.553478472724011E+02
    8.604694344473975E+02
    8.656376835092505E+02
    8.708530118758139E+02
    8.761158411282588E+02
    8.814265970282261E+02
    8.867857095362864E+02
    8.921936128316611E+02
    8.976507453331537E+02
    9.031575497212425E+02
    9.087144729612926E+02
    9.143219663278468E+02
    9.199804854299546E+02
    9.256904902375063E+02
    9.314524451085318E+02
    9.372668188174400E+02
    9.431340845841655E+02
    9.490547201041916E+02
    9.550292075794280E+02
    9.610580337499131E+02
    9.671416899263257E+02
    9.732806720232778E+02
    9.794754805933699E+02
    9.857266208619916E+02
    9.920346027628474E+02
    9.983999409741946E+02
    1.004823154955777E+03
    1.011304768986437E+03
    1.017845312202399E+03
    1.024445318636206E+03
    1.031105327256302E+03
    1.037825882007248E+03
    1.044607531850564E+03
    1.051450830806185E+03
    1.058356337994525E+03
    1.065324617679142E+03
    1.072356239309999E+03
    1.079451777567306E+03
    1.086611812405951E+03
    1.093836929100503E+03
    1.101127718290791E+03
    1.108484776028048E+03
    1.115908703821626E+03
    1.123400108686267E+03
    1.130959603189936E+03
    1.138587805502209E+03
    1.146285339443227E+03
    1.154052834533189E+03
    1.161890926042405E+03
    1.169800255041908E+03
    1.177781468454605E+03
    1.185835219106988E+03
    1.193962165781398E+03
    1.202162973268837E+03
    1.210438312422333E+03
    1.218788860210865E+03
    1.227215299773837E+03
    1.235718320476109E+03
    1.244298617963586E+03
    1.252956894219374E+03
    1.261693857620491E+03
    1.270510222995144E+03
    1.279406711680571E+03
    1.288384051581450E+03
    1.297442977228894E+03
    1.306584229840038E+03
    1.315808557378108E+03
    1.325116714613086E+03
    1.334509463183176E+03
    1.343987571657024E+03
    1.353551815595813E+03
    1.363202977613907E+03
    1.372941847446255E+03
    1.382769222017864E+03
    1.392685905502664E+03
    1.402692709367049E+03
    1.412790452405671E+03
    1.422979961081158E+03
    1.433262069276409E+03
    1.443637618116240E+03
    1.454107455921679E+03
    1.464672431776271E+03
