# vtk DataFile Version 3.0
OpenCFD-EC output
ASCII
DATASET STRUCTURED_GRID
DIMENSIONS     21    11     2
POINTS          462 double
    0.000000000000000E+00    0.000000000000000E+00    0.000000000000000E+00
    4.000000000000000E-01    0.000000000000000E+00    0.000000000000000E+00
    8.000000000000000E-01    0.000000000000000E+00    0.000000000000000E+00
    1.200000000000000E+00    0.000000000000000E+00    0.000000000000000E+00
    1.600000000000000E+00    0.000000000000000E+00    0.000000000000000E+00
    2.000000000000000E+00    0.000000000000000E+00    0.000000000000000E+00
    2.400000000000000E+00    0.000000000000000E+00    0.000000000000000E+00
    2.800000000000000E+00    0.000000000000000E+00    0.000000000000000E+00
    3.200000000000000E+00    0.000000000000000E+00    0.000000000000000E+00
    3.600000000000000E+00    0.000000000000000E+00    0.000000000000000E+00
    4.000000000000000E+00    0.000000000000000E+00    0.000000000000000E+00
    4.400000000000000E+00    0.000000000000000E+00    0.000000000000000E+00
    4.800000000000000E+00    0.000000000000000E+00    0.000000000000000E+00
    5.200000000000000E+00    0.000000000000000E+00    0.000000000000000E+00
    5.600000000000000E+00    0.000000000000000E+00    0.000000000000000E+00
    6.000000000000000E+00    0.000000000000000E+00    0.000000000000000E+00
    6.400000000000000E+00    0.000000000000000E+00    0.000000000000000E+00
    6.800000000000000E+00    0.000000000000000E+00    0.000000000000000E+00
    7.200000000000000E+00    0.000000000000000E+00    0.000000000000000E+00
    7.600000000000000E+00    0.000000000000000E+00    0.000000000000000E+00
    8.000000000000000E+00    0.000000000000000E+00    0.000000000000000E+00
    0.000000000000000E+00    1.000000000000000E-01    0.000000000000000E+00
    4.000000000000000E-01    1.000000000000000E-01    0.000000000000000E+00
    8.000000000000000E-01    1.000000000000000E-01    0.000000000000000E+00
    1.200000000000000E+00    1.000000000000000E-01    0.000000000000000E+00
    1.600000000000000E+00    1.000000000000000E-01    0.000000000000000E+00
    2.000000000000000E+00    1.000000000000000E-01    0.000000000000000E+00
    2.400000000000000E+00    1.000000000000000E-01    0.000000000000000E+00
    2.800000000000000E+00    1.000000000000000E-01    0.000000000000000E+00
    3.200000000000000E+00    1.000000000000000E-01    0.000000000000000E+00
    3.600000000000000E+00    1.000000000000000E-01    0.000000000000000E+00
    4.000000000000000E+00    1.000000000000000E-01    0.000000000000000E+00
    4.400000000000000E+00    1.000000000000000E-01    0.000000000000000E+00
    4.800000000000000E+00    1.000000000000000E-01    0.000000000000000E+00
    5.200000000000000E+00    1.000000000000000E-01    0.000000000000000E+00
    5.600000000000000E+00    1.000000000000000E-01    0.000000000000000E+00
    6.000000000000000E+00    1.000000000000000E-01    0.000000000000000E+00
    6.400000000000000E+00    1.000000000000000E-01    0.000000000000000E+00
    6.800000000000000E+00    1.000000000000000E-01    0.000000000000000E+00
    7.200000000000000E+00    1.000000000000000E-01    0.000000000000000E+00
    7.600000000000000E+00    1.000000000000000E-01    0.000000000000000E+00
    8.000000000000000E+00    1.000000000000000E-01    0.000000000000000E+00
    0.000000000000000E+00    2.000000000000000E-01    0.000000000000000E+00
    4.000000000000000E-01    2.000000000000000E-01    0.000000000000000E+00
    8.000000000000000E-01    2.000000000000000E-01    0.000000000000000E+00
    1.200000000000000E+00    2.000000000000000E-01    0.000000000000000E+00
    1.600000000000000E+00    2.000000000000000E-01    0.000000000000000E+00
    2.000000000000000E+00    2.000000000000000E-01    0.000000000000000E+00
    2.400000000000000E+00    2.000000000000000E-01    0.000000000000000E+00
    2.800000000000000E+00    2.000000000000000E-01    0.000000000000000E+00
    3.200000000000000E+00    2.000000000000000E-01    0.000000000000000E+00
    3.600000000000000E+00    2.000000000000000E-01    0.000000000000000E+00
    4.000000000000000E+00    2.000000000000000E-01    0.000000000000000E+00
    4.400000000000000E+00    2.000000000000000E-01    0.000000000000000E+00
    4.800000000000000E+00    2.000000000000000E-01    0.000000000000000E+00
    5.200000000000000E+00    2.000000000000000E-01    0.000000000000000E+00
    5.600000000000000E+00    2.000000000000000E-01    0.000000000000000E+00
    6.000000000000000E+00    2.000000000000000E-01    0.000000000000000E+00
    6.400000000000000E+00    2.000000000000000E-01    0.000000000000000E+00
    6.800000000000000E+00    2.000000000000000E-01    0.000000000000000E+00
    7.200000000000000E+00    2.000000000000000E-01    0.000000000000000E+00
    7.600000000000000E+00    2.000000000000000E-01    0.000000000000000E+00
    8.000000000000000E+00    2.000000000000000E-01    0.000000000000000E+00
    0.000000000000000E+00    3.000000000000000E-01    0.000000000000000E+00
    4.000000000000000E-01    3.000000000000000E-01    0.000000000000000E+00
    8.000000000000000E-01    3.000000000000000E-01    0.000000000000000E+00
    1.200000000000000E+00    3.000000000000000E-01    0.000000000000000E+00
    1.600000000000000E+00    3.000000000000000E-01    0.000000000000000E+00
    2.000000000000000E+00    3.000000000000000E-01    0.000000000000000E+00
    2.400000000000000E+00    3.000000000000000E-01    0.000000000000000E+00
    2.800000000000000E+00    3.000000000000000E-01    0.000000000000000E+00
    3.200000000000000E+00    3.000000000000000E-01    0.000000000000000E+00
    3.600000000000000E+00    3.000000000000000E-01    0.000000000000000E+00
    4.000000000000000E+00    3.000000000000000E-01    0.000000000000000E+00
    4.400000000000000E+00    3.000000000000000E-01    0.000000000000000E+00
    4.800000000000000E+00    3.000000000000000E-01    0.000000000000000E+00
    5.200000000000000E+00    3.000000000000000E-01    0.000000000000000E+00
    5.600000000000000E+00    3.000000000000000E-01    0.000000000000000E+00
    6.000000000000000E+00    3.000000000000000E-01    0.000000000000000E+00
    6.400000000000000E+00    3.000000000000000E-01    0.000000000000000E+00
    6.800000000000000E+00    3.000000000000000E-01    0.000000000000000E+00
    7.200000000000000E+00    3.000000000000000E-01    0.000000000000000E+00
    7.600000000000000E+00    3.000000000000000E-01    0.000000000000000E+00
    8.000000000000000E+00    3.000000000000000E-01    0.000000000000000E+00
    0.000000000000000E+00    4.000000000000000E-01    0.000000000000000E+00
    4.000000000000000E-01    4.000000000000000E-01    0.000000000000000E+00
    8.000000000000000E-01    4.000000000000000E-01    0.000000000000000E+00
    1.200000000000000E+00    4.000000000000000E-01    0.000000000000000E+00
    1.600000000000000E+00    4.000000000000000E-01    0.000000000000000E+00
    2.000000000000000E+00    4.000000000000000E-01    0.000000000000000E+00
    2.400000000000000E+00    4.000000000000000E-01    0.000000000000000E+00
    2.800000000000000E+00    4.000000000000000E-01    0.000000000000000E+00
    3.200000000000000E+00    4.000000000000000E-01    0.000000000000000E+00
    3.600000000000000E+00    4.000000000000000E-01    0.000000000000000E+00
    4.000000000000000E+00    4.000000000000000E-01    0.000000000000000E+00
    4.400000000000000E+00    4.000000000000000E-01    0.000000000000000E+00
    4.800000000000000E+00    4.000000000000000E-01    0.000000000000000E+00
    5.200000000000000E+00    4.000000000000000E-01    0.000000000000000E+00
    5.600000000000000E+00    4.000000000000000E-01    0.000000000000000E+00
    6.000000000000000E+00    4.000000000000000E-01    0.000000000000000E+00
    6.400000000000000E+00    4.000000000000000E-01    0.000000000000000E+00
    6.800000000000000E+00    4.000000000000000E-01    0.000000000000000E+00
    7.200000000000000E+00    4.000000000000000E-01    0.000000000000000E+00
    7.600000000000000E+00    4.000000000000000E-01    0.000000000000000E+00
    8.000000000000000E+00    4.000000000000000E-01    0.000000000000000E+00
    0.000000000000000E+00    5.000000000000000E-01    0.000000000000000E+00
    4.000000000000000E-01    5.000000000000000E-01    0.000000000000000E+00
    8.000000000000000E-01    5.000000000000000E-01    0.000000000000000E+00
    1.200000000000000E+00    5.000000000000000E-01    0.000000000000000E+00
    1.600000000000000E+00    5.000000000000000E-01    0.000000000000000E+00
    2.000000000000000E+00    5.000000000000000E-01    0.000000000000000E+00
    2.400000000000000E+00    5.000000000000000E-01    0.000000000000000E+00
    2.800000000000000E+00    5.000000000000000E-01    0.000000000000000E+00
    3.200000000000000E+00    5.000000000000000E-01    0.000000000000000E+00
    3.600000000000000E+00    5.000000000000000E-01    0.000000000000000E+00
    4.000000000000000E+00    5.000000000000000E-01    0.000000000000000E+00
    4.400000000000000E+00    5.000000000000000E-01    0.000000000000000E+00
    4.800000000000000E+00    5.000000000000000E-01    0.000000000000000E+00
    5.200000000000000E+00    5.000000000000000E-01    0.000000000000000E+00
    5.600000000000000E+00    5.000000000000000E-01    0.000000000000000E+00
    6.000000000000000E+00    5.000000000000000E-01    0.000000000000000E+00
    6.400000000000000E+00    5.000000000000000E-01    0.000000000000000E+00
    6.800000000000000E+00    5.000000000000000E-01    0.000000000000000E+00
    7.200000000000000E+00    5.000000000000000E-01    0.000000000000000E+00
    7.600000000000000E+00    5.000000000000000E-01    0.000000000000000E+00
    8.000000000000000E+00    5.000000000000000E-01    0.000000000000000E+00
    0.000000000000000E+00    6.000000000000000E-01    0.000000000000000E+00
    4.000000000000000E-01    6.000000000000000E-01    0.000000000000000E+00
    8.000000000000000E-01    6.000000000000000E-01    0.000000000000000E+00
    1.200000000000000E+00    6.000000000000000E-01    0.000000000000000E+00
    1.600000000000000E+00    6.000000000000000E-01    0.000000000000000E+00
    2.000000000000000E+00    6.000000000000000E-01    0.000000000000000E+00
    2.400000000000000E+00    6.000000000000000E-01    0.000000000000000E+00
    2.800000000000000E+00    6.000000000000000E-01    0.000000000000000E+00
    3.200000000000000E+00    6.000000000000000E-01    0.000000000000000E+00
    3.600000000000000E+00    6.000000000000000E-01    0.000000000000000E+00
    4.000000000000000E+00    6.000000000000000E-01    0.000000000000000E+00
    4.400000000000000E+00    6.000000000000000E-01    0.000000000000000E+00
    4.800000000000000E+00    6.000000000000000E-01    0.000000000000000E+00
    5.200000000000000E+00    6.000000000000000E-01    0.000000000000000E+00
    5.600000000000000E+00    6.000000000000000E-01    0.000000000000000E+00
    6.000000000000000E+00    6.000000000000000E-01    0.000000000000000E+00
    6.400000000000000E+00    6.000000000000000E-01    0.000000000000000E+00
    6.800000000000000E+00    6.000000000000000E-01    0.000000000000000E+00
    7.200000000000000E+00    6.000000000000000E-01    0.000000000000000E+00
    7.600000000000000E+00    6.000000000000000E-01    0.000000000000000E+00
    8.000000000000000E+00    6.000000000000000E-01    0.000000000000000E+00
    0.000000000000000E+00    7.000000000000000E-01    0.000000000000000E+00
    4.000000000000000E-01    7.000000000000000E-01    0.000000000000000E+00
    8.000000000000000E-01    7.000000000000000E-01    0.000000000000000E+00
    1.200000000000000E+00    7.000000000000000E-01    0.000000000000000E+00
    1.600000000000000E+00    7.000000000000000E-01    0.000000000000000E+00
    2.000000000000000E+00    7.000000000000000E-01    0.000000000000000E+00
    2.400000000000000E+00    7.000000000000000E-01    0.000000000000000E+00
    2.800000000000000E+00    7.000000000000000E-01    0.000000000000000E+00
    3.200000000000000E+00    7.000000000000000E-01    0.000000000000000E+00
    3.600000000000000E+00    7.000000000000000E-01    0.000000000000000E+00
    4.000000000000000E+00    7.000000000000000E-01    0.000000000000000E+00
    4.400000000000000E+00    7.000000000000000E-01    0.000000000000000E+00
    4.800000000000000E+00    7.000000000000000E-01    0.000000000000000E+00
    5.200000000000000E+00    7.000000000000000E-01    0.000000000000000E+00
    5.600000000000000E+00    7.000000000000000E-01    0.000000000000000E+00
    6.000000000000000E+00    7.000000000000000E-01    0.000000000000000E+00
    6.400000000000000E+00    7.000000000000000E-01    0.000000000000000E+00
    6.800000000000000E+00    7.000000000000000E-01    0.000000000000000E+00
    7.200000000000000E+00    7.000000000000000E-01    0.000000000000000E+00
    7.600000000000000E+00    7.000000000000000E-01    0.000000000000000E+00
    8.000000000000000E+00    7.000000000000000E-01    0.000000000000000E+00
    0.000000000000000E+00    8.000000000000000E-01    0.000000000000000E+00
    4.000000000000000E-01    8.000000000000000E-01    0.000000000000000E+00
    8.000000000000000E-01    8.000000000000000E-01    0.000000000000000E+00
    1.200000000000000E+00    8.000000000000000E-01    0.000000000000000E+00
    1.600000000000000E+00    8.000000000000000E-01    0.000000000000000E+00
    2.000000000000000E+00    8.000000000000000E-01    0.000000000000000E+00
    2.400000000000000E+00    8.000000000000000E-01    0.000000000000000E+00
    2.800000000000000E+00    8.000000000000000E-01    0.000000000000000E+00
    3.200000000000000E+00    8.000000000000000E-01    0.000000000000000E+00
    3.600000000000000E+00    8.000000000000000E-01    0.000000000000000E+00
    4.000000000000000E+00    8.000000000000000E-01    0.000000000000000E+00
    4.400000000000000E+00    8.000000000000000E-01    0.000000000000000E+00
    4.800000000000000E+00    8.000000000000000E-01    0.000000000000000E+00
    5.200000000000000E+00    8.000000000000000E-01    0.000000000000000E+00
    5.600000000000000E+00    8.000000000000000E-01    0.000000000000000E+00
    6.000000000000000E+00    8.000000000000000E-01    0.000000000000000E+00
    6.400000000000000E+00    8.000000000000000E-01    0.000000000000000E+00
    6.800000000000000E+00    8.000000000000000E-01    0.000000000000000E+00
    7.200000000000000E+00    8.000000000000000E-01    0.000000000000000E+00
    7.600000000000000E+00    8.000000000000000E-01    0.000000000000000E+00
    8.000000000000000E+00    8.000000000000000E-01    0.000000000000000E+00
    0.000000000000000E+00    9.000000000000000E-01    0.000000000000000E+00
    4.000000000000000E-01    9.000000000000000E-01    0.000000000000000E+00
    8.000000000000000E-01    9.000000000000000E-01    0.000000000000000E+00
    1.200000000000000E+00    9.000000000000000E-01    0.000000000000000E+00
    1.600000000000000E+00    9.000000000000000E-01    0.000000000000000E+00
    2.000000000000000E+00    9.000000000000000E-01    0.000000000000000E+00
    2.400000000000000E+00    9.000000000000000E-01    0.000000000000000E+00
    2.800000000000000E+00    9.000000000000000E-01    0.000000000000000E+00
    3.200000000000000E+00    9.000000000000000E-01    0.000000000000000E+00
    3.600000000000000E+00    9.000000000000000E-01    0.000000000000000E+00
    4.000000000000000E+00    9.000000000000000E-01    0.000000000000000E+00
    4.400000000000000E+00    9.000000000000000E-01    0.000000000000000E+00
    4.800000000000000E+00    9.000000000000000E-01    0.000000000000000E+00
    5.200000000000000E+00    9.000000000000000E-01    0.000000000000000E+00
    5.600000000000000E+00    9.000000000000000E-01    0.000000000000000E+00
    6.000000000000000E+00    9.000000000000000E-01    0.000000000000000E+00
    6.400000000000000E+00    9.000000000000000E-01    0.000000000000000E+00
    6.800000000000000E+00    9.000000000000000E-01    0.000000000000000E+00
    7.200000000000000E+00    9.000000000000000E-01    0.000000000000000E+00
    7.600000000000000E+00    9.000000000000000E-01    0.000000000000000E+00
    8.000000000000000E+00    9.000000000000000E-01    0.000000000000000E+00
    0.000000000000000E+00    1.000000000000000E+00    0.000000000000000E+00
    4.000000000000000E-01    1.000000000000000E+00    0.000000000000000E+00
    8.000000000000000E-01    1.000000000000000E+00    0.000000000000000E+00
    1.200000000000000E+00    1.000000000000000E+00    0.000000000000000E+00
    1.600000000000000E+00    1.000000000000000E+00    0.000000000000000E+00
    2.000000000000000E+00    1.000000000000000E+00    0.000000000000000E+00
    2.400000000000000E+00    1.000000000000000E+00    0.000000000000000E+00
    2.800000000000000E+00    1.000000000000000E+00    0.000000000000000E+00
    3.200000000000000E+00    1.000000000000000E+00    0.000000000000000E+00
    3.600000000000000E+00    1.000000000000000E+00    0.000000000000000E+00
    4.000000000000000E+00    1.000000000000000E+00    0.000000000000000E+00
    4.400000000000000E+00    1.000000000000000E+00    0.000000000000000E+00
    4.800000000000000E+00    1.000000000000000E+00    0.000000000000000E+00
    5.200000000000000E+00    1.000000000000000E+00    0.000000000000000E+00
    5.600000000000000E+00    1.000000000000000E+00    0.000000000000000E+00
    6.000000000000000E+00    1.000000000000000E+00    0.000000000000000E+00
    6.400000000000000E+00    1.000000000000000E+00    0.000000000000000E+00
    6.800000000000000E+00    1.000000000000000E+00    0.000000000000000E+00
    7.200000000000000E+00    1.000000000000000E+00    0.000000000000000E+00
    7.600000000000000E+00    1.000000000000000E+00    0.000000000000000E+00
    8.000000000000000E+00    1.000000000000000E+00    0.000000000000000E+00
    0.000000000000000E+00    0.000000000000000E+00    1.000000000000000E+00
    4.000000000000000E-01    0.000000000000000E+00    1.000000000000000E+00
    8.000000000000000E-01    0.000000000000000E+00    1.000000000000000E+00
    1.200000000000000E+00    0.000000000000000E+00    1.000000000000000E+00
    1.600000000000000E+00    0.000000000000000E+00    1.000000000000000E+00
    2.000000000000000E+00    0.000000000000000E+00    1.000000000000000E+00
    2.400000000000000E+00    0.000000000000000E+00    1.000000000000000E+00
    2.800000000000000E+00    0.000000000000000E+00    1.000000000000000E+00
    3.200000000000000E+00    0.000000000000000E+00    1.000000000000000E+00
    3.600000000000000E+00    0.000000000000000E+00    1.000000000000000E+00
    4.000000000000000E+00    0.000000000000000E+00    1.000000000000000E+00
    4.400000000000000E+00    0.000000000000000E+00    1.000000000000000E+00
    4.800000000000000E+00    0.000000000000000E+00    1.000000000000000E+00
    5.200000000000000E+00    0.000000000000000E+00    1.000000000000000E+00
    5.600000000000000E+00    0.000000000000000E+00    1.000000000000000E+00
    6.000000000000000E+00    0.000000000000000E+00    1.000000000000000E+00
    6.400000000000000E+00    0.000000000000000E+00    1.000000000000000E+00
    6.800000000000000E+00    0.000000000000000E+00    1.000000000000000E+00
    7.200000000000000E+00    0.000000000000000E+00    1.000000000000000E+00
    7.600000000000000E+00    0.000000000000000E+00    1.000000000000000E+00
    8.000000000000000E+00    0.000000000000000E+00    1.000000000000000E+00
    0.000000000000000E+00    1.000000000000000E-01    1.000000000000000E+00
    4.000000000000000E-01    1.000000000000000E-01    1.000000000000000E+00
    8.000000000000000E-01    1.000000000000000E-01    1.000000000000000E+00
    1.200000000000000E+00    1.000000000000000E-01    1.000000000000000E+00
    1.600000000000000E+00    1.000000000000000E-01    1.000000000000000E+00
    2.000000000000000E+00    1.000000000000000E-01    1.000000000000000E+00
    2.400000000000000E+00    1.000000000000000E-01    1.000000000000000E+00
    2.800000000000000E+00    1.000000000000000E-01    1.000000000000000E+00
    3.200000000000000E+00    1.000000000000000E-01    1.000000000000000E+00
    3.600000000000000E+00    1.000000000000000E-01    1.000000000000000E+00
    4.000000000000000E+00    1.000000000000000E-01    1.000000000000000E+00
    4.400000000000000E+00    1.000000000000000E-01    1.000000000000000E+00
    4.800000000000000E+00    1.000000000000000E-01    1.000000000000000E+00
    5.200000000000000E+00    1.000000000000000E-01    1.000000000000000E+00
    5.600000000000000E+00    1.000000000000000E-01    1.000000000000000E+00
    6.000000000000000E+00    1.000000000000000E-01    1.000000000000000E+00
    6.400000000000000E+00    1.000000000000000E-01    1.000000000000000E+00
    6.800000000000000E+00    1.000000000000000E-01    1.000000000000000E+00
    7.200000000000000E+00    1.000000000000000E-01    1.000000000000000E+00
    7.600000000000000E+00    1.000000000000000E-01    1.000000000000000E+00
    8.000000000000000E+00    1.000000000000000E-01    1.000000000000000E+00
    0.000000000000000E+00    2.000000000000000E-01    1.000000000000000E+00
    4.000000000000000E-01    2.000000000000000E-01    1.000000000000000E+00
    8.000000000000000E-01    2.000000000000000E-01    1.000000000000000E+00
    1.200000000000000E+00    2.000000000000000E-01    1.000000000000000E+00
    1.600000000000000E+00    2.000000000000000E-01    1.000000000000000E+00
    2.000000000000000E+00    2.000000000000000E-01    1.000000000000000E+00
    2.400000000000000E+00    2.000000000000000E-01    1.000000000000000E+00
    2.800000000000000E+00    2.000000000000000E-01    1.000000000000000E+00
    3.200000000000000E+00    2.000000000000000E-01    1.000000000000000E+00
    3.600000000000000E+00    2.000000000000000E-01    1.000000000000000E+00
    4.000000000000000E+00    2.000000000000000E-01    1.000000000000000E+00
    4.400000000000000E+00    2.000000000000000E-01    1.000000000000000E+00
    4.800000000000000E+00    2.000000000000000E-01    1.000000000000000E+00
    5.200000000000000E+00    2.000000000000000E-01    1.000000000000000E+00
    5.600000000000000E+00    2.000000000000000E-01    1.000000000000000E+00
    6.000000000000000E+00    2.000000000000000E-01    1.000000000000000E+00
    6.400000000000000E+00    2.000000000000000E-01    1.000000000000000E+00
    6.800000000000000E+00    2.000000000000000E-01    1.000000000000000E+00
    7.200000000000000E+00    2.000000000000000E-01    1.000000000000000E+00
    7.600000000000000E+00    2.000000000000000E-01    1.000000000000000E+00
    8.000000000000000E+00    2.000000000000000E-01    1.000000000000000E+00
    0.000000000000000E+00    3.000000000000000E-01    1.000000000000000E+00
    4.000000000000000E-01    3.000000000000000E-01    1.000000000000000E+00
    8.000000000000000E-01    3.000000000000000E-01    1.000000000000000E+00
    1.200000000000000E+00    3.000000000000000E-01    1.000000000000000E+00
    1.600000000000000E+00    3.000000000000000E-01    1.000000000000000E+00
    2.000000000000000E+00    3.000000000000000E-01    1.000000000000000E+00
    2.400000000000000E+00    3.000000000000000E-01    1.000000000000000E+00
    2.800000000000000E+00    3.000000000000000E-01    1.000000000000000E+00
    3.200000000000000E+00    3.000000000000000E-01    1.000000000000000E+00
    3.600000000000000E+00    3.000000000000000E-01    1.000000000000000E+00
    4.000000000000000E+00    3.000000000000000E-01    1.000000000000000E+00
    4.400000000000000E+00    3.000000000000000E-01    1.000000000000000E+00
    4.800000000000000E+00    3.000000000000000E-01    1.000000000000000E+00
    5.200000000000000E+00    3.000000000000000E-01    1.000000000000000E+00
    5.600000000000000E+00    3.000000000000000E-01    1.000000000000000E+00
    6.000000000000000E+00    3.000000000000000E-01    1.000000000000000E+00
    6.400000000000000E+00    3.000000000000000E-01    1.000000000000000E+00
    6.800000000000000E+00    3.000000000000000E-01    1.000000000000000E+00
    7.200000000000000E+00    3.000000000000000E-01    1.000000000000000E+00
    7.600000000000000E+00    3.000000000000000E-01    1.000000000000000E+00
    8.000000000000000E+00    3.000000000000000E-01    1.000000000000000E+00
    0.000000000000000E+00    4.000000000000000E-01    1.000000000000000E+00
    4.000000000000000E-01    4.000000000000000E-01    1.000000000000000E+00
    8.000000000000000E-01    4.000000000000000E-01    1.000000000000000E+00
    1.200000000000000E+00    4.000000000000000E-01    1.000000000000000E+00
    1.600000000000000E+00    4.000000000000000E-01    1.000000000000000E+00
    2.000000000000000E+00    4.000000000000000E-01    1.000000000000000E+00
    2.400000000000000E+00    4.000000000000000E-01    1.000000000000000E+00
    2.800000000000000E+00    4.000000000000000E-01    1.000000000000000E+00
    3.200000000000000E+00    4.000000000000000E-01    1.000000000000000E+00
    3.600000000000000E+00    4.000000000000000E-01    1.000000000000000E+00
    4.000000000000000E+00    4.000000000000000E-01    1.000000000000000E+00
    4.400000000000000E+00    4.000000000000000E-01    1.000000000000000E+00
    4.800000000000000E+00    4.000000000000000E-01    1.000000000000000E+00
    5.200000000000000E+00    4.000000000000000E-01    1.000000000000000E+00
    5.600000000000000E+00    4.000000000000000E-01    1.000000000000000E+00
    6.000000000000000E+00    4.000000000000000E-01    1.000000000000000E+00
    6.400000000000000E+00    4.000000000000000E-01    1.000000000000000E+00
    6.800000000000000E+00    4.000000000000000E-01    1.000000000000000E+00
    7.200000000000000E+00    4.000000000000000E-01    1.000000000000000E+00
    7.600000000000000E+00    4.000000000000000E-01    1.000000000000000E+00
    8.000000000000000E+00    4.000000000000000E-01    1.000000000000000E+00
    0.000000000000000E+00    5.000000000000000E-01    1.000000000000000E+00
    4.000000000000000E-01    5.000000000000000E-01    1.000000000000000E+00
    8.000000000000000E-01    5.000000000000000E-01    1.000000000000000E+00
    1.200000000000000E+00    5.000000000000000E-01    1.000000000000000E+00
    1.600000000000000E+00    5.000000000000000E-01    1.000000000000000E+00
    2.000000000000000E+00    5.000000000000000E-01    1.000000000000000E+00
    2.400000000000000E+00    5.000000000000000E-01    1.000000000000000E+00
    2.800000000000000E+00    5.000000000000000E-01    1.000000000000000E+00
    3.200000000000000E+00    5.000000000000000E-01    1.000000000000000E+00
    3.600000000000000E+00    5.000000000000000E-01    1.000000000000000E+00
    4.000000000000000E+00    5.000000000000000E-01    1.000000000000000E+00
    4.400000000000000E+00    5.000000000000000E-01    1.000000000000000E+00
    4.800000000000000E+00    5.000000000000000E-01    1.000000000000000E+00
    5.200000000000000E+00    5.000000000000000E-01    1.000000000000000E+00
    5.600000000000000E+00    5.000000000000000E-01    1.000000000000000E+00
    6.000000000000000E+00    5.000000000000000E-01    1.000000000000000E+00
    6.400000000000000E+00    5.000000000000000E-01    1.000000000000000E+00
    6.800000000000000E+00    5.000000000000000E-01    1.000000000000000E+00
    7.200000000000000E+00    5.000000000000000E-01    1.000000000000000E+00
    7.600000000000000E+00    5.000000000000000E-01    1.000000000000000E+00
    8.000000000000000E+00    5.000000000000000E-01    1.000000000000000E+00
    0.000000000000000E+00    6.000000000000000E-01    1.000000000000000E+00
    4.000000000000000E-01    6.000000000000000E-01    1.000000000000000E+00
    8.000000000000000E-01    6.000000000000000E-01    1.000000000000000E+00
    1.200000000000000E+00    6.000000000000000E-01    1.000000000000000E+00
    1.600000000000000E+00    6.000000000000000E-01    1.000000000000000E+00
    2.000000000000000E+00    6.000000000000000E-01    1.000000000000000E+00
    2.400000000000000E+00    6.000000000000000E-01    1.000000000000000E+00
    2.800000000000000E+00    6.000000000000000E-01    1.000000000000000E+00
    3.200000000000000E+00    6.000000000000000E-01    1.000000000000000E+00
    3.600000000000000E+00    6.000000000000000E-01    1.000000000000000E+00
    4.000000000000000E+00    6.000000000000000E-01    1.000000000000000E+00
    4.400000000000000E+00    6.000000000000000E-01    1.000000000000000E+00
    4.800000000000000E+00    6.000000000000000E-01    1.000000000000000E+00
    5.200000000000000E+00    6.000000000000000E-01    1.000000000000000E+00
    5.600000000000000E+00    6.000000000000000E-01    1.000000000000000E+00
    6.000000000000000E+00    6.000000000000000E-01    1.000000000000000E+00
    6.400000000000000E+00    6.000000000000000E-01    1.000000000000000E+00
    6.800000000000000E+00    6.000000000000000E-01    1.000000000000000E+00
    7.200000000000000E+00    6.000000000000000E-01    1.000000000000000E+00
    7.600000000000000E+00    6.000000000000000E-01    1.000000000000000E+00
    8.000000000000000E+00    6.000000000000000E-01    1.000000000000000E+00
    0.000000000000000E+00    7.000000000000000E-01    1.000000000000000E+00
    4.000000000000000E-01    7.000000000000000E-01    1.000000000000000E+00
    8.000000000000000E-01    7.000000000000000E-01    1.000000000000000E+00
    1.200000000000000E+00    7.000000000000000E-01    1.000000000000000E+00
    1.600000000000000E+00    7.000000000000000E-01    1.000000000000000E+00
    2.000000000000000E+00    7.000000000000000E-01    1.000000000000000E+00
    2.400000000000000E+00    7.000000000000000E-01    1.000000000000000E+00
    2.800000000000000E+00    7.000000000000000E-01    1.000000000000000E+00
    3.200000000000000E+00    7.000000000000000E-01    1.000000000000000E+00
    3.600000000000000E+00    7.000000000000000E-01    1.000000000000000E+00
    4.000000000000000E+00    7.000000000000000E-01    1.000000000000000E+00
    4.400000000000000E+00    7.000000000000000E-01    1.000000000000000E+00
    4.800000000000000E+00    7.000000000000000E-01    1.000000000000000E+00
    5.200000000000000E+00    7.000000000000000E-01    1.000000000000000E+00
    5.600000000000000E+00    7.000000000000000E-01    1.000000000000000E+00
    6.000000000000000E+00    7.000000000000000E-01    1.000000000000000E+00
    6.400000000000000E+00    7.000000000000000E-01    1.000000000000000E+00
    6.800000000000000E+00    7.000000000000000E-01    1.000000000000000E+00
    7.200000000000000E+00    7.000000000000000E-01    1.000000000000000E+00
    7.600000000000000E+00    7.000000000000000E-01    1.000000000000000E+00
    8.000000000000000E+00    7.000000000000000E-01    1.000000000000000E+00
    0.000000000000000E+00    8.000000000000000E-01    1.000000000000000E+00
    4.000000000000000E-01    8.000000000000000E-01    1.000000000000000E+00
    8.000000000000000E-01    8.000000000000000E-01    1.000000000000000E+00
    1.200000000000000E+00    8.000000000000000E-01    1.000000000000000E+00
    1.600000000000000E+00    8.000000000000000E-01    1.000000000000000E+00
    2.000000000000000E+00    8.000000000000000E-01    1.000000000000000E+00
    2.400000000000000E+00    8.000000000000000E-01    1.000000000000000E+00
    2.800000000000000E+00    8.000000000000000E-01    1.000000000000000E+00
    3.200000000000000E+00    8.000000000000000E-01    1.000000000000000E+00
    3.600000000000000E+00    8.000000000000000E-01    1.000000000000000E+00
    4.000000000000000E+00    8.000000000000000E-01    1.000000000000000E+00
    4.400000000000000E+00    8.000000000000000E-01    1.000000000000000E+00
    4.800000000000000E+00    8.000000000000000E-01    1.000000000000000E+00
    5.200000000000000E+00    8.000000000000000E-01    1.000000000000000E+00
    5.600000000000000E+00    8.000000000000000E-01    1.000000000000000E+00
    6.000000000000000E+00    8.000000000000000E-01    1.000000000000000E+00
    6.400000000000000E+00    8.000000000000000E-01    1.000000000000000E+00
    6.800000000000000E+00    8.000000000000000E-01    1.000000000000000E+00
    7.200000000000000E+00    8.000000000000000E-01    1.000000000000000E+00
    7.600000000000000E+00    8.000000000000000E-01    1.000000000000000E+00
    8.000000000000000E+00    8.000000000000000E-01    1.000000000000000E+00
    0.000000000000000E+00    9.000000000000000E-01    1.000000000000000E+00
    4.000000000000000E-01    9.000000000000000E-01    1.000000000000000E+00
    8.000000000000000E-01    9.000000000000000E-01    1.000000000000000E+00
    1.200000000000000E+00    9.000000000000000E-01    1.000000000000000E+00
    1.600000000000000E+00    9.000000000000000E-01    1.000000000000000E+00
    2.000000000000000E+00    9.000000000000000E-01    1.000000000000000E+00
    2.400000000000000E+00    9.000000000000000E-01    1.000000000000000E+00
    2.800000000000000E+00    9.000000000000000E-01    1.000000000000000E+00
    3.200000000000000E+00    9.000000000000000E-01    1.000000000000000E+00
    3.600000000000000E+00    9.000000000000000E-01    1.000000000000000E+00
    4.000000000000000E+00    9.000000000000000E-01    1.000000000000000E+00
    4.400000000000000E+00    9.000000000000000E-01    1.000000000000000E+00
    4.800000000000000E+00    9.000000000000000E-01    1.000000000000000E+00
    5.200000000000000E+00    9.000000000000000E-01    1.000000000000000E+00
    5.600000000000000E+00    9.000000000000000E-01    1.000000000000000E+00
    6.000000000000000E+00    9.000000000000000E-01    1.000000000000000E+00
    6.400000000000000E+00    9.000000000000000E-01    1.000000000000000E+00
    6.800000000000000E+00    9.000000000000000E-01    1.000000000000000E+00
    7.200000000000000E+00    9.000000000000000E-01    1.000000000000000E+00
    7.600000000000000E+00    9.000000000000000E-01    1.000000000000000E+00
    8.000000000000000E+00    9.000000000000000E-01    1.000000000000000E+00
    0.000000000000000E+00    1.000000000000000E+00    1.000000000000000E+00
    4.000000000000000E-01    1.000000000000000E+00    1.000000000000000E+00
    8.000000000000000E-01    1.000000000000000E+00    1.000000000000000E+00
    1.200000000000000E+00    1.000000000000000E+00    1.000000000000000E+00
    1.600000000000000E+00    1.000000000000000E+00    1.000000000000000E+00
    2.000000000000000E+00    1.000000000000000E+00    1.000000000000000E+00
    2.400000000000000E+00    1.000000000000000E+00    1.000000000000000E+00
    2.800000000000000E+00    1.000000000000000E+00    1.000000000000000E+00
    3.200000000000000E+00    1.000000000000000E+00    1.000000000000000E+00
    3.600000000000000E+00    1.000000000000000E+00    1.000000000000000E+00
    4.000000000000000E+00    1.000000000000000E+00    1.000000000000000E+00
    4.400000000000000E+00    1.000000000000000E+00    1.000000000000000E+00
    4.800000000000000E+00    1.000000000000000E+00    1.000000000000000E+00
    5.200000000000000E+00    1.000000000000000E+00    1.000000000000000E+00
    5.600000000000000E+00    1.000000000000000E+00    1.000000000000000E+00
    6.000000000000000E+00    1.000000000000000E+00    1.000000000000000E+00
    6.400000000000000E+00    1.000000000000000E+00    1.000000000000000E+00
    6.800000000000000E+00    1.000000000000000E+00    1.000000000000000E+00
    7.200000000000000E+00    1.000000000000000E+00    1.000000000000000E+00
    7.600000000000000E+00    1.000000000000000E+00    1.000000000000000E+00
    8.000000000000000E+00    1.000000000000000E+00    1.000000000000000E+00
CELL_DATA          200
SCALARS density double 1
LOOKUP_TABLE default
    1.000000000000000E+00
    1.000000000000000E+00
    1.000000000000000E+00
    1.000000000000000E+00
    1.000000000000000E+00
    1.000000000000000E+00
    1.000000000000000E+00
    1.000000000000000E+00
    1.000000000000000E+00
    1.000000000000000E+00
    1.000000000000000E+00
    1.000000000000000E+00
    1.000000000000000E+00
    1.000000000000000E+00
    1.000000000000000E+00
    1.000000000000000E+00
    1.000000000000000E+00
    1.000000000000000E+00
    1.000000000000000E+00
    1.000000000000000E+00
    1.000000000000000E+00
    1.000000000000000E+00
    1.000000000000000E+00
    1.000000000000000E+00
    1.000000000000000E+00
    1.000000000000000E+00
    1.000000000000000E+00
    1.000000000000000E+00
    1.000000000000000E+00
    1.000000000000000E+00
    1.000000000000000E+00
    1.000000000000000E+00
    1.000000000000000E+00
    1.000000000000000E+00
    1.000000000000000E+00
    1.000000000000000E+00
    1.000000000000000E+00
    1.000000000000000E+00
    1.000000000000000E+00
    1.000000000000000E+00
    1.000000000000000E+00
    1.000000000000000E+00
    1.000000000000000E+00
    1.000000000000000E+00
    1.000000000000000E+00
    1.000000000000000E+00
    1.000000000000000E+00
    1.000000000000000E+00
    1.000000000000000E+00
    1.000000000000000E+00
    1.000000000000000E+00
    1.000000000000000E+00
    1.000000000000000E+00
    1.000000000000000E+00
    1.000000000000000E+00
    1.000000000000000E+00
    1.000000000000000E+00
    1.000000000000000E+00
    1.000000000000000E+00
    1.000000000000000E+00
    1.000000000000000E+00
    1.000000000000000E+00
    1.000000000000000E+00
    1.000000000000000E+00
    1.000000000000000E+00
    1.000000000000000E+00
    1.000000000000000E+00
    1.000000000000000E+00
    1.000000000000000E+00
    1.000000000000000E+00
    1.000000000000000E+00
    1.000000000000000E+00
    1.000000000000000E+00
    1.000000000000000E+00
    1.000000000000000E+00
    1.000000000000000E+00
    1.000000000000000E+00
    1.000000000000000E+00
    1.000000000000000E+00
    1.000000000000000E+00
    1.000000000000000E+00
    1.000000000000000E+00
    1.000000000000000E+00
    1.000000000000000E+00
    1.000000000000000E+00
    1.000000000000000E+00
    1.000000000000000E+00
    1.000000000000000E+00
    1.000000000000000E+00
    1.000000000000000E+00
    1.000000000000000E+00
    1.000000000000000E+00
    1.000000000000000E+00
    1.000000000000000E+00
    1.000000000000000E+00
    1.000000000000000E+00
    1.000000000000000E+00
    1.000000000000000E+00
    1.000000000000000E+00
    1.000000000000000E+00
    1.000000000000000E+00
    1.000000000000000E+00
    1.000000000000000E+00
    1.000000000000000E+00
    1.000000000000000E+00
    1.000000000000000E+00
    1.000000000000000E+00
    1.000000000000000E+00
    1.000000000000000E+00
    1.000000000000000E+00
    1.000000000000000E+00
    1.000000000000000E+00
    1.000000000000000E+00
    1.000000000000000E+00
    1.000000000000000E+00
    1.000000000000000E+00
    1.000000000000000E+00
    1.000000000000000E+00
    1.000000000000000E+00
    1.000000000000000E+00
    1.000000000000000E+00
    1.000000000000000E+00
    1.000000000000000E+00
    1.000000000000000E+00
    1.000000000000000E+00
    1.000000000000000E+00
    1.000000000000000E+00
    1.000000000000000E+00
    1.000000000000000E+00
    1.000000000000000E+00
    1.000000000000000E+00
    1.000000000000000E+00
    1.000000000000000E+00
    1.000000000000000E+00
    1.000000000000000E+00
    1.000000000000000E+00
    1.000000000000000E+00
    1.000000000000000E+00
    1.000000000000000E+00
    1.000000000000000E+00
    1.000000000000000E+00
    1.000000000000000E+00
    1.000000000000000E+00
    1.000000000000000E+00
    1.000000000000000E+00
    1.000000000000000E+00
    1.000000000000000E+00
    1.000000000000000E+00
    1.000000000000000E+00
    1.000000000000000E+00
    1.000000000000000E+00
    1.000000000000000E+00
    1.000000000000000E+00
    1.000000000000000E+00
    1.000000000000000E+00
    1.000000000000000E+00
    1.000000000000000E+00
    1.000000000000000E+00
    1.000000000000000E+00
    1.000000000000000E+00
    1.000000000000000E+00
    1.000000000000000E+00
    1.000000000000000E+00
    1.000000000000000E+00
    1.000000000000000E+00
    1.000000000000000E+00
    1.000000000000000E+00
    1.000000000000000E+00
    1.000000000000000E+00
    1.000000000000000E+00
    1.000000000000000E+00
    1.000000000000000E+00
    1.000000000000000E+00
    1.000000000000000E+00
    1.000000000000000E+00
    1.000000000000000E+00
    1.000000000000000E+00
    1.000000000000000E+00
    1.000000000000000E+00
    1.000000000000000E+00
    1.000000000000000E+00
    1.000000000000000E+00
    1.000000000000000E+00
    1.000000000000000E+00
    1.000000000000000E+00
    1.000000000000000E+00
    1.000000000000000E+00
    1.000000000000000E+00
    1.000000000000000E+00
    1.000000000000000E+00
    1.000000000000000E+00
    1.000000000000000E+00
    1.000000000000000E+00
    1.000000000000000E+00
    1.000000000000000E+00
    1.000000000000000E+00
    1.000000000000000E+00
    1.000000000000000E+00
    1.000000000000000E+00
    1.000000000000000E+00
VECTORS velocity double
    9.544119542847118E-03   -1.105170297370377E-04    0.000000000000000E+00
    3.202229082637324E-03   -7.567041545986706E-05    0.000000000000000E+00
    5.143353893472850E-03    1.345169773022798E-05    0.000000000000000E+00
    4.565790432201355E-03   -6.345165069509609E-06    0.000000000000000E+00
    4.747327336139134E-03    1.716783233584881E-06    0.000000000000000E+00
    4.691452442346735E-03   -5.853418156622571E-07    0.000000000000000E+00
    4.708884449038070E-03    1.745887708487356E-07    0.000000000000000E+00
    4.703480032635029E-03   -5.603461381261186E-08    0.000000000000000E+00
    4.705145275488375E-03    1.756933537598892E-08    0.000000000000000E+00
    4.704676518367409E-03   -7.359015591153386E-09    0.000000000000000E+00
    4.704661394143248E-03    7.500082808040345E-09    0.000000000000000E+00
    4.705174361667746E-03   -1.956098135282427E-08    0.000000000000000E+00
    4.703389191883967E-03    6.097666973313569E-08    0.000000000000000E+00
    4.709119742170930E-03   -1.903543336942998E-07    0.000000000000000E+00
    4.690793392639178E-03    6.270121675771552E-07    0.000000000000000E+00
    4.749074134073264E-03   -1.850491913030840E-06    0.000000000000000E+00
    4.561508158322479E-03    6.603806752956580E-06    0.000000000000000E+00
    5.154689403706466E-03   -1.471766956629944E-05    0.000000000000000E+00
    3.183435962749320E-03    7.414745023689126E-05    0.000000000000000E+00
    9.567555836592275E-03    1.107312062391645E-04    0.000000000000000E+00
    1.504933456169183E-02   -2.169205573979153E-04    0.000000000000000E+00
    5.249164193553760E-03   -1.482260524144427E-04    0.000000000000000E+00
    8.167200283156583E-03    2.368278328829684E-05    0.000000000000000E+00
    7.273313744593306E-03   -1.266234693586838E-05    0.000000000000000E+00
    7.552750390072384E-03    3.261020784490542E-06    0.000000000000000E+00
    7.466359480802530E-03   -1.156903362499335E-06    0.000000000000000E+00
    7.493282963006335E-03    3.381767368341769E-07    0.000000000000000E+00
    7.484929815516987E-03   -1.101095941647689E-07    0.000000000000000E+00
    7.487503052069378E-03    3.423251143251272E-08    0.000000000000000E+00
    7.486779078128983E-03   -1.443394881712990E-08    0.000000000000000E+00
    7.486753404945396E-03    1.473701065157763E-08    0.000000000000000E+00
    7.487552554948815E-03   -3.832027091959700E-08    0.000000000000000E+00
    7.484772109462056E-03    1.202940819542761E-07    0.000000000000000E+00
    7.493696182184781E-03   -3.710871195316687E-07    0.000000000000000E+00
    7.465173375539094E-03    1.242457213983250E-06    0.000000000000000E+00
    7.555954179682850E-03   -3.547515665560880E-06    0.000000000000000E+00
    7.264951634648459E-03    1.317100536809147E-05    0.000000000000000E+00
    8.188958368357174E-03   -2.643824043295150E-05    0.000000000000000E+00
    5.198030944671393E-03    1.448422520761740E-04    0.000000000000000E+00
    1.505531941011713E-02    2.172831902801891E-04    0.000000000000000E+00
    1.661735396346911E-02   -1.847051087549354E-04    0.000000000000000E+00
    5.908042560963797E-03   -1.254473253217892E-04    0.000000000000000E+00
    9.062189429132349E-03    1.651592028027338E-05    0.000000000000000E+00
    8.074173297343924E-03   -1.113427078824311E-05    0.000000000000000E+00
    8.381126220873463E-03    2.633372517201520E-06    0.000000000000000E+00
    8.285631447966669E-03   -1.003069869244081E-06    0.000000000000000E+00
    8.315321129339510E-03    2.828687036917363E-07    0.000000000000000E+00
    8.306092336897700E-03   -9.456981353181410E-08    0.000000000000000E+00
    8.308932625026055E-03    2.890422437613029E-08    0.000000000000000E+00
    8.308133202414332E-03   -1.237663338239910E-08    0.000000000000000E+00
    8.308103866795336E-03    1.257811800832506E-08    0.000000000000000E+00
    8.308989493335368E-03   -3.263502550496518E-08    0.000000000000000E+00
    8.305910607083956E-03    1.035931899651725E-07    0.000000000000000E+00
    8.315799624031926E-03   -3.129072888936391E-07    0.000000000000000E+00
    8.284244823413193E-03    1.078410851230747E-06    0.000000000000000E+00
    8.384871732256077E-03   -2.902244097769888E-06    0.000000000000000E+00
    8.064103057625978E-03    1.154554814476323E-05    0.000000000000000E+00
    9.087527114856183E-03   -1.911433277036244E-05    0.000000000000000E+00
    5.841293940083750E-03    1.222372770357297E-04    0.000000000000000E+00
    1.661151825050996E-02    1.849899756031076E-04    0.000000000000000E+00
    1.705094681649910E-02   -1.180853049257932E-04    0.000000000000000E+00
    6.122667475593570E-03   -7.971383525868080E-05    0.000000000000000E+00
    9.329438977270427E-03    8.979322036260466E-06    0.000000000000000E+00
    8.309126876389105E-03   -7.323492676023121E-06    0.000000000000000E+00
    8.624510981322334E-03    1.620071255305633E-06    0.000000000000000E+00
    8.525832176178463E-03   -6.544220091435856E-07    0.000000000000000E+00
    8.556439789783925E-03    1.790596518605418E-07    0.000000000000000E+00
    8.546907447686660E-03   -6.130348983811036E-08    0.000000000000000E+00
    8.549838331234771E-03    1.839436494296304E-08    0.000000000000000E+00
    8.549012939771124E-03   -8.053088153797550E-09    0.000000000000000E+00
    8.548982238914480E-03    8.039867291867872E-09    0.000000000000000E+00
    8.549898032488151E-03   -2.099060562672338E-08    0.000000000000000E+00
    8.546716551475177E-03    6.707153743761896E-08    0.000000000000000E+00
    8.556943048848005E-03   -1.991387355841429E-07    0.000000000000000E+00
    8.524365688762432E-03    7.029119856316631E-07    0.000000000000000E+00
    8.628452567288733E-03   -1.801706097675275E-06    0.000000000000000E+00
    8.298336846269865E-03    7.569720960246090E-06    0.000000000000000E+00
    9.355801442194174E-03   -1.071290010767054E-05    0.000000000000000E+00
    6.049866794384234E-03    7.756485040139891E-05    0.000000000000000E+00
    1.703990737497386E-02    1.182504123436456E-04    0.000000000000000E+00
    1.715963910232627E-02   -3.989998819380041E-05    0.000000000000000E+00
    6.187683378485974E-03   -2.683985515133868E-05    0.000000000000000E+00
    9.404320579625577E-03    2.737454465778883E-06    0.000000000000000E+00
    8.372899705446872E-03   -2.517580046858313E-06    0.000000000000000E+00
    8.690845132612779E-03    5.349131071677707E-07    0.000000000000000E+00
    8.591036389353591E-03   -2.241960107956703E-07    0.000000000000000E+00
    8.621950825057076E-03    6.006990612645352E-08    0.000000000000000E+00
    8.612311619298926E-03   -2.102846445376574E-08    0.000000000000000E+00
    8.615273600749176E-03    6.084931187340394E-09    0.000000000000000E+00
    8.614439131143068E-03   -2.872858045967946E-09    0.000000000000000E+00
    8.614407947895477E-03    2.599251376178173E-09    0.000000000000000E+00
    8.615334326524914E-03   -7.238710977512481E-09    0.000000000000000E+00
    8.612117436981303E-03    2.274864897220466E-08    0.000000000000000E+00
    8.622462782614077E-03   -6.722889693655225E-08    0.000000000000000E+00
    8.589540409480862E-03    2.404134186220306E-07    0.000000000000000E+00
    8.694850496095053E-03   -5.982570465259343E-07    0.000000000000000E+00
    8.361837252114866E-03    2.597144369266366E-06    0.000000000000000E+00
    9.430912803623881E-03   -3.334836642675882E-06    0.000000000000000E+00
    6.112979110793331E-03    2.609798484909745E-05    0.000000000000000E+00
    1.714680730097706E-02    3.995208828421693E-05    0.000000000000000E+00
    1.715963907662033E-02    3.989988062562132E-05    0.000000000000000E+00
    6.187683369097624E-03    2.683972802609806E-05    0.000000000000000E+00
    9.404320568678435E-03   -2.737644819779944E-06    0.000000000000000E+00
    8.372899696620431E-03    2.517335935819853E-06    0.000000000000000E+00
    8.690845124612878E-03   -5.351994341626362E-07    0.000000000000000E+00
    8.591036382618393E-03    2.238696545711288E-07    0.000000000000000E+00
    8.621950819390208E-03   -6.042771072650654E-08    0.000000000000000E+00
    8.612311615199594E-03    2.064501172702932E-08    0.000000000000000E+00
    8.615273597938762E-03   -6.485212748110746E-09    0.000000000000000E+00
    8.614439130107669E-03    2.463780409098693E-09    0.000000000000000E+00
    8.614407948236036E-03   -3.008229273397086E-09    0.000000000000000E+00
    8.615334328653605E-03    6.838743757004725E-09    0.000000000000000E+00
    8.612117440420692E-03   -2.313161256306144E-08    0.000000000000000E+00
    8.622462787650694E-03    6.687171247133711E-08    0.000000000000000E+00
    8.589540415613927E-03   -2.407391971551612E-07    0.000000000000000E+00
    8.694850503528102E-03    5.979710672916382E-07    0.000000000000000E+00
    8.361837260389702E-03   -2.597388696382990E-06    0.000000000000000E+00
    9.430912814078972E-03    3.334645031740597E-06    0.000000000000000E+00
    6.112979119353405E-03   -2.609811371597689E-05    0.000000000000000E+00
    1.714680732572238E-02   -3.995219748886957E-05    0.000000000000000E+00
    1.705094673154394E-02    1.180851968430719E-04    0.000000000000000E+00
    6.122667446120383E-03    7.971370675365804E-05    0.000000000000000E+00
    9.329438943035208E-03   -8.979512392214631E-06    0.000000000000000E+00
    8.309126848794562E-03    7.323248569649813E-06    0.000000000000000E+00
    8.624510956188932E-03   -1.620357403314188E-06    0.000000000000000E+00
    8.525832155065437E-03    6.540960276224843E-07    0.000000000000000E+00
    8.556439771955134E-03   -1.794171206452904E-07    0.000000000000000E+00
    8.546907434811599E-03    6.092048365153496E-08    0.000000000000000E+00
    8.549838322337942E-03   -1.879423324684306E-08    0.000000000000000E+00
    8.549012936471404E-03    7.644458699196630E-09    0.000000000000000E+00
    8.548982239865865E-03   -8.448397823921603E-09    0.000000000000000E+00
    8.549898039080333E-03    2.059104584492744E-08    0.000000000000000E+00
    8.546716562121508E-03   -6.745406203310382E-08    0.000000000000000E+00
    8.556943064550479E-03    1.987818758101472E-07    0.000000000000000E+00
    8.524365707853390E-03   -7.032374012125389E-07    0.000000000000000E+00
    8.628452590530003E-03    1.801420292680008E-06    0.000000000000000E+00
    8.298336872041533E-03   -7.569965280552731E-06    0.000000000000000E+00
    9.355801474828840E-03    1.071270856544310E-05    0.000000000000000E+00
    6.049866821141132E-03   -7.756498055949775E-05    0.000000000000000E+00
    1.703990745676383E-02   -1.182505220319595E-04    0.000000000000000E+00
    1.661735379847256E-02    1.847050018467398E-04    0.000000000000000E+00
    5.908042510309014E-03    1.254471961729185E-04    0.000000000000000E+00
    9.062189372697196E-03   -1.651610776808290E-05    0.000000000000000E+00
    8.074173251368708E-03    1.113403049847930E-05    0.000000000000000E+00
    8.381126178624144E-03   -2.633653868755823E-06    0.000000000000000E+00
    8.285631412505507E-03    1.002749622950935E-06    0.000000000000000E+00
    8.315321098773042E-03   -2.832199761171333E-07    0.000000000000000E+00
    8.306092314835263E-03    9.419356546459080E-08    0.000000000000000E+00
    8.308932608965758E-03   -2.929710560064497E-08    0.000000000000000E+00
    8.308133196006401E-03    1.197517778599563E-08    0.000000000000000E+00
    8.308103866865445E-03   -1.297947764421250E-08    0.000000000000000E+00
    8.308989503180625E-03    3.224243935945530E-08    0.000000000000000E+00
    8.305910623162957E-03   -1.039689752403937E-07    0.000000000000000E+00
    8.315799648929572E-03    3.125565990860242E-07    0.000000000000000E+00
    8.284244853583457E-03   -1.078730556773267E-06    0.000000000000000E+00
    8.384871769641691E-03    2.901963076839272E-06    0.000000000000000E+00
    8.064103099167989E-03   -1.154578862919145E-05    0.000000000000000E+00
    9.087527167411017E-03    1.911414423931894E-05    0.000000000000000E+00
    5.841293985224916E-03   -1.222374076311353E-04    0.000000000000000E+00
    1.661151840855299E-02   -1.849900839783150E-04    0.000000000000000E+00
    1.504933434181037E-02    2.169204618733888E-04    0.000000000000000E+00
    5.249164146258001E-03    1.482259291763287E-04    0.000000000000000E+00
    8.167200258445207E-03   -2.368296166724261E-05    0.000000000000000E+00
    7.273313717888430E-03    1.266212054090940E-05    0.000000000000000E+00
    7.552750368005090E-03   -3.261286104311306E-06    0.000000000000000E+00
    7.466359460992424E-03    1.156601954150112E-06    0.000000000000000E+00
    7.493282944142591E-03   -3.385075367176083E-07    0.000000000000000E+00
    7.484929801865143E-03    1.097554362042792E-07    0.000000000000000E+00
    7.487503039354413E-03   -3.460241077401979E-08    0.000000000000000E+00
    7.486779071925354E-03    1.405601141717492E-08    0.000000000000000E+00
    7.486753399980809E-03   -1.511486310581509E-08    0.000000000000000E+00
    7.487552556734000E-03    3.795062856756710E-08    0.000000000000000E+00
    7.484772112655430E-03   -1.206478348682006E-07    0.000000000000000E+00
    7.493696191219133E-03    3.707568225866248E-07    0.000000000000000E+00
    7.465173386358643E-03   -1.242758159164219E-06    0.000000000000000E+00
    7.555954193588103E-03    3.547250605099737E-06    0.000000000000000E+00
    7.264951654370947E-03   -1.317123193830502E-05    0.000000000000000E+00
    8.188958386801009E-03    2.643806117573398E-05    0.000000000000000E+00
    5.198030984304681E-03   -1.448423764415073E-04    0.000000000000000E+00
    1.505531961885645E-02   -2.172832870725024E-04    0.000000000000000E+00
    9.544119448447814E-03    1.105169891838857E-04    0.000000000000000E+00
    3.202229107856440E-03    7.567035570317552E-05    0.000000000000000E+00
    5.143354026990785E-03   -1.345178912238458E-05    0.000000000000000E+00
    4.565790513230410E-03    6.345051178493870E-06    0.000000000000000E+00
    4.747327424279144E-03   -1.716917341340231E-06    0.000000000000000E+00
    4.691452506459953E-03    5.851898857252040E-07    0.000000000000000E+00
    4.708884502523238E-03   -1.747556584284624E-07    0.000000000000000E+00
    4.703480065491874E-03    5.585603176115131E-08    0.000000000000000E+00
    4.705145294068345E-03   -1.775589050065775E-08    0.000000000000000E+00
    4.704676516211651E-03    7.168425220992632E-09    0.000000000000000E+00
    4.704661377281446E-03   -7.690628650684604E-09    0.000000000000000E+00
    4.705174324541300E-03    1.937455895874670E-08    0.000000000000000E+00
    4.703389141409653E-03   -6.115504074427989E-08    0.000000000000000E+00
    4.709119672364092E-03    1.901877058575446E-07    0.000000000000000E+00
    4.690793313940216E-03   -6.271638489201057E-07    0.000000000000000E+00
    4.749074033109202E-03    1.850357942872557E-06    0.000000000000000E+00
    4.561508066997318E-03   -6.603920673962760E-06    0.000000000000000E+00
    5.154689261423095E-03    1.471757777597288E-05    0.000000000000000E+00
    3.183435931004939E-03   -7.414751040749991E-05    0.000000000000000E+00
    9.567555917449049E-03   -1.107312473452706E-04    0.000000000000000E+00
SCALARS temperature double 1
LOOKUP_TABLE default
    3.000000000000000E+02
    3.000000000000001E+02
    3.000000000000001E+02
    3.000000000000001E+02
    3.000000000000001E+02
    3.000000000000000E+02
    2.999999999999999E+02
    3.000000000000000E+02
    3.000000000000000E+02
    3.000000000000001E+02
    3.000000000000001E+02
    3.000000000000001E+02
    3.000000000000000E+02
    2.999999999999999E+02
    2.999999999999999E+02
    3.000000000000000E+02
    3.000000000000000E+02
    3.000000000000000E+02
    3.000000000000000E+02
    3.000000000000001E+02
    3.000000000000000E+02
    3.000000000000000E+02
    3.000000000000000E+02
    3.000000000000000E+02
    3.000000000000001E+02
    3.000000000000001E+02
    3.000000000000001E+02
    3.000000000000001E+02
    3.000000000000001E+02
    3.000000000000001E+02
    3.000000000000001E+02
    3.000000000000002E+02
    3.000000000000002E+02
    3.000000000000001E+02
    3.000000000000001E+02
    2.999999999999999E+02
    2.999999999999999E+02
    2.999999999999999E+02
    2.999999999999999E+02
    3.000000000000000E+02
    3.000000000000001E+02
    3.000000000000001E+02
    3.000000000000001E+02
    3.000000000000001E+02
    3.000000000000001E+02
    3.000000000000000E+02
    2.999999999999999E+02
    2.999999999999999E+02
    2.999999999999999E+02
    3.000000000000000E+02
    3.000000000000001E+02
    3.000000000000001E+02
    2.999999999999999E+02
    2.999999999999999E+02
    2.999999999999998E+02
    2.999999999999999E+02
    2.999999999999999E+02
    3.000000000000000E+02
    2.999999999999999E+02
    2.999999999999999E+02
    2.999999999999999E+02
    2.999999999999999E+02
    2.999999999999998E+02
    2.999999999999999E+02
    2.999999999999999E+02
    2.999999999999999E+02
    2.999999999999999E+02
    2.999999999999999E+02
    3.000000000000000E+02
    3.000000000000001E+02
    3.000000000000001E+02
    3.000000000000000E+02
    2.999999999999999E+02
    2.999999999999999E+02
    3.000000000000000E+02
    3.000000000000001E+02
    3.000000000000000E+02
    3.000000000000002E+02
    3.000000000000001E+02
    3.000000000000000E+02
    3.000000000000001E+02
    3.000000000000001E+02
    3.000000000000001E+02
    3.000000000000001E+02
    3.000000000000002E+02
    3.000000000000002E+02
    3.000000000000002E+02
    3.000000000000002E+02
    3.000000000000002E+02
    3.000000000000002E+02
    3.000000000000001E+02
    3.000000000000001E+02
    3.000000000000000E+02
    2.999999999999999E+02
    2.999999999999998E+02
    2.999999999999997E+02
    2.999999999999999E+02
    3.000000000000000E+02
    3.000000000000000E+02
    2.999999999999999E+02
    3.000000000000000E+02
    3.000000000000000E+02
    2.999999999999999E+02
    3.000000000000000E+02
    3.000000000000000E+02
    3.000000000000000E+02
    3.000000000000000E+02
    2.999999999999999E+02
    3.000000000000000E+02
    2.999999999999999E+02
    2.999999999999999E+02
    2.999999999999999E+02
    2.999999999999999E+02
    2.999999999999999E+02
    3.000000000000000E+02
    3.000000000000000E+02
    2.999999999999999E+02
    3.000000000000000E+02
    2.999999999999999E+02
    3.000000000000000E+02
    3.000000000000000E+02
    3.000000000000000E+02
    3.000000000000001E+02
    3.000000000000000E+02
    3.000000000000000E+02
    3.000000000000001E+02
    3.000000000000001E+02
    3.000000000000001E+02
    3.000000000000002E+02
    3.000000000000002E+02
    3.000000000000002E+02
    3.000000000000002E+02
    3.000000000000001E+02
    3.000000000000001E+02
    3.000000000000001E+02
    3.000000000000001E+02
    3.000000000000000E+02
    2.999999999999999E+02
    3.000000000000000E+02
    3.000000000000000E+02
    3.000000000000000E+02
    2.999999999999999E+02
    2.999999999999999E+02
    2.999999999999999E+02
    2.999999999999999E+02
    2.999999999999999E+02
    2.999999999999999E+02
    2.999999999999999E+02
    2.999999999999999E+02
    2.999999999999999E+02
    3.000000000000000E+02
    3.000000000000000E+02
    3.000000000000000E+02
    3.000000000000000E+02
    3.000000000000000E+02
    3.000000000000000E+02
    3.000000000000001E+02
    3.000000000000000E+02
    3.000000000000001E+02
    2.999999999999999E+02
    3.000000000000001E+02
    3.000000000000000E+02
    2.999999999999999E+02
    3.000000000000000E+02
    3.000000000000000E+02
    3.000000000000000E+02
    2.999999999999999E+02
    3.000000000000000E+02
    2.999999999999999E+02
    2.999999999999999E+02
    2.999999999999999E+02
    2.999999999999999E+02
    3.000000000000000E+02
    3.000000000000000E+02
    2.999999999999999E+02
    2.999999999999999E+02
    2.999999999999999E+02
    2.999999999999998E+02
    2.999999999999998E+02
    2.999999999999998E+02
    3.000000000000000E+02
    2.999999999999999E+02
    2.999999999999999E+02
    2.999999999999999E+02
    3.000000000000000E+02
    3.000000000000000E+02
    3.000000000000001E+02
    3.000000000000002E+02
    3.000000000000001E+02
    3.000000000000001E+02
    3.000000000000000E+02
    2.999999999999999E+02
    2.999999999999999E+02
    2.999999999999998E+02
    2.999999999999999E+02
    3.000000000000000E+02
    3.000000000000000E+02
    3.000000000000000E+02
    2.999999999999999E+02
    2.999999999999999E+02
SCALARS pressure double 1
LOOKUP_TABLE default
    2.257006743877240E-01
    2.263725405862866E-01
    2.111507718470147E-01
    2.006992083613241E-01
    1.887581945468956E-01
    1.772771307729391E-01
    1.656527901973587E-01
    1.540729505617159E-01
    1.424792276837435E-01
    1.308899526281215E-01
    1.192988918102031E-01
    1.077096867731199E-01
    9.611577628216841E-02
    8.453651346035730E-02
    7.291069617898474E-02
    6.143351542121175E-02
    4.948306695086709E-02
    3.905174403635497E-02
    2.379050284307011E-02
    2.446931182152155E-02
    2.258213544409824E-01
    2.264557049162891E-01
    2.111318344628230E-01
    2.007068146697461E-01
    1.887559828423971E-01
    1.772778523261787E-01
    1.656525699124138E-01
    1.540730202904107E-01
    1.424792057014330E-01
    1.308899618170650E-01
    1.192988826192747E-01
    1.077097109113572E-01
    9.611570174739364E-02
    8.453674898298036E-02
    7.290993437700945E-02
    6.143584224085041E-02
    4.947520140185816E-02
    3.907155135365496E-02
    2.370808911079806E-02
    2.434803527238841E-02
    2.259036229768901E-01
    2.265118417554155E-01
    2.111214601563475E-01
    2.007124003539185E-01
    1.887545149438509E-01
    1.772783763432334E-01
    1.656524165530689E-01
    1.540730703743161E-01
    1.424791901537203E-01
    1.308899683438953E-01
    1.192988760039878E-01
    1.077097279771924E-01
    9.611564800595479E-02
    8.453691378607778E-02
    7.290938068160005E-02
    6.143740052791331E-02
    4.946944154841578E-02
    3.908263390573714E-02
    2.365256187199794E-02
    2.426532701583172E-02
    2.259608485903478E-01
    2.265503859316794E-01
    2.111152624214872E-01
    2.007164372043628E-01
    1.887535210989599E-01
    1.772787538026481E-01
    1.656523093652716E-01
    1.540731062557806E-01
    1.424791792167991E-01
    1.308899730340593E-01
    1.192988713336903E-01
    1.077097400802905E-01
    9.611560959526434E-02
    8.453702926633244E-02
    7.290898243286512E-02
    6.143846000582791E-02
    4.946528956858221E-02
    3.908933031303067E-02
    2.361445201005472E-02
    2.420780687505890E-02
    2.259886605448798E-01
    2.265689643699063E-01
    2.111126257309451E-01
    2.007184647856358E-01
    1.887530489043158E-01
    1.772789432570321E-01
    1.656522570597931E-01
    1.540731242117372E-01
    1.424791738681594E-01
    1.308899754040889E-01
    1.192988690497444E-01
    1.077097460848017E-01
    9.611559045016119E-02
    8.453708578903410E-02
    7.290878279082194E-02
    6.143896537126264E-02
    4.946320783695701E-02
    3.909221324704855E-02
    2.359608917075109E-02
    2.417985293275628E-02
    2.259886605643837E-01
    2.265689643947411E-01
    2.111126257722988E-01
    2.007184648378925E-01
    1.887530489658533E-01
    1.772789433271109E-01
    1.656522571365731E-01
    1.540731242940222E-01
    1.424791739539965E-01
    1.308899754917933E-01
    1.192988691373934E-01
    1.077097461704715E-01
    9.611559053217683E-02
    8.453708586545967E-02
    7.290878286049940E-02
    6.143896543241013E-02
    4.946320788888370E-02
    3.909221328823728E-02
    2.359608919561480E-02
    2.417985295245528E-02
    2.259608486472870E-01
    2.265503860042045E-01
    2.111152625429556E-01
    2.007164373578497E-01
    1.887535212797251E-01
    1.772787540084446E-01
    1.656523095907950E-01
    1.540731064974315E-01
    1.424791794689089E-01
    1.308899732916384E-01
    1.192988715911056E-01
    1.077097403319063E-01
    9.611560983611857E-02
    8.453702949080769E-02
    7.290898263747378E-02
    6.143846018543689E-02
    4.946528972108821E-02
    3.908933043400390E-02
    2.361445208266469E-02
    2.420780693256817E-02
    2.259036230752815E-01
    2.265118418815993E-01
    2.111214603654035E-01
    2.007124006177099E-01
    1.887545152543408E-01
    1.772783766964778E-01
    1.656524169402938E-01
    1.540730707891097E-01
    1.424791905865460E-01
    1.308899687860750E-01
    1.192988764458900E-01
    1.077097284091839E-01
    9.611564841940219E-02
    8.453691417153382E-02
    7.290938103284174E-02
    6.143740083645555E-02
    4.946944181055646E-02
    3.908263411394034E-02
    2.365256199830220E-02
    2.426532711516395E-02
    2.258213545722578E-01
    2.264557050840309E-01
    2.111318347407010E-01
    2.007068150212430E-01
    1.887559832555524E-01
    1.772778527962419E-01
    1.656525704276947E-01
    1.540730208423272E-01
    1.424792062773753E-01
    1.308899624054313E-01
    1.192988832072678E-01
    1.077097114861791E-01
    9.611570229750133E-02
    8.453674949588276E-02
    7.290993484437903E-02
    6.143584265137315E-02
    4.947520175112017E-02
    3.907155163031948E-02
    2.370808927866430E-02
    2.434803540489442E-02
    2.257006746010043E-01
    2.263725408597396E-01
    2.111507722680143E-01
    2.006992088931167E-01
    1.887581951702745E-01
    1.772771314815335E-01
    1.656527909743575E-01
    1.540729513936629E-01
    1.424792285521376E-01
    1.308899535151922E-01
    1.192988926967599E-01
    1.077096876399757E-01
    9.611577711163288E-02
    8.453651423410491E-02
    7.291069688392762E-02
    6.143351604106777E-02
    4.948306747974814E-02
    3.905174445572300E-02
    2.379050311657954E-02
    2.446931203625482E-02
