# vtk DataFile Version 3.0
OpenCFD-EC output
ASCII
DATASET STRUCTURED_GRID
DIMENSIONS    101     2     2
POINTS          404 double
    0.000000000000000E+00    0.000000000000000E+00    0.000000000000000E+00
    1.000000000000000E-04    0.000000000000000E+00    0.000000000000000E+00
    2.000000000000000E-04    0.000000000000000E+00    0.000000000000000E+00
    3.000000000000000E-04    0.000000000000000E+00    0.000000000000000E+00
    4.000000000000000E-04    0.000000000000000E+00    0.000000000000000E+00
    5.000000000000000E-04    0.000000000000000E+00    0.000000000000000E+00
    6.000000000000001E-04    0.000000000000000E+00    0.000000000000000E+00
    7.000000000000000E-04    0.000000000000000E+00    0.000000000000000E+00
    8.000000000000000E-04    0.000000000000000E+00    0.000000000000000E+00
    9.000000000000001E-04    0.000000000000000E+00    0.000000000000000E+00
    1.000000000000000E-03    0.000000000000000E+00    0.000000000000000E+00
    1.100000000000000E-03    0.000000000000000E+00    0.000000000000000E+00
    1.200000000000000E-03    0.000000000000000E+00    0.000000000000000E+00
    1.300000000000000E-03    0.000000000000000E+00    0.000000000000000E+00
    1.400000000000000E-03    0.000000000000000E+00    0.000000000000000E+00
    1.500000000000000E-03    0.000000000000000E+00    0.000000000000000E+00
    1.600000000000000E-03    0.000000000000000E+00    0.000000000000000E+00
    1.700000000000000E-03    0.000000000000000E+00    0.000000000000000E+00
    1.800000000000000E-03    0.000000000000000E+00    0.000000000000000E+00
    1.900000000000000E-03    0.000000000000000E+00    0.000000000000000E+00
    2.000000000000000E-03    0.000000000000000E+00    0.000000000000000E+00
    2.100000000000000E-03    0.000000000000000E+00    0.000000000000000E+00
    2.200000000000000E-03    0.000000000000000E+00    0.000000000000000E+00
    2.300000000000000E-03    0.000000000000000E+00    0.000000000000000E+00
    2.400000000000000E-03    0.000000000000000E+00    0.000000000000000E+00
    2.500000000000000E-03    0.000000000000000E+00    0.000000000000000E+00
    2.600000000000000E-03    0.000000000000000E+00    0.000000000000000E+00
    2.700000000000000E-03    0.000000000000000E+00    0.000000000000000E+00
    2.800000000000000E-03    0.000000000000000E+00    0.000000000000000E+00
    2.900000000000000E-03    0.000000000000000E+00    0.000000000000000E+00
    3.000000000000000E-03    0.000000000000000E+00    0.000000000000000E+00
    3.100000000000000E-03    0.000000000000000E+00    0.000000000000000E+00
    3.200000000000000E-03    0.000000000000000E+00    0.000000000000000E+00
    3.300000000000000E-03    0.000000000000000E+00    0.000000000000000E+00
    3.400000000000000E-03    0.000000000000000E+00    0.000000000000000E+00
    3.500000000000000E-03    0.000000000000000E+00    0.000000000000000E+00
    3.600000000000000E-03    0.000000000000000E+00    0.000000000000000E+00
    3.700000000000000E-03    0.000000000000000E+00    0.000000000000000E+00
    3.800000000000000E-03    0.000000000000000E+00    0.000000000000000E+00
    3.900000000000000E-03    0.000000000000000E+00    0.000000000000000E+00
    4.000000000000000E-03    0.000000000000000E+00    0.000000000000000E+00
    4.100000000000000E-03    0.000000000000000E+00    0.000000000000000E+00
    4.200000000000001E-03    0.000000000000000E+00    0.000000000000000E+00
    4.300000000000000E-03    0.000000000000000E+00    0.000000000000000E+00
    4.400000000000000E-03    0.000000000000000E+00    0.000000000000000E+00
    4.500000000000001E-03    0.000000000000000E+00    0.000000000000000E+00
    4.600000000000000E-03    0.000000000000000E+00    0.000000000000000E+00
    4.700000000000000E-03    0.000000000000000E+00    0.000000000000000E+00
    4.800000000000000E-03    0.000000000000000E+00    0.000000000000000E+00
    4.900000000000000E-03    0.000000000000000E+00    0.000000000000000E+00
    5.000000000000000E-03    0.000000000000000E+00    0.000000000000000E+00
    5.100000000000000E-03    0.000000000000000E+00    0.000000000000000E+00
    5.200000000000001E-03    0.000000000000000E+00    0.000000000000000E+00
    5.300000000000000E-03    0.000000000000000E+00    0.000000000000000E+00
    5.400000000000000E-03    0.000000000000000E+00    0.000000000000000E+00
    5.500000000000001E-03    0.000000000000000E+00    0.000000000000000E+00
    5.600000000000000E-03    0.000000000000000E+00    0.000000000000000E+00
    5.700000000000000E-03    0.000000000000000E+00    0.000000000000000E+00
    5.800000000000000E-03    0.000000000000000E+00    0.000000000000000E+00
    5.900000000000000E-03    0.000000000000000E+00    0.000000000000000E+00
    6.000000000000000E-03    0.000000000000000E+00    0.000000000000000E+00
    6.100000000000000E-03    0.000000000000000E+00    0.000000000000000E+00
    6.200000000000001E-03    0.000000000000000E+00    0.000000000000000E+00
    6.300000000000000E-03    0.000000000000000E+00    0.000000000000000E+00
    6.400000000000000E-03    0.000000000000000E+00    0.000000000000000E+00
    6.500000000000001E-03    0.000000000000000E+00    0.000000000000000E+00
    6.600000000000000E-03    0.000000000000000E+00    0.000000000000000E+00
    6.700000000000000E-03    0.000000000000000E+00    0.000000000000000E+00
    6.800000000000000E-03    0.000000000000000E+00    0.000000000000000E+00
    6.900000000000001E-03    0.000000000000000E+00    0.000000000000000E+00
    7.000000000000000E-03    0.000000000000000E+00    0.000000000000000E+00
    7.100000000000000E-03    0.000000000000000E+00    0.000000000000000E+00
    7.200000000000001E-03    0.000000000000000E+00    0.000000000000000E+00
    7.300000000000000E-03    0.000000000000000E+00    0.000000000000000E+00
    7.400000000000000E-03    0.000000000000000E+00    0.000000000000000E+00
    7.500000000000001E-03    0.000000000000000E+00    0.000000000000000E+00
    7.600000000000000E-03    0.000000000000000E+00    0.000000000000000E+00
    7.700000000000000E-03    0.000000000000000E+00    0.000000000000000E+00
    7.800000000000001E-03    0.000000000000000E+00    0.000000000000000E+00
    7.900000000000001E-03    0.000000000000000E+00    0.000000000000000E+00
    8.000000000000000E-03    0.000000000000000E+00    0.000000000000000E+00
    8.100000000000000E-03    0.000000000000000E+00    0.000000000000000E+00
    8.200000000000001E-03    0.000000000000000E+00    0.000000000000000E+00
    8.300000000000000E-03    0.000000000000000E+00    0.000000000000000E+00
    8.400000000000001E-03    0.000000000000000E+00    0.000000000000000E+00
    8.500000000000001E-03    0.000000000000000E+00    0.000000000000000E+00
    8.600000000000000E-03    0.000000000000000E+00    0.000000000000000E+00
    8.700000000000001E-03    0.000000000000000E+00    0.000000000000000E+00
    8.800000000000001E-03    0.000000000000000E+00    0.000000000000000E+00
    8.900000000000000E-03    0.000000000000000E+00    0.000000000000000E+00
    9.000000000000001E-03    0.000000000000000E+00    0.000000000000000E+00
    9.100000000000000E-03    0.000000000000000E+00    0.000000000000000E+00
    9.200000000000000E-03    0.000000000000000E+00    0.000000000000000E+00
    9.300000000000001E-03    0.000000000000000E+00    0.000000000000000E+00
    9.400000000000000E-03    0.000000000000000E+00    0.000000000000000E+00
    9.500000000000000E-03    0.000000000000000E+00    0.000000000000000E+00
    9.600000000000001E-03    0.000000000000000E+00    0.000000000000000E+00
    9.700000000000000E-03    0.000000000000000E+00    0.000000000000000E+00
    9.800000000000000E-03    0.000000000000000E+00    0.000000000000000E+00
    9.900000000000001E-03    0.000000000000000E+00    0.000000000000000E+00
    1.000000000000000E-02    0.000000000000000E+00    0.000000000000000E+00
    0.000000000000000E+00    1.000000000000000E-01    0.000000000000000E+00
    1.000000000000000E-04    1.000000000000000E-01    0.000000000000000E+00
    2.000000000000000E-04    1.000000000000000E-01    0.000000000000000E+00
    3.000000000000000E-04    1.000000000000000E-01    0.000000000000000E+00
    4.000000000000000E-04    1.000000000000000E-01    0.000000000000000E+00
    5.000000000000000E-04    1.000000000000000E-01    0.000000000000000E+00
    6.000000000000001E-04    1.000000000000000E-01    0.000000000000000E+00
    7.000000000000000E-04    1.000000000000000E-01    0.000000000000000E+00
    8.000000000000000E-04    1.000000000000000E-01    0.000000000000000E+00
    9.000000000000001E-04    1.000000000000000E-01    0.000000000000000E+00
    1.000000000000000E-03    1.000000000000000E-01    0.000000000000000E+00
    1.100000000000000E-03    1.000000000000000E-01    0.000000000000000E+00
    1.200000000000000E-03    1.000000000000000E-01    0.000000000000000E+00
    1.300000000000000E-03    1.000000000000000E-01    0.000000000000000E+00
    1.400000000000000E-03    1.000000000000000E-01    0.000000000000000E+00
    1.500000000000000E-03    1.000000000000000E-01    0.000000000000000E+00
    1.600000000000000E-03    1.000000000000000E-01    0.000000000000000E+00
    1.700000000000000E-03    1.000000000000000E-01    0.000000000000000E+00
    1.800000000000000E-03    1.000000000000000E-01    0.000000000000000E+00
    1.900000000000000E-03    1.000000000000000E-01    0.000000000000000E+00
    2.000000000000000E-03    1.000000000000000E-01    0.000000000000000E+00
    2.100000000000000E-03    1.000000000000000E-01    0.000000000000000E+00
    2.200000000000000E-03    1.000000000000000E-01    0.000000000000000E+00
    2.300000000000000E-03    1.000000000000000E-01    0.000000000000000E+00
    2.400000000000000E-03    1.000000000000000E-01    0.000000000000000E+00
    2.500000000000000E-03    1.000000000000000E-01    0.000000000000000E+00
    2.600000000000000E-03    1.000000000000000E-01    0.000000000000000E+00
    2.700000000000000E-03    1.000000000000000E-01    0.000000000000000E+00
    2.800000000000000E-03    1.000000000000000E-01    0.000000000000000E+00
    2.900000000000000E-03    1.000000000000000E-01    0.000000000000000E+00
    3.000000000000000E-03    1.000000000000000E-01    0.000000000000000E+00
    3.100000000000000E-03    1.000000000000000E-01    0.000000000000000E+00
    3.200000000000000E-03    1.000000000000000E-01    0.000000000000000E+00
    3.300000000000000E-03    1.000000000000000E-01    0.000000000000000E+00
    3.400000000000000E-03    1.000000000000000E-01    0.000000000000000E+00
    3.500000000000000E-03    1.000000000000000E-01    0.000000000000000E+00
    3.600000000000000E-03    1.000000000000000E-01    0.000000000000000E+00
    3.700000000000000E-03    1.000000000000000E-01    0.000000000000000E+00
    3.800000000000000E-03    1.000000000000000E-01    0.000000000000000E+00
    3.900000000000000E-03    1.000000000000000E-01    0.000000000000000E+00
    4.000000000000000E-03    1.000000000000000E-01    0.000000000000000E+00
    4.100000000000000E-03    1.000000000000000E-01    0.000000000000000E+00
    4.200000000000001E-03    1.000000000000000E-01    0.000000000000000E+00
    4.300000000000000E-03    1.000000000000000E-01    0.000000000000000E+00
    4.400000000000000E-03    1.000000000000000E-01    0.000000000000000E+00
    4.500000000000001E-03    1.000000000000000E-01    0.000000000000000E+00
    4.600000000000000E-03    1.000000000000000E-01    0.000000000000000E+00
    4.700000000000000E-03    1.000000000000000E-01    0.000000000000000E+00
    4.800000000000000E-03    1.000000000000000E-01    0.000000000000000E+00
    4.900000000000000E-03    1.000000000000000E-01    0.000000000000000E+00
    5.000000000000000E-03    1.000000000000000E-01    0.000000000000000E+00
    5.100000000000000E-03    1.000000000000000E-01    0.000000000000000E+00
    5.200000000000001E-03    1.000000000000000E-01    0.000000000000000E+00
    5.300000000000000E-03    1.000000000000000E-01    0.000000000000000E+00
    5.400000000000000E-03    1.000000000000000E-01    0.000000000000000E+00
    5.500000000000001E-03    1.000000000000000E-01    0.000000000000000E+00
    5.600000000000000E-03    1.000000000000000E-01    0.000000000000000E+00
    5.700000000000000E-03    1.000000000000000E-01    0.000000000000000E+00
    5.800000000000000E-03    1.000000000000000E-01    0.000000000000000E+00
    5.900000000000000E-03    1.000000000000000E-01    0.000000000000000E+00
    6.000000000000000E-03    1.000000000000000E-01    0.000000000000000E+00
    6.100000000000000E-03    1.000000000000000E-01    0.000000000000000E+00
    6.200000000000001E-03    1.000000000000000E-01    0.000000000000000E+00
    6.300000000000000E-03    1.000000000000000E-01    0.000000000000000E+00
    6.400000000000000E-03    1.000000000000000E-01    0.000000000000000E+00
    6.500000000000001E-03    1.000000000000000E-01    0.000000000000000E+00
    6.600000000000000E-03    1.000000000000000E-01    0.000000000000000E+00
    6.700000000000000E-03    1.000000000000000E-01    0.000000000000000E+00
    6.800000000000000E-03    1.000000000000000E-01    0.000000000000000E+00
    6.900000000000001E-03    1.000000000000000E-01    0.000000000000000E+00
    7.000000000000000E-03    1.000000000000000E-01    0.000000000000000E+00
    7.100000000000000E-03    1.000000000000000E-01    0.000000000000000E+00
    7.200000000000001E-03    1.000000000000000E-01    0.000000000000000E+00
    7.300000000000000E-03    1.000000000000000E-01    0.000000000000000E+00
    7.400000000000000E-03    1.000000000000000E-01    0.000000000000000E+00
    7.500000000000001E-03    1.000000000000000E-01    0.000000000000000E+00
    7.600000000000000E-03    1.000000000000000E-01    0.000000000000000E+00
    7.700000000000000E-03    1.000000000000000E-01    0.000000000000000E+00
    7.800000000000001E-03    1.000000000000000E-01    0.000000000000000E+00
    7.900000000000001E-03    1.000000000000000E-01    0.000000000000000E+00
    8.000000000000000E-03    1.000000000000000E-01    0.000000000000000E+00
    8.100000000000000E-03    1.000000000000000E-01    0.000000000000000E+00
    8.200000000000001E-03    1.000000000000000E-01    0.000000000000000E+00
    8.300000000000000E-03    1.000000000000000E-01    0.000000000000000E+00
    8.400000000000001E-03    1.000000000000000E-01    0.000000000000000E+00
    8.500000000000001E-03    1.000000000000000E-01    0.000000000000000E+00
    8.600000000000000E-03    1.000000000000000E-01    0.000000000000000E+00
    8.700000000000001E-03    1.000000000000000E-01    0.000000000000000E+00
    8.800000000000001E-03    1.000000000000000E-01    0.000000000000000E+00
    8.900000000000000E-03    1.000000000000000E-01    0.000000000000000E+00
    9.000000000000001E-03    1.000000000000000E-01    0.000000000000000E+00
    9.100000000000000E-03    1.000000000000000E-01    0.000000000000000E+00
    9.200000000000000E-03    1.000000000000000E-01    0.000000000000000E+00
    9.300000000000001E-03    1.000000000000000E-01    0.000000000000000E+00
    9.400000000000000E-03    1.000000000000000E-01    0.000000000000000E+00
    9.500000000000000E-03    1.000000000000000E-01    0.000000000000000E+00
    9.600000000000001E-03    1.000000000000000E-01    0.000000000000000E+00
    9.700000000000000E-03    1.000000000000000E-01    0.000000000000000E+00
    9.800000000000000E-03    1.000000000000000E-01    0.000000000000000E+00
    9.900000000000001E-03    1.000000000000000E-01    0.000000000000000E+00
    1.000000000000000E-02    1.000000000000000E-01    0.000000000000000E+00
    0.000000000000000E+00    0.000000000000000E+00    1.000000000000000E-01
    1.000000000000000E-04    0.000000000000000E+00    1.000000000000000E-01
    2.000000000000000E-04    0.000000000000000E+00    1.000000000000000E-01
    3.000000000000000E-04    0.000000000000000E+00    1.000000000000000E-01
    4.000000000000000E-04    0.000000000000000E+00    1.000000000000000E-01
    5.000000000000000E-04    0.000000000000000E+00    1.000000000000000E-01
    6.000000000000001E-04    0.000000000000000E+00    1.000000000000000E-01
    7.000000000000000E-04    0.000000000000000E+00    1.000000000000000E-01
    8.000000000000000E-04    0.000000000000000E+00    1.000000000000000E-01
    9.000000000000001E-04    0.000000000000000E+00    1.000000000000000E-01
    1.000000000000000E-03    0.000000000000000E+00    1.000000000000000E-01
    1.100000000000000E-03    0.000000000000000E+00    1.000000000000000E-01
    1.200000000000000E-03    0.000000000000000E+00    1.000000000000000E-01
    1.300000000000000E-03    0.000000000000000E+00    1.000000000000000E-01
    1.400000000000000E-03    0.000000000000000E+00    1.000000000000000E-01
    1.500000000000000E-03    0.000000000000000E+00    1.000000000000000E-01
    1.600000000000000E-03    0.000000000000000E+00    1.000000000000000E-01
    1.700000000000000E-03    0.000000000000000E+00    1.000000000000000E-01
    1.800000000000000E-03    0.000000000000000E+00    1.000000000000000E-01
    1.900000000000000E-03    0.000000000000000E+00    1.000000000000000E-01
    2.000000000000000E-03    0.000000000000000E+00    1.000000000000000E-01
    2.100000000000000E-03    0.000000000000000E+00    1.000000000000000E-01
    2.200000000000000E-03    0.000000000000000E+00    1.000000000000000E-01
    2.300000000000000E-03    0.000000000000000E+00    1.000000000000000E-01
    2.400000000000000E-03    0.000000000000000E+00    1.000000000000000E-01
    2.500000000000000E-03    0.000000000000000E+00    1.000000000000000E-01
    2.600000000000000E-03    0.000000000000000E+00    1.000000000000000E-01
    2.700000000000000E-03    0.000000000000000E+00    1.000000000000000E-01
    2.800000000000000E-03    0.000000000000000E+00    1.000000000000000E-01
    2.900000000000000E-03    0.000000000000000E+00    1.000000000000000E-01
    3.000000000000000E-03    0.000000000000000E+00    1.000000000000000E-01
    3.100000000000000E-03    0.000000000000000E+00    1.000000000000000E-01
    3.200000000000000E-03    0.000000000000000E+00    1.000000000000000E-01
    3.300000000000000E-03    0.000000000000000E+00    1.000000000000000E-01
    3.400000000000000E-03    0.000000000000000E+00    1.000000000000000E-01
    3.500000000000000E-03    0.000000000000000E+00    1.000000000000000E-01
    3.600000000000000E-03    0.000000000000000E+00    1.000000000000000E-01
    3.700000000000000E-03    0.000000000000000E+00    1.000000000000000E-01
    3.800000000000000E-03    0.000000000000000E+00    1.000000000000000E-01
    3.900000000000000E-03    0.000000000000000E+00    1.000000000000000E-01
    4.000000000000000E-03    0.000000000000000E+00    1.000000000000000E-01
    4.100000000000000E-03    0.000000000000000E+00    1.000000000000000E-01
    4.200000000000001E-03    0.000000000000000E+00    1.000000000000000E-01
    4.300000000000000E-03    0.000000000000000E+00    1.000000000000000E-01
    4.400000000000000E-03    0.000000000000000E+00    1.000000000000000E-01
    4.500000000000001E-03    0.000000000000000E+00    1.000000000000000E-01
    4.600000000000000E-03    0.000000000000000E+00    1.000000000000000E-01
    4.700000000000000E-03    0.000000000000000E+00    1.000000000000000E-01
    4.800000000000000E-03    0.000000000000000E+00    1.000000000000000E-01
    4.900000000000000E-03    0.000000000000000E+00    1.000000000000000E-01
    5.000000000000000E-03    0.000000000000000E+00    1.000000000000000E-01
    5.100000000000000E-03    0.000000000000000E+00    1.000000000000000E-01
    5.200000000000001E-03    0.000000000000000E+00    1.000000000000000E-01
    5.300000000000000E-03    0.000000000000000E+00    1.000000000000000E-01
    5.400000000000000E-03    0.000000000000000E+00    1.000000000000000E-01
    5.500000000000001E-03    0.000000000000000E+00    1.000000000000000E-01
    5.600000000000000E-03    0.000000000000000E+00    1.000000000000000E-01
    5.700000000000000E-03    0.000000000000000E+00    1.000000000000000E-01
    5.800000000000000E-03    0.000000000000000E+00    1.000000000000000E-01
    5.900000000000000E-03    0.000000000000000E+00    1.000000000000000E-01
    6.000000000000000E-03    0.000000000000000E+00    1.000000000000000E-01
    6.100000000000000E-03    0.000000000000000E+00    1.000000000000000E-01
    6.200000000000001E-03    0.000000000000000E+00    1.000000000000000E-01
    6.300000000000000E-03    0.000000000000000E+00    1.000000000000000E-01
    6.400000000000000E-03    0.000000000000000E+00    1.000000000000000E-01
    6.500000000000001E-03    0.000000000000000E+00    1.000000000000000E-01
    6.600000000000000E-03    0.000000000000000E+00    1.000000000000000E-01
    6.700000000000000E-03    0.000000000000000E+00    1.000000000000000E-01
    6.800000000000000E-03    0.000000000000000E+00    1.000000000000000E-01
    6.900000000000001E-03    0.000000000000000E+00    1.000000000000000E-01
    7.000000000000000E-03    0.000000000000000E+00    1.000000000000000E-01
    7.100000000000000E-03    0.000000000000000E+00    1.000000000000000E-01
    7.200000000000001E-03    0.000000000000000E+00    1.000000000000000E-01
    7.300000000000000E-03    0.000000000000000E+00    1.000000000000000E-01
    7.400000000000000E-03    0.000000000000000E+00    1.000000000000000E-01
    7.500000000000001E-03    0.000000000000000E+00    1.000000000000000E-01
    7.600000000000000E-03    0.000000000000000E+00    1.000000000000000E-01
    7.700000000000000E-03    0.000000000000000E+00    1.000000000000000E-01
    7.800000000000001E-03    0.000000000000000E+00    1.000000000000000E-01
    7.900000000000001E-03    0.000000000000000E+00    1.000000000000000E-01
    8.000000000000000E-03    0.000000000000000E+00    1.000000000000000E-01
    8.100000000000000E-03    0.000000000000000E+00    1.000000000000000E-01
    8.200000000000001E-03    0.000000000000000E+00    1.000000000000000E-01
    8.300000000000000E-03    0.000000000000000E+00    1.000000000000000E-01
    8.400000000000001E-03    0.000000000000000E+00    1.000000000000000E-01
    8.500000000000001E-03    0.000000000000000E+00    1.000000000000000E-01
    8.600000000000000E-03    0.000000000000000E+00    1.000000000000000E-01
    8.700000000000001E-03    0.000000000000000E+00    1.000000000000000E-01
    8.800000000000001E-03    0.000000000000000E+00    1.000000000000000E-01
    8.900000000000000E-03    0.000000000000000E+00    1.000000000000000E-01
    9.000000000000001E-03    0.000000000000000E+00    1.000000000000000E-01
    9.100000000000000E-03    0.000000000000000E+00    1.000000000000000E-01
    9.200000000000000E-03    0.000000000000000E+00    1.000000000000000E-01
    9.300000000000001E-03    0.000000000000000E+00    1.000000000000000E-01
    9.400000000000000E-03    0.000000000000000E+00    1.000000000000000E-01
    9.500000000000000E-03    0.000000000000000E+00    1.000000000000000E-01
    9.600000000000001E-03    0.000000000000000E+00    1.000000000000000E-01
    9.700000000000000E-03    0.000000000000000E+00    1.000000000000000E-01
    9.800000000000000E-03    0.000000000000000E+00    1.000000000000000E-01
    9.900000000000001E-03    0.000000000000000E+00    1.000000000000000E-01
    1.000000000000000E-02    0.000000000000000E+00    1.000000000000000E-01
    0.000000000000000E+00    1.000000000000000E-01    1.000000000000000E-01
    1.000000000000000E-04    1.000000000000000E-01    1.000000000000000E-01
    2.000000000000000E-04    1.000000000000000E-01    1.000000000000000E-01
    3.000000000000000E-04    1.000000000000000E-01    1.000000000000000E-01
    4.000000000000000E-04    1.000000000000000E-01    1.000000000000000E-01
    5.000000000000000E-04    1.000000000000000E-01    1.000000000000000E-01
    6.000000000000001E-04    1.000000000000000E-01    1.000000000000000E-01
    7.000000000000000E-04    1.000000000000000E-01    1.000000000000000E-01
    8.000000000000000E-04    1.000000000000000E-01    1.000000000000000E-01
    9.000000000000001E-04    1.000000000000000E-01    1.000000000000000E-01
    1.000000000000000E-03    1.000000000000000E-01    1.000000000000000E-01
    1.100000000000000E-03    1.000000000000000E-01    1.000000000000000E-01
    1.200000000000000E-03    1.000000000000000E-01    1.000000000000000E-01
    1.300000000000000E-03    1.000000000000000E-01    1.000000000000000E-01
    1.400000000000000E-03    1.000000000000000E-01    1.000000000000000E-01
    1.500000000000000E-03    1.000000000000000E-01    1.000000000000000E-01
    1.600000000000000E-03    1.000000000000000E-01    1.000000000000000E-01
    1.700000000000000E-03    1.000000000000000E-01    1.000000000000000E-01
    1.800000000000000E-03    1.000000000000000E-01    1.000000000000000E-01
    1.900000000000000E-03    1.000000000000000E-01    1.000000000000000E-01
    2.000000000000000E-03    1.000000000000000E-01    1.000000000000000E-01
    2.100000000000000E-03    1.000000000000000E-01    1.000000000000000E-01
    2.200000000000000E-03    1.000000000000000E-01    1.000000000000000E-01
    2.300000000000000E-03    1.000000000000000E-01    1.000000000000000E-01
    2.400000000000000E-03    1.000000000000000E-01    1.000000000000000E-01
    2.500000000000000E-03    1.000000000000000E-01    1.000000000000000E-01
    2.600000000000000E-03    1.000000000000000E-01    1.000000000000000E-01
    2.700000000000000E-03    1.000000000000000E-01    1.000000000000000E-01
    2.800000000000000E-03    1.000000000000000E-01    1.000000000000000E-01
    2.900000000000000E-03    1.000000000000000E-01    1.000000000000000E-01
    3.000000000000000E-03    1.000000000000000E-01    1.000000000000000E-01
    3.100000000000000E-03    1.000000000000000E-01    1.000000000000000E-01
    3.200000000000000E-03    1.000000000000000E-01    1.000000000000000E-01
    3.300000000000000E-03    1.000000000000000E-01    1.000000000000000E-01
    3.400000000000000E-03    1.000000000000000E-01    1.000000000000000E-01
    3.500000000000000E-03    1.000000000000000E-01    1.000000000000000E-01
    3.600000000000000E-03    1.000000000000000E-01    1.000000000000000E-01
    3.700000000000000E-03    1.000000000000000E-01    1.000000000000000E-01
    3.800000000000000E-03    1.000000000000000E-01    1.000000000000000E-01
    3.900000000000000E-03    1.000000000000000E-01    1.000000000000000E-01
    4.000000000000000E-03    1.000000000000000E-01    1.000000000000000E-01
    4.100000000000000E-03    1.000000000000000E-01    1.000000000000000E-01
    4.200000000000001E-03    1.000000000000000E-01    1.000000000000000E-01
    4.300000000000000E-03    1.000000000000000E-01    1.000000000000000E-01
    4.400000000000000E-03    1.000000000000000E-01    1.000000000000000E-01
    4.500000000000001E-03    1.000000000000000E-01    1.000000000000000E-01
    4.600000000000000E-03    1.000000000000000E-01    1.000000000000000E-01
    4.700000000000000E-03    1.000000000000000E-01    1.000000000000000E-01
    4.800000000000000E-03    1.000000000000000E-01    1.000000000000000E-01
    4.900000000000000E-03    1.000000000000000E-01    1.000000000000000E-01
    5.000000000000000E-03    1.000000000000000E-01    1.000000000000000E-01
    5.100000000000000E-03    1.000000000000000E-01    1.000000000000000E-01
    5.200000000000001E-03    1.000000000000000E-01    1.000000000000000E-01
    5.300000000000000E-03    1.000000000000000E-01    1.000000000000000E-01
    5.400000000000000E-03    1.000000000000000E-01    1.000000000000000E-01
    5.500000000000001E-03    1.000000000000000E-01    1.000000000000000E-01
    5.600000000000000E-03    1.000000000000000E-01    1.000000000000000E-01
    5.700000000000000E-03    1.000000000000000E-01    1.000000000000000E-01
    5.800000000000000E-03    1.000000000000000E-01    1.000000000000000E-01
    5.900000000000000E-03    1.000000000000000E-01    1.000000000000000E-01
    6.000000000000000E-03    1.000000000000000E-01    1.000000000000000E-01
    6.100000000000000E-03    1.000000000000000E-01    1.000000000000000E-01
    6.200000000000001E-03    1.000000000000000E-01    1.000000000000000E-01
    6.300000000000000E-03    1.000000000000000E-01    1.000000000000000E-01
    6.400000000000000E-03    1.000000000000000E-01    1.000000000000000E-01
    6.500000000000001E-03    1.000000000000000E-01    1.000000000000000E-01
    6.600000000000000E-03    1.000000000000000E-01    1.000000000000000E-01
    6.700000000000000E-03    1.000000000000000E-01    1.000000000000000E-01
    6.800000000000000E-03    1.000000000000000E-01    1.000000000000000E-01
    6.900000000000001E-03    1.000000000000000E-01    1.000000000000000E-01
    7.000000000000000E-03    1.000000000000000E-01    1.000000000000000E-01
    7.100000000000000E-03    1.000000000000000E-01    1.000000000000000E-01
    7.200000000000001E-03    1.000000000000000E-01    1.000000000000000E-01
    7.300000000000000E-03    1.000000000000000E-01    1.000000000000000E-01
    7.400000000000000E-03    1.000000000000000E-01    1.000000000000000E-01
    7.500000000000001E-03    1.000000000000000E-01    1.000000000000000E-01
    7.600000000000000E-03    1.000000000000000E-01    1.000000000000000E-01
    7.700000000000000E-03    1.000000000000000E-01    1.000000000000000E-01
    7.800000000000001E-03    1.000000000000000E-01    1.000000000000000E-01
    7.900000000000001E-03    1.000000000000000E-01    1.000000000000000E-01
    8.000000000000000E-03    1.000000000000000E-01    1.000000000000000E-01
    8.100000000000000E-03    1.000000000000000E-01    1.000000000000000E-01
    8.200000000000001E-03    1.000000000000000E-01    1.000000000000000E-01
    8.300000000000000E-03    1.000000000000000E-01    1.000000000000000E-01
    8.400000000000001E-03    1.000000000000000E-01    1.000000000000000E-01
    8.500000000000001E-03    1.000000000000000E-01    1.000000000000000E-01
    8.600000000000000E-03    1.000000000000000E-01    1.000000000000000E-01
    8.700000000000001E-03    1.000000000000000E-01    1.000000000000000E-01
    8.800000000000001E-03    1.000000000000000E-01    1.000000000000000E-01
    8.900000000000000E-03    1.000000000000000E-01    1.000000000000000E-01
    9.000000000000001E-03    1.000000000000000E-01    1.000000000000000E-01
    9.100000000000000E-03    1.000000000000000E-01    1.000000000000000E-01
    9.200000000000000E-03    1.000000000000000E-01    1.000000000000000E-01
    9.300000000000001E-03    1.000000000000000E-01    1.000000000000000E-01
    9.400000000000000E-03    1.000000000000000E-01    1.000000000000000E-01
    9.500000000000000E-03    1.000000000000000E-01    1.000000000000000E-01
    9.600000000000001E-03    1.000000000000000E-01    1.000000000000000E-01
    9.700000000000000E-03    1.000000000000000E-01    1.000000000000000E-01
    9.800000000000000E-03    1.000000000000000E-01    1.000000000000000E-01
    9.900000000000001E-03    1.000000000000000E-01    1.000000000000000E-01
    1.000000000000000E-02    1.000000000000000E-01    1.000000000000000E-01
CELL_DATA          100
SCALARS density double 1
LOOKUP_TABLE default
    1.000000000000000E+00
    1.000000000000000E+00
    1.000000000000000E+00
    1.000000000000000E+00
    1.000000000000000E+00
    1.000000000000000E+00
    1.000000000000000E+00
    1.000000000000000E+00
    1.000000000000000E+00
    1.000000000000000E+00
    1.000000000000000E+00
    1.000000000000000E+00
    1.000000000000000E+00
    1.000000000000000E+00
    1.000000000000000E+00
    1.000000000000000E+00
    1.000000000000000E+00
    1.000000000000000E+00
    1.000000000000000E+00
    1.000000000000000E+00
    1.000000000000000E+00
    1.000000000000000E+00
    1.000000000000000E+00
    1.000000000000000E+00
    1.000000000000000E+00
    1.000000000000000E+00
    1.000000000000000E+00
    1.000000000000000E+00
    1.000000000000000E+00
    1.000000000000000E+00
    1.000000000000000E+00
    1.000000000000000E+00
    1.000000000000000E+00
    1.000000000000000E+00
    1.000000000000000E+00
    1.000000000000000E+00
    1.000000000000000E+00
    1.000000000000000E+00
    1.000000000000000E+00
    1.000000000000000E+00
    1.000000000000000E+00
    1.000000000000000E+00
    1.000000000000000E+00
    1.000000000000000E+00
    1.000000000000000E+00
    1.000000000000000E+00
    1.000000000000000E+00
    1.000000000000000E+00
    1.000000000000000E+00
    1.000000000000000E+00
    1.000000000000000E+00
    1.000000000000000E+00
    1.000000000000000E+00
    1.000000000000000E+00
    1.000000000000000E+00
    1.000000000000000E+00
    1.000000000000000E+00
    1.000000000000000E+00
    1.000000000000000E+00
    1.000000000000000E+00
    1.000000000000000E+00
    1.000000000000000E+00
    1.000000000000000E+00
    1.000000000000000E+00
    1.000000000000000E+00
    1.000000000000000E+00
    1.000000000000000E+00
    1.000000000000000E+00
    1.000000000000000E+00
    1.000000000000000E+00
    1.000000000000000E+00
    1.000000000000000E+00
    1.000000000000000E+00
    1.000000000000000E+00
    1.000000000000000E+00
    1.000000000000000E+00
    1.000000000000000E+00
    1.000000000000000E+00
    1.000000000000000E+00
    1.000000000000000E+00
    1.000000000000000E+00
    1.000000000000000E+00
    1.000000000000000E+00
    1.000000000000000E+00
    1.000000000000000E+00
    1.000000000000000E+00
    1.000000000000000E+00
    1.000000000000000E+00
    1.000000000000000E+00
    1.000000000000000E+00
    1.000000000000000E+00
    1.000000000000000E+00
    1.000000000000000E+00
    1.000000000000000E+00
    1.000000000000000E+00
    1.000000000000000E+00
    1.000000000000000E+00
    1.000000000000000E+00
    1.000000000000000E+00
    1.000000000000000E+00
VECTORS velocity double
    1.939379523476797E+00    0.000000000000000E+00    0.000000000000000E+00
    2.001455763279405E+00    0.000000000000000E+00    0.000000000000000E+00
    2.001531108765560E+00    0.000000000000000E+00    0.000000000000000E+00
    2.000093472802031E+00    0.000000000000000E+00    0.000000000000000E+00
    1.999984679443613E+00    0.000000000000000E+00    0.000000000000000E+00
    1.999998859860970E+00    0.000000000000000E+00    0.000000000000000E+00
    2.000000114973313E+00    0.000000000000000E+00    0.000000000000000E+00
    2.000000009434737E+00    0.000000000000000E+00    0.000000000000000E+00
    1.999999998970680E+00    0.000000000000000E+00    0.000000000000000E+00
    1.999999999521435E+00    0.000000000000000E+00    0.000000000000000E+00
    1.999999999543836E+00    0.000000000000000E+00    0.000000000000000E+00
    1.999999999497436E+00    0.000000000000000E+00    0.000000000000000E+00
    1.999999999457968E+00    0.000000000000000E+00    0.000000000000000E+00
    1.999999999417641E+00    0.000000000000000E+00    0.000000000000000E+00
    1.999999999376945E+00    0.000000000000000E+00    0.000000000000000E+00
    1.999999999336425E+00    0.000000000000000E+00    0.000000000000000E+00
    1.999999999296101E+00    0.000000000000000E+00    0.000000000000000E+00
    1.999999999255987E+00    0.000000000000000E+00    0.000000000000000E+00
    1.999999999216101E+00    0.000000000000000E+00    0.000000000000000E+00
    1.999999999176451E+00    0.000000000000000E+00    0.000000000000000E+00
    1.999999999137045E+00    0.000000000000000E+00    0.000000000000000E+00
    1.999999999097893E+00    0.000000000000000E+00    0.000000000000000E+00
    1.999999999059006E+00    0.000000000000000E+00    0.000000000000000E+00
    1.999999999020388E+00    0.000000000000000E+00    0.000000000000000E+00
    1.999999998982051E+00    0.000000000000000E+00    0.000000000000000E+00
    1.999999998944004E+00    0.000000000000000E+00    0.000000000000000E+00
    1.999999998906254E+00    0.000000000000000E+00    0.000000000000000E+00
    1.999999998868809E+00    0.000000000000000E+00    0.000000000000000E+00
    1.999999998831678E+00    0.000000000000000E+00    0.000000000000000E+00
    1.999999998794871E+00    0.000000000000000E+00    0.000000000000000E+00
    1.999999998758394E+00    0.000000000000000E+00    0.000000000000000E+00
    1.999999998722255E+00    0.000000000000000E+00    0.000000000000000E+00
    1.999999998686463E+00    0.000000000000000E+00    0.000000000000000E+00
    1.999999998651028E+00    0.000000000000000E+00    0.000000000000000E+00
    1.999999998615953E+00    0.000000000000000E+00    0.000000000000000E+00
    1.999999998581249E+00    0.000000000000000E+00    0.000000000000000E+00
    1.999999998546923E+00    0.000000000000000E+00    0.000000000000000E+00
    1.999999998512983E+00    0.000000000000000E+00    0.000000000000000E+00
    1.999999998479436E+00    0.000000000000000E+00    0.000000000000000E+00
    1.999999998446289E+00    0.000000000000000E+00    0.000000000000000E+00
    1.999999998413549E+00    0.000000000000000E+00    0.000000000000000E+00
    1.999999998381223E+00    0.000000000000000E+00    0.000000000000000E+00
    1.999999998349320E+00    0.000000000000000E+00    0.000000000000000E+00
    1.999999998317846E+00    0.000000000000000E+00    0.000000000000000E+00
    1.999999998286806E+00    0.000000000000000E+00    0.000000000000000E+00
    1.999999998256209E+00    0.000000000000000E+00    0.000000000000000E+00
    1.999999998226060E+00    0.000000000000000E+00    0.000000000000000E+00
    1.999999998196367E+00    0.000000000000000E+00    0.000000000000000E+00
    1.999999998167135E+00    0.000000000000000E+00    0.000000000000000E+00
    1.999999998138369E+00    0.000000000000000E+00    0.000000000000000E+00
    1.999999998110079E+00    0.000000000000000E+00    0.000000000000000E+00
    1.999999998082268E+00    0.000000000000000E+00    0.000000000000000E+00
    1.999999998054943E+00    0.000000000000000E+00    0.000000000000000E+00
    1.999999998028109E+00    0.000000000000000E+00    0.000000000000000E+00
    1.999999998001773E+00    0.000000000000000E+00    0.000000000000000E+00
    1.999999997975939E+00    0.000000000000000E+00    0.000000000000000E+00
    1.999999997950613E+00    0.000000000000000E+00    0.000000000000000E+00
    1.999999997925800E+00    0.000000000000000E+00    0.000000000000000E+00
    1.999999997901505E+00    0.000000000000000E+00    0.000000000000000E+00
    1.999999997877734E+00    0.000000000000000E+00    0.000000000000000E+00
    1.999999997854491E+00    0.000000000000000E+00    0.000000000000000E+00
    1.999999997831781E+00    0.000000000000000E+00    0.000000000000000E+00
    1.999999997809609E+00    0.000000000000000E+00    0.000000000000000E+00
    1.999999997787978E+00    0.000000000000000E+00    0.000000000000000E+00
    1.999999997766893E+00    0.000000000000000E+00    0.000000000000000E+00
    1.999999997746360E+00    0.000000000000000E+00    0.000000000000000E+00
    1.999999997726381E+00    0.000000000000000E+00    0.000000000000000E+00
    1.999999997706961E+00    0.000000000000000E+00    0.000000000000000E+00
    1.999999997688104E+00    0.000000000000000E+00    0.000000000000000E+00
    1.999999997669813E+00    0.000000000000000E+00    0.000000000000000E+00
    1.999999997652091E+00    0.000000000000000E+00    0.000000000000000E+00
    1.999999997634943E+00    0.000000000000000E+00    0.000000000000000E+00
    1.999999997618371E+00    0.000000000000000E+00    0.000000000000000E+00
    1.999999997602378E+00    0.000000000000000E+00    0.000000000000000E+00
    1.999999997586968E+00    0.000000000000000E+00    0.000000000000000E+00
    1.999999997572144E+00    0.000000000000000E+00    0.000000000000000E+00
    1.999999997557907E+00    0.000000000000000E+00    0.000000000000000E+00
    1.999999997544262E+00    0.000000000000000E+00    0.000000000000000E+00
    1.999999997531209E+00    0.000000000000000E+00    0.000000000000000E+00
    1.999999997518751E+00    0.000000000000000E+00    0.000000000000000E+00
    1.999999997506890E+00    0.000000000000000E+00    0.000000000000000E+00
    1.999999997495625E+00    0.000000000000000E+00    0.000000000000000E+00
    1.999999997484952E+00    0.000000000000000E+00    0.000000000000000E+00
    1.999999997474837E+00    0.000000000000000E+00    0.000000000000000E+00
    1.999999997465152E+00    0.000000000000000E+00    0.000000000000000E+00
    1.999999997455376E+00    0.000000000000000E+00    0.000000000000000E+00
    1.999999997443039E+00    0.000000000000000E+00    0.000000000000000E+00
    1.999999997414141E+00    0.000000000000000E+00    0.000000000000000E+00
    1.999999997295637E+00    0.000000000000000E+00    0.000000000000000E+00
    1.999999996707852E+00    0.000000000000000E+00    0.000000000000000E+00
    1.999999993672920E+00    0.000000000000000E+00    0.000000000000000E+00
    1.999999977886314E+00    0.000000000000000E+00    0.000000000000000E+00
    1.999999895662154E+00    0.000000000000000E+00    0.000000000000000E+00
    1.999999467333887E+00    0.000000000000000E+00    0.000000000000000E+00
    1.999997234873041E+00    0.000000000000000E+00    0.000000000000000E+00
    1.999985638788534E+00    0.000000000000000E+00    0.000000000000000E+00
    1.999923978013422E+00    0.000000000000000E+00    0.000000000000000E+00
    1.999643123820229E+00    0.000000000000000E+00    0.000000000000000E+00
    1.987883095810556E+00    0.000000000000000E+00    0.000000000000000E+00
    1.999999997402476E+00    0.000000000000000E+00    0.000000000000000E+00
SCALARS temperature double 1
LOOKUP_TABLE default
    3.100432668575998E+02
    3.286105004544836E+02
    3.453201634458949E+02
    3.606393555739855E+02
    3.747231279713033E+02
    3.877052880880417E+02
    3.997101845171179E+02
    4.108494249218235E+02
    4.212228166892930E+02
    4.309196620714149E+02
    4.400198842973154E+02
    4.485950296165583E+02
    4.567091627703077E+02
    4.644196670878980E+02
    4.717779593472044E+02
    4.788301284858296E+02
    4.856175062810106E+02
    4.921771772506643E+02
    4.985424342549783E+02
    5.047431855873297E+02
    5.108063187262915E+02
    5.167560253692459E+02
    5.226140918756316E+02
    5.284001588078553E+02
    5.341319528648164E+02
    5.398254941517854E+02
    5.454952814166281E+02
    5.511544576020524E+02
    5.568149578131155E+02
    5.624876415754928E+02
    5.681824110601149E+02
    5.739083167712016E+02
    5.796736520351635E+02
    5.854860374853082E+02
    5.913524966099380E+02
    5.972795233176535E+02
    6.032731423720276E+02
    6.093389634570158E+02
    6.154822295533208E+02
    6.217078602334650E+02
    6.280204904185539E+02
    6.344245050818731E+02
    6.409240703327653E+02
    6.475231612680610E+02
    6.542255869370889E+02
    6.610350127294239E+02
    6.679549804616150E+02
    6.749889264097150E+02
    6.821401975081454E+02
    6.894120659119673E+02
    6.968077420986366E+02
    7.043303866665931E+02
    7.119831209712876E+02
    7.197690367242972E+02
    7.276912046678123E+02
    7.357526824248498E+02
    7.439565216148766E+02
    7.523057743150024E+02
    7.608034989383951E+02
    7.694527655939606E+02
    7.782566609845461E+02
    7.872182928948505E+02
    7.963407943148154E+02
    8.056273272394178E+02
    8.150810861814693E+02
    8.247053014301592E+02
    8.345032420846321E+02
    8.444782188888017E+02
    8.546335868908602E+02
    8.649727479484716E+02
    8.754991530984518E+02
    8.862163048077723E+02
    8.971277591209721E+02
    9.082371277175073E+02
    9.195480798911530E+02
    9.310643444623499E+02
    9.427897116332554E+02
    9.547280347942740E+02
    9.668832322899549E+02
    9.792592891513538E+02
    9.918602588012438E+02
    1.004690264737942E+03
    1.017753502202941E+03
    1.031054239837055E+03
    1.044596821329315E+03
    1.058385667062473E+03
    1.072425275758630E+03
    1.086720226128222E+03
    1.101275178525344E+03
    1.116094876612719E+03
    1.131184149043538E+03
    1.146547911185250E+03
    1.162191167007061E+03
    1.178119011771767E+03
    1.194336638931934E+03
    1.210849369141499E+03
    1.227662801522598E+03
    1.244783441524426E+03
    1.262263301727244E+03
    1.280055271288118E+03
SCALARS pressure double 1
LOOKUP_TABLE default
    1.393883927889760E+02
    1.374685069573525E+02
    1.359504929492131E+02
    1.345600964157581E+02
    1.331667836046829E+02
    1.317722151305097E+02
    1.303776656125088E+02
    1.289831257521958E+02
    1.275885858078985E+02
    1.261940458089381E+02
    1.247995058085826E+02
    1.234049658095177E+02
    1.220104258101531E+02
    1.206158858107980E+02
    1.192213458114773E+02
    1.178268058121873E+02
    1.164322658129297E+02
    1.150377258137046E+02
    1.136431858145117E+02
    1.122486458153509E+02
    1.108541058162219E+02
    1.094595658171244E+02
    1.080650258180583E+02
    1.066704858190232E+02
    1.052759458200188E+02
    1.038814058210450E+02
    1.024868658221014E+02
    1.010923258231878E+02
    9.969778582430379E+01
    9.830324582544912E+01
    9.690870582662350E+01
    9.551416582782662E+01
    9.411962582905811E+01
    9.272508583031770E+01
    9.133054583160502E+01
    8.993600583291975E+01
    8.854146583426156E+01
    8.714692583563009E+01
    8.575238583702496E+01
    8.435784583844581E+01
    8.296330583989233E+01
    8.156876584136410E+01
    8.017422584286075E+01
    7.877968584438189E+01
    7.738514584592714E+01
    7.599060584749610E+01
    7.459606584908839E+01
    7.320152585070359E+01
    7.180698585234128E+01
    7.041244585400108E+01
    6.901790585568256E+01
    6.762336585738528E+01
    6.622882585910882E+01
    6.483428586085276E+01
    6.343974586261665E+01
    6.204520586440007E+01
    6.065066586620257E+01
    5.925612586802368E+01
    5.786158586986299E+01
    5.646704587172000E+01
    5.507250587359427E+01
    5.367796587548535E+01
    5.228342587739276E+01
    5.088888587931606E+01
    4.949434588125474E+01
    4.809980588320835E+01
    4.670526588517642E+01
    4.531072588715844E+01
    4.391618588915394E+01
    4.252164589116246E+01
    4.112710589318348E+01
    3.973256589521652E+01
    3.833802589726111E+01
    3.694348589931673E+01
    3.554894590138289E+01
    3.415440590345909E+01
    3.275986590554485E+01
    3.136532590763963E+01
    2.997078590974296E+01
    2.857624591185434E+01
    2.718170591397328E+01
    2.578716591609929E+01
    2.439262591823207E+01
    2.299808592037189E+01
    2.160354592252115E+01
    2.020900592469156E+01
    1.881446592693027E+01
    1.741992592945985E+01
    1.602538593351505E+01
    1.463084594554134E+01
    1.323630599909560E+01
    1.184176626899848E+01
    1.044722766603555E+01
    9.052694935315635E+00
    7.658192795570320E+00
    6.263850102259729E+00
    4.870335039028425E+00
    3.481229782381206E+00
    2.111533121942559E+00
    1.442934194700055E+00
