# vtk DataFile Version 3.0
OpenCFD-EC solid temperature
ASCII
DATASET STRUCTURED_GRID
DIMENSIONS    101     2     2
POINTS          404 double
    0.000000000000000E+00    0.000000000000000E+00    0.000000000000000E+00
    1.000000000000000E-04    0.000000000000000E+00    0.000000000000000E+00
    2.000000000000000E-04    0.000000000000000E+00    0.000000000000000E+00
    3.000000000000000E-04    0.000000000000000E+00    0.000000000000000E+00
    4.000000000000000E-04    0.000000000000000E+00    0.000000000000000E+00
    5.000000000000000E-04    0.000000000000000E+00    0.000000000000000E+00
    6.000000000000001E-04    0.000000000000000E+00    0.000000000000000E+00
    7.000000000000000E-04    0.000000000000000E+00    0.000000000000000E+00
    8.000000000000000E-04    0.000000000000000E+00    0.000000000000000E+00
    9.000000000000001E-04    0.000000000000000E+00    0.000000000000000E+00
    1.000000000000000E-03    0.000000000000000E+00    0.000000000000000E+00
    1.100000000000000E-03    0.000000000000000E+00    0.000000000000000E+00
    1.200000000000000E-03    0.000000000000000E+00    0.000000000000000E+00
    1.300000000000000E-03    0.000000000000000E+00    0.000000000000000E+00
    1.400000000000000E-03    0.000000000000000E+00    0.000000000000000E+00
    1.500000000000000E-03    0.000000000000000E+00    0.000000000000000E+00
    1.600000000000000E-03    0.000000000000000E+00    0.000000000000000E+00
    1.700000000000000E-03    0.000000000000000E+00    0.000000000000000E+00
    1.800000000000000E-03    0.000000000000000E+00    0.000000000000000E+00
    1.900000000000000E-03    0.000000000000000E+00    0.000000000000000E+00
    2.000000000000000E-03    0.000000000000000E+00    0.000000000000000E+00
    2.100000000000000E-03    0.000000000000000E+00    0.000000000000000E+00
    2.200000000000000E-03    0.000000000000000E+00    0.000000000000000E+00
    2.300000000000000E-03    0.000000000000000E+00    0.000000000000000E+00
    2.400000000000000E-03    0.000000000000000E+00    0.000000000000000E+00
    2.500000000000000E-03    0.000000000000000E+00    0.000000000000000E+00
    2.600000000000000E-03    0.000000000000000E+00    0.000000000000000E+00
    2.700000000000000E-03    0.000000000000000E+00    0.000000000000000E+00
    2.800000000000000E-03    0.000000000000000E+00    0.000000000000000E+00
    2.900000000000000E-03    0.000000000000000E+00    0.000000000000000E+00
    3.000000000000000E-03    0.000000000000000E+00    0.000000000000000E+00
    3.100000000000000E-03    0.000000000000000E+00    0.000000000000000E+00
    3.200000000000000E-03    0.000000000000000E+00    0.000000000000000E+00
    3.300000000000000E-03    0.000000000000000E+00    0.000000000000000E+00
    3.400000000000000E-03    0.000000000000000E+00    0.000000000000000E+00
    3.500000000000000E-03    0.000000000000000E+00    0.000000000000000E+00
    3.600000000000000E-03    0.000000000000000E+00    0.000000000000000E+00
    3.700000000000000E-03    0.000000000000000E+00    0.000000000000000E+00
    3.800000000000000E-03    0.000000000000000E+00    0.000000000000000E+00
    3.900000000000000E-03    0.000000000000000E+00    0.000000000000000E+00
    4.000000000000000E-03    0.000000000000000E+00    0.000000000000000E+00
    4.100000000000000E-03    0.000000000000000E+00    0.000000000000000E+00
    4.200000000000001E-03    0.000000000000000E+00    0.000000000000000E+00
    4.300000000000000E-03    0.000000000000000E+00    0.000000000000000E+00
    4.400000000000000E-03    0.000000000000000E+00    0.000000000000000E+00
    4.500000000000001E-03    0.000000000000000E+00    0.000000000000000E+00
    4.600000000000000E-03    0.000000000000000E+00    0.000000000000000E+00
    4.700000000000000E-03    0.000000000000000E+00    0.000000000000000E+00
    4.800000000000000E-03    0.000000000000000E+00    0.000000000000000E+00
    4.900000000000000E-03    0.000000000000000E+00    0.000000000000000E+00
    5.000000000000000E-03    0.000000000000000E+00    0.000000000000000E+00
    5.100000000000000E-03    0.000000000000000E+00    0.000000000000000E+00
    5.200000000000001E-03    0.000000000000000E+00    0.000000000000000E+00
    5.300000000000000E-03    0.000000000000000E+00    0.000000000000000E+00
    5.400000000000000E-03    0.000000000000000E+00    0.000000000000000E+00
    5.500000000000001E-03    0.000000000000000E+00    0.000000000000000E+00
    5.600000000000000E-03    0.000000000000000E+00    0.000000000000000E+00
    5.700000000000000E-03    0.000000000000000E+00    0.000000000000000E+00
    5.800000000000000E-03    0.000000000000000E+00    0.000000000000000E+00
    5.900000000000000E-03    0.000000000000000E+00    0.000000000000000E+00
    6.000000000000000E-03    0.000000000000000E+00    0.000000000000000E+00
    6.100000000000000E-03    0.000000000000000E+00    0.000000000000000E+00
    6.200000000000001E-03    0.000000000000000E+00    0.000000000000000E+00
    6.300000000000000E-03    0.000000000000000E+00    0.000000000000000E+00
    6.400000000000000E-03    0.000000000000000E+00    0.000000000000000E+00
    6.500000000000001E-03    0.000000000000000E+00    0.000000000000000E+00
    6.600000000000000E-03    0.000000000000000E+00    0.000000000000000E+00
    6.700000000000000E-03    0.000000000000000E+00    0.000000000000000E+00
    6.800000000000000E-03    0.000000000000000E+00    0.000000000000000E+00
    6.900000000000001E-03    0.000000000000000E+00    0.000000000000000E+00
    7.000000000000000E-03    0.000000000000000E+00    0.000000000000000E+00
    7.100000000000000E-03    0.000000000000000E+00    0.000000000000000E+00
    7.200000000000001E-03    0.000000000000000E+00    0.000000000000000E+00
    7.300000000000000E-03    0.000000000000000E+00    0.000000000000000E+00
    7.400000000000000E-03    0.000000000000000E+00    0.000000000000000E+00
    7.500000000000001E-03    0.000000000000000E+00    0.000000000000000E+00
    7.600000000000000E-03    0.000000000000000E+00    0.000000000000000E+00
    7.700000000000000E-03    0.000000000000000E+00    0.000000000000000E+00
    7.800000000000001E-03    0.000000000000000E+00    0.000000000000000E+00
    7.900000000000001E-03    0.000000000000000E+00    0.000000000000000E+00
    8.000000000000000E-03    0.000000000000000E+00    0.000000000000000E+00
    8.100000000000000E-03    0.000000000000000E+00    0.000000000000000E+00
    8.200000000000001E-03    0.000000000000000E+00    0.000000000000000E+00
    8.300000000000000E-03    0.000000000000000E+00    0.000000000000000E+00
    8.400000000000001E-03    0.000000000000000E+00    0.000000000000000E+00
    8.500000000000001E-03    0.000000000000000E+00    0.000000000000000E+00
    8.600000000000000E-03    0.000000000000000E+00    0.000000000000000E+00
    8.700000000000001E-03    0.000000000000000E+00    0.000000000000000E+00
    8.800000000000001E-03    0.000000000000000E+00    0.000000000000000E+00
    8.900000000000000E-03    0.000000000000000E+00    0.000000000000000E+00
    9.000000000000001E-03    0.000000000000000E+00    0.000000000000000E+00
    9.100000000000000E-03    0.000000000000000E+00    0.000000000000000E+00
    9.200000000000000E-03    0.000000000000000E+00    0.000000000000000E+00
    9.300000000000001E-03    0.000000000000000E+00    0.000000000000000E+00
    9.400000000000000E-03    0.000000000000000E+00    0.000000000000000E+00
    9.500000000000000E-03    0.000000000000000E+00    0.000000000000000E+00
    9.600000000000001E-03    0.000000000000000E+00    0.000000000000000E+00
    9.700000000000000E-03    0.000000000000000E+00    0.000000000000000E+00
    9.800000000000000E-03    0.000000000000000E+00    0.000000000000000E+00
    9.900000000000001E-03    0.000000000000000E+00    0.000000000000000E+00
    1.000000000000000E-02    0.000000000000000E+00    0.000000000000000E+00
    0.000000000000000E+00    1.000000000000000E-01    0.000000000000000E+00
    1.000000000000000E-04    1.000000000000000E-01    0.000000000000000E+00
    2.000000000000000E-04    1.000000000000000E-01    0.000000000000000E+00
    3.000000000000000E-04    1.000000000000000E-01    0.000000000000000E+00
    4.000000000000000E-04    1.000000000000000E-01    0.000000000000000E+00
    5.000000000000000E-04    1.000000000000000E-01    0.000000000000000E+00
    6.000000000000001E-04    1.000000000000000E-01    0.000000000000000E+00
    7.000000000000000E-04    1.000000000000000E-01    0.000000000000000E+00
    8.000000000000000E-04    1.000000000000000E-01    0.000000000000000E+00
    9.000000000000001E-04    1.000000000000000E-01    0.000000000000000E+00
    1.000000000000000E-03    1.000000000000000E-01    0.000000000000000E+00
    1.100000000000000E-03    1.000000000000000E-01    0.000000000000000E+00
    1.200000000000000E-03    1.000000000000000E-01    0.000000000000000E+00
    1.300000000000000E-03    1.000000000000000E-01    0.000000000000000E+00
    1.400000000000000E-03    1.000000000000000E-01    0.000000000000000E+00
    1.500000000000000E-03    1.000000000000000E-01    0.000000000000000E+00
    1.600000000000000E-03    1.000000000000000E-01    0.000000000000000E+00
    1.700000000000000E-03    1.000000000000000E-01    0.000000000000000E+00
    1.800000000000000E-03    1.000000000000000E-01    0.000000000000000E+00
    1.900000000000000E-03    1.000000000000000E-01    0.000000000000000E+00
    2.000000000000000E-03    1.000000000000000E-01    0.000000000000000E+00
    2.100000000000000E-03    1.000000000000000E-01    0.000000000000000E+00
    2.200000000000000E-03    1.000000000000000E-01    0.000000000000000E+00
    2.300000000000000E-03    1.000000000000000E-01    0.000000000000000E+00
    2.400000000000000E-03    1.000000000000000E-01    0.000000000000000E+00
    2.500000000000000E-03    1.000000000000000E-01    0.000000000000000E+00
    2.600000000000000E-03    1.000000000000000E-01    0.000000000000000E+00
    2.700000000000000E-03    1.000000000000000E-01    0.000000000000000E+00
    2.800000000000000E-03    1.000000000000000E-01    0.000000000000000E+00
    2.900000000000000E-03    1.000000000000000E-01    0.000000000000000E+00
    3.000000000000000E-03    1.000000000000000E-01    0.000000000000000E+00
    3.100000000000000E-03    1.000000000000000E-01    0.000000000000000E+00
    3.200000000000000E-03    1.000000000000000E-01    0.000000000000000E+00
    3.300000000000000E-03    1.000000000000000E-01    0.000000000000000E+00
    3.400000000000000E-03    1.000000000000000E-01    0.000000000000000E+00
    3.500000000000000E-03    1.000000000000000E-01    0.000000000000000E+00
    3.600000000000000E-03    1.000000000000000E-01    0.000000000000000E+00
    3.700000000000000E-03    1.000000000000000E-01    0.000000000000000E+00
    3.800000000000000E-03    1.000000000000000E-01    0.000000000000000E+00
    3.900000000000000E-03    1.000000000000000E-01    0.000000000000000E+00
    4.000000000000000E-03    1.000000000000000E-01    0.000000000000000E+00
    4.100000000000000E-03    1.000000000000000E-01    0.000000000000000E+00
    4.200000000000001E-03    1.000000000000000E-01    0.000000000000000E+00
    4.300000000000000E-03    1.000000000000000E-01    0.000000000000000E+00
    4.400000000000000E-03    1.000000000000000E-01    0.000000000000000E+00
    4.500000000000001E-03    1.000000000000000E-01    0.000000000000000E+00
    4.600000000000000E-03    1.000000000000000E-01    0.000000000000000E+00
    4.700000000000000E-03    1.000000000000000E-01    0.000000000000000E+00
    4.800000000000000E-03    1.000000000000000E-01    0.000000000000000E+00
    4.900000000000000E-03    1.000000000000000E-01    0.000000000000000E+00
    5.000000000000000E-03    1.000000000000000E-01    0.000000000000000E+00
    5.100000000000000E-03    1.000000000000000E-01    0.000000000000000E+00
    5.200000000000001E-03    1.000000000000000E-01    0.000000000000000E+00
    5.300000000000000E-03    1.000000000000000E-01    0.000000000000000E+00
    5.400000000000000E-03    1.000000000000000E-01    0.000000000000000E+00
    5.500000000000001E-03    1.000000000000000E-01    0.000000000000000E+00
    5.600000000000000E-03    1.000000000000000E-01    0.000000000000000E+00
    5.700000000000000E-03    1.000000000000000E-01    0.000000000000000E+00
    5.800000000000000E-03    1.000000000000000E-01    0.000000000000000E+00
    5.900000000000000E-03    1.000000000000000E-01    0.000000000000000E+00
    6.000000000000000E-03    1.000000000000000E-01    0.000000000000000E+00
    6.100000000000000E-03    1.000000000000000E-01    0.000000000000000E+00
    6.200000000000001E-03    1.000000000000000E-01    0.000000000000000E+00
    6.300000000000000E-03    1.000000000000000E-01    0.000000000000000E+00
    6.400000000000000E-03    1.000000000000000E-01    0.000000000000000E+00
    6.500000000000001E-03    1.000000000000000E-01    0.000000000000000E+00
    6.600000000000000E-03    1.000000000000000E-01    0.000000000000000E+00
    6.700000000000000E-03    1.000000000000000E-01    0.000000000000000E+00
    6.800000000000000E-03    1.000000000000000E-01    0.000000000000000E+00
    6.900000000000001E-03    1.000000000000000E-01    0.000000000000000E+00
    7.000000000000000E-03    1.000000000000000E-01    0.000000000000000E+00
    7.100000000000000E-03    1.000000000000000E-01    0.000000000000000E+00
    7.200000000000001E-03    1.000000000000000E-01    0.000000000000000E+00
    7.300000000000000E-03    1.000000000000000E-01    0.000000000000000E+00
    7.400000000000000E-03    1.000000000000000E-01    0.000000000000000E+00
    7.500000000000001E-03    1.000000000000000E-01    0.000000000000000E+00
    7.600000000000000E-03    1.000000000000000E-01    0.000000000000000E+00
    7.700000000000000E-03    1.000000000000000E-01    0.000000000000000E+00
    7.800000000000001E-03    1.000000000000000E-01    0.000000000000000E+00
    7.900000000000001E-03    1.000000000000000E-01    0.000000000000000E+00
    8.000000000000000E-03    1.000000000000000E-01    0.000000000000000E+00
    8.100000000000000E-03    1.000000000000000E-01    0.000000000000000E+00
    8.200000000000001E-03    1.000000000000000E-01    0.000000000000000E+00
    8.300000000000000E-03    1.000000000000000E-01    0.000000000000000E+00
    8.400000000000001E-03    1.000000000000000E-01    0.000000000000000E+00
    8.500000000000001E-03    1.000000000000000E-01    0.000000000000000E+00
    8.600000000000000E-03    1.000000000000000E-01    0.000000000000000E+00
    8.700000000000001E-03    1.000000000000000E-01    0.000000000000000E+00
    8.800000000000001E-03    1.000000000000000E-01    0.000000000000000E+00
    8.900000000000000E-03    1.000000000000000E-01    0.000000000000000E+00
    9.000000000000001E-03    1.000000000000000E-01    0.000000000000000E+00
    9.100000000000000E-03    1.000000000000000E-01    0.000000000000000E+00
    9.200000000000000E-03    1.000000000000000E-01    0.000000000000000E+00
    9.300000000000001E-03    1.000000000000000E-01    0.000000000000000E+00
    9.400000000000000E-03    1.000000000000000E-01    0.000000000000000E+00
    9.500000000000000E-03    1.000000000000000E-01    0.000000000000000E+00
    9.600000000000001E-03    1.000000000000000E-01    0.000000000000000E+00
    9.700000000000000E-03    1.000000000000000E-01    0.000000000000000E+00
    9.800000000000000E-03    1.000000000000000E-01    0.000000000000000E+00
    9.900000000000001E-03    1.000000000000000E-01    0.000000000000000E+00
    1.000000000000000E-02    1.000000000000000E-01    0.000000000000000E+00
    0.000000000000000E+00    0.000000000000000E+00    1.000000000000000E-01
    1.000000000000000E-04    0.000000000000000E+00    1.000000000000000E-01
    2.000000000000000E-04    0.000000000000000E+00    1.000000000000000E-01
    3.000000000000000E-04    0.000000000000000E+00    1.000000000000000E-01
    4.000000000000000E-04    0.000000000000000E+00    1.000000000000000E-01
    5.000000000000000E-04    0.000000000000000E+00    1.000000000000000E-01
    6.000000000000001E-04    0.000000000000000E+00    1.000000000000000E-01
    7.000000000000000E-04    0.000000000000000E+00    1.000000000000000E-01
    8.000000000000000E-04    0.000000000000000E+00    1.000000000000000E-01
    9.000000000000001E-04    0.000000000000000E+00    1.000000000000000E-01
    1.000000000000000E-03    0.000000000000000E+00    1.000000000000000E-01
    1.100000000000000E-03    0.000000000000000E+00    1.000000000000000E-01
    1.200000000000000E-03    0.000000000000000E+00    1.000000000000000E-01
    1.300000000000000E-03    0.000000000000000E+00    1.000000000000000E-01
    1.400000000000000E-03    0.000000000000000E+00    1.000000000000000E-01
    1.500000000000000E-03    0.000000000000000E+00    1.000000000000000E-01
    1.600000000000000E-03    0.000000000000000E+00    1.000000000000000E-01
    1.700000000000000E-03    0.000000000000000E+00    1.000000000000000E-01
    1.800000000000000E-03    0.000000000000000E+00    1.000000000000000E-01
    1.900000000000000E-03    0.000000000000000E+00    1.000000000000000E-01
    2.000000000000000E-03    0.000000000000000E+00    1.000000000000000E-01
    2.100000000000000E-03    0.000000000000000E+00    1.000000000000000E-01
    2.200000000000000E-03    0.000000000000000E+00    1.000000000000000E-01
    2.300000000000000E-03    0.000000000000000E+00    1.000000000000000E-01
    2.400000000000000E-03    0.000000000000000E+00    1.000000000000000E-01
    2.500000000000000E-03    0.000000000000000E+00    1.000000000000000E-01
    2.600000000000000E-03    0.000000000000000E+00    1.000000000000000E-01
    2.700000000000000E-03    0.000000000000000E+00    1.000000000000000E-01
    2.800000000000000E-03    0.000000000000000E+00    1.000000000000000E-01
    2.900000000000000E-03    0.000000000000000E+00    1.000000000000000E-01
    3.000000000000000E-03    0.000000000000000E+00    1.000000000000000E-01
    3.100000000000000E-03    0.000000000000000E+00    1.000000000000000E-01
    3.200000000000000E-03    0.000000000000000E+00    1.000000000000000E-01
    3.300000000000000E-03    0.000000000000000E+00    1.000000000000000E-01
    3.400000000000000E-03    0.000000000000000E+00    1.000000000000000E-01
    3.500000000000000E-03    0.000000000000000E+00    1.000000000000000E-01
    3.600000000000000E-03    0.000000000000000E+00    1.000000000000000E-01
    3.700000000000000E-03    0.000000000000000E+00    1.000000000000000E-01
    3.800000000000000E-03    0.000000000000000E+00    1.000000000000000E-01
    3.900000000000000E-03    0.000000000000000E+00    1.000000000000000E-01
    4.000000000000000E-03    0.000000000000000E+00    1.000000000000000E-01
    4.100000000000000E-03    0.000000000000000E+00    1.000000000000000E-01
    4.200000000000001E-03    0.000000000000000E+00    1.000000000000000E-01
    4.300000000000000E-03    0.000000000000000E+00    1.000000000000000E-01
    4.400000000000000E-03    0.000000000000000E+00    1.000000000000000E-01
    4.500000000000001E-03    0.000000000000000E+00    1.000000000000000E-01
    4.600000000000000E-03    0.000000000000000E+00    1.000000000000000E-01
    4.700000000000000E-03    0.000000000000000E+00    1.000000000000000E-01
    4.800000000000000E-03    0.000000000000000E+00    1.000000000000000E-01
    4.900000000000000E-03    0.000000000000000E+00    1.000000000000000E-01
    5.000000000000000E-03    0.000000000000000E+00    1.000000000000000E-01
    5.100000000000000E-03    0.000000000000000E+00    1.000000000000000E-01
    5.200000000000001E-03    0.000000000000000E+00    1.000000000000000E-01
    5.300000000000000E-03    0.000000000000000E+00    1.000000000000000E-01
    5.400000000000000E-03    0.000000000000000E+00    1.000000000000000E-01
    5.500000000000001E-03    0.000000000000000E+00    1.000000000000000E-01
    5.600000000000000E-03    0.000000000000000E+00    1.000000000000000E-01
    5.700000000000000E-03    0.000000000000000E+00    1.000000000000000E-01
    5.800000000000000E-03    0.000000000000000E+00    1.000000000000000E-01
    5.900000000000000E-03    0.000000000000000E+00    1.000000000000000E-01
    6.000000000000000E-03    0.000000000000000E+00    1.000000000000000E-01
    6.100000000000000E-03    0.000000000000000E+00    1.000000000000000E-01
    6.200000000000001E-03    0.000000000000000E+00    1.000000000000000E-01
    6.300000000000000E-03    0.000000000000000E+00    1.000000000000000E-01
    6.400000000000000E-03    0.000000000000000E+00    1.000000000000000E-01
    6.500000000000001E-03    0.000000000000000E+00    1.000000000000000E-01
    6.600000000000000E-03    0.000000000000000E+00    1.000000000000000E-01
    6.700000000000000E-03    0.000000000000000E+00    1.000000000000000E-01
    6.800000000000000E-03    0.000000000000000E+00    1.000000000000000E-01
    6.900000000000001E-03    0.000000000000000E+00    1.000000000000000E-01
    7.000000000000000E-03    0.000000000000000E+00    1.000000000000000E-01
    7.100000000000000E-03    0.000000000000000E+00    1.000000000000000E-01
    7.200000000000001E-03    0.000000000000000E+00    1.000000000000000E-01
    7.300000000000000E-03    0.000000000000000E+00    1.000000000000000E-01
    7.400000000000000E-03    0.000000000000000E+00    1.000000000000000E-01
    7.500000000000001E-03    0.000000000000000E+00    1.000000000000000E-01
    7.600000000000000E-03    0.000000000000000E+00    1.000000000000000E-01
    7.700000000000000E-03    0.000000000000000E+00    1.000000000000000E-01
    7.800000000000001E-03    0.000000000000000E+00    1.000000000000000E-01
    7.900000000000001E-03    0.000000000000000E+00    1.000000000000000E-01
    8.000000000000000E-03    0.000000000000000E+00    1.000000000000000E-01
    8.100000000000000E-03    0.000000000000000E+00    1.000000000000000E-01
    8.200000000000001E-03    0.000000000000000E+00    1.000000000000000E-01
    8.300000000000000E-03    0.000000000000000E+00    1.000000000000000E-01
    8.400000000000001E-03    0.000000000000000E+00    1.000000000000000E-01
    8.500000000000001E-03    0.000000000000000E+00    1.000000000000000E-01
    8.600000000000000E-03    0.000000000000000E+00    1.000000000000000E-01
    8.700000000000001E-03    0.000000000000000E+00    1.000000000000000E-01
    8.800000000000001E-03    0.000000000000000E+00    1.000000000000000E-01
    8.900000000000000E-03    0.000000000000000E+00    1.000000000000000E-01
    9.000000000000001E-03    0.000000000000000E+00    1.000000000000000E-01
    9.100000000000000E-03    0.000000000000000E+00    1.000000000000000E-01
    9.200000000000000E-03    0.000000000000000E+00    1.000000000000000E-01
    9.300000000000001E-03    0.000000000000000E+00    1.000000000000000E-01
    9.400000000000000E-03    0.000000000000000E+00    1.000000000000000E-01
    9.500000000000000E-03    0.000000000000000E+00    1.000000000000000E-01
    9.600000000000001E-03    0.000000000000000E+00    1.000000000000000E-01
    9.700000000000000E-03    0.000000000000000E+00    1.000000000000000E-01
    9.800000000000000E-03    0.000000000000000E+00    1.000000000000000E-01
    9.900000000000001E-03    0.000000000000000E+00    1.000000000000000E-01
    1.000000000000000E-02    0.000000000000000E+00    1.000000000000000E-01
    0.000000000000000E+00    1.000000000000000E-01    1.000000000000000E-01
    1.000000000000000E-04    1.000000000000000E-01    1.000000000000000E-01
    2.000000000000000E-04    1.000000000000000E-01    1.000000000000000E-01
    3.000000000000000E-04    1.000000000000000E-01    1.000000000000000E-01
    4.000000000000000E-04    1.000000000000000E-01    1.000000000000000E-01
    5.000000000000000E-04    1.000000000000000E-01    1.000000000000000E-01
    6.000000000000001E-04    1.000000000000000E-01    1.000000000000000E-01
    7.000000000000000E-04    1.000000000000000E-01    1.000000000000000E-01
    8.000000000000000E-04    1.000000000000000E-01    1.000000000000000E-01
    9.000000000000001E-04    1.000000000000000E-01    1.000000000000000E-01
    1.000000000000000E-03    1.000000000000000E-01    1.000000000000000E-01
    1.100000000000000E-03    1.000000000000000E-01    1.000000000000000E-01
    1.200000000000000E-03    1.000000000000000E-01    1.000000000000000E-01
    1.300000000000000E-03    1.000000000000000E-01    1.000000000000000E-01
    1.400000000000000E-03    1.000000000000000E-01    1.000000000000000E-01
    1.500000000000000E-03    1.000000000000000E-01    1.000000000000000E-01
    1.600000000000000E-03    1.000000000000000E-01    1.000000000000000E-01
    1.700000000000000E-03    1.000000000000000E-01    1.000000000000000E-01
    1.800000000000000E-03    1.000000000000000E-01    1.000000000000000E-01
    1.900000000000000E-03    1.000000000000000E-01    1.000000000000000E-01
    2.000000000000000E-03    1.000000000000000E-01    1.000000000000000E-01
    2.100000000000000E-03    1.000000000000000E-01    1.000000000000000E-01
    2.200000000000000E-03    1.000000000000000E-01    1.000000000000000E-01
    2.300000000000000E-03    1.000000000000000E-01    1.000000000000000E-01
    2.400000000000000E-03    1.000000000000000E-01    1.000000000000000E-01
    2.500000000000000E-03    1.000000000000000E-01    1.000000000000000E-01
    2.600000000000000E-03    1.000000000000000E-01    1.000000000000000E-01
    2.700000000000000E-03    1.000000000000000E-01    1.000000000000000E-01
    2.800000000000000E-03    1.000000000000000E-01    1.000000000000000E-01
    2.900000000000000E-03    1.000000000000000E-01    1.000000000000000E-01
    3.000000000000000E-03    1.000000000000000E-01    1.000000000000000E-01
    3.100000000000000E-03    1.000000000000000E-01    1.000000000000000E-01
    3.200000000000000E-03    1.000000000000000E-01    1.000000000000000E-01
    3.300000000000000E-03    1.000000000000000E-01    1.000000000000000E-01
    3.400000000000000E-03    1.000000000000000E-01    1.000000000000000E-01
    3.500000000000000E-03    1.000000000000000E-01    1.000000000000000E-01
    3.600000000000000E-03    1.000000000000000E-01    1.000000000000000E-01
    3.700000000000000E-03    1.000000000000000E-01    1.000000000000000E-01
    3.800000000000000E-03    1.000000000000000E-01    1.000000000000000E-01
    3.900000000000000E-03    1.000000000000000E-01    1.000000000000000E-01
    4.000000000000000E-03    1.000000000000000E-01    1.000000000000000E-01
    4.100000000000000E-03    1.000000000000000E-01    1.000000000000000E-01
    4.200000000000001E-03    1.000000000000000E-01    1.000000000000000E-01
    4.300000000000000E-03    1.000000000000000E-01    1.000000000000000E-01
    4.400000000000000E-03    1.000000000000000E-01    1.000000000000000E-01
    4.500000000000001E-03    1.000000000000000E-01    1.000000000000000E-01
    4.600000000000000E-03    1.000000000000000E-01    1.000000000000000E-01
    4.700000000000000E-03    1.000000000000000E-01    1.000000000000000E-01
    4.800000000000000E-03    1.000000000000000E-01    1.000000000000000E-01
    4.900000000000000E-03    1.000000000000000E-01    1.000000000000000E-01
    5.000000000000000E-03    1.000000000000000E-01    1.000000000000000E-01
    5.100000000000000E-03    1.000000000000000E-01    1.000000000000000E-01
    5.200000000000001E-03    1.000000000000000E-01    1.000000000000000E-01
    5.300000000000000E-03    1.000000000000000E-01    1.000000000000000E-01
    5.400000000000000E-03    1.000000000000000E-01    1.000000000000000E-01
    5.500000000000001E-03    1.000000000000000E-01    1.000000000000000E-01
    5.600000000000000E-03    1.000000000000000E-01    1.000000000000000E-01
    5.700000000000000E-03    1.000000000000000E-01    1.000000000000000E-01
    5.800000000000000E-03    1.000000000000000E-01    1.000000000000000E-01
    5.900000000000000E-03    1.000000000000000E-01    1.000000000000000E-01
    6.000000000000000E-03    1.000000000000000E-01    1.000000000000000E-01
    6.100000000000000E-03    1.000000000000000E-01    1.000000000000000E-01
    6.200000000000001E-03    1.000000000000000E-01    1.000000000000000E-01
    6.300000000000000E-03    1.000000000000000E-01    1.000000000000000E-01
    6.400000000000000E-03    1.000000000000000E-01    1.000000000000000E-01
    6.500000000000001E-03    1.000000000000000E-01    1.000000000000000E-01
    6.600000000000000E-03    1.000000000000000E-01    1.000000000000000E-01
    6.700000000000000E-03    1.000000000000000E-01    1.000000000000000E-01
    6.800000000000000E-03    1.000000000000000E-01    1.000000000000000E-01
    6.900000000000001E-03    1.000000000000000E-01    1.000000000000000E-01
    7.000000000000000E-03    1.000000000000000E-01    1.000000000000000E-01
    7.100000000000000E-03    1.000000000000000E-01    1.000000000000000E-01
    7.200000000000001E-03    1.000000000000000E-01    1.000000000000000E-01
    7.300000000000000E-03    1.000000000000000E-01    1.000000000000000E-01
    7.400000000000000E-03    1.000000000000000E-01    1.000000000000000E-01
    7.500000000000001E-03    1.000000000000000E-01    1.000000000000000E-01
    7.600000000000000E-03    1.000000000000000E-01    1.000000000000000E-01
    7.700000000000000E-03    1.000000000000000E-01    1.000000000000000E-01
    7.800000000000001E-03    1.000000000000000E-01    1.000000000000000E-01
    7.900000000000001E-03    1.000000000000000E-01    1.000000000000000E-01
    8.000000000000000E-03    1.000000000000000E-01    1.000000000000000E-01
    8.100000000000000E-03    1.000000000000000E-01    1.000000000000000E-01
    8.200000000000001E-03    1.000000000000000E-01    1.000000000000000E-01
    8.300000000000000E-03    1.000000000000000E-01    1.000000000000000E-01
    8.400000000000001E-03    1.000000000000000E-01    1.000000000000000E-01
    8.500000000000001E-03    1.000000000000000E-01    1.000000000000000E-01
    8.600000000000000E-03    1.000000000000000E-01    1.000000000000000E-01
    8.700000000000001E-03    1.000000000000000E-01    1.000000000000000E-01
    8.800000000000001E-03    1.000000000000000E-01    1.000000000000000E-01
    8.900000000000000E-03    1.000000000000000E-01    1.000000000000000E-01
    9.000000000000001E-03    1.000000000000000E-01    1.000000000000000E-01
    9.100000000000000E-03    1.000000000000000E-01    1.000000000000000E-01
    9.200000000000000E-03    1.000000000000000E-01    1.000000000000000E-01
    9.300000000000001E-03    1.000000000000000E-01    1.000000000000000E-01
    9.400000000000000E-03    1.000000000000000E-01    1.000000000000000E-01
    9.500000000000000E-03    1.000000000000000E-01    1.000000000000000E-01
    9.600000000000001E-03    1.000000000000000E-01    1.000000000000000E-01
    9.700000000000000E-03    1.000000000000000E-01    1.000000000000000E-01
    9.800000000000000E-03    1.000000000000000E-01    1.000000000000000E-01
    9.900000000000001E-03    1.000000000000000E-01    1.000000000000000E-01
    1.000000000000000E-02    1.000000000000000E-01    1.000000000000000E-01
CELL_DATA          100
SCALARS temperature double 1
LOOKUP_TABLE default
    5.123146642465605E+02
    5.128170125110511E+02
    5.137121258097833E+02
    5.149662845077199E+02
    5.165494992483303E+02
    5.184351164235903E+02
    5.205994760482383E+02
    5.230215961819666E+02
    5.256828902256441E+02
    5.285669144839361E+02
    5.316591426951634E+02
    5.349467646469358E+02
    5.384185063118398E+02
    5.420644692104863E+02
    5.458759869535112E+02
    5.498454971324647E+02
    5.539664269245937E+02
    5.582330909508094E+02
    5.626406000818512E+02
    5.671847800267711E+02
    5.718620986621553E+02
    5.766696011715457E+02
    5.816048521637269E+02
    5.866658840271878E+02
    5.918511508572371E+02
    5.971594873630211E+02
    6.025900722248739E+02
    6.081423954289154E+02
    6.138162291562594E+02
    6.196116018492633E+02
    6.255287751175235E+02
    6.315682231822989E+02
    6.377306145901854E+02
    6.440167959555807E+02
    6.504277775171416E+02
    6.569647203163463E+02
    6.636289248267710E+02
    6.704218208809699E+02
    6.773449587582045E+02
    6.844000013108757E+02
    6.915887170205505E+02
    6.989129738861460E+02
    7.063747340572390E+02
    7.139760491347882E+02
    7.217190560698576E+02
    7.296059735983689E+02
    7.376390991565489E+02
    7.458208062276590E+02
    7.541535420759097E+02
    7.626398258281813E+02
    7.712822468684150E+02
    7.800834635133148E+02
    7.890462019413796E+02
    7.981732553503040E+02
    8.074674833204814E+02
    8.169318113647626E+02
    8.265692306467653E+02
    8.363827978519654E+02
    8.463756351975177E+02
    8.565509305682933E+02
    8.669119377679983E+02
    8.774619768754560E+02
    8.882044346972586E+02
    8.991427653089474E+02
    9.102804906777804E+02
    9.216212013609241E+02
    9.331685572736095E+02
    9.449262885224271E+02
    9.568981962994794E+02
    9.690881538336458E+02
    9.815001073956320E+02
    9.941380773538997E+02
    1.007006159278930E+03
    1.020108525093590E+03
    1.033449424267679E+03
    1.047033185054973E+03
    1.060864215771323E+03
    1.074947006112591E+03
    1.089286128511378E+03
    1.103886239531653E+03
    1.118752081300593E+03
    1.133888482977026E+03
    1.149300362256032E+03
    1.164992726909384E+03
    1.180970676361445E+03
    1.197239403300492E+03
    1.213804195325572E+03
    1.230670436628813E+03
    1.247843609712528E+03
    1.265329297139984E+03
    1.283133183327479E+03
    1.301261056373675E+03
    1.319718809914942E+03
    1.338512445002483E+03
    1.357648072006521E+03
    1.377131912819553E+03
    1.396970302496725E+03
    1.417169690629045E+03
    1.437736641245027E+03
    1.458677736033921E+03
